<?xml version="1.0" encoding="UTF-8"?><svg id="Calque_1" xmlns="http://www.w3.org/2000/svg" viewBox="0 0 6151.88 970.5"><defs><style>.cls-1{fill:#ff9572;}</style></defs><g><path class="cls-1" d="m1219.35,809.01l97.22-64.81,162.03-518.51-64.81-64.81h259.25l-97.22,64.81-162.03,518.51,32.4,32.41h162.03l97.22-162.03h32.41l-32.41,226.85-64.81-32.41h-421.29Z"/><path class="cls-1" d="m1899.9,193.29l32.41-32.41h32.41l32.4,32.41v32.41l-129.62,129.63h-32.41l64.81-162.03Z"/><path class="cls-1" d="m1867.5,809.01l97.22-64.81,388.87-518.51v-32.41l97.22-64.82v615.73l64.81,64.81h-226.84l64.81-64.81v-97.22l-32.4-32.41h-194.44l-97.22,129.63,64.81,64.81h-226.84Zm324.07-291.66l-32.41,64.82h162.03l32.4-32.41v-259.25l-162.03,226.84Z"/><path class="cls-1" d="m3066.56,517.35l-129.63,291.66h-64.81l-32.41-32.41,162.03-324.06-32.4-32.41-64.82,32.41-97.22,97.22-129.63,259.25h-64.81l-32.41-32.41,194.44-356.47h-32.41l-162.03,162.03-32.41-32.41,162.03-162.03,97.22-32.41,32.41,32.41v32.41l-32.41,64.81,97.22-97.22,97.22-32.41,64.82,32.41v64.82l64.82-64.82,97.22-32.41,97.22,32.41v97.22l-162.03,259.25h32.41l162.03-162.03,32.41,32.41-162.03,162.03-64.82,32.41h-64.81l-32.41-32.41v-32.41l162.03-291.66-32.41-32.41-64.81,32.41-64.82,64.81Z"/><path class="cls-1" d="m3552.69,809.01l-64.82-32.41-64.81-129.63,97.22-194.44,162.03-97.22,129.63,32.41,64.81,129.63-97.22,194.44-162.03,97.22h-64.81Zm129.63-388.88l-97.22,97.22-64.82,129.63,32.41,97.22h64.81l97.22-97.22,64.82-129.63-32.41-97.22h-64.81Z"/><path class="cls-1" d="m4524.9,614.57l-162.03,162.03-64.82,32.41h-32.41l-32.41-32.41v-64.81l-97.22,97.22h-64.81l-64.82-32.41-32.41-97.22,162.03-259.25h-32.4l-162.03,162.03-32.41-32.41,162.03-162.03,97.22-32.41,64.81,32.41v32.41l-162.03,259.25,32.41,64.81h32.4l129.63-129.63,129.63-226.85h64.82l32.4,32.41-194.44,324.07h32.41l162.03-162.03,32.41,32.41Z"/><path class="cls-1" d="m4524.92,549.76l162.03-162.03,97.22-32.41,32.41,32.41v32.41l-64.82,97.22h32.41l97.22-129.63,64.82-32.41,64.81,32.41-32.41,97.22h-97.22l-97.22,64.81-129.63,259.25h-64.81l-32.41-32.41,194.44-356.47h-32.41l-162.03,162.03-32.41-32.41Z"/></g><circle class="cls-1" cx="534.98" cy="484.95" r="300"/></svg>