<?xml version="1.0" encoding="UTF-8"?><svg id="Calque_1" xmlns="http://www.w3.org/2000/svg" viewBox="0 0 6299.83 970.5"><defs><style>.cls-1{fill:#ff8bb2;}</style></defs><g><path class="cls-1" d="m1651.9,718.74h-420.1l76.7-59.81v-385.62l-76.7-59.81h247.7l-79.51,61.93v392.66h160.44l101.33-134.41-9.85,185.07Z"/><path class="cls-1" d="m2000.22,536.48h-237.14c3.52,70.37,47.15,118.22,116.82,118.22,49.26,0,90.07-21.11,117.52-65.44,0,79.52-74.59,136.52-148.48,136.52-109.07,0-165.37-82.33-165.37-168.89,0-98.52,66.85-182.26,169.59-182.26,58.41,0,139.34,28.85,147.07,126.67v35.18Zm-90.07-35.18c0-55.59-23.21-93.59-67.55-93.59-38,0-78.81,33.07-79.52,93.59h147.07Z"/><path class="cls-1" d="m2297.87,617.41c0,54.88-44.33,108.37-125.26,108.37-31.67,0-56.3-7.74-76.7-21.82l-52.08,20.41-.7-133.7c14.78,23.92,24.63,36.59,40.11,52.07,33.07,31.66,48.55,44.33,90.78,44.33,22.52,0,48.55-11.26,48.55-44.33,0-26.04-19.7-40.11-68.96-54.19-65.44-18.29-109.07-46.44-109.07-111.18,0-72.48,64.04-102.74,119.63-102.74,23.93,0,52.08,5.63,73.18,21.11l48.56-24.63.71,130.18c-14.78-25.33-33.07-49.26-51.38-64.03-23.92-18.3-38.7-24.63-65.44-24.63-22.52,0-51.37,13.37-51.37,44.33,0,28.15,16.19,39.41,64.03,49.96,61.22,13.37,115.41,43.63,115.41,110.48Z"/><path class="cls-1" d="m2955.81,718.74h-439.8l76.7-59.81v-385.62l-76.7-59.81h429.95l11.96,175.22-95.7-125.26h-178.03v175.92h104.15l63.33-80.92v211.81l-64.75-82.33h-102.74v180.85h191.4l98.52-139.33-18.3,189.29Z"/><path class="cls-1" d="m3284.43,617.41c0,54.88-44.33,108.37-125.26,108.37-31.66,0-56.29-7.74-76.7-21.82l-52.07,20.41-.71-133.7c14.78,23.92,24.63,36.59,40.11,52.07,33.07,31.66,48.55,44.33,90.78,44.33,22.51,0,48.55-11.26,48.55-44.33,0-26.04-19.7-40.11-68.96-54.19-65.44-18.29-109.07-46.44-109.07-111.18,0-72.48,64.03-102.74,119.62-102.74,23.93,0,52.08,5.63,73.19,21.11l48.56-24.63.7,130.18c-14.78-25.33-33.07-49.26-51.37-64.03-23.92-18.3-38.7-24.63-65.44-24.63-22.52,0-51.37,13.37-51.37,44.33,0,28.15,16.19,39.41,64.03,49.96,61.22,13.37,115.4,43.63,115.4,110.48Z"/><path class="cls-1" d="m3591.94,617.41c0,54.88-44.33,108.37-125.26,108.37-31.67,0-56.3-7.74-76.7-21.82l-52.08,20.41-.7-133.7c14.78,23.92,24.63,36.59,40.11,52.07,33.07,31.66,48.55,44.33,90.78,44.33,22.52,0,48.55-11.26,48.55-44.33,0-26.04-19.7-40.11-68.96-54.19-65.44-18.29-109.07-46.44-109.07-111.18,0-72.48,64.04-102.74,119.63-102.74,23.93,0,52.08,5.63,73.18,21.11l48.56-24.63.71,130.18c-14.78-25.33-33.07-49.26-51.38-64.03-23.92-18.3-38.7-24.63-65.44-24.63-22.52,0-51.37,13.37-51.37,44.33,0,28.15,16.19,39.41,64.03,49.96,61.22,13.37,115.41,43.63,115.41,110.48Z"/><path class="cls-1" d="m3950.82,536.48h-237.14c3.52,70.37,47.15,118.22,116.81,118.22,49.27,0,90.07-21.11,117.52-65.44,0,79.52-74.59,136.52-148.48,136.52-109.07,0-165.36-82.33-165.36-168.89,0-98.52,66.85-182.26,169.59-182.26,58.41,0,139.33,28.85,147.07,126.67v35.18Zm-90.07-35.18c0-55.59-23.22-93.59-67.56-93.59-38,0-78.81,33.07-79.51,93.59h147.07Z"/><path class="cls-1" d="m4380.77,718.74h-189.29l49.96-49.26.71-137.22c0-27.44-1.41-53.48-10.56-71.07-10.56-19.7-29.56-28.85-54.89-28.85-39.41,0-69.67,30.96-69.67,68.96v167.48l54.89,49.96h-189.29l49.97-48.55v-199.15l-50.66-33.07,128.07-73.89,7.03,71.78v3.52c19-38.7,51.37-64.74,105.55-64.74,39.41,0,75.3,16.19,95,47.15,14.07,21.11,19,49.26,19,82.33l-.7,165.37,54.89,49.26Z"/><path class="cls-1" d="m4622.12,649.78c-7.03,49.96-38,76-92.18,76-78.81,0-95.71-49.26-95.71-129.48l.71-169.59h-49.26v-45.04h35.89l96.41-132.29v132.29h100.62v45.04h-99.22l-.71,157.63c0,68.26,12.67,85.85,51.37,85.85,20.41,0,35.18-6.33,52.07-20.41Z"/><path class="cls-1" d="m4637.6,718.74l49.97-48.55v-199.15l-50.67-33.07,135.11-73.89v304.7l54.89,49.96h-189.29Zm43.63-457.4c0-28.85,23.93-53.48,53.48-53.48s53.48,24.63,53.48,53.48-24.63,53.48-53.48,53.48c-30.26,0-53.48-23.93-53.48-53.48Z"/><path class="cls-1" d="m5163.95,536.48h-237.14c3.52,70.37,47.15,118.22,116.81,118.22,49.26,0,90.07-21.11,117.52-65.44,0,79.52-74.59,136.52-148.48,136.52-109.07,0-165.36-82.33-165.36-168.89,0-98.52,66.85-182.26,169.59-182.26,58.41,0,139.33,28.85,147.07,126.67v35.18Zm-90.07-35.18c0-55.59-23.22-93.59-67.55-93.59-38,0-78.81,33.07-79.52,93.59h147.07Z"/><path class="cls-1" d="m5184.35,718.74l49.96-48.55v-372.25l-50.66-33.07,135.11-73.89v477.81l54.89,49.96h-189.29Z"/><path class="cls-1" d="m5661.44,617.41c0,54.88-44.33,108.37-125.26,108.37-31.67,0-56.29-7.74-76.7-21.82l-52.07,20.41-.71-133.7c14.78,23.92,24.63,36.59,40.11,52.07,33.07,31.66,48.55,44.33,90.78,44.33,22.51,0,48.55-11.26,48.55-44.33,0-26.04-19.7-40.11-68.96-54.19-65.45-18.29-109.07-46.44-109.07-111.18,0-72.48,64.03-102.74,119.63-102.74,23.92,0,52.07,5.63,73.18,21.11l48.55-24.63.71,130.18c-14.77-25.33-33.07-49.26-51.37-64.03-23.93-18.3-38.7-24.63-65.44-24.63-22.52,0-51.37,13.37-51.37,44.33,0,28.15,16.19,39.41,64.03,49.96,61.22,13.37,115.4,43.63,115.4,110.48Z"/></g><circle class="cls-1" cx="547.42" cy="458.37" r="300"/></svg>