<?xml version="1.0" encoding="UTF-8"?><svg id="Calque_1" xmlns="http://www.w3.org/2000/svg" viewBox="0 0 6290.2 970.5"><defs><style>.cls-1{fill:#fff;}</style></defs><circle class="cls-1" cx="547.4" cy="527.3" r="300"/><path class="cls-1" d="m2011.68,92.15l-135.03,1.28h-39.11v.05h-164.16l.05-.05c-5.06,0-8.84,1.28-13.91,1.28-50.51,6.29-104.76,47.96-104.76,154v121.17l-2.81,247.86L1335.21,45.47h-2.6v-1.28h-117.39v1.28h-3.74l3.68,9.78-3.72,683.15c8.84,109.82-35.33,141.37-71.94,186.82l155.27,1.28v-.05c44.17-66.88,37.84-135.08,37.84-176.7v-382.05l209.57,557.52h132.48l7.57-559.13v-30.27c0-138.86,15.13-109.82,155.23-114.88h20.2v-.05h29.13l124.96-1.28h-.05v-127.46h-.02Z"/><polygon class="cls-1" points="2304.45 307.87 2237.33 467.85 2169.37 306.64 2044.41 306.64 2174.69 617.17 2044.46 927.59 2169.42 927.59 2237.33 766.49 2304.4 926.36 2430.63 926.36 2300.28 617.17 2430.68 307.87 2304.45 307.87"/><polygon class="cls-1" points="1804.67 306.73 1740.3 306.73 1740.3 926.45 1828.65 926.45 1828.65 926.4 2009.13 926.4 2009.13 812.8 1873.11 812.8 1873.11 607.11 2009.13 607.11 2009.13 493.5 1873.11 493.5 1873.11 420.29 2009.13 420.29 2009.13 306.68 1804.67 306.68 1804.67 306.73"/><path class="cls-1" d="m3102.12,554.07l.02-.02-275.28-240.99.11-.13c-88.35-79.5,0-150.21,130.02-143.87h165.35V41.59h-275.17c-146.43,0-314.28,177.98-103.48,371.08v-.05l.32-.39,53.42,48.75-3.28,207.94c-1.24,84.29-51.9,127.47-102.8,128.69h-2.01v.05c-51.32.11-102.21-42.48-102.21-128.74,0-287.8,5.06-118.67,5.06-362.24h-122.4l-3.78,362.24c0,146.42,53.01,259.97,227.19,259.99,17.77,0,34.19-1.34,49.47-3.78h250.88c157.77,0,315.55-179.19,108.57-371.06h0Zm-178,243.55h-27.72c13.3-37.81,18.92-81.64,18.92-128.69l1.04-99.42,92.34,84.26c97.16,106.02,31.52,143.85-84.58,143.85Z"/></svg>