<?xml version="1.0" encoding="UTF-8"?><svg id="Calque_1" xmlns="http://www.w3.org/2000/svg" viewBox="0 0 6177.88 970.5"><defs><style>.cls-1{fill:#f91b00;}</style></defs><g><path class="cls-1" d="m1384.62,27.23h50.91l-70.2,499.86h254.56l-6.18,46.29h-305.47L1384.62,27.23Z"/><path class="cls-1" d="m2004.82,506.26c-22.11,27.26-47.19,46.8-75.21,58.62-28.03,11.83-57.98,17.75-89.86,17.75-27.26,0-51.29-4.63-72.12-13.88-20.83-9.26-38.06-22.24-51.68-38.96-13.63-16.71-23.14-36.51-28.54-59.4-5.4-22.87-6.05-48.21-1.93-75.98,3.59-26.73,11.43-51.42,23.53-74.05,12.07-22.63,27.25-42.29,45.51-59.02,18.25-16.7,38.82-29.82,61.71-39.34,22.88-9.51,47.44-14.27,73.67-14.27s50.64,4.76,70.19,14.27c19.54,9.52,35.35,22.12,47.44,37.8,12.07,15.69,20.31,33.55,24.69,53.61,4.36,20.05,5.01,40.38,1.93,60.94l-4.63,32.4h-299.3c-1.54,9.77-1.42,22.25.39,37.41,1.8,15.18,6.81,29.97,15.04,44.36,8.22,14.4,20.18,26.74,35.87,37.03,15.68,10.29,37.14,15.43,64.41,15.43,23.64,0,47.44-5.65,71.35-16.97,23.92-11.3,43.07-26.73,57.47-46.28l30.08,28.54Zm-16.2-141.16c2.04-15.93,1.02-30.85-3.09-44.74-4.12-13.89-11.06-26.1-20.82-36.64-9.78-10.54-21.74-18.9-35.87-25.07-14.15-6.17-29.7-9.25-46.67-9.25-25.2,0-46.94,5.15-65.18,15.43-18.26,10.29-33.31,22.11-45.12,35.48-11.84,13.38-20.71,26.36-26.61,38.96-5.92,12.61-9.14,21.21-9.64,25.84h253.01Z"/><path class="cls-1" d="m2122.84,482.35c7.19,19.03,19.54,33.55,37.03,43.58,17.48,10.02,36.76,15.04,57.85,15.04,9.77,0,19.8-1.54,30.08-4.63,10.28-3.08,19.67-7.45,28.16-13.11,8.49-5.66,15.68-12.46,21.6-20.44,5.9-7.96,9.64-17.09,11.19-27.38,1.54-12.34-.13-22.24-5.01-29.7-4.9-7.45-11.96-13.51-21.21-18.13-9.26-4.63-19.94-8.48-32.02-11.57-12.09-3.09-24.56-6.04-37.41-8.87-12.86-2.82-25.34-6.3-37.41-10.42-12.09-4.11-22.63-9.76-31.63-16.97-9-7.19-15.81-16.32-20.44-27.38-4.63-11.05-5.67-25.07-3.09-42.04,2.57-17.48,8.35-32.65,17.36-45.51,8.99-12.85,19.92-23.53,32.78-32.02,12.85-8.49,26.73-14.78,41.66-18.9,14.9-4.11,29.82-6.17,44.74-6.17,29.31,0,53.87,5.4,73.67,16.2,19.79,10.79,34.06,27.76,42.81,50.91l-45.51,24.68c-6.69-16.45-15.81-28.93-27.39-37.41-11.57-8.49-27.9-12.73-48.98-12.73-8.23,0-16.97,1.29-26.23,3.86-9.26,2.58-18.01,6.17-26.23,10.8-8.23,4.63-15.17,10.55-20.82,17.75-5.67,7.2-9.25,15.42-10.8,24.68-2.06,15.94,1.54,27.77,10.8,35.49,9.25,7.71,21.47,13.76,36.64,18.12,15.16,4.38,31.62,8.1,49.36,11.19,17.75,3.08,33.94,8.1,48.6,15.04,14.66,6.95,26.23,16.97,34.72,30.09,8.48,13.11,11.18,31.76,8.09,55.93-2.57,18.51-8.36,34.59-17.35,48.21-9,13.63-20.05,25.06-33.17,34.32-13.11,9.25-27.76,16.2-43.97,20.83-16.2,4.63-32.78,6.94-49.76,6.94-30.85,0-58.24-5.92-82.15-17.75-23.91-11.82-41.01-30.08-51.29-54.77l44.74-27.77Z"/><path class="cls-1" d="m2728.37,27.23h50.91l-70.2,499.86h254.56l-6.17,46.29h-305.47l76.36-546.15Z"/><path class="cls-1" d="m3322.34,423.72c-2.58,17.49-4.77,33.17-6.56,47.05-1.81,13.89-3.22,26.75-4.24,38.57-1.03,11.84-1.81,22.89-2.31,33.17-.52,10.29-.77,20.58-.77,30.86h-43.2c-.52-8.74-.52-18,0-27.78.51-9.76,1.55-19.79,3.09-30.08h-1.54c-16.47,23.14-35.37,40.11-56.7,50.91-21.34,10.79-47.18,16.2-77.53,16.2-15.42,0-30.35-1.93-44.74-5.79-14.4-3.85-27-10.02-37.8-18.51-10.8-8.49-18.9-19.4-24.29-32.78-5.4-13.37-6.82-29.57-4.25-48.59,3.59-27.25,13.62-48.85,30.08-64.8,16.45-15.94,35.35-27.89,56.7-35.87,21.33-7.97,43.58-13.11,66.73-15.43,23.14-2.31,43.44-3.48,60.94-3.48h54l3.09-21.6c4.11-30.85-2.31-52.96-19.28-66.33-16.97-13.37-39.86-20.06-68.66-20.06-41.65,0-79.97,13.38-114.93,40.11l-22.37-31.62c19.54-16.45,42.43-28.93,68.66-37.42,26.23-8.48,50.91-12.73,74.05-12.73,43.2,0,76.23,10.16,99.12,30.47,22.88,20.32,31.24,53.1,25.07,98.35l-12.34,87.17Zm-88.71-29.31c-19.55,0-38.7,1.29-57.47,3.86-18.78,2.58-35.75,6.94-50.91,13.11-15.18,6.17-28.04,14.4-38.57,24.69-10.55,10.29-16.85,23.14-18.9,38.57-1.54,10.79-.52,20.44,3.09,28.93,3.59,8.48,8.87,15.42,15.81,20.82,6.94,5.4,15.04,9.52,24.29,12.34,9.26,2.83,18.77,4.24,28.54,4.24,24.68,0,45.51-3.59,62.48-10.79,16.97-7.2,30.98-16.59,42.04-28.16,11.05-11.57,19.54-24.68,25.46-39.33,5.9-14.66,9.9-29.43,11.96-44.36l3.08-23.91h-50.91Z"/><path class="cls-1" d="m3460.41,317.27c1.03-6.68,2.05-14.78,3.09-24.3,1.02-9.51,1.93-19.15,2.7-28.93.77-9.76,1.54-18.9,2.31-27.38.77-8.49,1.41-15.04,1.93-19.67h46.29c-1.04,13.38-2.31,26.23-3.86,38.57-1.54,12.34-2.06,20.32-1.54,23.92,14.91-21.08,32.52-38.31,52.84-51.69,20.31-13.37,43.84-20.05,70.58-20.05,8.22,0,16.97,1.29,26.23,3.86l-11.57,45.51c-5.67-2.05-11.32-3.09-16.97-3.09-20.06,0-37.8,3.22-53.23,9.64-15.43,6.44-28.81,15.31-40.11,26.61-11.32,11.32-20.32,24.57-27,39.73-6.69,15.17-11.32,31.5-13.89,48.98l-27,194.39h-46.29l35.48-256.1Z"/><path class="cls-1" d="m3717.28,317.27c1.03-6.68,2.05-14.78,3.09-24.3,1.02-9.51,1.93-19.15,2.7-28.93.77-9.76,1.54-18.9,2.31-27.38.77-8.49,1.41-15.04,1.93-19.67h46.29c-1.04,13.38-2.31,26.23-3.86,38.57-1.54,12.34-2.06,20.32-1.54,23.92h2.31c6.17-9.77,13.75-19.03,22.76-27.78,8.99-8.74,19.14-16.31,30.47-22.75,11.3-6.42,23.65-11.57,37.03-15.43,13.37-3.85,27.25-5.78,41.66-5.78,23.65,0,44.47,6.05,62.48,18.13,17.99,12.09,29.31,31.76,33.94,59.01,14.91-26.74,34.45-46.28,58.62-58.62,24.17-12.34,48.6-18.52,73.28-18.52,27.77,0,49.87,4.37,66.34,13.11,16.45,8.75,28.66,20.19,36.64,34.33,7.97,14.15,12.46,30.47,13.5,48.98,1.02,18.52.25,37.54-2.31,57.08l-29.31,212.13h-46.29l29.31-209.82c2.05-14.39,2.82-28.41,2.31-42.05-.52-13.61-3.35-25.84-8.49-36.64-5.14-10.8-12.99-19.41-23.52-25.84-10.55-6.42-25.07-9.64-43.58-9.64-21.6,0-39.86,3.99-54.77,11.96-14.92,7.99-27.38,18.13-37.41,30.47-10.02,12.34-17.74,25.73-23.14,40.11-5.4,14.4-8.87,28.03-10.41,40.88l-27.77,200.56h-46.28l30.08-214.44c4.63-32.91,2.31-59.4-6.95-79.45-9.25-20.06-26.49-30.09-51.68-30.09-16.97,0-33.44,2.97-49.37,8.87-15.95,5.92-30.35,14.92-43.2,27-12.86,12.1-23.79,27.27-32.78,45.52-9,18.26-15.31,39.73-18.9,64.41l-24.68,178.19h-46.29l35.48-256.1Z"/><path class="cls-1" d="m4662.99,506.26c-22.11,27.26-47.19,46.8-75.21,58.62-28.03,11.83-57.98,17.75-89.86,17.75-27.26,0-51.29-4.63-72.12-13.88-20.83-9.26-38.06-22.24-51.68-38.96-13.63-16.71-23.14-36.51-28.54-59.4-5.4-22.87-6.05-48.21-1.93-75.98,3.59-26.73,11.44-51.42,23.52-74.05,12.08-22.63,27.25-42.29,45.52-59.02,18.25-16.7,38.82-29.82,61.71-39.34,22.88-9.51,47.44-14.27,73.67-14.27s50.65,4.76,70.2,14.27c19.54,9.52,35.35,22.12,47.44,37.8,12.07,15.69,20.31,33.55,24.68,53.61,4.36,20.05,5.01,40.38,1.93,60.94l-4.63,32.4h-299.3c-1.54,9.77-1.42,22.25.39,37.41,1.79,15.18,6.81,29.97,15.04,44.36,8.22,14.4,20.18,26.74,35.87,37.03,15.68,10.29,37.15,15.43,64.41,15.43,23.65,0,47.44-5.65,71.35-16.97,23.91-11.3,43.06-26.73,57.47-46.28l30.08,28.54Zm-16.2-141.16c2.05-15.93,1.03-30.85-3.08-44.74-4.12-13.89-11.06-26.1-20.83-36.64-9.77-10.54-21.73-18.9-35.87-25.07-14.15-6.17-29.7-9.25-46.67-9.25-25.2,0-46.94,5.15-65.18,15.43-18.26,10.29-33.3,22.11-45.13,35.48-11.83,13.38-20.71,26.36-26.61,38.96-5.91,12.61-9.14,21.21-9.64,25.84h253.01Z"/><path class="cls-1" d="m4781.02,482.35c7.19,19.03,19.54,33.55,37.03,43.58,17.48,10.02,36.76,15.04,57.85,15.04,9.77,0,19.79-1.54,30.08-4.63,10.28-3.08,19.67-7.45,28.16-13.11,8.49-5.66,15.68-12.46,21.6-20.44,5.91-7.96,9.64-17.09,11.19-27.38,1.54-12.34-.13-22.24-5.01-29.7-4.9-7.45-11.96-13.51-21.22-18.13-9.25-4.63-19.94-8.48-32.01-11.57-12.09-3.09-24.56-6.04-37.41-8.87-12.86-2.82-25.33-6.3-37.41-10.42-12.09-4.11-22.64-9.76-31.63-16.97-9-7.19-15.81-16.32-20.44-27.38-4.63-11.05-5.67-25.07-3.08-42.04,2.57-17.48,8.35-32.65,17.35-45.51,8.99-12.85,19.92-23.53,32.78-32.02,12.85-8.49,26.74-14.78,41.66-18.9,14.91-4.11,29.81-6.17,44.74-6.17,29.31,0,53.86,5.4,73.66,16.2,19.8,10.79,34.07,27.76,42.81,50.91l-45.51,24.68c-6.69-16.45-15.81-28.93-27.39-37.41-11.57-8.49-27.9-12.73-48.98-12.73-8.23,0-16.97,1.29-26.23,3.86-9.26,2.58-18.01,6.17-26.23,10.8-8.23,4.63-15.18,10.55-20.83,17.75-5.67,7.2-9.25,15.42-10.8,24.68-2.06,15.94,1.54,27.77,10.8,35.49,9.25,7.71,21.46,13.76,36.64,18.12,15.16,4.38,31.63,8.1,49.37,11.19,17.75,3.08,33.94,8.1,48.6,15.04,14.66,6.95,26.23,16.97,34.71,30.09,8.49,13.11,11.19,31.76,8.1,55.93-2.58,18.51-8.37,34.59-17.36,48.21-9,13.63-20.05,25.06-33.17,34.32-13.12,9.25-27.77,16.2-43.97,20.83-16.2,4.63-32.78,6.94-49.76,6.94-30.85,0-58.24-5.92-82.15-17.75-23.91-11.82-41.01-30.08-51.29-54.77l44.74-27.77Z"/><path class="cls-1" d="m1578.64,909.16h-106.45v-49.37h-1.54c-4.63,6.69-10.68,13.51-18.12,20.45-7.46,6.94-16.2,13.25-26.23,18.9-10.02,5.66-21.09,10.28-33.17,13.88-12.09,3.59-24.56,5.4-37.41,5.4-27.78,0-52.97-4.76-75.6-14.27-22.63-9.51-42.04-22.88-58.24-40.11-16.2-17.22-28.67-37.67-37.41-61.32-8.75-23.65-13.12-49.62-13.12-77.91,0-26.23,3.98-51.29,11.96-75.21,7.97-23.92,19.28-45.13,33.94-63.64,14.66-18.52,32.52-33.29,53.61-44.36,21.08-11.05,44.99-16.58,71.74-16.58,24.17,0,46.67,3.73,67.5,11.19,20.83,7.46,37.92,20.19,51.3,38.19h1.54v-248.39h115.71v583.17Zm-106.45-187.45c0-28.28-8.1-51.17-24.3-68.65-16.2-17.48-38.95-26.23-68.27-26.23s-52.07,8.75-68.27,26.23c-16.2,17.49-24.3,40.38-24.3,68.65s8.1,51.18,24.3,68.65c16.2,17.49,38.96,26.23,68.27,26.23s52.06-8.74,68.27-26.23c16.2-17.48,24.3-40.37,24.3-68.65Z"/><path class="cls-1" d="m2032.21,909.16h-111.08v-50.91h-1.54c-4.12,7.21-9.38,14.4-15.81,21.6-6.44,7.21-14.27,13.63-23.53,19.28-9.25,5.66-19.8,10.28-31.62,13.88-11.84,3.59-24.69,5.4-38.57,5.4-29.31,0-53.11-4.51-71.36-13.5-18.26-8.99-32.39-21.46-42.42-37.41-10.03-15.93-16.72-34.71-20.06-56.31-3.35-21.6-5.01-44.99-5.01-70.2v-206.73h115.71v183.59c0,10.8.39,21.99,1.16,33.55.77,11.57,3.08,22.25,6.94,32.02,3.85,9.77,9.76,17.74,17.74,23.91,7.97,6.17,19.41,9.25,34.32,9.25s27-2.7,36.26-8.1c9.26-5.4,16.33-12.6,21.22-21.6,4.88-8.99,8.1-19.15,9.64-30.47,1.54-11.3,2.31-23.14,2.31-35.48v-186.68h115.71v374.9Z"/><path class="cls-1" d="m2462.63,469.47h-155.82v-106.45h431.98v106.45h-155.82v439.69h-120.34v-439.69Z"/><path class="cls-1" d="m2943.2,862.1h-1.54c-12.86,20.06-29.97,34.46-51.29,43.2-21.35,8.74-43.85,13.12-67.5,13.12-17.49,0-34.33-2.45-50.53-7.33-16.2-4.89-30.47-12.21-42.81-21.99-12.34-9.76-22.11-21.85-29.31-36.26-7.21-14.39-10.8-31.11-10.8-50.14,0-21.6,3.98-39.85,11.96-54.77,7.97-14.92,18.77-27.26,32.4-37.03,13.62-9.76,29.17-17.36,46.67-22.76,17.48-5.4,35.6-9.38,54.38-11.96,18.77-2.57,37.53-4.11,56.31-4.63,18.77-.51,36.12-.76,52.07-.76,0-20.57-7.33-36.9-21.99-48.99-14.66-12.07-32.02-18.13-52.06-18.13s-36.39,3.99-52.08,11.96c-15.69,7.98-29.7,18.9-42.03,32.78l-61.72-63.26c21.6-20.05,46.79-35.09,75.6-45.12,28.79-10.03,58.62-15.04,89.48-15.04,33.94,0,61.83,4.24,83.69,12.73,21.86,8.48,39.34,20.96,52.45,37.41,13.12,16.47,22.24,36.64,27.39,60.56,5.13,23.91,7.72,51.56,7.72,82.93v190.53h-106.45v-47.06Zm-28.54-117.25c-8.75,0-19.67.39-32.78,1.16-13.11.77-25.73,2.96-37.8,6.56-12.09,3.6-22.37,9-30.85,16.2-8.49,7.21-12.73,17.23-12.73,30.08,0,13.89,5.91,24.18,17.75,30.86,11.82,6.68,24.17,10.02,37.03,10.02,11.3,0,22.24-1.54,32.78-4.63,10.54-3.08,19.92-7.45,28.15-13.11,8.22-5.65,14.78-12.85,19.67-21.6,4.88-8.74,7.33-19.02,7.33-30.85v-24.69h-28.54Z"/><path class="cls-1" d="m3483.16,909.16h-111.08v-50.91h-1.54c-4.12,7.21-9.39,14.4-15.82,21.6-6.44,7.21-14.27,13.63-23.52,19.28-9.25,5.66-19.8,10.28-31.63,13.88-11.84,3.59-24.68,5.4-38.57,5.4-29.31,0-53.1-4.51-71.35-13.5-18.26-8.99-32.4-21.46-42.43-37.41-10.03-15.93-16.72-34.71-20.05-56.31-3.36-21.6-5.01-44.99-5.01-70.2v-206.73h115.71v183.59c0,10.8.39,21.99,1.15,33.55.77,11.57,3.09,22.25,6.95,32.02,3.86,9.77,9.77,17.74,17.74,23.91,7.97,6.17,19.4,9.25,34.33,9.25s27-2.7,36.26-8.1c9.25-5.4,16.31-12.6,21.21-21.6,4.88-8.99,8.1-19.15,9.64-30.47,1.54-11.3,2.31-23.14,2.31-35.48v-186.68h115.71v374.9Z"/><path class="cls-1" d="m3564.92,534.26h115.71v60.17h1.55c12.34-23.14,27-40.5,43.97-52.06,16.97-11.57,38.31-17.36,64.03-17.36,6.67,0,13.37.27,20.05.77,6.68.52,12.85,1.54,18.52,3.08v105.68c-8.23-2.57-16.34-4.5-24.3-5.79-7.98-1.28-16.34-1.93-25.07-1.93-22.11,0-39.6,3.08-52.45,9.25-12.86,6.17-22.76,14.79-29.7,25.84-6.95,11.07-11.45,24.3-13.5,39.73-2.06,15.43-3.09,32.4-3.09,50.91v156.59h-115.71v-374.9Z"/><path class="cls-1" d="m4219.83,844.37c-18.52,23.65-41.92,41.92-70.2,54.77-28.29,12.85-57.6,19.28-87.94,19.28s-55.93-4.63-81.38-13.88c-25.45-9.26-47.57-22.49-66.34-39.73-18.77-17.22-33.55-37.91-44.35-62.09-10.8-24.17-16.2-51.17-16.2-81s5.4-56.82,16.2-81c10.8-24.17,25.58-44.86,44.35-62.09,18.77-17.22,40.89-30.47,66.34-39.73,25.46-9.25,52.58-13.88,81.38-13.88,26.73,0,51.03,4.63,72.89,13.88,21.86,9.26,40.37,22.51,55.54,39.73,15.16,17.23,26.87,37.93,35.1,62.09,8.22,24.18,12.34,51.18,12.34,81v36.26h-268.44c4.63,22.12,14.66,39.73,30.08,52.84,15.43,13.11,34.45,19.67,57.08,19.67,19.02,0,35.1-4.25,48.21-12.73,13.11-8.49,24.55-19.41,34.33-32.79l81,59.4Zm-97.97-165.08c.51-19.54-5.92-36.26-19.28-50.14-13.38-13.88-30.6-20.83-51.68-20.83-12.86,0-24.18,2.06-33.94,6.17-9.78,4.12-18.13,9.39-25.07,15.81-6.94,6.44-12.34,13.89-16.2,22.37-3.86,8.49-6.05,17.36-6.55,26.61h152.73Z"/><path class="cls-1" d="m4543.03,862.1h-1.54c-12.86,20.06-29.96,34.46-51.29,43.2-21.35,8.74-43.85,13.12-67.5,13.12-17.49,0-34.33-2.45-50.53-7.33-16.2-4.89-30.47-12.21-42.81-21.99-12.34-9.76-22.11-21.85-29.31-36.26-7.2-14.39-10.8-31.11-10.8-50.14,0-21.6,3.98-39.85,11.96-54.77,7.96-14.92,18.76-27.26,32.4-37.03,13.62-9.76,29.18-17.36,46.67-22.76,17.48-5.4,35.6-9.38,54.38-11.96,18.76-2.57,37.53-4.11,56.31-4.63,18.77-.51,36.12-.76,52.07-.76,0-20.57-7.33-36.9-21.99-48.99-14.66-12.07-32.01-18.13-52.07-18.13s-36.38,3.99-52.06,11.96c-15.7,7.98-29.7,18.9-42.05,32.78l-61.71-63.26c21.6-20.05,46.79-35.09,75.59-45.12,28.79-10.03,58.62-15.04,89.48-15.04,33.94,0,61.83,4.24,83.69,12.73,21.85,8.48,39.34,20.96,52.46,37.41,13.11,16.47,22.23,36.64,27.38,60.56,5.13,23.91,7.72,51.56,7.72,82.93v190.53h-106.45v-47.06Zm-28.54-117.25c-8.75,0-19.67.39-32.78,1.16-13.11.77-25.72,2.96-37.8,6.56-12.09,3.6-22.37,9-30.85,16.2-8.49,7.21-12.73,17.23-12.73,30.08,0,13.89,5.91,24.18,17.75,30.86,11.82,6.68,24.17,10.02,37.03,10.02,11.3,0,22.24-1.54,32.78-4.63,10.53-3.08,19.92-7.45,28.15-13.11,8.22-5.65,14.78-12.85,19.67-21.6,4.88-8.74,7.33-19.02,7.33-30.85v-24.69h-28.54Z"/><path class="cls-1" d="m5083,909.16h-111.08v-50.91h-1.54c-4.12,7.21-9.39,14.4-15.81,21.6-6.44,7.21-14.27,13.63-23.52,19.28-9.26,5.66-19.81,10.28-31.63,13.88-11.84,3.59-24.69,5.4-38.57,5.4-29.31,0-53.11-4.51-71.35-13.5-18.26-8.99-32.4-21.46-42.43-37.41-10.02-15.93-16.72-34.71-20.05-56.31-3.35-21.6-5.01-44.99-5.01-70.2v-206.73h115.71v183.59c0,10.8.39,21.99,1.16,33.55.77,11.57,3.09,22.25,6.94,32.02,3.86,9.77,9.77,17.74,17.75,23.91,7.96,6.17,19.4,9.25,34.32,9.25s27-2.7,36.26-8.1c9.25-5.4,16.32-12.6,21.21-21.6,4.89-8.99,8.1-19.15,9.64-30.47,1.54-11.3,2.32-23.14,2.32-35.48v-186.68h115.71v374.9Z"/></g><circle class="cls-1" cx="534.98" cy="484.82" r="300"/></svg>