<?xml version="1.0" encoding="UTF-8"?><svg id="Calque_1" xmlns="http://www.w3.org/2000/svg" viewBox="0 0 800 800"><defs><style>.cls-1{fill:#1370da;}</style></defs><g><path class="cls-1" d="m169.62,308.51c7.41-.13,12.35-1.56,13.13-8.19l5.59-46.02c.91-7.15-2.6-11.7-8.06-10.66-5.46,1.04-10.14,10.92-12.09,14.95l-15.73,32.24c-4.16,8.58-11.44,10.27-16.25,10.27-7.67,0-13.91-6.37-13.91-14.43,0-5.59,3.9-10.66,9.88-15.47l26.13-20.8c11.31-8.97,15.99-12.35,24.44-12.35,7.8,0,13.13,5.59,14.82,14.43l11.83,62.53c2.73,14.56-1.69,25.74-15.08,25.74-10.66,0-15.73-6.76-15.73-14.69v-6.76c0-7.15-3.77-8.06-8.32-4.16l-12.74,10.92c-5.98,5.07-15.6,14.69-26.26,14.69-7.54,0-15.99-4.29-15.99-16.51,0-10.4,9.36-14.69,20.8-14.95l33.54-.78Z"/><path class="cls-1" d="m231.37,258.59c1.95-13.91,7.15-20.54,15.99-20.54,7.41,0,15.73,4.94,15.73,14.82,0,3.38-1.04,7.41-3.51,12.09l-27.43,50.96c-2.21,4.03-3.77,7.54-3.77,10.14,0,3.38,2.86,5.59,5.07,5.59,2.73,0,6.5-2.86,13.13-7.93l11.96-9.23c4.94-3.77,9.49-5.33,13.39-5.33,8.58,0,14.3,7.41,14.3,14.82s-5.59,14.82-19.24,14.82h-25.87c-14.17,0-17.94-4.81-17.94-18.2,0-2.08.13-4.42.52-7.02l7.67-54.99Z"/><path class="cls-1" d="m299.49,259.5l14.69-16.9c2.73-3.12,6.5-4.55,10.27-4.55,6.63,0,13,4.55,13,12.35,0,7.28-4.42,10.66-10.66,12.87l-14.3,4.94c-1.69.52-2.47,1.69-2.47,2.99,0,2.21,2.21,2.21,3.38,2.08l8.84-1.04c13.13-1.56,17.55,9.49,8.97,19.37l-24.83,28.34c-2.08,2.34-2.73,3.38-2.73,4.68,0,2.6,2.21,4.81,4.68,3.77l15.6-6.76c5.46-2.34,11.83-1.56,12.61,5.98.91,8.71-9.49,13.13-19.5,13.13-14.82,0-21.71-9.88-18.2-22.88l10.53-38.48c.26-.91.39-1.69.39-2.34,0-2.99-2.34-4.03-6.5-4.03h-5.59c-3.25,0-4.29-1.82-4.29-4.16,0-2.08,2.86-5.59,6.11-9.36Z"/><path class="cls-1" d="m389.44,269.64c4.94,6.24,4.42,13.13-3.51,18.46l-20.93,14.3c-9.75,6.63-1.17,22.49,8.84,16.51l54.99-32.76c12.48-7.41,21.84-2.99,22.36,7.67l1.3,27.3c.65,14.04-5.72,19.63-15.34,19.63s-17.29-10.01-8.71-23.14l13.91-21.45c2.73-4.16-.52-7.15-3.38-7.15-2.47,0-4.42.26-9.1,6.5l-21.32,27.82c-10.01,13.13-15.47,17.42-27.17,17.42-15.34,0-29.64-16.64-29.64-49.53s20.41-53.17,49.92-53.17c24.7,0,41.08,8.06,45.11,21.84,3.64,12.22-14.17,19.89-22.36,9.1l-14.43-18.98c-4.29-5.59-12.74-8.32-20.54-4.94-9.1,3.9-8.58,13.78-3.77,19.76l3.77,4.81Z"/><path class="cls-1" d="m468.09,308.9v-35.1c0-29.25,6.11-35.75,20.02-35.75,10.27,0,15.99,8.06,23.79,20.28l30.81,48.23c3.12,4.94,4.94,6.76,7.28,6.76,3.25,0,4.81-1.43,4.81-4.29,0-2.34-1.04-5.33-2.73-9.62l-11.96-30.81c-3.25-8.32-2.99-12.48-2.99-15.6,0-6.63,3.38-15.08,14.3-15.08,12.87,0,16.77,12.48,15.47,24.44l-6.63,60.19c-1.43,12.48-5.72,18.2-14.17,18.2-7.93,0-11.96-5.59-21.19-18.33l-21.58-29.9c-5.2-7.15-10.66-18.72-8.97-29.51l1.17-7.41c1.04-6.63-2.99-10.01-7.67-10.01-7.28,0-11.57,5.46-11.57,12.87,0,3.64,1.17,9.49,2.34,12.35l17.68,43.29c5.85,14.43,3.25,26.65-10.79,26.65-17.03,0-17.42-13-17.42-31.85Z"/><path class="cls-1" d="m605.11,253.78c-7.54-.65-10.92,2.86-10.92,6.5s2.99,6.37,10.92,7.41l46.54,5.72c9.88,1.17,13.26,7.15,13.26,13.39,0,4.81-1.82,10.92-13.26,14.56l-50.7,16.12c-6.11,1.95-7.15,4.55-7.15,7.8,0,2.86,3.51,8.19,9.88,5.98l53.17-18.59c11.18-3.9,17.03-.78,17.42,7.02.39,7.41-3.25,11.57-10.14,14.82-7.54,3.51-27.04,6.5-44.46,6.37-17.29,0-32.89-3.9-32.89-16.9,0-4.81,3.25-9.49,9.1-13.65l38.74-26.91c5.2-3.64,2.6-8.45-3.38-5.98l-26,10.66c-12.74,5.2-23.79-1.04-23.79-12.87,0-23.66,28.34-37.05,61.62-37.05,23.27,0,31.2,5.33,31.2,13.52,0,4.16-2.21,8.06-11.96,7.15l-57.2-5.07Z"/><path class="cls-1" d="m114.69,416.83c2.87,7.63,1.33,13.02-6.16,13.02-6.72,0-8.12-3.85-8.26-11.27l-.77-34.23c-.07-4.41-.84-6.23-2.73-6.23-2.38,0-3.08,2.31-3.08,5.39v3.08c0,9.66-2.03,14.28-8.4,14.07-4.48-.14-7.84-3.99-7.84-8.33,0-9.73,7.7-16.73,20.37-16.73h23.94c7.28,0,9.59,4.2,9.59,7.77,0,8.05-10.36,12.11-16.8,4.97l-7.84-8.75c-.7-.77-1.47-1.12-2.1-1.12-1.89,0-2.59,1.61-1.19,5.6l11.27,32.76Z"/><path class="cls-1" d="m146.54,383.01c-4.06-.35-5.88,1.54-5.88,3.5s1.61,3.43,5.88,3.99l25.06,3.08c5.32.63,7.14,3.85,7.14,7.21,0,2.59-.98,5.88-7.14,7.84l-27.3,8.68c-3.29,1.05-3.85,2.45-3.85,4.2,0,1.54,1.89,4.41,5.32,3.22l28.63-10.01c6.02-2.1,9.17-.42,9.38,3.78.21,3.99-1.75,6.23-5.46,7.98-4.06,1.89-14.56,3.5-23.94,3.43-9.31,0-17.71-2.1-17.71-9.1,0-2.59,1.75-5.11,4.9-7.35l20.86-14.49c2.8-1.96,1.4-4.55-1.82-3.22l-14,5.74c-6.86,2.8-12.81-.56-12.81-6.93,0-12.74,15.26-19.95,33.18-19.95,12.53,0,16.8,2.87,16.8,7.28,0,2.24-1.19,4.34-6.44,3.85l-30.8-2.73Z"/><path class="cls-1" d="m243.07,391.62c0,3.85-1.54,8.33-5.74,8.33-3.36,0-5.46-2.87-5.46-5.81v-11.9c0-3.36-2.1-5.11-6.3-3.08l-24.5,11.83c-2.94,1.4-5.46,2.52-4.76,5.11.7,2.59,2.87,2.94,5.25,1.82l14.84-6.86c6.65-3.08,11.2,1.4,11.34,6.44l.07,2.66c.07,2.59,1.19,2.94,3.99,3.57l4.41,1.05c2.87.7,4.76,3.5,4.76,6.37,0,12.18-12.46,18.83-24.78,18.83s-24.08-5.18-24.08-17.78c0-4.97,1.89-8.4,6.02-8.4,2.73,0,6.86,2.66,3.08,8.33l-3.08,4.62c-.84,1.26-.63,2.52.07,3.01,1.12.77,2.59.7,4.9.21l30.17-6.51c3.01-.63,3.71-1.96,3.5-3.43-.21-1.54-1.12-2.17-3.36-2.59l-35.63-6.44c-3.99-.7-5.95-3.5-5.95-6.86,0-9.73,12.67-19.53,28.7-19.53s22.54,8.89,22.54,17.01Z"/><path class="cls-1" d="m306.21,375.59c15.33,0,22.12,7.56,22.12,21.77,0,10.5-4.41,18.41-14.98,18.41-6.02,0-10.15-2.45-14.84-8.61l-8.05-10.57c-1.75-2.24-5.04-2.38-7.21,0-1.89,2.1-1.54,5.18.28,7.21l8.61,9.66c2.87,3.29,4.06,5.95,4.06,9.38,0,4.9-3.01,7-8.4,7-4.83,0-9.24-1.61-9.24-10.43v-30.17c0-7.84,4.27-13.65,13.37-13.65h14.28Zm-14.91,17.64l24.29,12.32c7.07,3.57,10.99-.91,7.35-6.09l-10.64-15.26c-2.52-3.57-3.78-3.92-7.56-2.38l-12.95,5.32c-1.82.77-2.94,1.47-2.94,2.94,0,1.19.7,2.24,2.45,3.15Z"/><path class="cls-1" d="m339.03,385.61c1.05-7.49,3.85-11.06,8.61-11.06,3.99,0,8.47,2.66,8.47,7.98,0,1.82-.56,3.99-1.89,6.51l-14.77,27.44c-1.19,2.17-2.03,4.06-2.03,5.46,0,1.82,1.54,3.01,2.73,3.01,1.47,0,3.5-1.54,7.07-4.27l6.44-4.97c2.66-2.03,5.11-2.87,7.21-2.87,4.62,0,7.7,3.99,7.7,7.98s-3.01,7.98-10.36,7.98h-13.93c-7.63,0-9.66-2.59-9.66-9.8,0-1.12.07-2.38.28-3.78l4.13-29.61Z"/><path class="cls-1" d="m403.09,412.49c3.99-.07,6.65-.84,7.07-4.41l3.01-24.78c.49-3.85-1.4-6.3-4.34-5.74-2.94.56-5.46,5.88-6.51,8.05l-8.47,17.36c-2.24,4.62-6.16,5.53-8.75,5.53-4.13,0-7.49-3.43-7.49-7.77,0-3.01,2.1-5.74,5.32-8.33l14.07-11.2c6.09-4.83,8.61-6.65,13.16-6.65,4.2,0,7.07,3.01,7.98,7.77l6.37,33.67c1.47,7.84-.91,13.86-8.12,13.86-5.74,0-8.47-3.64-8.47-7.91v-3.64c0-3.85-2.03-4.34-4.48-2.24l-6.86,5.88c-3.22,2.73-8.4,7.91-14.14,7.91-4.06,0-8.61-2.31-8.61-8.89,0-5.6,5.04-7.91,11.2-8.05l18.06-.42Z"/><path class="cls-1" d="m431.92,412.7v-18.9c0-15.75,3.29-19.25,10.78-19.25,5.53,0,8.61,4.34,12.81,10.92l16.59,25.97c1.68,2.66,2.66,3.64,3.92,3.64,1.75,0,2.59-.77,2.59-2.31,0-1.26-.56-2.87-1.47-5.18l-6.44-16.59c-1.75-4.48-1.61-6.72-1.61-8.4,0-3.57,1.82-8.12,7.7-8.12,6.93,0,9.03,6.72,8.33,13.16l-3.57,32.41c-.77,6.72-3.08,9.8-7.63,9.8-4.27,0-6.44-3.01-11.41-9.87l-11.62-16.1c-2.8-3.85-5.74-10.08-4.83-15.89l.63-3.99c.56-3.57-1.61-5.39-4.13-5.39-3.92,0-6.23,2.94-6.23,6.93,0,1.96.63,5.11,1.26,6.65l9.52,23.31c3.15,7.77,1.75,14.35-5.81,14.35-9.17,0-9.38-7-9.38-17.15Z"/><path class="cls-1" d="m505.7,383.01c-4.06-.35-5.88,1.54-5.88,3.5s1.61,3.43,5.88,3.99l25.06,3.08c5.32.63,7.14,3.85,7.14,7.21,0,2.59-.98,5.88-7.14,7.84l-27.3,8.68c-3.29,1.05-3.85,2.45-3.85,4.2,0,1.54,1.89,4.41,5.32,3.22l28.63-10.01c6.02-2.1,9.17-.42,9.38,3.78.21,3.99-1.75,6.23-5.46,7.98-4.06,1.89-14.56,3.5-23.94,3.43-9.31,0-17.71-2.1-17.71-9.1,0-2.59,1.75-5.11,4.9-7.35l20.86-14.49c2.8-1.96,1.4-4.55-1.82-3.22l-14,5.74c-6.86,2.8-12.81-.56-12.81-6.93,0-12.74,15.26-19.95,33.18-19.95,12.53,0,16.8,2.87,16.8,7.28,0,2.24-1.19,4.34-6.44,3.85l-30.8-2.73Zm8.19-12.95c-3.99-.77-4.97-3.43-4.13-6.16.98-3.29,5.18-4.34,7.98-2.03l10.22,8.4c.91.77.21,2.52-1.26,2.24l-12.81-2.45Z"/><path class="cls-1" d="m584.73,416.83c2.87,7.63,1.33,13.02-6.16,13.02-6.72,0-8.12-3.85-8.26-11.27l-.77-34.23c-.07-4.41-.84-6.23-2.73-6.23-2.38,0-3.08,2.31-3.08,5.39v3.08c0,9.66-2.03,14.28-8.4,14.07-4.48-.14-7.84-3.99-7.84-8.33,0-9.73,7.7-16.73,20.37-16.73h23.94c7.28,0,9.59,4.2,9.59,7.77,0,8.05-10.36,12.11-16.8,4.97l-7.84-8.75c-.7-.77-1.47-1.12-2.1-1.12-1.89,0-2.59,1.61-1.19,5.6l11.27,32.76Z"/><path class="cls-1" d="m616.58,383.01c-4.06-.35-5.88,1.54-5.88,3.5s1.61,3.43,5.88,3.99l25.06,3.08c5.32.63,7.14,3.85,7.14,7.21,0,2.59-.98,5.88-7.14,7.84l-27.3,8.68c-3.29,1.05-3.85,2.45-3.85,4.2,0,1.54,1.89,4.41,5.32,3.22l28.63-10.01c6.02-2.1,9.17-.42,9.38,3.78.21,3.99-1.75,6.23-5.46,7.98-4.06,1.89-14.56,3.5-23.94,3.43-9.31,0-17.71-2.1-17.71-9.1,0-2.59,1.75-5.11,4.9-7.35l20.86-14.49c2.8-1.96,1.4-4.55-1.82-3.22l-14,5.74c-6.86,2.8-12.81-.56-12.81-6.93,0-12.74,15.26-19.95,33.18-19.95,12.53,0,16.8,2.87,16.8,7.28,0,2.24-1.19,4.34-6.44,3.85l-30.8-2.73Z"/><path class="cls-1" d="m713.12,391.62c0,3.85-1.54,8.33-5.74,8.33-3.36,0-5.46-2.87-5.46-5.81v-11.9c0-3.36-2.1-5.11-6.3-3.08l-24.5,11.83c-2.94,1.4-5.46,2.52-4.76,5.11.7,2.59,2.87,2.94,5.25,1.82l14.84-6.86c6.65-3.08,11.2,1.4,11.34,6.44l.07,2.66c.07,2.59,1.19,2.94,3.99,3.57l4.41,1.05c2.87.7,4.76,3.5,4.76,6.37,0,12.18-12.46,18.83-24.78,18.83s-24.08-5.18-24.08-17.78c0-4.97,1.89-8.4,6.02-8.4,2.73,0,6.86,2.66,3.08,8.33l-3.08,4.62c-.84,1.26-.63,2.52.07,3.01,1.12.77,2.59.7,4.9.21l30.17-6.51c3.01-.63,3.71-1.96,3.5-3.43-.21-1.54-1.12-2.17-3.36-2.59l-35.63-6.44c-3.99-.7-5.95-3.5-5.95-6.86,0-9.73,12.67-19.53,28.7-19.53s22.54,8.89,22.54,17.01Z"/></g><g><path class="cls-1" d="m83.61,490.5l8.52-8.46c.3-.28.59-.59.87-.92.28-.33.53-.68.75-1.04.22-.36.39-.74.52-1.14.13-.4.2-.82.2-1.26,0-.52-.1-.99-.29-1.41-.19-.42-.45-.77-.78-1.06-.33-.29-.72-.51-1.17-.67-.45-.16-.93-.24-1.42-.24-1.04,0-1.9.29-2.58.87-.68.58-1.11,1.38-1.29,2.4l-3.12-.27c.14-.94.42-1.75.83-2.45.41-.69.92-1.26,1.53-1.72.61-.46,1.31-.8,2.1-1.02.79-.22,1.65-.33,2.56-.33s1.79.12,2.6.38c.81.25,1.52.62,2.13,1.11.61.49,1.09,1.1,1.44,1.83.35.73.52,1.58.52,2.56,0,.7-.1,1.36-.31,1.97s-.48,1.18-.82,1.72c-.34.54-.73,1.05-1.17,1.53-.44.48-.9.95-1.38,1.41l-6.99,6.75h10.68v2.52h-13.92v-3.06Z"/><path class="cls-1" d="m99.93,482.94c0-.78.04-1.59.12-2.43.08-.84.23-1.67.44-2.48.21-.81.49-1.58.84-2.32.35-.74.8-1.38,1.35-1.94.55-.55,1.2-.99,1.95-1.32.75-.33,1.62-.49,2.62-.49s1.88.17,2.62.49c.75.33,1.4.77,1.95,1.32.55.55,1,1.2,1.35,1.94.35.74.63,1.51.84,2.32.21.81.35,1.64.44,2.48.08.84.12,1.65.12,2.43,0,1.12-.1,2.32-.3,3.6-.2,1.28-.57,2.47-1.11,3.57-.54,1.1-1.29,2.01-2.23,2.73-.95.72-2.18,1.08-3.68,1.08s-2.73-.36-3.67-1.08c-.95-.72-1.69-1.63-2.23-2.73-.54-1.1-.91-2.29-1.11-3.57-.2-1.28-.3-2.48-.3-3.6Zm2.88,0c0,.7.04,1.53.14,2.49.09.96.28,1.88.58,2.77.3.89.74,1.65,1.33,2.27.59.62,1.38.93,2.38.93s1.79-.31,2.39-.93c.59-.62,1.03-1.38,1.33-2.27.3-.89.5-1.81.58-2.77s.13-1.79.13-2.49c0-.48-.01-1.02-.04-1.63-.03-.61-.1-1.23-.21-1.86s-.27-1.24-.46-1.83c-.2-.59-.46-1.12-.79-1.59-.33-.47-.74-.84-1.22-1.12-.48-.28-1.05-.42-1.71-.42s-1.23.14-1.71.42c-.48.28-.88.66-1.21,1.12-.33.47-.6,1-.79,1.59-.2.59-.36,1.2-.47,1.83s-.18,1.25-.21,1.86c-.03.61-.04,1.16-.04,1.63Z"/><path class="cls-1" d="m116.97,490.5l8.52-8.46c.3-.28.59-.59.87-.92.28-.33.53-.68.75-1.04.22-.36.39-.74.52-1.14.13-.4.2-.82.2-1.26,0-.52-.1-.99-.29-1.41-.19-.42-.45-.77-.78-1.06-.33-.29-.72-.51-1.17-.67-.45-.16-.93-.24-1.42-.24-1.04,0-1.9.29-2.58.87-.68.58-1.11,1.38-1.29,2.4l-3.12-.27c.14-.94.42-1.75.83-2.45.41-.69.92-1.26,1.53-1.72.61-.46,1.31-.8,2.1-1.02.79-.22,1.65-.33,2.56-.33s1.79.12,2.6.38c.81.25,1.52.62,2.13,1.11.61.49,1.09,1.1,1.44,1.83.35.73.52,1.58.52,2.56,0,.7-.1,1.36-.31,1.97s-.48,1.18-.82,1.72c-.34.54-.73,1.05-1.17,1.53-.44.48-.9.95-1.38,1.41l-6.99,6.75h10.68v2.52h-13.92v-3.06Z"/><path class="cls-1" d="m133.65,490.5l8.52-8.46c.3-.28.59-.59.87-.92.28-.33.53-.68.75-1.04.22-.36.39-.74.52-1.14.13-.4.2-.82.2-1.26,0-.52-.1-.99-.29-1.41-.19-.42-.45-.77-.78-1.06-.33-.29-.72-.51-1.17-.67-.45-.16-.93-.24-1.42-.24-1.04,0-1.9.29-2.58.87-.68.58-1.11,1.38-1.29,2.4l-3.12-.27c.14-.94.42-1.75.83-2.45.41-.69.92-1.26,1.53-1.72.61-.46,1.31-.8,2.1-1.02.79-.22,1.65-.33,2.56-.33s1.79.12,2.6.38c.81.25,1.52.62,2.13,1.11.61.49,1.09,1.1,1.44,1.83.35.73.52,1.58.52,2.56,0,.7-.1,1.36-.31,1.97s-.48,1.18-.82,1.72c-.34.54-.73,1.05-1.17,1.53-.44.48-.9.95-1.38,1.41l-6.99,6.75h10.68v2.52h-13.92v-3.06Z"/><path class="cls-1" d="m165.72,487.56h-7.38v-2.52h7.38v2.52Z"/><path class="cls-1" d="m178.47,489.12c.52.78,1.19,1.36,2,1.73s1.65.55,2.5.55c.48,0,.97-.08,1.47-.22.5-.15.95-.38,1.36-.67.41-.3.75-.67,1.01-1.11.26-.44.39-.95.39-1.53,0-.82-.26-1.44-.78-1.88-.52-.43-1.17-.79-1.94-1.08-.77-.29-1.61-.57-2.52-.84-.91-.27-1.75-.64-2.52-1.12-.77-.48-1.42-1.12-1.94-1.93-.52-.81-.78-1.91-.78-3.29,0-.62.13-1.28.4-1.98.27-.7.69-1.34,1.27-1.92s1.32-1.06,2.24-1.46c.91-.39,2-.58,3.28-.58,1.16,0,2.27.16,3.33.48s1.99.97,2.79,1.95l-2.34,2.13c-.36-.56-.87-1.01-1.53-1.35-.66-.34-1.41-.51-2.25-.51s-1.47.11-1.99.32c-.53.21-.96.48-1.28.81s-.54.69-.67,1.07c-.13.38-.19.73-.19,1.05,0,.9.26,1.59.78,2.07.52.48,1.17.87,1.94,1.17.77.3,1.61.57,2.52.81.91.24,1.75.58,2.52,1,.77.43,1.41,1.01,1.94,1.74.52.73.78,1.74.78,3.01,0,1.02-.19,1.94-.58,2.76s-.92,1.51-1.57,2.07c-.66.56-1.44.99-2.34,1.29s-1.86.45-2.88.45c-1.36,0-2.65-.24-3.87-.72-1.22-.48-2.19-1.22-2.91-2.22l2.37-2.04Z"/><path class="cls-1" d="m192.15,479.34h3.12l4.21,11.1h.06l4.04-11.1h2.88l-6.75,17.28c-.24.62-.49,1.19-.75,1.7s-.57.95-.93,1.3c-.36.36-.79.64-1.3.84-.51.2-1.13.3-1.87.3-.4,0-.8-.03-1.21-.08-.41-.05-.8-.16-1.18-.32l.33-2.46c.54.22,1.07.33,1.61.33.42,0,.77-.05,1.06-.17.29-.11.54-.27.75-.48.21-.21.38-.46.52-.74s.28-.6.42-.96l.87-2.25-5.88-14.31Z"/><path class="cls-1" d="m216.39,482.91c-.32-.4-.72-.73-1.19-1-.47-.27-1.05-.4-1.73-.4-.64,0-1.2.13-1.67.4-.47.27-.71.67-.71,1.19,0,.42.14.76.41,1.02.27.26.59.47.96.63.37.16.77.28,1.19.36s.78.15,1.08.21c.58.14,1.12.31,1.63.51.51.2.95.46,1.32.78.37.32.66.71.87,1.17s.31,1.02.31,1.68c0,.8-.17,1.49-.51,2.06-.34.57-.78,1.04-1.32,1.39-.54.36-1.15.62-1.84.78s-1.39.24-2.08.24c-1.18,0-2.22-.18-3.1-.54-.89-.36-1.69-1.02-2.39-1.98l2.04-1.68c.44.44.93.83,1.47,1.17s1.2.51,1.98.51c.34,0,.68-.03,1.04-.1.35-.07.66-.18.93-.33.27-.15.49-.34.66-.57.17-.23.25-.5.25-.79,0-.4-.12-.73-.38-.99-.25-.26-.55-.46-.9-.62-.35-.15-.72-.27-1.11-.36-.39-.09-.74-.17-1.04-.23-.58-.14-1.13-.3-1.65-.48-.52-.18-.98-.42-1.38-.72-.4-.3-.72-.68-.96-1.14-.24-.46-.36-1.03-.36-1.71,0-.74.15-1.38.46-1.93s.72-1,1.23-1.37c.51-.36,1.09-.63,1.74-.81.65-.18,1.31-.27,1.96-.27.96,0,1.88.18,2.76.54.88.36,1.58.96,2.1,1.8l-2.1,1.59Z"/><path class="cls-1" d="m229.77,481.68h-3.87v6.45c0,.4,0,.79.03,1.18s.09.74.23,1.05c.13.31.33.56.6.75.27.19.66.29,1.19.29.32,0,.65-.03.99-.09.34-.06.65-.17.93-.33v2.46c-.32.18-.73.3-1.25.38-.51.07-.91.11-1.19.11-1.04,0-1.84-.15-2.42-.44-.57-.29-.99-.66-1.26-1.12-.27-.46-.43-.97-.48-1.54-.05-.57-.08-1.14-.08-1.72v-7.41h-3.12v-2.34h3.12v-3.99h2.7v3.99h3.87v2.34Z"/><path class="cls-1" d="m235.29,487.44c0,.62.13,1.19.4,1.7s.62.94,1.06,1.3.95.64,1.53.84c.58.2,1.18.3,1.8.3.84,0,1.57-.19,2.19-.58.62-.39,1.19-.9,1.71-1.54l2.04,1.56c-1.5,1.94-3.6,2.91-6.3,2.91-1.12,0-2.14-.19-3.04-.57-.91-.38-1.68-.9-2.31-1.58-.63-.67-1.12-1.46-1.46-2.37-.34-.91-.51-1.89-.51-2.96s.18-2.04.55-2.96c.37-.91.88-1.7,1.53-2.37.65-.67,1.42-1.2,2.32-1.58s1.88-.57,2.94-.57c1.26,0,2.33.22,3.2.66.87.44,1.58,1.02,2.15,1.72.56.71.96,1.51,1.21,2.4.25.89.38,1.79.38,2.71v.96h-11.4Zm6.24-10.8h-2.49l-4.47-4.32h3.84l3.12,4.32Zm2.28,8.64c-.02-.6-.12-1.15-.29-1.65s-.43-.93-.77-1.31c-.34-.37-.76-.66-1.27-.87-.51-.21-1.1-.31-1.78-.31s-1.27.12-1.82.38c-.55.25-1.02.58-1.4.97-.38.4-.67.85-.88,1.33-.21.49-.31.98-.31,1.46h8.52Z"/><path class="cls-1" d="m249.93,479.34h2.52v2.22h.06c.06-.2.21-.45.46-.75.25-.3.57-.58.96-.86.39-.27.85-.5,1.38-.69.53-.19,1.11-.29,1.76-.29,1.06,0,1.95.22,2.67.66.72.44,1.31,1.1,1.77,1.98.46-.88,1.11-1.54,1.95-1.98.84-.44,1.69-.66,2.55-.66,1.1,0,2,.18,2.7.54s1.25.83,1.65,1.42c.4.59.67,1.26.82,2.01s.23,1.53.23,2.33v8.28h-2.7v-7.92c0-.54-.04-1.06-.1-1.56-.07-.5-.21-.94-.44-1.32s-.53-.68-.93-.92c-.4-.23-.93-.34-1.59-.34-1.3,0-2.23.4-2.79,1.2-.56.8-.84,1.83-.84,3.09v7.77h-2.7v-7.44c0-.68-.04-1.3-.1-1.86-.07-.56-.21-1.04-.42-1.46-.21-.41-.51-.73-.9-.96-.39-.23-.92-.34-1.57-.34-.48,0-.95.09-1.4.28-.45.19-.85.48-1.19.86-.34.38-.61.87-.81,1.46-.2.59-.3,1.29-.3,2.08v7.38h-2.7v-14.22Z"/><path class="cls-1" d="m277.53,487.44c0,.62.13,1.19.4,1.7s.62.94,1.06,1.3.95.64,1.53.84c.58.2,1.18.3,1.8.3.84,0,1.57-.19,2.19-.58.62-.39,1.19-.9,1.71-1.54l2.04,1.56c-1.5,1.94-3.6,2.91-6.3,2.91-1.12,0-2.14-.19-3.04-.57-.91-.38-1.68-.9-2.31-1.58-.63-.67-1.12-1.46-1.46-2.37-.34-.91-.51-1.89-.51-2.96s.18-2.04.55-2.96c.37-.91.88-1.7,1.53-2.37.65-.67,1.42-1.2,2.32-1.58s1.88-.57,2.94-.57c1.26,0,2.33.22,3.2.66.87.44,1.58,1.02,2.15,1.72.56.71.96,1.51,1.21,2.4.25.89.38,1.79.38,2.71v.96h-11.4Zm8.52-2.16c-.02-.6-.12-1.15-.29-1.65s-.43-.93-.77-1.31c-.34-.37-.76-.66-1.27-.87-.51-.21-1.1-.31-1.78-.31s-1.27.12-1.82.38c-.55.25-1.02.58-1.4.97-.38.4-.67.85-.88,1.33-.21.49-.31.98-.31,1.46h8.52Z"/><path class="cls-1" d="m314.76,493.56h-2.7v-2.04h-.06c-.52.76-1.23,1.35-2.15,1.77-.91.42-1.84.63-2.8.63-1.1,0-2.1-.19-2.98-.57-.89-.38-1.65-.91-2.28-1.59s-1.12-1.47-1.46-2.37c-.34-.9-.51-1.88-.51-2.94s.17-2.04.51-2.96c.34-.91.83-1.7,1.46-2.37s1.39-1.2,2.28-1.58c.89-.38,1.88-.57,2.98-.57,1.02,0,1.98.21,2.88.65.9.43,1.59,1.01,2.07,1.75h.06v-10.5h2.7v22.68Zm-7.38-2.16c.72,0,1.37-.12,1.95-.38s1.07-.59,1.47-1.02c.4-.43.71-.95.93-1.56.22-.61.33-1.27.33-2s-.11-1.38-.33-2c-.22-.61-.53-1.13-.93-1.56-.4-.43-.89-.77-1.47-1.02s-1.23-.38-1.95-.38-1.37.12-1.95.38-1.07.59-1.47,1.02c-.4.43-.71.95-.93,1.56-.22.61-.33,1.28-.33,2s.11,1.39.33,2c.22.61.53,1.13.93,1.56.4.43.89.77,1.47,1.02s1.23.38,1.95.38Z"/><path class="cls-1" d="m320.88,487.44c0,.62.13,1.19.4,1.7s.62.94,1.06,1.3.95.64,1.53.84c.58.2,1.18.3,1.8.3.84,0,1.57-.19,2.19-.58.62-.39,1.19-.9,1.71-1.54l2.04,1.56c-1.5,1.94-3.6,2.91-6.3,2.91-1.12,0-2.14-.19-3.04-.57-.91-.38-1.68-.9-2.31-1.58-.63-.67-1.12-1.46-1.46-2.37-.34-.91-.51-1.89-.51-2.96s.18-2.04.55-2.96c.37-.91.88-1.7,1.53-2.37.65-.67,1.42-1.2,2.32-1.58s1.88-.57,2.94-.57c1.26,0,2.33.22,3.2.66.87.44,1.58,1.02,2.15,1.72.56.71.96,1.51,1.21,2.4.25.89.38,1.79.38,2.71v.96h-11.4Zm8.52-2.16c-.02-.6-.12-1.15-.29-1.65s-.43-.93-.77-1.31c-.34-.37-.76-.66-1.27-.87-.51-.21-1.1-.31-1.78-.31s-1.27.12-1.82.38c-.55.25-1.02.58-1.4.97-.38.4-.67.85-.88,1.33-.21.49-.31.98-.31,1.46h8.52Z"/><path class="cls-1" d="m354.03,483.12c-.5-.52-1.02-.92-1.58-1.18s-1.21-.41-1.96-.41-1.39.14-1.94.41c-.55.27-1.01.64-1.38,1.11-.37.47-.65,1.01-.84,1.62-.19.61-.29,1.24-.29,1.9s.11,1.29.33,1.88c.22.59.53,1.11.93,1.54.4.44.88.79,1.44,1.04.56.25,1.19.38,1.89.38.76,0,1.41-.13,1.95-.41.54-.27,1.04-.66,1.5-1.18l1.92,1.92c-.7.78-1.52,1.34-2.44,1.68-.93.34-1.92.51-2.96.51-1.1,0-2.1-.18-3.02-.54-.91-.36-1.69-.87-2.35-1.52-.66-.65-1.17-1.43-1.53-2.34-.36-.91-.54-1.92-.54-3.01s.18-2.11.54-3.03c.36-.92.86-1.71,1.51-2.37s1.43-1.17,2.34-1.54c.91-.37,1.92-.55,3.04-.55,1.04,0,2.03.18,2.98.55.95.37,1.77.94,2.48,1.7l-2.04,1.86Z"/><path class="cls-1" d="m357.63,486.45c0-1.04.19-2.01.58-2.91.39-.9.92-1.69,1.6-2.37.68-.68,1.48-1.22,2.4-1.61s1.91-.58,2.97-.58,2.05.2,2.97.58,1.72.93,2.4,1.61c.68.68,1.22,1.47,1.6,2.37.39.9.59,1.87.59,2.91s-.2,2.02-.59,2.93c-.39.91-.93,1.7-1.6,2.37-.68.67-1.48,1.2-2.4,1.59-.92.39-1.91.58-2.97.58s-2.05-.2-2.97-.58c-.92-.39-1.72-.92-2.4-1.59-.68-.67-1.21-1.46-1.6-2.37s-.58-1.89-.58-2.93Zm2.88,0c0,.72.11,1.39.33,2,.22.61.53,1.13.93,1.56.4.43.89.77,1.47,1.02s1.23.38,1.95.38,1.37-.12,1.95-.38,1.07-.59,1.47-1.02c.4-.43.71-.95.93-1.56.22-.61.33-1.27.33-2s-.11-1.38-.33-2c-.22-.61-.53-1.13-.93-1.56-.4-.43-.89-.77-1.47-1.02s-1.23-.38-1.95-.38-1.37.12-1.95.38-1.07.59-1.47,1.02c-.4.43-.71.95-.93,1.56-.22.61-.33,1.28-.33,2Z"/><path class="cls-1" d="m376.14,479.34h2.52v2.22h.06c.06-.2.21-.45.46-.75.25-.3.57-.58.96-.86.39-.27.85-.5,1.38-.69.53-.19,1.11-.29,1.76-.29,1.06,0,1.95.22,2.67.66.72.44,1.31,1.1,1.77,1.98.46-.88,1.11-1.54,1.95-1.98.84-.44,1.69-.66,2.55-.66,1.1,0,2,.18,2.7.54s1.25.83,1.65,1.42c.4.59.67,1.26.82,2.01s.23,1.53.23,2.33v8.28h-2.7v-7.92c0-.54-.04-1.06-.1-1.56-.07-.5-.21-.94-.44-1.32s-.53-.68-.93-.92c-.4-.23-.93-.34-1.59-.34-1.3,0-2.23.4-2.79,1.2-.56.8-.84,1.83-.84,3.09v7.77h-2.7v-7.44c0-.68-.04-1.3-.1-1.86-.07-.56-.21-1.04-.42-1.46-.21-.41-.51-.73-.9-.96-.39-.23-.92-.34-1.57-.34-.48,0-.95.09-1.4.28-.45.19-.85.48-1.19.86-.34.38-.61.87-.81,1.46-.2.59-.3,1.29-.3,2.08v7.38h-2.7v-14.22Z"/><path class="cls-1" d="m401.7,479.34h2.52v2.22h.06c.06-.2.21-.45.46-.75.25-.3.57-.58.96-.86.39-.27.85-.5,1.38-.69.53-.19,1.11-.29,1.76-.29,1.06,0,1.95.22,2.67.66.72.44,1.31,1.1,1.77,1.98.46-.88,1.11-1.54,1.95-1.98.84-.44,1.69-.66,2.55-.66,1.1,0,2,.18,2.7.54s1.25.83,1.65,1.42c.4.59.67,1.26.82,2.01s.23,1.53.23,2.33v8.28h-2.7v-7.92c0-.54-.04-1.06-.1-1.56-.07-.5-.21-.94-.44-1.32s-.53-.68-.93-.92c-.4-.23-.93-.34-1.59-.34-1.3,0-2.23.4-2.79,1.2-.56.8-.84,1.83-.84,3.09v7.77h-2.7v-7.44c0-.68-.04-1.3-.1-1.86-.07-.56-.21-1.04-.42-1.46-.21-.41-.51-.73-.9-.96-.39-.23-.92-.34-1.57-.34-.48,0-.95.09-1.4.28-.45.19-.85.48-1.19.86-.34.38-.61.87-.81,1.46-.2.59-.3,1.29-.3,2.08v7.38h-2.7v-14.22Z"/><path class="cls-1" d="m439.86,493.56h-2.7v-2.19h-.06c-.34.76-.93,1.38-1.77,1.85s-1.81.71-2.91.71c-.7,0-1.36-.11-1.98-.32-.62-.21-1.16-.54-1.63-.97-.47-.44-.84-1-1.12-1.7-.28-.69-.42-1.5-.42-2.45v-9.15h2.7v8.4c0,.66.09,1.23.27,1.7s.42.85.72,1.14c.3.29.64.5,1.03.63.39.13.79.2,1.22.2.56,0,1.08-.09,1.56-.27.48-.18.9-.46,1.26-.86.36-.39.64-.88.84-1.48.2-.6.3-1.31.3-2.13v-7.32h2.7v14.22Z"/><path class="cls-1" d="m443.94,479.34h2.7v2.19h.06c.34-.76.93-1.38,1.77-1.84s1.81-.71,2.91-.71c.68,0,1.33.11,1.96.32s1.18.54,1.65.97c.47.44.84,1,1.12,1.7.28.69.42,1.5.42,2.44v9.15h-2.7v-8.4c0-.66-.09-1.22-.27-1.69s-.42-.85-.72-1.14c-.3-.29-.65-.5-1.04-.63-.39-.13-.79-.19-1.21-.19-.56,0-1.08.09-1.56.27-.48.18-.9.46-1.26.86-.36.39-.64.88-.84,1.48-.2.6-.3,1.31-.3,2.13v7.32h-2.7v-14.22Z"/><path class="cls-1" d="m460.2,474.24c0-.54.2-1,.58-1.39.39-.39.85-.58,1.39-.58s1.01.19,1.4.58c.39.39.58.85.58,1.39s-.2,1-.58,1.4c-.39.39-.86.58-1.4.58s-1-.2-1.39-.58c-.39-.39-.58-.86-.58-1.4Zm.63,5.1h2.7v14.22h-2.7v-14.22Z"/><path class="cls-1" d="m477.99,483.12c-.5-.52-1.03-.92-1.58-1.18s-1.21-.41-1.96-.41-1.38.14-1.93.41c-.55.27-1.01.64-1.38,1.11-.37.47-.65,1.01-.84,1.62-.19.61-.28,1.24-.28,1.9s.11,1.29.33,1.88c.22.59.53,1.11.93,1.54.4.44.88.79,1.44,1.04s1.19.38,1.89.38c.76,0,1.41-.13,1.95-.41.54-.27,1.04-.66,1.5-1.18l1.92,1.92c-.7.78-1.52,1.34-2.45,1.68s-1.92.51-2.96.51c-1.1,0-2.11-.18-3.01-.54-.91-.36-1.7-.87-2.36-1.52-.66-.65-1.17-1.43-1.53-2.34-.36-.91-.54-1.92-.54-3.01s.18-2.11.54-3.03c.36-.92.87-1.71,1.52-2.37.65-.66,1.43-1.17,2.34-1.54s1.92-.55,3.04-.55c1.04,0,2.04.18,2.99.55.95.37,1.77.94,2.47,1.7l-2.04,1.86Z"/><path class="cls-1" d="m482.34,481.08c.76-.7,1.64-1.22,2.64-1.57,1-.35,2-.53,3-.53s1.93.13,2.68.39c.75.26,1.37.61,1.84,1.05.48.44.83.94,1.07,1.51.23.57.34,1.17.34,1.79v7.26c0,.5,0,.96.03,1.38.02.42.05.82.09,1.2h-2.4c-.06-.72-.09-1.44-.09-2.16h-.06c-.6.92-1.31,1.57-2.13,1.95-.82.38-1.77.57-2.85.57-.66,0-1.29-.09-1.89-.27-.6-.18-1.12-.45-1.58-.81-.45-.36-.8-.8-1.06-1.33-.26-.53-.39-1.14-.39-1.85,0-.92.21-1.69.62-2.31s.97-1.12,1.68-1.51c.71-.39,1.54-.67,2.49-.84.95-.17,1.96-.25,3.04-.25h1.98v-.6c0-.36-.07-.72-.21-1.08-.14-.36-.35-.68-.63-.97-.28-.29-.63-.52-1.05-.69-.42-.17-.92-.25-1.5-.25-.52,0-.97.05-1.36.15-.39.1-.75.22-1.07.38-.32.15-.61.33-.87.52-.26.2-.51.39-.75.57l-1.62-1.68Zm7.62,5.64c-.64,0-1.29.04-1.96.1-.67.07-1.28.21-1.83.41-.55.2-1,.48-1.35.84-.35.36-.53.82-.53,1.38,0,.82.27,1.41.83,1.77.55.36,1.29.54,2.24.54.74,0,1.37-.12,1.89-.38.52-.25.94-.58,1.26-.98.32-.4.55-.84.69-1.33.14-.49.21-.97.21-1.46v-.9h-1.44Z"/><path class="cls-1" d="m505.47,481.68h-3.87v6.45c0,.4,0,.79.03,1.18.02.39.09.74.22,1.05.13.31.33.56.6.75.27.19.67.29,1.19.29.32,0,.65-.03.99-.09.34-.06.65-.17.93-.33v2.46c-.32.18-.74.3-1.25.38s-.91.11-1.18.11c-1.04,0-1.85-.15-2.42-.44-.57-.29-.99-.66-1.26-1.12-.27-.46-.43-.97-.48-1.54s-.08-1.14-.08-1.72v-7.41h-3.12v-2.34h3.12v-3.99h2.7v3.99h3.87v2.34Z"/><path class="cls-1" d="m508.53,474.24c0-.54.2-1,.58-1.39.39-.39.85-.58,1.39-.58s1.01.19,1.4.58c.39.39.58.85.58,1.39s-.2,1-.58,1.4c-.39.39-.86.58-1.4.58s-1-.2-1.39-.58c-.39-.39-.58-.86-.58-1.4Zm.63,5.1h2.7v14.22h-2.7v-14.22Z"/><path class="cls-1" d="m515.46,486.45c0-1.04.2-2.01.58-2.91.39-.9.92-1.69,1.61-2.37.68-.68,1.48-1.22,2.4-1.61.92-.39,1.91-.58,2.97-.58s2.05.2,2.97.58,1.72.93,2.4,1.61c.68.68,1.21,1.47,1.6,2.37.39.9.58,1.87.58,2.91s-.19,2.02-.58,2.93c-.39.91-.92,1.7-1.6,2.37-.68.67-1.48,1.2-2.4,1.59-.92.39-1.91.58-2.97.58s-2.05-.2-2.97-.58c-.92-.39-1.72-.92-2.4-1.59-.68-.67-1.21-1.46-1.61-2.37-.39-.91-.58-1.89-.58-2.93Zm2.88,0c0,.72.11,1.39.33,2,.22.61.53,1.13.93,1.56.4.43.89.77,1.47,1.02s1.23.38,1.95.38,1.37-.12,1.95-.38c.58-.25,1.07-.59,1.47-1.02.4-.43.71-.95.93-1.56.22-.61.33-1.27.33-2s-.11-1.38-.33-2c-.22-.61-.53-1.13-.93-1.56-.4-.43-.89-.77-1.47-1.02-.58-.25-1.23-.38-1.95-.38s-1.37.12-1.95.38-1.07.59-1.47,1.02c-.4.43-.71.95-.93,1.56-.22.61-.33,1.28-.33,2Z"/><path class="cls-1" d="m533.97,479.34h2.7v2.19h.06c.34-.76.93-1.38,1.77-1.84s1.81-.71,2.91-.71c.68,0,1.33.11,1.96.32s1.18.54,1.65.97c.47.44.84,1,1.12,1.7.28.69.42,1.5.42,2.44v9.15h-2.7v-8.4c0-.66-.09-1.22-.27-1.69s-.42-.85-.72-1.14c-.3-.29-.65-.5-1.04-.63-.39-.13-.79-.19-1.21-.19-.56,0-1.08.09-1.56.27-.48.18-.9.46-1.26.86-.36.39-.64.88-.84,1.48-.2.6-.3,1.31-.3,2.13v7.32h-2.7v-14.22Z"/><path class="cls-1" d="m559.05,481.08c.76-.7,1.64-1.22,2.64-1.57,1-.35,2-.53,3-.53s1.93.13,2.68.39c.75.26,1.37.61,1.84,1.05.48.44.83.94,1.07,1.51.23.57.34,1.17.34,1.79v7.26c0,.5,0,.96.03,1.38.02.42.05.82.09,1.2h-2.4c-.06-.72-.09-1.44-.09-2.16h-.06c-.6.92-1.31,1.57-2.13,1.95-.82.38-1.77.57-2.85.57-.66,0-1.29-.09-1.89-.27-.6-.18-1.12-.45-1.58-.81-.45-.36-.8-.8-1.06-1.33-.26-.53-.39-1.14-.39-1.85,0-.92.21-1.69.62-2.31s.97-1.12,1.68-1.51c.71-.39,1.54-.67,2.49-.84.95-.17,1.96-.25,3.04-.25h1.98v-.6c0-.36-.07-.72-.21-1.08-.14-.36-.35-.68-.63-.97-.28-.29-.63-.52-1.05-.69-.42-.17-.92-.25-1.5-.25-.52,0-.97.05-1.36.15-.39.1-.75.22-1.07.38-.32.15-.61.33-.87.52-.26.2-.51.39-.75.57l-1.62-1.68Zm7.62,5.64c-.64,0-1.29.04-1.96.1-.67.07-1.28.21-1.83.41-.55.2-1,.48-1.35.84-.35.36-.53.82-.53,1.38,0,.82.27,1.41.83,1.77.55.36,1.29.54,2.24.54.74,0,1.37-.12,1.89-.38.52-.25.94-.58,1.26-.98.32-.4.55-.84.69-1.33.14-.49.21-.97.21-1.46v-.9h-1.44Z"/><path class="cls-1" d="m587.16,493.56h-2.7v-2.19h-.06c-.34.76-.93,1.38-1.77,1.85-.84.47-1.81.71-2.91.71-.7,0-1.36-.11-1.98-.32s-1.17-.54-1.63-.97c-.47-.44-.84-1-1.12-1.7s-.42-1.5-.42-2.45v-9.15h2.7v8.4c0,.66.09,1.23.27,1.7.18.47.42.85.72,1.14.3.29.64.5,1.03.63.39.13.79.2,1.22.2.56,0,1.08-.09,1.56-.27.48-.18.9-.46,1.26-.86.36-.39.64-.88.84-1.48.2-.6.3-1.31.3-2.13v-7.32h2.7v14.22Z"/><path class="cls-1" d="m598.86,481.68h-3.87v6.45c0,.4,0,.79.03,1.18.02.39.09.74.22,1.05.13.31.33.56.6.75.27.19.67.29,1.19.29.32,0,.65-.03.99-.09.34-.06.65-.17.93-.33v2.46c-.32.18-.74.3-1.25.38s-.91.11-1.18.11c-1.04,0-1.85-.15-2.42-.44-.57-.29-.99-.66-1.26-1.12-.27-.46-.43-.97-.48-1.54s-.08-1.14-.08-1.72v-7.41h-3.12v-2.34h3.12v-3.99h2.7v3.99h3.87v2.34Z"/><path class="cls-1" d="m601.65,486.45c0-1.04.2-2.01.58-2.91.39-.9.92-1.69,1.61-2.37.68-.68,1.48-1.22,2.4-1.61.92-.39,1.91-.58,2.97-.58s2.05.2,2.97.58,1.72.93,2.4,1.61c.68.68,1.21,1.47,1.6,2.37.39.9.58,1.87.58,2.91s-.19,2.02-.58,2.93c-.39.91-.92,1.7-1.6,2.37-.68.67-1.48,1.2-2.4,1.59-.92.39-1.91.58-2.97.58s-2.05-.2-2.97-.58c-.92-.39-1.72-.92-2.4-1.59-.68-.67-1.21-1.46-1.61-2.37-.39-.91-.58-1.89-.58-2.93Zm2.88,0c0,.72.11,1.39.33,2,.22.61.53,1.13.93,1.56.4.43.89.77,1.47,1.02s1.23.38,1.95.38,1.37-.12,1.95-.38c.58-.25,1.07-.59,1.47-1.02.4-.43.71-.95.93-1.56.22-.61.33-1.27.33-2s-.11-1.38-.33-2c-.22-.61-.53-1.13-.93-1.56-.4-.43-.89-.77-1.47-1.02-.58-.25-1.23-.38-1.95-.38s-1.37.12-1.95.38-1.07.59-1.47,1.02c-.4.43-.71.95-.93,1.56-.22.61-.33,1.28-.33,2Z"/><path class="cls-1" d="m632.76,493.56h-2.7v-2.19h-.06c-.34.76-.93,1.38-1.77,1.85-.84.47-1.81.71-2.91.71-.7,0-1.36-.11-1.98-.32s-1.17-.54-1.63-.97c-.47-.44-.84-1-1.12-1.7s-.42-1.5-.42-2.45v-9.15h2.7v8.4c0,.66.09,1.23.27,1.7.18.47.42.85.72,1.14.3.29.64.5,1.03.63.39.13.79.2,1.22.2.56,0,1.08-.09,1.56-.27.48-.18.9-.46,1.26-.86.36-.39.64-.88.84-1.48.2-.6.3-1.31.3-2.13v-7.32h2.7v14.22Z"/><path class="cls-1" d="m636.84,479.34h2.7v2.19h.06c.18-.38.42-.72.72-1.04.3-.31.63-.57,1.01-.79.37-.22.77-.39,1.21-.52.44-.13.88-.2,1.32-.2s.84.06,1.2.18l-.12,2.91c-.22-.06-.44-.11-.66-.15-.22-.04-.44-.06-.66-.06-1.32,0-2.33.37-3.03,1.11s-1.05,1.89-1.05,3.45v7.14h-2.7v-14.22Z"/><path class="cls-1" d="m670.53,493.56h-2.7v-2.04h-.06c-.52.76-1.24,1.35-2.15,1.77-.91.42-1.84.63-2.8.63-1.1,0-2.1-.19-2.99-.57s-1.65-.91-2.28-1.59c-.63-.68-1.12-1.47-1.46-2.37-.34-.9-.51-1.88-.51-2.94s.17-2.04.51-2.96c.34-.91.82-1.7,1.46-2.37.63-.67,1.39-1.2,2.28-1.58s1.88-.57,2.99-.57c1.02,0,1.98.21,2.88.65.9.43,1.59,1.01,2.07,1.75h.06v-10.5h2.7v22.68Zm-7.38-2.16c.72,0,1.37-.12,1.95-.38.58-.25,1.07-.59,1.47-1.02.4-.43.71-.95.93-1.56.22-.61.33-1.27.33-2s-.11-1.38-.33-2c-.22-.61-.53-1.13-.93-1.56-.4-.43-.89-.77-1.47-1.02-.58-.25-1.23-.38-1.95-.38s-1.37.12-1.95.38-1.07.59-1.47,1.02c-.4.43-.71.95-.93,1.56-.22.61-.33,1.28-.33,2s.11,1.39.33,2c.22.61.53,1.13.93,1.56.4.43.89.77,1.47,1.02s1.23.38,1.95.38Z"/><path class="cls-1" d="m676.65,487.44c0,.62.13,1.19.41,1.7.27.51.62.94,1.06,1.3.44.36.95.64,1.53.84.58.2,1.18.3,1.8.3.84,0,1.57-.19,2.19-.58.62-.39,1.19-.9,1.71-1.54l2.04,1.56c-1.5,1.94-3.6,2.91-6.3,2.91-1.12,0-2.13-.19-3.04-.57s-1.68-.9-2.31-1.58c-.63-.67-1.12-1.46-1.46-2.37-.34-.91-.51-1.89-.51-2.96s.18-2.04.55-2.96c.37-.91.88-1.7,1.53-2.37.65-.67,1.42-1.2,2.33-1.58.9-.38,1.88-.57,2.94-.57,1.26,0,2.33.22,3.2.66.87.44,1.58,1.02,2.14,1.72.56.71.96,1.51,1.22,2.4.25.89.38,1.79.38,2.71v.96h-11.4Zm8.52-2.16c-.02-.6-.12-1.15-.28-1.65-.17-.5-.43-.93-.77-1.31-.34-.37-.76-.66-1.27-.87-.51-.21-1.11-.31-1.79-.31s-1.27.12-1.82.38-1.01.58-1.39.97c-.38.4-.67.85-.89,1.33-.21.49-.31.98-.31,1.46h8.52Z"/><path class="cls-1" d="m698.85,482.91c-.32-.4-.71-.73-1.18-1-.47-.27-1.04-.4-1.72-.4-.64,0-1.2.13-1.67.4-.47.27-.71.67-.71,1.19,0,.42.13.76.4,1.02.27.26.59.47.96.63.37.16.77.28,1.19.36s.78.15,1.08.21c.58.14,1.12.31,1.63.51.51.2.95.46,1.32.78.37.32.66.71.87,1.17s.31,1.02.31,1.68c0,.8-.17,1.49-.51,2.06-.34.57-.78,1.04-1.32,1.39-.54.36-1.15.62-1.84.78s-1.38.24-2.08.24c-1.18,0-2.22-.18-3.11-.54-.89-.36-1.68-1.02-2.38-1.98l2.04-1.68c.44.44.93.83,1.47,1.17s1.2.51,1.98.51c.34,0,.68-.03,1.04-.1.35-.07.66-.18.93-.33.27-.15.49-.34.66-.57.17-.23.25-.5.25-.79,0-.4-.12-.73-.38-.99-.25-.26-.55-.46-.9-.62-.35-.15-.72-.27-1.11-.36-.39-.09-.74-.17-1.04-.23-.58-.14-1.13-.3-1.65-.48-.52-.18-.98-.42-1.38-.72-.4-.3-.72-.68-.96-1.14-.24-.46-.36-1.03-.36-1.71,0-.74.15-1.38.46-1.93.31-.55.72-1,1.23-1.37s1.09-.63,1.74-.81c.65-.18,1.3-.27,1.96-.27.96,0,1.88.18,2.76.54s1.58.96,2.1,1.8l-2.1,1.59Z"/><path class="cls-1" d="m151.2,526.5l8.52-8.46c.3-.28.59-.59.87-.92.28-.33.53-.68.75-1.04.22-.36.39-.74.52-1.14.13-.4.2-.82.2-1.26,0-.52-.1-.99-.29-1.41-.19-.42-.45-.77-.78-1.06-.33-.29-.72-.51-1.17-.67-.45-.16-.93-.24-1.42-.24-1.04,0-1.9.29-2.58.87-.68.58-1.11,1.38-1.29,2.4l-3.12-.27c.14-.94.42-1.75.83-2.45.41-.69.92-1.26,1.53-1.72.61-.46,1.31-.8,2.1-1.02.79-.22,1.65-.33,2.56-.33s1.79.12,2.6.38c.81.25,1.52.62,2.13,1.11.61.49,1.09,1.1,1.44,1.83.35.73.52,1.58.52,2.56,0,.7-.1,1.36-.31,1.97s-.48,1.18-.82,1.72c-.34.54-.73,1.05-1.17,1.53-.44.48-.9.95-1.38,1.41l-6.99,6.75h10.68v2.52h-13.92v-3.06Z"/><path class="cls-1" d="m176.58,524.88h-9.06v-2.94l8.46-13.62h3.48v14.04h3v2.52h-3v4.68h-2.88v-4.68Zm0-13.14h-.06l-6.48,10.62h6.54v-10.62Z"/><path class="cls-1" d="m194.61,517.68h-3.06v-2.34h3.06v-3.18c0-1.9.36-3.31,1.1-4.24.73-.93,1.98-1.4,3.77-1.4.3,0,.61.01.94.03s.69.08,1.06.18l-.3,2.4c-.26-.1-.51-.17-.75-.21-.24-.04-.5-.06-.78-.06-.5,0-.9.08-1.2.23-.3.15-.54.37-.71.64-.17.28-.28.62-.33,1-.05.39-.08.84-.08,1.33v3.27h3.21v2.34h-3.24v11.88h-2.7v-11.88Z"/><path class="cls-1" d="m202.86,522.45c0-1.04.19-2.01.58-2.91.39-.9.92-1.69,1.6-2.37.68-.68,1.48-1.22,2.4-1.61s1.91-.58,2.97-.58,2.05.2,2.97.58,1.72.93,2.4,1.61c.68.68,1.22,1.47,1.6,2.37.39.9.59,1.87.59,2.91s-.2,2.02-.59,2.93c-.39.91-.93,1.7-1.6,2.37-.68.67-1.48,1.2-2.4,1.59-.92.39-1.91.58-2.97.58s-2.05-.2-2.97-.58c-.92-.39-1.72-.92-2.4-1.59-.68-.67-1.21-1.46-1.6-2.37s-.58-1.89-.58-2.93Zm2.88,0c0,.72.11,1.39.33,2,.22.61.53,1.13.93,1.56.4.43.89.77,1.47,1.02s1.23.38,1.95.38,1.37-.12,1.95-.38,1.07-.59,1.47-1.02c.4-.43.71-.95.93-1.56.22-.61.33-1.27.33-2s-.11-1.38-.33-2c-.22-.61-.53-1.13-.93-1.56-.4-.43-.89-.77-1.47-1.02s-1.23-.38-1.95-.38-1.37.12-1.95.38-1.07.59-1.47,1.02c-.4.43-.71.95-.93,1.56-.22.61-.33,1.28-.33,2Z"/><path class="cls-1" d="m221.37,515.34h2.7v2.19h.06c.18-.38.42-.72.72-1.04.3-.31.63-.57,1-.79.37-.22.77-.39,1.22-.52.44-.13.88-.2,1.32-.2s.84.06,1.2.18l-.12,2.91c-.22-.06-.44-.11-.66-.15-.22-.04-.44-.06-.66-.06-1.32,0-2.33.37-3.03,1.11-.7.74-1.05,1.89-1.05,3.45v7.14h-2.7v-14.22Z"/><path class="cls-1" d="m242.1,519.12c-.5-.52-1.02-.92-1.58-1.18s-1.21-.41-1.96-.41-1.39.14-1.94.41c-.55.27-1.01.64-1.38,1.11-.37.47-.65,1.01-.84,1.62-.19.61-.29,1.24-.29,1.9s.11,1.29.33,1.88c.22.59.53,1.11.93,1.54.4.44.88.79,1.44,1.04.56.25,1.19.38,1.89.38.76,0,1.41-.13,1.95-.41.54-.27,1.04-.66,1.5-1.18l1.92,1.92c-.7.78-1.52,1.34-2.44,1.68-.93.34-1.92.51-2.96.51-1.1,0-2.1-.18-3.02-.54-.91-.36-1.69-.87-2.35-1.52-.66-.65-1.17-1.43-1.53-2.34-.36-.91-.54-1.92-.54-3.01s.18-2.11.54-3.03c.36-.92.86-1.71,1.51-2.37s1.43-1.17,2.34-1.54c.91-.37,1.92-.55,3.04-.55,1.04,0,2.03.18,2.98.55.95.37,1.77.94,2.48,1.7l-2.04,1.86Z"/><path class="cls-1" d="m248.43,523.44c0,.62.13,1.19.4,1.7s.62.94,1.06,1.3.95.64,1.53.84c.58.2,1.18.3,1.8.3.84,0,1.57-.19,2.19-.58.62-.39,1.19-.9,1.71-1.54l2.04,1.56c-1.5,1.94-3.6,2.91-6.3,2.91-1.12,0-2.14-.19-3.04-.57-.91-.38-1.68-.9-2.31-1.58-.63-.67-1.12-1.46-1.46-2.37-.34-.91-.51-1.89-.51-2.96s.18-2.04.55-2.96c.37-.91.88-1.7,1.53-2.37.65-.67,1.42-1.2,2.32-1.58s1.88-.57,2.94-.57c1.26,0,2.33.22,3.2.66.87.44,1.58,1.02,2.15,1.72.56.71.96,1.51,1.21,2.4.25.89.38,1.79.38,2.71v.96h-11.4Zm8.52-2.16c-.02-.6-.12-1.15-.29-1.65s-.43-.93-.77-1.31c-.34-.37-.76-.66-1.27-.87-.51-.21-1.1-.31-1.78-.31s-1.27.12-1.82.38c-.55.25-1.02.58-1.4.97-.38.4-.67.85-.88,1.33-.21.49-.31.98-.31,1.46h8.52Z"/><path class="cls-1" d="m270.63,518.91c-.32-.4-.72-.73-1.19-1-.47-.27-1.05-.4-1.73-.4-.64,0-1.2.13-1.67.4-.47.27-.71.67-.71,1.19,0,.42.14.76.41,1.02.27.26.59.47.96.63.37.16.77.28,1.19.36s.78.15,1.08.21c.58.14,1.12.31,1.63.51.51.2.95.46,1.32.78.37.32.66.71.87,1.17s.31,1.02.31,1.68c0,.8-.17,1.49-.51,2.06-.34.57-.78,1.04-1.32,1.39-.54.36-1.15.62-1.84.78s-1.39.24-2.08.24c-1.18,0-2.22-.18-3.1-.54-.89-.36-1.69-1.02-2.39-1.98l2.04-1.68c.44.44.93.83,1.47,1.17s1.2.51,1.98.51c.34,0,.68-.03,1.04-.1.35-.07.66-.18.93-.33.27-.15.49-.34.66-.57.17-.23.25-.5.25-.79,0-.4-.12-.73-.38-.99-.25-.26-.55-.46-.9-.62-.35-.15-.72-.27-1.11-.36-.39-.09-.74-.17-1.04-.23-.58-.14-1.13-.3-1.65-.48-.52-.18-.98-.42-1.38-.72-.4-.3-.72-.68-.96-1.14-.24-.46-.36-1.03-.36-1.71,0-.74.15-1.38.46-1.93s.72-1,1.23-1.37c.51-.36,1.09-.63,1.74-.81.65-.18,1.31-.27,1.96-.27.96,0,1.88.18,2.76.54.88.36,1.58.96,2.1,1.8l-2.1,1.59Z"/><path class="cls-1" d="m298.98,529.56h-2.7v-2.04h-.06c-.52.76-1.23,1.35-2.15,1.77-.91.42-1.84.63-2.8.63-1.1,0-2.1-.19-2.98-.57-.89-.38-1.65-.91-2.28-1.59s-1.12-1.47-1.46-2.37c-.34-.9-.51-1.88-.51-2.94s.17-2.04.51-2.96c.34-.91.83-1.7,1.46-2.37s1.39-1.2,2.28-1.58c.89-.38,1.88-.57,2.98-.57,1.02,0,1.98.21,2.88.65.9.43,1.59,1.01,2.07,1.75h.06v-10.5h2.7v22.68Zm-7.38-2.16c.72,0,1.37-.12,1.95-.38s1.07-.59,1.47-1.02c.4-.43.71-.95.93-1.56.22-.61.33-1.27.33-2s-.11-1.38-.33-2c-.22-.61-.53-1.13-.93-1.56-.4-.43-.89-.77-1.47-1.02s-1.23-.38-1.95-.38-1.37.12-1.95.38-1.07.59-1.47,1.02c-.4.43-.71.95-.93,1.56-.22.61-.33,1.28-.33,2s.11,1.39.33,2c.22.61.53,1.13.93,1.56.4.43.89.77,1.47,1.02s1.23.38,1.95.38Z"/><path class="cls-1" d="m305.1,523.44c0,.62.13,1.19.4,1.7s.62.94,1.06,1.3.95.64,1.53.84c.58.2,1.18.3,1.8.3.84,0,1.57-.19,2.19-.58.62-.39,1.19-.9,1.71-1.54l2.04,1.56c-1.5,1.94-3.6,2.91-6.3,2.91-1.12,0-2.14-.19-3.04-.57-.91-.38-1.68-.9-2.31-1.58-.63-.67-1.12-1.46-1.46-2.37-.34-.91-.51-1.89-.51-2.96s.18-2.04.55-2.96c.37-.91.88-1.7,1.53-2.37.65-.67,1.42-1.2,2.32-1.58s1.88-.57,2.94-.57c1.26,0,2.33.22,3.2.66.87.44,1.58,1.02,2.15,1.72.56.71.96,1.51,1.21,2.4.25.89.38,1.79.38,2.71v.96h-11.4Zm8.52-2.16c-.02-.6-.12-1.15-.29-1.65s-.43-.93-.77-1.31c-.34-.37-.76-.66-1.27-.87-.51-.21-1.1-.31-1.78-.31s-1.27.12-1.82.38c-.55.25-1.02.58-1.4.97-.38.4-.67.85-.88,1.33-.21.49-.31.98-.31,1.46h8.52Z"/><path class="cls-1" d="m328.29,506.88h2.7v22.68h-2.7v-22.68Z"/><path class="cls-1" d="m335.34,517.08c.76-.7,1.64-1.22,2.64-1.57,1-.35,2-.53,3-.53s1.93.13,2.68.39c.75.26,1.37.61,1.85,1.05.48.44.83.94,1.06,1.51.23.57.35,1.17.35,1.79v7.26c0,.5,0,.96.03,1.38.02.42.05.82.09,1.2h-2.4c-.06-.72-.09-1.44-.09-2.16h-.06c-.6.92-1.31,1.57-2.13,1.95-.82.38-1.77.57-2.85.57-.66,0-1.29-.09-1.89-.27s-1.12-.45-1.57-.81c-.45-.36-.81-.8-1.06-1.33-.26-.53-.39-1.14-.39-1.85,0-.92.2-1.69.61-2.31.41-.62.97-1.12,1.68-1.51.71-.39,1.54-.67,2.49-.84.95-.17,1.97-.25,3.05-.25h1.98v-.6c0-.36-.07-.72-.21-1.08-.14-.36-.35-.68-.63-.97-.28-.29-.63-.52-1.05-.69s-.92-.25-1.5-.25c-.52,0-.98.05-1.37.15-.39.1-.75.22-1.06.38-.32.15-.61.33-.87.52-.26.2-.51.39-.75.57l-1.62-1.68Zm7.62,5.64c-.64,0-1.3.04-1.97.1-.67.07-1.28.21-1.83.41-.55.2-1,.48-1.35.84-.35.36-.53.82-.53,1.38,0,.82.27,1.41.83,1.77.55.36,1.29.54,2.23.54.74,0,1.37-.12,1.89-.38.52-.25.94-.58,1.26-.98.32-.4.55-.84.69-1.33.14-.49.21-.97.21-1.46v-.9h-1.44Z"/><path class="cls-1" d="m359.19,515.34h2.7v2.04h.06c.52-.76,1.23-1.35,2.15-1.77s1.85-.63,2.81-.63c1.1,0,2.09.19,2.98.57.89.38,1.65.91,2.28,1.59.63.68,1.11,1.47,1.46,2.38.34.91.51,1.89.51,2.92s-.17,2.05-.51,2.96c-.34.91-.83,1.7-1.46,2.37-.63.67-1.39,1.2-2.28,1.58-.89.38-1.89.57-2.98.57-1.02,0-1.98-.22-2.88-.65s-1.59-1.01-2.07-1.75h-.06v10.5h-2.7v-22.68Zm7.38,2.16c-.72,0-1.37.12-1.95.38-.58.25-1.07.59-1.47,1.02-.4.43-.71.95-.93,1.56-.22.61-.33,1.28-.33,2s.11,1.39.33,2c.22.61.53,1.13.93,1.56.4.43.89.77,1.47,1.02.58.25,1.23.38,1.95.38s1.37-.12,1.95-.38c.58-.25,1.07-.59,1.47-1.02.4-.43.71-.95.93-1.56.22-.61.33-1.27.33-2s-.11-1.38-.33-2c-.22-.61-.53-1.13-.93-1.56-.4-.43-.89-.77-1.47-1.02-.58-.25-1.23-.38-1.95-.38Z"/><path class="cls-1" d="m385.08,518.91c-.32-.4-.72-.73-1.19-1-.47-.27-1.05-.4-1.73-.4-.64,0-1.2.13-1.67.4-.47.27-.71.67-.71,1.19,0,.42.14.76.41,1.02.27.26.59.47.96.63.37.16.77.28,1.19.36s.78.15,1.08.21c.58.14,1.12.31,1.63.51.51.2.95.46,1.32.78.37.32.66.71.87,1.17s.31,1.02.31,1.68c0,.8-.17,1.49-.51,2.06-.34.57-.78,1.04-1.32,1.39-.54.36-1.15.62-1.84.78s-1.39.24-2.08.24c-1.18,0-2.22-.18-3.1-.54-.89-.36-1.69-1.02-2.39-1.98l2.04-1.68c.44.44.93.83,1.47,1.17s1.2.51,1.98.51c.34,0,.68-.03,1.04-.1.35-.07.66-.18.93-.33.27-.15.49-.34.66-.57.17-.23.25-.5.25-.79,0-.4-.12-.73-.38-.99-.25-.26-.55-.46-.9-.62-.35-.15-.72-.27-1.11-.36-.39-.09-.74-.17-1.04-.23-.58-.14-1.13-.3-1.65-.48-.52-.18-.98-.42-1.38-.72-.4-.3-.72-.68-.96-1.14-.24-.46-.36-1.03-.36-1.71,0-.74.15-1.38.46-1.93s.72-1,1.23-1.37c.51-.36,1.09-.63,1.74-.81.65-.18,1.31-.27,1.96-.27.96,0,1.88.18,2.76.54.88.36,1.58.96,2.1,1.8l-2.1,1.59Z"/><path class="cls-1" d="m389.16,515.34h3.12l4.21,11.1h.06l4.04-11.1h2.88l-6.75,17.28c-.24.62-.49,1.19-.75,1.7s-.57.95-.93,1.3c-.36.36-.79.64-1.3.84-.51.2-1.13.3-1.87.3-.4,0-.8-.03-1.21-.08-.41-.05-.8-.16-1.18-.32l.33-2.46c.54.22,1.07.33,1.61.33.42,0,.77-.05,1.06-.17.29-.11.54-.27.75-.48.21-.21.38-.46.52-.74s.28-.6.42-.96l.87-2.25-5.88-14.31Z"/><path class="cls-1" d="m416.01,519.12c-.5-.52-1.02-.92-1.58-1.18s-1.21-.41-1.96-.41-1.39.14-1.94.41c-.55.27-1.01.64-1.38,1.11-.37.47-.65,1.01-.84,1.62-.19.61-.29,1.24-.29,1.9s.11,1.29.33,1.88c.22.59.53,1.11.93,1.54.4.44.88.79,1.44,1.04.56.25,1.19.38,1.89.38.76,0,1.41-.13,1.95-.41.54-.27,1.04-.66,1.5-1.18l1.92,1.92c-.7.78-1.52,1.34-2.44,1.68-.93.34-1.92.51-2.96.51-1.1,0-2.1-.18-3.02-.54-.91-.36-1.69-.87-2.35-1.52-.66-.65-1.17-1.43-1.53-2.34-.36-.91-.54-1.92-.54-3.01s.18-2.11.54-3.03c.36-.92.86-1.71,1.51-2.37s1.43-1.17,2.34-1.54c.91-.37,1.92-.55,3.04-.55,1.04,0,2.03.18,2.98.55.95.37,1.77.94,2.48,1.7l-2.04,1.86Z"/><path class="cls-1" d="m420.3,506.88h2.7v10.65h.06c.34-.76.93-1.38,1.77-1.84.84-.47,1.81-.71,2.91-.71.68,0,1.33.11,1.96.32.63.21,1.18.54,1.65.97.47.44.85,1,1.12,1.7.28.69.42,1.5.42,2.44v9.15h-2.7v-8.4c0-.66-.09-1.22-.27-1.69s-.42-.85-.72-1.14c-.3-.29-.64-.5-1.04-.63-.39-.13-.79-.19-1.21-.19-.56,0-1.08.09-1.56.27s-.9.46-1.26.86c-.36.39-.64.88-.84,1.48-.2.6-.3,1.31-.3,2.13v7.32h-2.7v-22.68Z"/><path class="cls-1" d="m436.29,522.45c0-1.04.2-2.01.58-2.91.39-.9.92-1.69,1.61-2.37.68-.68,1.48-1.22,2.4-1.61.92-.39,1.91-.58,2.97-.58s2.05.2,2.97.58,1.72.93,2.4,1.61c.68.68,1.21,1.47,1.6,2.37.39.9.58,1.87.58,2.91s-.19,2.02-.58,2.93c-.39.91-.92,1.7-1.6,2.37-.68.67-1.48,1.2-2.4,1.59-.92.39-1.91.58-2.97.58s-2.05-.2-2.97-.58c-.92-.39-1.72-.92-2.4-1.59-.68-.67-1.21-1.46-1.61-2.37-.39-.91-.58-1.89-.58-2.93Zm2.88,0c0,.72.11,1.39.33,2,.22.61.53,1.13.93,1.56.4.43.89.77,1.47,1.02s1.23.38,1.95.38,1.37-.12,1.95-.38c.58-.25,1.07-.59,1.47-1.02.4-.43.71-.95.93-1.56.22-.61.33-1.27.33-2s-.11-1.38-.33-2c-.22-.61-.53-1.13-.93-1.56-.4-.43-.89-.77-1.47-1.02-.58-.25-1.23-.38-1.95-.38s-1.37.12-1.95.38-1.07.59-1.47,1.02c-.4.43-.71.95-.93,1.56-.22.61-.33,1.28-.33,2Z"/><path class="cls-1" d="m455.01,506.88h2.7v22.68h-2.7v-22.68Z"/><path class="cls-1" d="m461.31,522.45c0-1.04.2-2.01.58-2.91.39-.9.92-1.69,1.61-2.37.68-.68,1.48-1.22,2.4-1.61.92-.39,1.91-.58,2.97-.58s2.05.2,2.97.58,1.72.93,2.4,1.61c.68.68,1.21,1.47,1.6,2.37.39.9.58,1.87.58,2.91s-.19,2.02-.58,2.93c-.39.91-.92,1.7-1.6,2.37-.68.67-1.48,1.2-2.4,1.59-.92.39-1.91.58-2.97.58s-2.05-.2-2.97-.58c-.92-.39-1.72-.92-2.4-1.59-.68-.67-1.21-1.46-1.61-2.37-.39-.91-.58-1.89-.58-2.93Zm2.88,0c0,.72.11,1.39.33,2,.22.61.53,1.13.93,1.56.4.43.89.77,1.47,1.02s1.23.38,1.95.38,1.37-.12,1.95-.38c.58-.25,1.07-.59,1.47-1.02.4-.43.71-.95.93-1.56.22-.61.33-1.27.33-2s-.11-1.38-.33-2c-.22-.61-.53-1.13-.93-1.56-.4-.43-.89-.77-1.47-1.02-.58-.25-1.23-.38-1.95-.38s-1.37.12-1.95.38-1.07.59-1.47,1.02c-.4.43-.71.95-.93,1.56-.22.61-.33,1.28-.33,2Z"/><path class="cls-1" d="m494.07,529.44c0,1.08-.19,2.07-.55,2.96-.37.89-.9,1.66-1.58,2.31-.68.65-1.5,1.16-2.46,1.52-.96.36-2.02.54-3.18.54-1.36,0-2.6-.19-3.73-.57s-2.21-1.04-3.23-1.98l1.83-2.28c.7.76,1.46,1.33,2.28,1.72.82.39,1.75.58,2.79.58s1.83-.14,2.49-.43,1.18-.67,1.58-1.12c.39-.46.66-.99.82-1.58s.24-1.18.24-1.79v-2.1h-.09c-.52.86-1.23,1.5-2.12,1.91s-1.83.61-2.8.61c-1.04,0-2.01-.18-2.9-.55s-1.65-.88-2.29-1.53c-.64-.65-1.14-1.42-1.5-2.31-.36-.89-.54-1.86-.54-2.9s.17-2.01.51-2.92c.34-.91.82-1.71,1.46-2.38.63-.68,1.39-1.21,2.28-1.59s1.88-.57,2.99-.57c.96,0,1.89.21,2.8.63s1.62,1.01,2.15,1.77h.06v-2.04h2.7v14.1Zm-7.38-11.94c-.72,0-1.37.12-1.95.38s-1.07.59-1.47,1.02c-.4.43-.71.95-.93,1.56-.22.61-.33,1.28-.33,2,0,1.44.42,2.6,1.26,3.47.84.87,1.98,1.3,3.42,1.3s2.58-.44,3.42-1.3c.84-.87,1.26-2.03,1.26-3.47,0-.72-.11-1.38-.33-2-.22-.61-.53-1.13-.93-1.56-.4-.43-.89-.77-1.47-1.02-.58-.25-1.23-.38-1.95-.38Z"/><path class="cls-1" d="m497.73,510.24c0-.54.2-1,.58-1.39.39-.39.85-.58,1.39-.58s1.01.19,1.4.58c.39.39.58.85.58,1.39s-.2,1-.58,1.4c-.39.39-.86.58-1.4.58s-1-.2-1.39-.58c-.39-.39-.58-.86-.58-1.4Zm.63,5.1h2.7v14.22h-2.7v-14.22Z"/><path class="cls-1" d="m507.39,523.44c0,.62.13,1.19.41,1.7.27.51.62.94,1.06,1.3.44.36.95.64,1.53.84.58.2,1.18.3,1.8.3.84,0,1.57-.19,2.19-.58.62-.39,1.19-.9,1.71-1.54l2.04,1.56c-1.5,1.94-3.6,2.91-6.3,2.91-1.12,0-2.13-.19-3.04-.57s-1.68-.9-2.31-1.58c-.63-.67-1.12-1.46-1.46-2.37-.34-.91-.51-1.89-.51-2.96s.18-2.04.55-2.96c.37-.91.88-1.7,1.53-2.37.65-.67,1.42-1.2,2.33-1.58.9-.38,1.88-.57,2.94-.57,1.26,0,2.33.22,3.2.66.87.44,1.58,1.02,2.14,1.72.56.71.96,1.51,1.22,2.4.25.89.38,1.79.38,2.71v.96h-11.4Zm8.52-2.16c-.02-.6-.12-1.15-.28-1.65-.17-.5-.43-.93-.77-1.31-.34-.37-.76-.66-1.27-.87-.51-.21-1.11-.31-1.79-.31s-1.27.12-1.82.38-1.01.58-1.39.97c-.38.4-.67.85-.89,1.33-.21.49-.31.98-.31,1.46h8.52Z"/><path class="cls-1" d="m530.37,515.34h2.7v2.04h.06c.52-.76,1.24-1.35,2.15-1.77.91-.42,1.84-.63,2.8-.63,1.1,0,2.09.19,2.99.57.89.38,1.65.91,2.28,1.59s1.12,1.47,1.46,2.38.51,1.89.51,2.92-.17,2.05-.51,2.96c-.34.91-.83,1.7-1.46,2.37-.63.67-1.39,1.2-2.28,1.58-.89.38-1.89.57-2.99.57-1.02,0-1.98-.22-2.88-.65-.9-.43-1.59-1.01-2.07-1.75h-.06v10.5h-2.7v-22.68Zm7.38,2.16c-.72,0-1.37.12-1.95.38s-1.07.59-1.47,1.02c-.4.43-.71.95-.93,1.56-.22.61-.33,1.28-.33,2s.11,1.39.33,2c.22.61.53,1.13.93,1.56.4.43.89.77,1.47,1.02s1.23.38,1.95.38,1.37-.12,1.95-.38,1.07-.59,1.47-1.02.71-.95.93-1.56c.22-.61.33-1.27.33-2s-.11-1.38-.33-2c-.22-.61-.53-1.13-.93-1.56-.4-.43-.89-.77-1.47-1.02s-1.23-.38-1.95-.38Z"/><path class="cls-1" d="m548,522.45c0-1.04.2-2.01.58-2.91.39-.9.92-1.69,1.61-2.37.68-.68,1.48-1.22,2.4-1.61.92-.39,1.91-.58,2.97-.58s2.05.2,2.97.58,1.72.93,2.4,1.61c.68.68,1.21,1.47,1.6,2.37.39.9.58,1.87.58,2.91s-.19,2.02-.58,2.93c-.39.91-.92,1.7-1.6,2.37-.68.67-1.48,1.2-2.4,1.59-.92.39-1.91.58-2.97.58s-2.05-.2-2.97-.58c-.92-.39-1.72-.92-2.4-1.59-.68-.67-1.21-1.46-1.61-2.37-.39-.91-.58-1.89-.58-2.93Zm2.88,0c0,.72.11,1.39.33,2,.22.61.53,1.13.93,1.56.4.43.89.77,1.47,1.02s1.23.38,1.95.38,1.37-.12,1.95-.38c.58-.25,1.07-.59,1.47-1.02.4-.43.71-.95.93-1.56.22-.61.33-1.27.33-2s-.11-1.38-.33-2c-.22-.61-.53-1.13-.93-1.56-.4-.43-.89-.77-1.47-1.02-.58-.25-1.23-.38-1.95-.38s-1.37.12-1.95.38-1.07.59-1.47,1.02c-.4.43-.71.95-.93,1.56-.22.61-.33,1.28-.33,2Z"/><path class="cls-1" d="m574.08,518.91c-.32-.4-.71-.73-1.18-1-.47-.27-1.04-.4-1.72-.4-.64,0-1.2.13-1.67.4-.47.27-.71.67-.71,1.19,0,.42.13.76.4,1.02.27.26.59.47.96.63.37.16.77.28,1.19.36s.78.15,1.08.21c.58.14,1.12.31,1.63.51.51.2.95.46,1.32.78.37.32.66.71.87,1.17s.31,1.02.31,1.68c0,.8-.17,1.49-.51,2.06-.34.57-.78,1.04-1.32,1.39-.54.36-1.15.62-1.84.78s-1.38.24-2.08.24c-1.18,0-2.22-.18-3.11-.54-.89-.36-1.68-1.02-2.38-1.98l2.04-1.68c.44.44.93.83,1.47,1.17s1.2.51,1.98.51c.34,0,.68-.03,1.04-.1.35-.07.66-.18.93-.33.27-.15.49-.34.66-.57.17-.23.25-.5.25-.79,0-.4-.12-.73-.38-.99-.25-.26-.55-.46-.9-.62-.35-.15-.72-.27-1.11-.36-.39-.09-.74-.17-1.04-.23-.58-.14-1.13-.3-1.65-.48-.52-.18-.98-.42-1.38-.72-.4-.3-.72-.68-.96-1.14-.24-.46-.36-1.03-.36-1.71,0-.74.15-1.38.46-1.93.31-.55.72-1,1.23-1.37s1.09-.63,1.74-.81c.65-.18,1.3-.27,1.96-.27.96,0,1.88.18,2.76.54s1.58.96,2.1,1.8l-2.1,1.59Z"/><path class="cls-1" d="m579.42,510.24c0-.54.2-1,.58-1.39.39-.39.85-.58,1.39-.58s1.01.19,1.4.58c.39.39.58.85.58,1.39s-.2,1-.58,1.4c-.39.39-.86.58-1.4.58s-1-.2-1.39-.58c-.39-.39-.58-.86-.58-1.4Zm.63,5.1h2.7v14.22h-2.7v-14.22Z"/><path class="cls-1" d="m594.66,517.68h-3.87v6.45c0,.4,0,.79.03,1.18.02.39.09.74.22,1.05.13.31.33.56.6.75.27.19.67.29,1.19.29.32,0,.65-.03.99-.09.34-.06.65-.17.93-.33v2.46c-.32.18-.74.3-1.25.38s-.91.11-1.18.11c-1.04,0-1.85-.15-2.42-.44-.57-.29-.99-.66-1.26-1.12-.27-.46-.43-.97-.48-1.54s-.08-1.14-.08-1.72v-7.41h-3.12v-2.34h3.12v-3.99h2.7v3.99h3.87v2.34Z"/><path class="cls-1" d="m597.71,510.24c0-.54.2-1,.58-1.39.39-.39.85-.58,1.39-.58s1.01.19,1.4.58c.39.39.58.85.58,1.39s-.2,1-.58,1.4c-.39.39-.86.58-1.4.58s-1-.2-1.39-.58c-.39-.39-.58-.86-.58-1.4Zm.63,5.1h2.7v14.22h-2.7v-14.22Z"/><path class="cls-1" d="m603.62,515.34h3.12l4.26,10.89,4.08-10.89h2.88l-5.58,14.22h-2.97l-5.79-14.22Z"/><path class="cls-1" d="m622.37,523.44c0,.62.13,1.19.41,1.7.27.51.62.94,1.06,1.3.44.36.95.64,1.53.84.58.2,1.18.3,1.8.3.84,0,1.57-.19,2.19-.58.62-.39,1.19-.9,1.71-1.54l2.04,1.56c-1.5,1.94-3.6,2.91-6.3,2.91-1.12,0-2.13-.19-3.04-.57s-1.68-.9-2.31-1.58c-.63-.67-1.12-1.46-1.46-2.37-.34-.91-.51-1.89-.51-2.96s.18-2.04.55-2.96c.37-.91.88-1.7,1.53-2.37.65-.67,1.42-1.2,2.33-1.58.9-.38,1.88-.57,2.94-.57,1.26,0,2.33.22,3.2.66.87.44,1.58,1.02,2.14,1.72.56.71.96,1.51,1.22,2.4.25.89.38,1.79.38,2.71v.96h-11.4Zm8.52-2.16c-.02-.6-.12-1.15-.28-1.65-.17-.5-.43-.93-.77-1.31-.34-.37-.76-.66-1.27-.87-.51-.21-1.11-.31-1.79-.31s-1.27.12-1.82.38-1.01.58-1.39.97c-.38.4-.67.85-.89,1.33-.21.49-.31.98-.31,1.46h8.52Z"/></g></svg>