<?xml version="1.0" encoding="UTF-8"?><svg id="Calque_1" xmlns="http://www.w3.org/2000/svg" viewBox="0 0 800 800"><defs><style>.cls-1{fill:#3c6;}</style></defs><g><path class="cls-1" d="m162.16,294.52v-104.04h7.31v104.04h-7.31Zm7.48-104.21v-7.31h62.05v7.31h-62.05Zm0,111.69v-7.31h62.05v7.31h-62.05Zm3.57-53.38v-7.31h46.92v7.31h-46.92Z"/><path class="cls-1" d="m251.23,302v-60.52h7.31v60.52h-7.31Zm7.65-60.69v-7.31h44.54v7.31h-44.54Zm44.71,60.69v-60.52h7.31v60.52h-7.31Z"/><path class="cls-1" d="m324.5,291.29l26.69-57.97,6.63,3.06-26.69,57.97-6.63-3.06Zm6.63,10.71v-7.31h70.72v7.31h-70.72Zm27.03-65.62l4.93-5.27,30.43,29.07-5.1,5.27-30.26-29.07Z"/><path class="cls-1" d="m407.8,302v-7.31h35.7v7.31h-35.7Zm12.75-9.01l5.1-51,7.31.68-5.1,51-7.31-.68Zm10.88-57.8l36.04-9.35,1.87,7.14-36.04,9.18-1.87-6.97Z"/><path class="cls-1" d="m476.99,263.41l29.24-30.6,5.27,4.93-29.24,30.6-5.27-4.93Zm1.7,31.11v-26.01h7.14v26.01h-7.14Zm7.31,7.48v-7.31h58.65v7.31h-58.65Zm2.55-32.64v-7.31h75.14v7.31h-75.14Zm23.12-31.62l3.06-6.63,53.38,24.65-3.06,6.63-53.38-24.65Z"/><path class="cls-1" d="m578.31,302v-7.31h65.28v7.31h-65.28Zm5.44-60.69v-7.31h65.28v7.31h-65.28Zm2.04,6.63l4.76-5.44,50.66,45.22-4.93,5.44-50.49-45.22Z"/><path class="cls-1" d="m37.29,432v-68h7.31v68h-7.31Zm7.65-45.9l63.92-23.46,2.55,6.97-63.92,23.46-2.55-6.97Zm54.91,45.9v-57.97h7.31v57.97h-7.31Z"/><path class="cls-1" d="m125.86,422.99l7.99-34.17,7.14,1.53-7.99,34.17-7.14-1.53Zm7.31,9.01v-7.31h52.36v7.31h-52.36Zm7.99-41.65l3.06-6.46,43.01,20.74-3.23,6.46-42.84-20.74Zm6.97-19.04v-7.31h51.17v7.31h-51.17Zm39.44,60.69v-58.82h7.31v58.82h-7.31Z"/><path class="cls-1" d="m207.8,358.73l3.23-6.46,48.28,23.8-3.23,6.46-48.28-23.8Zm17.17.17v-45.9h7.31v45.9h-7.31Zm0,65.62v-53.55h7.31v53.55h-7.31Zm7.48,7.48v-7.31h26.69v7.31h-26.69Z"/><path class="cls-1" d="m270.36,424.52v-60.52h7.31v60.52h-7.31Zm7.48,7.48v-7.31h46.58v7.31h-46.58Zm46.75-7.48v-60.52h7.31v60.52h-7.31Z"/><path class="cls-1" d="m352.3,432v-68h7.31v68h-7.31Zm9.69-60.69v-7.31h24.99v7.31h-24.99Zm25.16,0l4.25-5.95,14.11,10.2-4.25,5.78-14.11-10.03Z"/><path class="cls-1" d="m414.86,393.41l29.24-30.6,5.27,4.93-29.24,30.6-5.27-4.93Zm1.7,31.11v-26.01h7.14v26.01h-7.14Zm7.31,7.48v-7.31h58.65v7.31h-58.65Zm2.55-32.64v-7.31h75.14v7.31h-75.14Zm23.12-31.62l3.06-6.63,53.38,24.65-3.06,6.63-53.38-24.65Z"/><path class="cls-1" d="m522.97,424.52v-111.52h7.31v111.52h-7.31Zm7.48,7.48v-7.31h20.06v7.31h-20.06Z"/><path class="cls-1" d="m563.26,424.52v-111.52h7.31v111.52h-7.31Zm7.48,7.48v-7.31h20.06v7.31h-20.06Z"/><path class="cls-1" d="m598.45,393.41l29.24-30.6,5.27,4.93-29.24,30.6-5.27-4.93Zm1.7,31.11v-26.01h7.14v26.01h-7.14Zm7.31,7.48v-7.31h58.65v7.31h-58.65Zm2.55-32.64v-7.31h75.14v7.31h-75.14Zm23.12-31.62l3.06-6.63,53.38,24.65-3.06,6.63-53.38-24.65Z"/><path class="cls-1" d="m699.77,432v-7.31h65.28v7.31h-65.28Zm5.44-60.69v-7.31h65.28v7.31h-65.28Zm2.04,6.63l4.76-5.44,50.66,45.22-4.93,5.44-50.49-45.22Z"/></g><g><path class="cls-1" d="m67.92,511.16l11.36-11.28c.4-.37.79-.78,1.16-1.22.37-.44.71-.9,1-1.38.29-.48.53-.99.7-1.52.17-.53.26-1.09.26-1.68,0-.69-.13-1.32-.38-1.88-.25-.56-.6-1.03-1.04-1.42s-.96-.69-1.56-.9c-.6-.21-1.23-.32-1.9-.32-1.39,0-2.53.39-3.44,1.16-.91.77-1.48,1.84-1.72,3.2l-4.16-.36c.19-1.25.55-2.34,1.1-3.26.55-.92,1.23-1.69,2.04-2.3.81-.61,1.75-1.07,2.8-1.36,1.05-.29,2.19-.44,3.42-.44s2.38.17,3.46.5c1.08.33,2.03.83,2.84,1.48s1.45,1.47,1.92,2.44c.47.97.7,2.11.7,3.42,0,.93-.14,1.81-.42,2.62s-.65,1.58-1.1,2.3c-.45.72-.97,1.4-1.56,2.04-.59.64-1.2,1.27-1.84,1.88l-9.32,9h14.24v3.36h-18.56v-4.08Z"/><path class="cls-1" d="m89.68,501.08c0-1.04.05-2.12.16-3.24.11-1.12.3-2.22.58-3.3.28-1.08.65-2.11,1.12-3.1.47-.99,1.07-1.85,1.8-2.58.73-.73,1.6-1.32,2.6-1.76,1-.44,2.17-.66,3.5-.66s2.5.22,3.5.66c1,.44,1.87,1.03,2.6,1.76.73.73,1.33,1.59,1.8,2.58.47.99.84,2.02,1.12,3.1.28,1.08.47,2.18.58,3.3.11,1.12.16,2.2.16,3.24,0,1.49-.13,3.09-.4,4.8-.27,1.71-.76,3.29-1.48,4.76s-1.71,2.68-2.98,3.64c-1.27.96-2.9,1.44-4.9,1.44s-3.63-.48-4.9-1.44c-1.27-.96-2.26-2.17-2.98-3.64-.72-1.47-1.21-3.05-1.48-4.76-.27-1.71-.4-3.31-.4-4.8Zm3.84,0c0,.93.06,2.04.18,3.32s.38,2.51.78,3.7c.4,1.19.99,2.19,1.78,3.02.79.83,1.85,1.24,3.18,1.24s2.39-.41,3.18-1.24c.79-.83,1.38-1.83,1.78-3.02s.66-2.42.78-3.7c.12-1.28.18-2.39.18-3.32,0-.64-.02-1.37-.06-2.18s-.13-1.64-.28-2.48c-.15-.84-.35-1.65-.62-2.44-.27-.79-.62-1.49-1.06-2.12-.44-.63-.98-1.13-1.62-1.5-.64-.37-1.4-.56-2.28-.56s-1.64.19-2.28.56c-.64.37-1.18.87-1.62,1.5-.44.63-.79,1.33-1.06,2.12-.27.79-.47,1.6-.62,2.44-.15.84-.24,1.67-.28,2.48-.04.81-.06,1.54-.06,2.18Z"/><path class="cls-1" d="m112.4,511.16l11.36-11.28c.4-.37.79-.78,1.16-1.22.37-.44.71-.9,1-1.38.29-.48.53-.99.7-1.52.17-.53.26-1.09.26-1.68,0-.69-.13-1.32-.38-1.88-.25-.56-.6-1.03-1.04-1.42s-.96-.69-1.56-.9c-.6-.21-1.23-.32-1.9-.32-1.39,0-2.53.39-3.44,1.16-.91.77-1.48,1.84-1.72,3.2l-4.16-.36c.19-1.25.55-2.34,1.1-3.26.55-.92,1.23-1.69,2.04-2.3.81-.61,1.75-1.07,2.8-1.36,1.05-.29,2.19-.44,3.42-.44s2.38.17,3.46.5c1.08.33,2.03.83,2.84,1.48s1.45,1.47,1.92,2.44c.47.97.7,2.11.7,3.42,0,.93-.14,1.81-.42,2.62s-.65,1.58-1.1,2.3c-.45.72-.97,1.4-1.56,2.04-.59.64-1.2,1.27-1.84,1.88l-9.32,9h14.24v3.36h-18.56v-4.08Z"/><path class="cls-1" d="m134.64,511.16l11.36-11.28c.4-.37.79-.78,1.16-1.22.37-.44.71-.9,1-1.38.29-.48.53-.99.7-1.52.17-.53.26-1.09.26-1.68,0-.69-.13-1.32-.38-1.88-.25-.56-.6-1.03-1.04-1.42s-.96-.69-1.56-.9c-.6-.21-1.23-.32-1.9-.32-1.39,0-2.53.39-3.44,1.16-.91.77-1.48,1.84-1.72,3.2l-4.16-.36c.19-1.25.55-2.34,1.1-3.26.55-.92,1.23-1.69,2.04-2.3.81-.61,1.75-1.07,2.8-1.36,1.05-.29,2.19-.44,3.42-.44s2.38.17,3.46.5c1.08.33,2.03.83,2.84,1.48s1.45,1.47,1.92,2.44c.47.97.7,2.11.7,3.42,0,.93-.14,1.81-.42,2.62s-.65,1.58-1.1,2.3c-.45.72-.97,1.4-1.56,2.04-.59.64-1.2,1.27-1.84,1.88l-9.32,9h14.24v3.36h-18.56v-4.08Z"/><path class="cls-1" d="m177.4,507.24h-9.84v-3.36h9.84v3.36Z"/><path class="cls-1" d="m202.4,486.92h3.84v20.24c0,1.79-.28,3.25-.84,4.38-.56,1.13-1.26,2.03-2.1,2.68-.84.65-1.74,1.11-2.7,1.36-.96.25-1.84.38-2.64.38-2,0-3.69-.51-5.06-1.54-1.37-1.03-2.25-2.58-2.62-4.66l3.76-.84c.21,1.07.65,1.91,1.32,2.52.67.61,1.53.92,2.6.92.96,0,1.73-.19,2.3-.56.57-.37,1.02-.86,1.34-1.46.32-.6.53-1.29.64-2.06.11-.77.16-1.56.16-2.36v-19Z"/><path class="cls-1" d="m214.64,507.08c0,.83.18,1.58.54,2.26.36.68.83,1.26,1.42,1.74.59.48,1.27.85,2.04,1.12.77.27,1.57.4,2.4.4,1.12,0,2.09-.26,2.92-.78.83-.52,1.59-1.21,2.28-2.06l2.72,2.08c-2,2.59-4.8,3.88-8.4,3.88-1.49,0-2.85-.25-4.06-.76-1.21-.51-2.24-1.21-3.08-2.1-.84-.89-1.49-1.95-1.94-3.16-.45-1.21-.68-2.53-.68-3.94s.25-2.73.74-3.94c.49-1.21,1.17-2.27,2.04-3.16.87-.89,1.9-1.59,3.1-2.1s2.51-.76,3.92-.76c1.68,0,3.1.29,4.26.88,1.16.59,2.11,1.35,2.86,2.3.75.95,1.29,2.01,1.62,3.2.33,1.19.5,2.39.5,3.62v1.28h-15.2Zm11.36-2.88c-.03-.8-.15-1.53-.38-2.2-.23-.67-.57-1.25-1.02-1.74-.45-.49-1.02-.88-1.7-1.16-.68-.28-1.47-.42-2.38-.42s-1.69.17-2.42.5c-.73.33-1.35.77-1.86,1.3-.51.53-.9,1.13-1.18,1.78-.28.65-.42,1.3-.42,1.94h11.36Z"/><path class="cls-1" d="m250.96,515.24h-3.6v-2.92h-.08c-.45,1.01-1.24,1.83-2.36,2.46s-2.41.94-3.88.94c-.93,0-1.81-.14-2.64-.42-.83-.28-1.55-.71-2.18-1.3-.63-.59-1.13-1.34-1.5-2.26s-.56-2.01-.56-3.26v-12.2h3.6v11.2c0,.88.12,1.63.36,2.26.24.63.56,1.13.96,1.52.4.39.86.67,1.38.84s1.06.26,1.62.26c.75,0,1.44-.12,2.08-.36.64-.24,1.2-.62,1.68-1.14.48-.52.85-1.18,1.12-1.98.27-.8.4-1.75.4-2.84v-9.76h3.6v18.96Z"/><path class="cls-1" d="m286.52,515.24h-3.6v-2.72h-.08c-.69,1.01-1.65,1.8-2.86,2.36-1.21.56-2.46.84-3.74.84-1.47,0-2.79-.25-3.98-.76-1.19-.51-2.2-1.21-3.04-2.12-.84-.91-1.49-1.96-1.94-3.16-.45-1.2-.68-2.51-.68-3.92s.23-2.73.68-3.94c.45-1.21,1.1-2.27,1.94-3.16.84-.89,1.85-1.59,3.04-2.1,1.19-.51,2.51-.76,3.98-.76,1.36,0,2.64.29,3.84.86,1.2.57,2.12,1.35,2.76,2.34h.08v-14h3.6v30.24Zm-9.84-2.88c.96,0,1.83-.17,2.6-.5.77-.33,1.43-.79,1.96-1.36.53-.57.95-1.27,1.24-2.08.29-.81.44-1.7.44-2.66s-.15-1.85-.44-2.66c-.29-.81-.71-1.51-1.24-2.08-.53-.57-1.19-1.03-1.96-1.36-.77-.33-1.64-.5-2.6-.5s-1.83.17-2.6.5c-.77.33-1.43.79-1.96,1.36-.53.57-.95,1.27-1.24,2.08-.29.81-.44,1.7-.44,2.66s.15,1.85.44,2.66c.29.81.71,1.51,1.24,2.08.53.57,1.19,1.03,1.96,1.36.77.33,1.64.5,2.6.5Z"/><path class="cls-1" d="m294.68,507.08c0,.83.18,1.58.54,2.26.36.68.83,1.26,1.42,1.74.59.48,1.27.85,2.04,1.12.77.27,1.57.4,2.4.4,1.12,0,2.09-.26,2.92-.78.83-.52,1.59-1.21,2.28-2.06l2.72,2.08c-2,2.59-4.8,3.88-8.4,3.88-1.49,0-2.85-.25-4.06-.76-1.21-.51-2.24-1.21-3.08-2.1-.84-.89-1.49-1.95-1.94-3.16-.45-1.21-.68-2.53-.68-3.94s.25-2.73.74-3.94c.49-1.21,1.17-2.27,2.04-3.16.87-.89,1.9-1.59,3.1-2.1s2.51-.76,3.92-.76c1.68,0,3.1.29,4.26.88,1.16.59,2.11,1.35,2.86,2.3.75.95,1.29,2.01,1.62,3.2.33,1.19.5,2.39.5,3.62v1.28h-15.2Zm11.36-2.88c-.03-.8-.15-1.53-.38-2.2-.23-.67-.57-1.25-1.02-1.74-.45-.49-1.02-.88-1.7-1.16-.68-.28-1.47-.42-2.38-.42s-1.69.17-2.42.5c-.73.33-1.35.77-1.86,1.3-.51.53-.9,1.13-1.18,1.78-.28.65-.42,1.3-.42,1.94h11.36Z"/><path class="cls-1" d="m324.28,501.04c-.43-.53-.95-.98-1.58-1.34-.63-.36-1.39-.54-2.3-.54-.85,0-1.59.18-2.22.54-.63.36-.94.89-.94,1.58,0,.56.18,1.01.54,1.36.36.35.79.63,1.28.84.49.21,1.02.37,1.58.48.56.11,1.04.2,1.44.28.77.19,1.5.41,2.18.68.68.27,1.27.61,1.76,1.04.49.43.88.95,1.16,1.56.28.61.42,1.36.42,2.24,0,1.07-.23,1.98-.68,2.74-.45.76-1.04,1.38-1.76,1.86-.72.48-1.54.83-2.46,1.04-.92.21-1.85.32-2.78.32-1.57,0-2.95-.24-4.14-.72-1.19-.48-2.25-1.36-3.18-2.64l2.72-2.24c.59.59,1.24,1.11,1.96,1.56.72.45,1.6.68,2.64.68.45,0,.91-.05,1.38-.14.47-.09.88-.24,1.24-.44s.65-.45.88-.76c.23-.31.34-.66.34-1.06,0-.53-.17-.97-.5-1.32s-.73-.62-1.2-.82c-.47-.2-.96-.36-1.48-.48-.52-.12-.98-.22-1.38-.3-.77-.19-1.51-.4-2.2-.64-.69-.24-1.31-.56-1.84-.96-.53-.4-.96-.91-1.28-1.52-.32-.61-.48-1.37-.48-2.28,0-.99.21-1.85.62-2.58.41-.73.96-1.34,1.64-1.82.68-.48,1.45-.84,2.32-1.08.87-.24,1.74-.36,2.62-.36,1.28,0,2.51.24,3.68.72,1.17.48,2.11,1.28,2.8,2.4l-2.8,2.12Z"/><path class="cls-1" d="m349.16,497.88h.16c.88-.43,1.92-.64,3.12-.64,1.01,0,2.04.17,3.08.52,1.04.35,1.98.89,2.82,1.62.84.73,1.53,1.67,2.06,2.8.53,1.13.8,2.47.8,4.02s-.26,2.95-.78,4.14c-.52,1.19-1.22,2.18-2.1,2.98s-1.91,1.4-3.08,1.8c-1.17.4-2.43.6-3.76.6s-2.59-.21-3.76-.64c-1.17-.43-2.2-1.04-3.08-1.84-.88-.8-1.58-1.76-2.1-2.88s-.78-2.37-.78-3.76c0-.88.07-1.68.2-2.4.13-.72.33-1.41.58-2.06.25-.65.55-1.29.9-1.92.35-.63.73-1.29,1.16-1.98l7.16-11.32h4.52l-7.12,10.96Zm-3.56,8.6c0,.85.14,1.64.42,2.36.28.72.68,1.34,1.2,1.86.52.52,1.14.93,1.86,1.22.72.29,1.52.44,2.4.44s1.68-.15,2.4-.44c.72-.29,1.34-.7,1.86-1.22.52-.52.92-1.14,1.2-1.86.28-.72.42-1.51.42-2.36s-.14-1.64-.42-2.36c-.28-.72-.68-1.34-1.2-1.86-.52-.52-1.14-.93-1.86-1.22-.72-.29-1.52-.44-2.4-.44s-1.68.15-2.4.44c-.72.29-1.34.7-1.86,1.22-.52.52-.92,1.14-1.2,1.86-.28.72-.42,1.51-.42,2.36Z"/><path class="cls-1" d="m377.84,499.4h-4.08v-3.12h4.08v-4.24c0-2.53.49-4.42,1.46-5.66.97-1.24,2.65-1.86,5.02-1.86.4,0,.82.01,1.26.04s.91.11,1.42.24l-.4,3.2c-.35-.13-.68-.23-1-.28-.32-.05-.67-.08-1.04-.08-.67,0-1.2.1-1.6.3-.4.2-.71.49-.94.86-.23.37-.37.82-.44,1.34-.07.52-.1,1.11-.1,1.78v4.36h4.28v3.12h-4.32v15.84h-3.6v-15.84Z"/><path class="cls-1" d="m389.84,498.6c1.01-.93,2.19-1.63,3.52-2.1,1.33-.47,2.67-.7,4-.7s2.58.17,3.58.52,1.82.81,2.46,1.4c.64.59,1.11,1.26,1.42,2.02s.46,1.55.46,2.38v9.68c0,.67.01,1.28.04,1.84.03.56.07,1.09.12,1.6h-3.2c-.08-.96-.12-1.92-.12-2.88h-.08c-.8,1.23-1.75,2.09-2.84,2.6-1.09.51-2.36.76-3.8.76-.88,0-1.72-.12-2.52-.36-.8-.24-1.5-.6-2.1-1.08-.6-.48-1.07-1.07-1.42-1.78-.35-.71-.52-1.53-.52-2.46,0-1.23.27-2.25.82-3.08.55-.83,1.29-1.5,2.24-2.02.95-.52,2.05-.89,3.32-1.12,1.27-.23,2.62-.34,4.06-.34h2.64v-.8c0-.48-.09-.96-.28-1.44-.19-.48-.47-.91-.84-1.3s-.84-.69-1.4-.92-1.23-.34-2-.34c-.69,0-1.3.07-1.82.2-.52.13-.99.3-1.42.5-.43.2-.81.43-1.16.7-.35.27-.68.52-1,.76l-2.16-2.24Zm10.16,7.52c-.85,0-1.73.05-2.62.14-.89.09-1.71.27-2.44.54-.73.27-1.33.64-1.8,1.12-.47.48-.7,1.09-.7,1.84,0,1.09.37,1.88,1.1,2.36.73.48,1.73.72,2.98.72.99,0,1.83-.17,2.52-.5.69-.33,1.25-.77,1.68-1.3.43-.53.73-1.13.92-1.78.19-.65.28-1.3.28-1.94v-1.2h-1.92Z"/><path class="cls-1" d="m410.52,496.28h3.36v2.96h.08c.08-.27.29-.6.62-1s.76-.78,1.28-1.14c.52-.36,1.13-.67,1.84-.92.71-.25,1.49-.38,2.34-.38,1.41,0,2.6.29,3.56.88s1.75,1.47,2.36,2.64c.61-1.17,1.48-2.05,2.6-2.64,1.12-.59,2.25-.88,3.4-.88,1.47,0,2.67.24,3.6.72.93.48,1.67,1.11,2.2,1.9.53.79.9,1.68,1.1,2.68.2,1,.3,2.03.3,3.1v11.04h-3.6v-10.56c0-.72-.05-1.41-.14-2.08s-.29-1.25-.58-1.76c-.29-.51-.71-.91-1.24-1.22-.53-.31-1.24-.46-2.12-.46-1.73,0-2.97.53-3.72,1.6-.75,1.07-1.12,2.44-1.12,4.12v10.36h-3.6v-9.92c0-.91-.05-1.73-.14-2.48-.09-.75-.28-1.39-.56-1.94-.28-.55-.68-.97-1.2-1.28-.52-.31-1.22-.46-2.1-.46-.64,0-1.26.13-1.86.38-.6.25-1.13.63-1.58,1.14-.45.51-.81,1.15-1.08,1.94-.27.79-.4,1.71-.4,2.78v9.84h-3.6v-18.96Z"/><path class="cls-1" d="m444.04,489.48c0-.72.26-1.34.78-1.86s1.14-.78,1.86-.78,1.34.26,1.86.78c.52.52.78,1.14.78,1.86s-.26,1.34-.78,1.86-1.14.78-1.86.78-1.34-.26-1.86-.78c-.52-.52-.78-1.14-.78-1.86Zm.84,6.8h3.6v18.96h-3.6v-18.96Z"/><path class="cls-1" d="m454.48,485h3.6v30.24h-3.6v-30.24Z"/><path class="cls-1" d="m464.08,485h3.6v30.24h-3.6v-30.24Z"/><path class="cls-1" d="m476.12,507.08c0,.83.18,1.58.54,2.26.36.68.83,1.26,1.42,1.74.59.48,1.27.85,2.04,1.12.77.27,1.57.4,2.4.4,1.12,0,2.09-.26,2.92-.78.83-.52,1.59-1.21,2.28-2.06l2.72,2.08c-2,2.59-4.8,3.88-8.4,3.88-1.49,0-2.85-.25-4.06-.76-1.21-.51-2.24-1.21-3.08-2.1s-1.49-1.95-1.94-3.16c-.45-1.21-.68-2.53-.68-3.94s.25-2.73.74-3.94c.49-1.21,1.17-2.27,2.04-3.16.87-.89,1.9-1.59,3.1-2.1,1.2-.51,2.51-.76,3.92-.76,1.68,0,3.1.29,4.26.88s2.11,1.35,2.86,2.3c.75.95,1.29,2.01,1.62,3.2s.5,2.39.5,3.62v1.28h-15.2Zm11.36-2.88c-.03-.8-.15-1.53-.38-2.2-.23-.67-.57-1.25-1.02-1.74-.45-.49-1.02-.88-1.7-1.16-.68-.28-1.47-.42-2.38-.42s-1.69.17-2.42.5c-.73.33-1.35.77-1.86,1.3-.51.53-.9,1.13-1.18,1.78-.28.65-.42,1.3-.42,1.94h11.36Z"/><path class="cls-1" d="m505.72,501.04c-.43-.53-.95-.98-1.58-1.34s-1.39-.54-2.3-.54c-.85,0-1.59.18-2.22.54-.63.36-.94.89-.94,1.58,0,.56.18,1.01.54,1.36.36.35.79.63,1.28.84.49.21,1.02.37,1.58.48.56.11,1.04.2,1.44.28.77.19,1.5.41,2.18.68.68.27,1.27.61,1.76,1.04.49.43.88.95,1.16,1.56s.42,1.36.42,2.24c0,1.07-.23,1.98-.68,2.74-.45.76-1.04,1.38-1.76,1.86-.72.48-1.54.83-2.46,1.04s-1.85.32-2.78.32c-1.57,0-2.95-.24-4.14-.72-1.19-.48-2.25-1.36-3.18-2.64l2.72-2.24c.59.59,1.24,1.11,1.96,1.56s1.6.68,2.64.68c.45,0,.91-.05,1.38-.14.47-.09.88-.24,1.24-.44.36-.2.65-.45.88-.76.23-.31.34-.66.34-1.06,0-.53-.17-.97-.5-1.32-.33-.35-.73-.62-1.2-.82-.47-.2-.96-.36-1.48-.48-.52-.12-.98-.22-1.38-.3-.77-.19-1.51-.4-2.2-.64s-1.31-.56-1.84-.96c-.53-.4-.96-.91-1.28-1.52-.32-.61-.48-1.37-.48-2.28,0-.99.21-1.85.62-2.58.41-.73.96-1.34,1.64-1.82.68-.48,1.45-.84,2.32-1.08.87-.24,1.74-.36,2.62-.36,1.28,0,2.51.24,3.68.72,1.17.48,2.11,1.28,2.8,2.4l-2.8,2.12Z"/><path class="cls-1" d="m543.52,515.24h-3.6v-2.72h-.08c-.69,1.01-1.65,1.8-2.86,2.36-1.21.56-2.46.84-3.74.84-1.47,0-2.79-.25-3.98-.76-1.19-.51-2.2-1.21-3.04-2.12-.84-.91-1.49-1.96-1.94-3.16-.45-1.2-.68-2.51-.68-3.92s.23-2.73.68-3.94c.45-1.21,1.1-2.27,1.94-3.16.84-.89,1.85-1.59,3.04-2.1s2.51-.76,3.98-.76c1.36,0,2.64.29,3.84.86,1.2.57,2.12,1.35,2.76,2.34h.08v-14h3.6v30.24Zm-9.84-2.88c.96,0,1.83-.17,2.6-.5.77-.33,1.43-.79,1.96-1.36.53-.57.95-1.27,1.24-2.08.29-.81.44-1.7.44-2.66s-.15-1.85-.44-2.66-.71-1.51-1.24-2.08c-.53-.57-1.19-1.03-1.96-1.36-.77-.33-1.64-.5-2.6-.5s-1.83.17-2.6.5c-.77.33-1.43.79-1.96,1.36-.53.57-.95,1.27-1.24,2.08-.29.81-.44,1.7-.44,2.66s.15,1.85.44,2.66c.29.81.71,1.51,1.24,2.08.53.57,1.19,1.03,1.96,1.36.77.33,1.64.5,2.6.5Z"/><path class="cls-1" d="m551.68,507.08c0,.83.18,1.58.54,2.26.36.68.83,1.26,1.42,1.74.59.48,1.27.85,2.04,1.12.77.27,1.57.4,2.4.4,1.12,0,2.09-.26,2.92-.78.83-.52,1.59-1.21,2.28-2.06l2.72,2.08c-2,2.59-4.8,3.88-8.4,3.88-1.49,0-2.85-.25-4.06-.76-1.21-.51-2.24-1.21-3.08-2.1s-1.49-1.95-1.94-3.16c-.45-1.21-.68-2.53-.68-3.94s.25-2.73.74-3.94c.49-1.21,1.17-2.27,2.04-3.16.87-.89,1.9-1.59,3.1-2.1,1.2-.51,2.51-.76,3.92-.76,1.68,0,3.1.29,4.26.88s2.11,1.35,2.86,2.3c.75.95,1.29,2.01,1.62,3.2s.5,2.39.5,3.62v1.28h-15.2Zm11.36-2.88c-.03-.8-.15-1.53-.38-2.2-.23-.67-.57-1.25-1.02-1.74-.45-.49-1.02-.88-1.7-1.16-.68-.28-1.47-.42-2.38-.42s-1.69.17-2.42.5c-.73.33-1.35.77-1.86,1.3-.51.53-.9,1.13-1.18,1.78-.28.65-.42,1.3-.42,1.94h11.36Z"/><path class="cls-1" d="m580.04,496.28h4.16l5.68,14.52,5.44-14.52h3.84l-7.44,18.96h-3.96l-7.72-18.96Z"/><path class="cls-1" d="m602.4,498.6c1.01-.93,2.19-1.63,3.52-2.1,1.33-.47,2.67-.7,4-.7s2.58.17,3.58.52,1.82.81,2.46,1.4c.64.59,1.11,1.26,1.42,2.02.31.76.46,1.55.46,2.38v9.68c0,.67.01,1.28.04,1.84.03.56.07,1.09.12,1.6h-3.2c-.08-.96-.12-1.92-.12-2.88h-.08c-.8,1.23-1.75,2.09-2.84,2.6-1.09.51-2.36.76-3.8.76-.88,0-1.72-.12-2.52-.36s-1.5-.6-2.1-1.08c-.6-.48-1.07-1.07-1.42-1.78-.35-.71-.52-1.53-.52-2.46,0-1.23.27-2.25.82-3.08.55-.83,1.29-1.5,2.24-2.02.95-.52,2.05-.89,3.32-1.12s2.62-.34,4.06-.34h2.64v-.8c0-.48-.09-.96-.28-1.44s-.47-.91-.84-1.3-.84-.69-1.4-.92c-.56-.23-1.23-.34-2-.34-.69,0-1.3.07-1.82.2-.52.13-.99.3-1.42.5-.43.2-.81.43-1.16.7-.35.27-.68.52-1,.76l-2.16-2.24Zm10.16,7.52c-.85,0-1.73.05-2.62.14-.89.09-1.71.27-2.44.54-.73.27-1.33.64-1.8,1.12-.47.48-.7,1.09-.7,1.84,0,1.09.37,1.88,1.1,2.36.73.48,1.73.72,2.98.72.99,0,1.83-.17,2.52-.5.69-.33,1.25-.77,1.68-1.3.43-.53.73-1.13.92-1.78.19-.65.28-1.3.28-1.94v-1.2h-1.92Z"/><path class="cls-1" d="m636.64,501.32c-.67-.69-1.37-1.22-2.1-1.58s-1.61-.54-2.62-.54-1.85.18-2.58.54c-.73.36-1.35.85-1.84,1.48-.49.63-.87,1.35-1.12,2.16-.25.81-.38,1.66-.38,2.54s.15,1.71.44,2.5c.29.79.71,1.47,1.24,2.06.53.59,1.17,1.05,1.92,1.38.75.33,1.59.5,2.52.5,1.01,0,1.88-.18,2.6-.54.72-.36,1.39-.89,2-1.58l2.56,2.56c-.93,1.04-2.02,1.79-3.26,2.24s-2.55.68-3.94.68c-1.47,0-2.81-.24-4.02-.72-1.21-.48-2.26-1.15-3.14-2.02-.88-.87-1.56-1.91-2.04-3.12-.48-1.21-.72-2.55-.72-4.02s.24-2.81.72-4.04c.48-1.23,1.15-2.28,2.02-3.16.87-.88,1.91-1.57,3.12-2.06,1.21-.49,2.57-.74,4.06-.74,1.39,0,2.71.25,3.98.74,1.27.49,2.37,1.25,3.3,2.26l-2.72,2.48Z"/><path class="cls-1" d="m642.44,498.6c1.01-.93,2.19-1.63,3.52-2.1,1.33-.47,2.67-.7,4-.7s2.58.17,3.58.52,1.82.81,2.46,1.4c.64.59,1.11,1.26,1.42,2.02.31.76.46,1.55.46,2.38v9.68c0,.67.01,1.28.04,1.84.03.56.07,1.09.12,1.6h-3.2c-.08-.96-.12-1.92-.12-2.88h-.08c-.8,1.23-1.75,2.09-2.84,2.6-1.09.51-2.36.76-3.8.76-.88,0-1.72-.12-2.52-.36s-1.5-.6-2.1-1.08c-.6-.48-1.07-1.07-1.42-1.78-.35-.71-.52-1.53-.52-2.46,0-1.23.27-2.25.82-3.08.55-.83,1.29-1.5,2.24-2.02.95-.52,2.05-.89,3.32-1.12s2.62-.34,4.06-.34h2.64v-.8c0-.48-.09-.96-.28-1.44s-.47-.91-.84-1.3-.84-.69-1.4-.92c-.56-.23-1.23-.34-2-.34-.69,0-1.3.07-1.82.2-.52.13-.99.3-1.42.5-.43.2-.81.43-1.16.7-.35.27-.68.52-1,.76l-2.16-2.24Zm10.16,7.52c-.85,0-1.73.05-2.62.14-.89.09-1.71.27-2.44.54-.73.27-1.33.64-1.8,1.12-.47.48-.7,1.09-.7,1.84,0,1.09.37,1.88,1.1,2.36.73.48,1.73.72,2.98.72.99,0,1.83-.17,2.52-.5.69-.33,1.25-.77,1.68-1.3.43-.53.73-1.13.92-1.78.19-.65.28-1.3.28-1.94v-1.2h-1.92Z"/><path class="cls-1" d="m663.12,496.28h3.6v2.92h.08c.45-1.01,1.24-1.83,2.36-2.46,1.12-.63,2.41-.94,3.88-.94.91,0,1.78.14,2.62.42.84.28,1.57.71,2.2,1.3.63.59,1.13,1.34,1.5,2.26.37.92.56,2.01.56,3.26v12.2h-3.6v-11.2c0-.88-.12-1.63-.36-2.26-.24-.63-.56-1.13-.96-1.52-.4-.39-.86-.67-1.38-.84-.52-.17-1.06-.26-1.62-.26-.75,0-1.44.12-2.08.36-.64.24-1.2.62-1.68,1.14-.48.52-.85,1.18-1.12,1.98-.27.8-.4,1.75-.4,2.84v9.76h-3.6v-18.96Z"/><path class="cls-1" d="m698.92,501.32c-.67-.69-1.37-1.22-2.1-1.58s-1.61-.54-2.62-.54-1.85.18-2.58.54c-.73.36-1.35.85-1.84,1.48-.49.63-.87,1.35-1.12,2.16-.25.81-.38,1.66-.38,2.54s.15,1.71.44,2.5c.29.79.71,1.47,1.24,2.06.53.59,1.17,1.05,1.92,1.38.75.33,1.59.5,2.52.5,1.01,0,1.88-.18,2.6-.54.72-.36,1.39-.89,2-1.58l2.56,2.56c-.93,1.04-2.02,1.79-3.26,2.24s-2.55.68-3.94.68c-1.47,0-2.81-.24-4.02-.72-1.21-.48-2.26-1.15-3.14-2.02-.88-.87-1.56-1.91-2.04-3.12-.48-1.21-.72-2.55-.72-4.02s.24-2.81.72-4.04c.48-1.23,1.15-2.28,2.02-3.16.87-.88,1.91-1.57,3.12-2.06,1.21-.49,2.57-.74,4.06-.74,1.39,0,2.71.25,3.98.74,1.27.49,2.37,1.25,3.3,2.26l-2.72,2.48Z"/><path class="cls-1" d="m707.36,507.08c0,.83.18,1.58.54,2.26.36.68.83,1.26,1.42,1.74.59.48,1.27.85,2.04,1.12.77.27,1.57.4,2.4.4,1.12,0,2.09-.26,2.92-.78.83-.52,1.59-1.21,2.28-2.06l2.72,2.08c-2,2.59-4.8,3.88-8.4,3.88-1.49,0-2.85-.25-4.06-.76-1.21-.51-2.24-1.21-3.08-2.1s-1.49-1.95-1.94-3.16c-.45-1.21-.68-2.53-.68-3.94s.25-2.73.74-3.94c.49-1.21,1.17-2.27,2.04-3.16.87-.89,1.9-1.59,3.1-2.1,1.2-.51,2.51-.76,3.92-.76,1.68,0,3.1.29,4.26.88s2.11,1.35,2.86,2.3c.75.95,1.29,2.01,1.62,3.2s.5,2.39.5,3.62v1.28h-15.2Zm11.36-2.88c-.03-.8-.15-1.53-.38-2.2-.23-.67-.57-1.25-1.02-1.74-.45-.49-1.02-.88-1.7-1.16-.68-.28-1.47-.42-2.38-.42s-1.69.17-2.42.5c-.73.33-1.35.77-1.86,1.3-.51.53-.9,1.13-1.18,1.78-.28.65-.42,1.3-.42,1.94h11.36Z"/><path class="cls-1" d="m736.96,501.04c-.43-.53-.95-.98-1.58-1.34s-1.39-.54-2.3-.54c-.85,0-1.59.18-2.22.54-.63.36-.94.89-.94,1.58,0,.56.18,1.01.54,1.36.36.35.79.63,1.28.84.49.21,1.02.37,1.58.48.56.11,1.04.2,1.44.28.77.19,1.5.41,2.18.68.68.27,1.27.61,1.76,1.04.49.43.88.95,1.16,1.56s.42,1.36.42,2.24c0,1.07-.23,1.98-.68,2.74-.45.76-1.04,1.38-1.76,1.86-.72.48-1.54.83-2.46,1.04s-1.85.32-2.78.32c-1.57,0-2.95-.24-4.14-.72-1.19-.48-2.25-1.36-3.18-2.64l2.72-2.24c.59.59,1.24,1.11,1.96,1.56s1.6.68,2.64.68c.45,0,.91-.05,1.38-.14.47-.09.88-.24,1.24-.44.36-.2.65-.45.88-.76.23-.31.34-.66.34-1.06,0-.53-.17-.97-.5-1.32-.33-.35-.73-.62-1.2-.82-.47-.2-.96-.36-1.48-.48-.52-.12-.98-.22-1.38-.3-.77-.19-1.51-.4-2.2-.64s-1.31-.56-1.84-.96c-.53-.4-.96-.91-1.28-1.52-.32-.61-.48-1.37-.48-2.28,0-.99.21-1.85.62-2.58.41-.73.96-1.34,1.64-1.82.68-.48,1.45-.84,2.32-1.08.87-.24,1.74-.36,2.62-.36,1.28,0,2.51.24,3.68.72,1.17.48,2.11,1.28,2.8,2.4l-2.8,2.12Z"/><path class="cls-1" d="m73.04,549.04c-.43-.53-.95-.98-1.58-1.34-.63-.36-1.39-.54-2.3-.54-.85,0-1.59.18-2.22.54-.63.36-.94.89-.94,1.58,0,.56.18,1.01.54,1.36.36.35.79.63,1.28.84.49.21,1.02.37,1.58.48.56.11,1.04.2,1.44.28.77.19,1.5.41,2.18.68.68.27,1.27.61,1.76,1.04.49.43.88.95,1.16,1.56.28.61.42,1.36.42,2.24,0,1.07-.23,1.98-.68,2.74-.45.76-1.04,1.38-1.76,1.86-.72.48-1.54.83-2.46,1.04-.92.21-1.85.32-2.78.32-1.57,0-2.95-.24-4.14-.72-1.19-.48-2.25-1.36-3.18-2.64l2.72-2.24c.59.59,1.24,1.11,1.96,1.56.72.45,1.6.68,2.64.68.45,0,.91-.05,1.38-.14.47-.09.88-.24,1.24-.44s.65-.45.88-.76c.23-.31.34-.66.34-1.06,0-.53-.17-.97-.5-1.32s-.73-.62-1.2-.82c-.47-.2-.96-.36-1.48-.48-.52-.12-.98-.22-1.38-.3-.77-.19-1.51-.4-2.2-.64-.69-.24-1.31-.56-1.84-.96-.53-.4-.96-.91-1.28-1.52-.32-.61-.48-1.37-.48-2.28,0-.99.21-1.85.62-2.58.41-.73.96-1.34,1.64-1.82.68-.48,1.45-.84,2.32-1.08.87-.24,1.74-.36,2.62-.36,1.28,0,2.51.24,3.68.72,1.17.48,2.11,1.28,2.8,2.4l-2.8,2.12Z"/><path class="cls-1" d="m83.44,555.08c0,.83.18,1.58.54,2.26.36.68.83,1.26,1.42,1.74.59.48,1.27.85,2.04,1.12.77.27,1.57.4,2.4.4,1.12,0,2.09-.26,2.92-.78.83-.52,1.59-1.21,2.28-2.06l2.72,2.08c-2,2.59-4.8,3.88-8.4,3.88-1.49,0-2.85-.25-4.06-.76-1.21-.51-2.24-1.21-3.08-2.1-.84-.89-1.49-1.95-1.94-3.16-.45-1.21-.68-2.53-.68-3.94s.25-2.73.74-3.94c.49-1.21,1.17-2.27,2.04-3.16.87-.89,1.9-1.59,3.1-2.1s2.51-.76,3.92-.76c1.68,0,3.1.29,4.26.88,1.16.59,2.11,1.35,2.86,2.3.75.95,1.29,2.01,1.62,3.2.33,1.19.5,2.39.5,3.62v1.28h-15.2Zm11.36-2.88c-.03-.8-.15-1.53-.38-2.2-.23-.67-.57-1.25-1.02-1.74-.45-.49-1.02-.88-1.7-1.16-.68-.28-1.47-.42-2.38-.42s-1.69.17-2.42.5c-.73.33-1.35.77-1.86,1.3-.51.53-.9,1.13-1.18,1.78-.28.65-.42,1.3-.42,1.94h11.36Zm-4.16-17.28h5.12l-5.96,5.76h-3.32l4.16-5.76Z"/><path class="cls-1" d="m102.96,544.28h3.6v2.92h.08c.24-.51.56-.97.96-1.38.4-.41.85-.77,1.34-1.06.49-.29,1.03-.53,1.62-.7.59-.17,1.17-.26,1.76-.26s1.12.08,1.6.24l-.16,3.88c-.29-.08-.59-.15-.88-.2-.29-.05-.59-.08-.88-.08-1.76,0-3.11.49-4.04,1.48-.93.99-1.4,2.52-1.4,4.6v9.52h-3.6v-18.96Z"/><path class="cls-1" d="m117.2,537.48c0-.72.26-1.34.78-1.86.52-.52,1.14-.78,1.86-.78s1.34.26,1.86.78c.52.52.78,1.14.78,1.86s-.26,1.34-.78,1.86c-.52.52-1.14.78-1.86.78s-1.34-.26-1.86-.78c-.52-.52-.78-1.14-.78-1.86Zm.84,6.8h3.6v18.96h-3.6v-18.96Z"/><path class="cls-1" d="m146.36,563.08c0,1.44-.25,2.75-.74,3.94-.49,1.19-1.19,2.21-2.1,3.08-.91.87-2,1.54-3.28,2.02-1.28.48-2.69.72-4.24.72-1.81,0-3.47-.25-4.98-.76-1.51-.51-2.94-1.39-4.3-2.64l2.44-3.04c.93,1.01,1.95,1.78,3.04,2.3,1.09.52,2.33.78,3.72.78s2.44-.19,3.32-.58c.88-.39,1.58-.89,2.1-1.5.52-.61.89-1.31,1.1-2.1.21-.79.32-1.58.32-2.38v-2.8h-.12c-.69,1.15-1.63,1.99-2.82,2.54-1.19.55-2.43.82-3.74.82-1.39,0-2.67-.25-3.86-.74-1.19-.49-2.21-1.17-3.06-2.04-.85-.87-1.52-1.89-2-3.08s-.72-2.47-.72-3.86.23-2.69.68-3.9c.45-1.21,1.1-2.27,1.94-3.18s1.85-1.61,3.04-2.12c1.19-.51,2.51-.76,3.98-.76,1.28,0,2.53.28,3.74.84,1.21.56,2.17,1.35,2.86,2.36h.08v-2.72h3.6v18.8Zm-9.84-15.92c-.96,0-1.83.17-2.6.5-.77.33-1.43.79-1.96,1.36-.53.57-.95,1.27-1.24,2.08-.29.81-.44,1.7-.44,2.66,0,1.92.56,3.46,1.68,4.62,1.12,1.16,2.64,1.74,4.56,1.74s3.44-.58,4.56-1.74c1.12-1.16,1.68-2.7,1.68-4.62,0-.96-.15-1.85-.44-2.66-.29-.81-.71-1.51-1.24-2.08-.53-.57-1.19-1.03-1.96-1.36-.77-.33-1.64-.5-2.6-.5Z"/><path class="cls-1" d="m151.8,544.28h3.6v2.92h.08c.24-.51.56-.97.96-1.38.4-.41.85-.77,1.34-1.06.49-.29,1.03-.53,1.62-.7.59-.17,1.17-.26,1.76-.26s1.12.08,1.6.24l-.16,3.88c-.29-.08-.59-.15-.88-.2-.29-.05-.59-.08-.88-.08-1.76,0-3.11.49-4.04,1.48-.93.99-1.4,2.52-1.4,4.6v9.52h-3.6v-18.96Z"/><path class="cls-1" d="m166.68,546.6c1.01-.93,2.19-1.63,3.52-2.1,1.33-.47,2.67-.7,4-.7s2.58.17,3.58.52,1.82.81,2.46,1.4c.64.59,1.11,1.26,1.42,2.02s.46,1.55.46,2.38v9.68c0,.67.01,1.28.04,1.84.03.56.07,1.09.12,1.6h-3.2c-.08-.96-.12-1.92-.12-2.88h-.08c-.8,1.23-1.75,2.09-2.84,2.6-1.09.51-2.36.76-3.8.76-.88,0-1.72-.12-2.52-.36-.8-.24-1.5-.6-2.1-1.08-.6-.48-1.07-1.07-1.42-1.78-.35-.71-.52-1.53-.52-2.46,0-1.23.27-2.25.82-3.08.55-.83,1.29-1.5,2.24-2.02.95-.52,2.05-.89,3.32-1.12,1.27-.23,2.62-.34,4.06-.34h2.64v-.8c0-.48-.09-.96-.28-1.44-.19-.48-.47-.91-.84-1.3s-.84-.69-1.4-.92-1.23-.34-2-.34c-.69,0-1.3.07-1.82.2-.52.13-.99.3-1.42.5-.43.2-.81.43-1.16.7-.35.27-.68.52-1,.76l-2.16-2.24Zm10.16,7.52c-.85,0-1.73.05-2.62.14-.89.09-1.71.27-2.44.54-.73.27-1.33.64-1.8,1.12-.47.48-.7,1.09-.7,1.84,0,1.09.37,1.88,1.1,2.36.73.48,1.73.72,2.98.72.99,0,1.83-.17,2.52-.5.69-.33,1.25-.77,1.68-1.3.43-.53.73-1.13.92-1.78.19-.65.28-1.3.28-1.94v-1.2h-1.92Z"/><path class="cls-1" d="m187.36,544.28h3.6v2.72h.08c.69-1.01,1.65-1.8,2.86-2.36,1.21-.56,2.46-.84,3.74-.84,1.47,0,2.79.25,3.98.76,1.19.51,2.2,1.21,3.04,2.12s1.49,1.97,1.94,3.18c.45,1.21.68,2.51.68,3.9s-.23,2.73-.68,3.94c-.45,1.21-1.1,2.27-1.94,3.16s-1.85,1.59-3.04,2.1c-1.19.51-2.51.76-3.98.76-1.36,0-2.64-.29-3.84-.86-1.2-.57-2.12-1.35-2.76-2.34h-.08v14h-3.6v-30.24Zm9.84,2.88c-.96,0-1.83.17-2.6.5-.77.33-1.43.79-1.96,1.36-.53.57-.95,1.27-1.24,2.08s-.44,1.7-.44,2.66.15,1.85.44,2.66c.29.81.71,1.51,1.24,2.08.53.57,1.19,1.03,1.96,1.36.77.33,1.64.5,2.6.5s1.83-.17,2.6-.5c.77-.33,1.43-.79,1.96-1.36.53-.57.95-1.27,1.24-2.08.29-.81.44-1.7.44-2.66s-.15-1.85-.44-2.66-.71-1.51-1.24-2.08c-.53-.57-1.19-1.03-1.96-1.36-.77-.33-1.64-.5-2.6-.5Z"/><path class="cls-1" d="m211.8,533h3.6v14.2h.08c.45-1.01,1.24-1.83,2.36-2.46,1.12-.63,2.41-.94,3.88-.94.91,0,1.78.14,2.62.42.84.28,1.57.71,2.2,1.3.63.59,1.13,1.34,1.5,2.26.37.92.56,2.01.56,3.26v12.2h-3.6v-11.2c0-.88-.12-1.63-.36-2.26-.24-.63-.56-1.13-.96-1.52-.4-.39-.86-.67-1.38-.84-.52-.17-1.06-.26-1.62-.26-.75,0-1.44.12-2.08.36-.64.24-1.2.62-1.68,1.14-.48.52-.85,1.18-1.12,1.98-.27.8-.4,1.75-.4,2.84v9.76h-3.6v-30.24Z"/><path class="cls-1" d="m233.48,537.48c0-.72.26-1.34.78-1.86.52-.52,1.14-.78,1.86-.78s1.34.26,1.86.78c.52.52.78,1.14.78,1.86s-.26,1.34-.78,1.86c-.52.52-1.14.78-1.86.78s-1.34-.26-1.86-.78c-.52-.52-.78-1.14-.78-1.86Zm.84,6.8h3.6v18.96h-3.6v-18.96Z"/><path class="cls-1" d="m246.36,555.08c0,.83.18,1.58.54,2.26.36.68.83,1.26,1.42,1.74.59.48,1.27.85,2.04,1.12.77.27,1.57.4,2.4.4,1.12,0,2.09-.26,2.92-.78.83-.52,1.59-1.21,2.28-2.06l2.72,2.08c-2,2.59-4.8,3.88-8.4,3.88-1.49,0-2.85-.25-4.06-.76-1.21-.51-2.24-1.21-3.08-2.1-.84-.89-1.49-1.95-1.94-3.16-.45-1.21-.68-2.53-.68-3.94s.25-2.73.74-3.94c.49-1.21,1.17-2.27,2.04-3.16.87-.89,1.9-1.59,3.1-2.1s2.51-.76,3.92-.76c1.68,0,3.1.29,4.26.88,1.16.59,2.11,1.35,2.86,2.3.75.95,1.29,2.01,1.62,3.2.33,1.19.5,2.39.5,3.62v1.28h-15.2Zm11.36-2.88c-.03-.8-.15-1.53-.38-2.2-.23-.67-.57-1.25-1.02-1.74-.45-.49-1.02-.88-1.7-1.16-.68-.28-1.47-.42-2.38-.42s-1.69.17-2.42.5c-.73.33-1.35.77-1.86,1.3-.51.53-.9,1.13-1.18,1.78-.28.65-.42,1.3-.42,1.94h11.36Zm-4.16-17.28h5.12l-5.96,5.76h-3.32l4.16-5.76Z"/><path class="cls-1" d="m277.08,546.6c1.01-.93,2.19-1.63,3.52-2.1,1.33-.47,2.67-.7,4-.7s2.58.17,3.58.52,1.82.81,2.46,1.4c.64.59,1.11,1.26,1.42,2.02s.46,1.55.46,2.38v9.68c0,.67.01,1.28.04,1.84.03.56.07,1.09.12,1.6h-3.2c-.08-.96-.12-1.92-.12-2.88h-.08c-.8,1.23-1.75,2.09-2.84,2.6-1.09.51-2.36.76-3.8.76-.88,0-1.72-.12-2.52-.36-.8-.24-1.5-.6-2.1-1.08-.6-.48-1.07-1.07-1.42-1.78-.35-.71-.52-1.53-.52-2.46,0-1.23.27-2.25.82-3.08.55-.83,1.29-1.5,2.24-2.02.95-.52,2.05-.89,3.32-1.12,1.27-.23,2.62-.34,4.06-.34h2.64v-.8c0-.48-.09-.96-.28-1.44-.19-.48-.47-.91-.84-1.3s-.84-.69-1.4-.92-1.23-.34-2-.34c-.69,0-1.3.07-1.82.2-.52.13-.99.3-1.42.5-.43.2-.81.43-1.16.7-.35.27-.68.52-1,.76l-2.16-2.24Zm10.16,7.52c-.85,0-1.73.05-2.62.14-.89.09-1.71.27-2.44.54-.73.27-1.33.64-1.8,1.12-.47.48-.7,1.09-.7,1.84,0,1.09.37,1.88,1.1,2.36.73.48,1.73.72,2.98.72.99,0,1.83-.17,2.52-.5.69-.33,1.25-.77,1.68-1.3.43-.53.73-1.13.92-1.78.19-.65.28-1.3.28-1.94v-1.2h-1.92Z"/><path class="cls-1" d="m295.48,544.28h4.16l5.68,14.52,5.44-14.52h3.84l-7.44,18.96h-3.96l-7.72-18.96Z"/><path class="cls-1" d="m320.48,555.08c0,.83.18,1.58.54,2.26.36.68.83,1.26,1.42,1.74.59.48,1.27.85,2.04,1.12.77.27,1.57.4,2.4.4,1.12,0,2.09-.26,2.92-.78.83-.52,1.59-1.21,2.28-2.06l2.72,2.08c-2,2.59-4.8,3.88-8.4,3.88-1.49,0-2.85-.25-4.06-.76-1.21-.51-2.24-1.21-3.08-2.1-.84-.89-1.49-1.95-1.94-3.16-.45-1.21-.68-2.53-.68-3.94s.25-2.73.74-3.94c.49-1.21,1.17-2.27,2.04-3.16.87-.89,1.9-1.59,3.1-2.1s2.51-.76,3.92-.76c1.68,0,3.1.29,4.26.88,1.16.59,2.11,1.35,2.86,2.3.75.95,1.29,2.01,1.62,3.2.33,1.19.5,2.39.5,3.62v1.28h-15.2Zm11.36-2.88c-.03-.8-.15-1.53-.38-2.2-.23-.67-.57-1.25-1.02-1.74-.45-.49-1.02-.88-1.7-1.16-.68-.28-1.47-.42-2.38-.42s-1.69.17-2.42.5c-.73.33-1.35.77-1.86,1.3-.51.53-.9,1.13-1.18,1.78-.28.65-.42,1.3-.42,1.94h11.36Z"/><path class="cls-1" d="m353.56,549.32c-.67-.69-1.37-1.22-2.1-1.58-.73-.36-1.61-.54-2.62-.54s-1.85.18-2.58.54c-.73.36-1.35.85-1.84,1.48-.49.63-.87,1.35-1.12,2.16-.25.81-.38,1.66-.38,2.54s.15,1.71.44,2.5c.29.79.71,1.47,1.24,2.06.53.59,1.17,1.05,1.92,1.38.75.33,1.59.5,2.52.5,1.01,0,1.88-.18,2.6-.54.72-.36,1.39-.89,2-1.58l2.56,2.56c-.93,1.04-2.02,1.79-3.26,2.24-1.24.45-2.55.68-3.94.68-1.47,0-2.81-.24-4.02-.72-1.21-.48-2.26-1.15-3.14-2.02s-1.56-1.91-2.04-3.12c-.48-1.21-.72-2.55-.72-4.02s.24-2.81.72-4.04c.48-1.23,1.15-2.28,2.02-3.16.87-.88,1.91-1.57,3.12-2.06,1.21-.49,2.57-.74,4.06-.74,1.39,0,2.71.25,3.98.74,1.27.49,2.37,1.25,3.3,2.26l-2.72,2.48Z"/><path class="cls-1" d="m389.4,563.24h-3.6v-2.72h-.08c-.69,1.01-1.65,1.8-2.86,2.36-1.21.56-2.46.84-3.74.84-1.47,0-2.79-.25-3.98-.76-1.19-.51-2.2-1.21-3.04-2.12-.84-.91-1.49-1.96-1.94-3.16-.45-1.2-.68-2.51-.68-3.92s.23-2.73.68-3.94c.45-1.21,1.1-2.27,1.94-3.16.84-.89,1.85-1.59,3.04-2.1,1.19-.51,2.51-.76,3.98-.76,1.36,0,2.64.29,3.84.86,1.2.57,2.12,1.35,2.76,2.34h.08v-14h3.6v30.24Zm-9.84-2.88c.96,0,1.83-.17,2.6-.5.77-.33,1.43-.79,1.96-1.36.53-.57.95-1.27,1.24-2.08.29-.81.44-1.7.44-2.66s-.15-1.85-.44-2.66c-.29-.81-.71-1.51-1.24-2.08-.53-.57-1.19-1.03-1.96-1.36-.77-.33-1.64-.5-2.6-.5s-1.83.17-2.6.5c-.77.33-1.43.79-1.96,1.36-.53.57-.95,1.27-1.24,2.08-.29.81-.44,1.7-.44,2.66s.15,1.85.44,2.66c.29.81.71,1.51,1.24,2.08.53.57,1.19,1.03,1.96,1.36.77.33,1.64.5,2.6.5Z"/><path class="cls-1" d="m397.56,555.08c0,.83.18,1.58.54,2.26.36.68.83,1.26,1.42,1.74.59.48,1.27.85,2.04,1.12.77.27,1.57.4,2.4.4,1.12,0,2.09-.26,2.92-.78.83-.52,1.59-1.21,2.28-2.06l2.72,2.08c-2,2.59-4.8,3.88-8.4,3.88-1.49,0-2.85-.25-4.06-.76-1.21-.51-2.24-1.21-3.08-2.1-.84-.89-1.49-1.95-1.94-3.16-.45-1.21-.68-2.53-.68-3.94s.25-2.73.74-3.94c.49-1.21,1.17-2.27,2.04-3.16.87-.89,1.9-1.59,3.1-2.1s2.51-.76,3.92-.76c1.68,0,3.1.29,4.26.88,1.16.59,2.11,1.35,2.86,2.3.75.95,1.29,2.01,1.62,3.2.33,1.19.5,2.39.5,3.62v1.28h-15.2Zm11.36-2.88c-.03-.8-.15-1.53-.38-2.2-.23-.67-.57-1.25-1.02-1.74-.45-.49-1.02-.88-1.7-1.16-.68-.28-1.47-.42-2.38-.42s-1.69.17-2.42.5c-.73.33-1.35.77-1.86,1.3-.51.53-.9,1.13-1.18,1.78-.28.65-.42,1.3-.42,1.94h11.36Z"/><path class="cls-1" d="m427.16,549.04c-.43-.53-.95-.98-1.58-1.34-.63-.36-1.39-.54-2.3-.54-.85,0-1.59.18-2.22.54-.63.36-.94.89-.94,1.58,0,.56.18,1.01.54,1.36.36.35.79.63,1.28.84.49.21,1.02.37,1.58.48.56.11,1.04.2,1.44.28.77.19,1.5.41,2.18.68.68.27,1.27.61,1.76,1.04.49.43.88.95,1.16,1.56.28.61.42,1.36.42,2.24,0,1.07-.23,1.98-.68,2.74-.45.76-1.04,1.38-1.76,1.86-.72.48-1.54.83-2.46,1.04-.92.21-1.85.32-2.78.32-1.57,0-2.95-.24-4.14-.72-1.19-.48-2.25-1.36-3.18-2.64l2.72-2.24c.59.59,1.24,1.11,1.96,1.56.72.45,1.6.68,2.64.68.45,0,.91-.05,1.38-.14.47-.09.88-.24,1.24-.44s.65-.45.88-.76c.23-.31.34-.66.34-1.06,0-.53-.17-.97-.5-1.32s-.73-.62-1.2-.82c-.47-.2-.96-.36-1.48-.48-.52-.12-.98-.22-1.38-.3-.77-.19-1.51-.4-2.2-.64-.69-.24-1.31-.56-1.84-.96-.53-.4-.96-.91-1.28-1.52-.32-.61-.48-1.37-.48-2.28,0-.99.21-1.85.62-2.58.41-.73.96-1.34,1.64-1.82.68-.48,1.45-.84,2.32-1.08.87-.24,1.74-.36,2.62-.36,1.28,0,2.51.24,3.68.72,1.17.48,2.11,1.28,2.8,2.4l-2.8,2.12Z"/><path class="cls-1" d="m448.68,555.08c0,.83.18,1.58.54,2.26.36.68.83,1.26,1.42,1.74.59.48,1.27.85,2.04,1.12.77.27,1.57.4,2.4.4,1.12,0,2.09-.26,2.92-.78.83-.52,1.59-1.21,2.28-2.06l2.72,2.08c-2,2.59-4.8,3.88-8.4,3.88-1.49,0-2.85-.25-4.06-.76-1.21-.51-2.24-1.21-3.08-2.1s-1.49-1.95-1.94-3.16c-.45-1.21-.68-2.53-.68-3.94s.25-2.73.74-3.94c.49-1.21,1.17-2.27,2.04-3.16.87-.89,1.9-1.59,3.1-2.1,1.2-.51,2.51-.76,3.92-.76,1.68,0,3.1.29,4.26.88s2.11,1.35,2.86,2.3c.75.95,1.29,2.01,1.62,3.2s.5,2.39.5,3.62v1.28h-15.2Zm11.36-2.88c-.03-.8-.15-1.53-.38-2.2-.23-.67-.57-1.25-1.02-1.74-.45-.49-1.02-.88-1.7-1.16-.68-.28-1.47-.42-2.38-.42s-1.69.17-2.42.5c-.73.33-1.35.77-1.86,1.3-.51.53-.9,1.13-1.18,1.78-.28.65-.42,1.3-.42,1.94h11.36Z"/><path class="cls-1" d="m468.2,544.28h3.6v2.92h.08c.45-1.01,1.24-1.83,2.36-2.46,1.12-.63,2.41-.94,3.88-.94.91,0,1.78.14,2.62.42.84.28,1.57.71,2.2,1.3.63.59,1.13,1.34,1.5,2.26.37.92.56,2.01.56,3.26v12.2h-3.6v-11.2c0-.88-.12-1.63-.36-2.26-.24-.63-.56-1.13-.96-1.52-.4-.39-.86-.67-1.38-.84-.52-.17-1.06-.26-1.62-.26-.75,0-1.44.12-2.08.36-.64.24-1.2.62-1.68,1.14-.48.52-.85,1.18-1.12,1.98-.27.8-.4,1.75-.4,2.84v9.76h-3.6v-18.96Z"/><path class="cls-1" d="m504,549.32c-.67-.69-1.37-1.22-2.1-1.58s-1.61-.54-2.62-.54-1.85.18-2.58.54c-.73.36-1.35.85-1.84,1.48-.49.63-.87,1.35-1.12,2.16-.25.81-.38,1.66-.38,2.54s.15,1.71.44,2.5c.29.79.71,1.47,1.24,2.06.53.59,1.17,1.05,1.92,1.38.75.33,1.59.5,2.52.5,1.01,0,1.88-.18,2.6-.54.72-.36,1.39-.89,2-1.58l2.56,2.56c-.93,1.04-2.02,1.79-3.26,2.24s-2.55.68-3.94.68c-1.47,0-2.81-.24-4.02-.72-1.21-.48-2.26-1.15-3.14-2.02-.88-.87-1.56-1.91-2.04-3.12-.48-1.21-.72-2.55-.72-4.02s.24-2.81.72-4.04c.48-1.23,1.15-2.28,2.02-3.16.87-.88,1.91-1.57,3.12-2.06,1.21-.49,2.57-.74,4.06-.74,1.39,0,2.71.25,3.98.74,1.27.49,2.37,1.25,3.3,2.26l-2.72,2.48Z"/><path class="cls-1" d="m509.72,544.28h3.6v2.92h.08c.24-.51.56-.97.96-1.38.4-.41.85-.77,1.34-1.06.49-.29,1.03-.53,1.62-.7.59-.17,1.17-.26,1.76-.26s1.12.08,1.6.24l-.16,3.88c-.29-.08-.59-.15-.88-.2-.29-.05-.59-.08-.88-.08-1.76,0-3.11.49-4.04,1.48-.93.99-1.4,2.52-1.4,4.6v9.52h-3.6v-18.96Z"/><path class="cls-1" d="m526.52,555.08c0,.83.18,1.58.54,2.26.36.68.83,1.26,1.42,1.74.59.48,1.27.85,2.04,1.12.77.27,1.57.4,2.4.4,1.12,0,2.09-.26,2.92-.78.83-.52,1.59-1.21,2.28-2.06l2.72,2.08c-2,2.59-4.8,3.88-8.4,3.88-1.49,0-2.85-.25-4.06-.76-1.21-.51-2.24-1.21-3.08-2.1s-1.49-1.95-1.94-3.16c-.45-1.21-.68-2.53-.68-3.94s.25-2.73.74-3.94c.49-1.21,1.17-2.27,2.04-3.16.87-.89,1.9-1.59,3.1-2.1,1.2-.51,2.51-.76,3.92-.76,1.68,0,3.1.29,4.26.88s2.11,1.35,2.86,2.3c.75.95,1.29,2.01,1.62,3.2s.5,2.39.5,3.62v1.28h-15.2Zm11.36-2.88c-.03-.8-.15-1.53-.38-2.2-.23-.67-.57-1.25-1.02-1.74-.45-.49-1.02-.88-1.7-1.16-.68-.28-1.47-.42-2.38-.42s-1.69.17-2.42.5c-.73.33-1.35.77-1.86,1.3-.51.53-.9,1.13-1.18,1.78-.28.65-.42,1.3-.42,1.94h11.36Z"/><path class="cls-1" d="m556.12,549.04c-.43-.53-.95-.98-1.58-1.34s-1.39-.54-2.3-.54c-.85,0-1.59.18-2.22.54-.63.36-.94.89-.94,1.58,0,.56.18,1.01.54,1.36.36.35.79.63,1.28.84.49.21,1.02.37,1.58.48.56.11,1.04.2,1.44.28.77.19,1.5.41,2.18.68.68.27,1.27.61,1.76,1.04.49.43.88.95,1.16,1.56s.42,1.36.42,2.24c0,1.07-.23,1.98-.68,2.74-.45.76-1.04,1.38-1.76,1.86-.72.48-1.54.83-2.46,1.04s-1.85.32-2.78.32c-1.57,0-2.95-.24-4.14-.72-1.19-.48-2.25-1.36-3.18-2.64l2.72-2.24c.59.59,1.24,1.11,1.96,1.56s1.6.68,2.64.68c.45,0,.91-.05,1.38-.14.47-.09.88-.24,1.24-.44.36-.2.65-.45.88-.76.23-.31.34-.66.34-1.06,0-.53-.17-.97-.5-1.32-.33-.35-.73-.62-1.2-.82-.47-.2-.96-.36-1.48-.48-.52-.12-.98-.22-1.38-.3-.77-.19-1.51-.4-2.2-.64s-1.31-.56-1.84-.96c-.53-.4-.96-.91-1.28-1.52-.32-.61-.48-1.37-.48-2.28,0-.99.21-1.85.62-2.58.41-.73.96-1.34,1.64-1.82.68-.48,1.45-.84,2.32-1.08.87-.24,1.74-.36,2.62-.36,1.28,0,2.51.24,3.68.72,1.17.48,2.11,1.28,2.8,2.4l-2.8,2.12Z"/><path class="cls-1" d="m574.92,544.28h3.6v2.92h.08c.45-1.01,1.24-1.83,2.36-2.46,1.12-.63,2.41-.94,3.88-.94.91,0,1.78.14,2.62.42.84.28,1.57.71,2.2,1.3.63.59,1.13,1.34,1.5,2.26.37.92.56,2.01.56,3.26v12.2h-3.6v-11.2c0-.88-.12-1.63-.36-2.26-.24-.63-.56-1.13-.96-1.52-.4-.39-.86-.67-1.38-.84-.52-.17-1.06-.26-1.62-.26-.75,0-1.44.12-2.08.36-.64.24-1.2.62-1.68,1.14-.48.52-.85,1.18-1.12,1.98-.27.8-.4,1.75-.4,2.84v9.76h-3.6v-18.96Z"/><path class="cls-1" d="m597.24,546.6c1.01-.93,2.19-1.63,3.52-2.1,1.33-.47,2.67-.7,4-.7s2.58.17,3.58.52,1.82.81,2.46,1.4c.64.59,1.11,1.26,1.42,2.02.31.76.46,1.55.46,2.38v9.68c0,.67.01,1.28.04,1.84.03.56.07,1.09.12,1.6h-3.2c-.08-.96-.12-1.92-.12-2.88h-.08c-.8,1.23-1.75,2.09-2.84,2.6-1.09.51-2.36.76-3.8.76-.88,0-1.72-.12-2.52-.36s-1.5-.6-2.1-1.08c-.6-.48-1.07-1.07-1.42-1.78-.35-.71-.52-1.53-.52-2.46,0-1.23.27-2.25.82-3.08.55-.83,1.29-1.5,2.24-2.02.95-.52,2.05-.89,3.32-1.12s2.62-.34,4.06-.34h2.64v-.8c0-.48-.09-.96-.28-1.44s-.47-.91-.84-1.3-.84-.69-1.4-.92c-.56-.23-1.23-.34-2-.34-.69,0-1.3.07-1.82.2-.52.13-.99.3-1.42.5-.43.2-.81.43-1.16.7-.35.27-.68.52-1,.76l-2.16-2.24Zm10.16,7.52c-.85,0-1.73.05-2.62.14-.89.09-1.71.27-2.44.54-.73.27-1.33.64-1.8,1.12-.47.48-.7,1.09-.7,1.84,0,1.09.37,1.88,1.1,2.36.73.48,1.73.72,2.98.72.99,0,1.83-.17,2.52-.5.69-.33,1.25-.77,1.68-1.3.43-.53.73-1.13.92-1.78.19-.65.28-1.3.28-1.94v-1.2h-1.92Z"/><path class="cls-1" d="m628.08,547.4h-5.16v8.6c0,.53.01,1.06.04,1.58.03.52.13.99.3,1.4.17.41.44.75.8,1,.36.25.89.38,1.58.38.43,0,.87-.04,1.32-.12s.87-.23,1.24-.44v3.28c-.43.24-.98.41-1.66.5s-1.21.14-1.58.14c-1.39,0-2.46-.19-3.22-.58-.76-.39-1.32-.89-1.68-1.5-.36-.61-.57-1.3-.64-2.06s-.1-1.53-.1-2.3v-9.88h-4.16v-3.12h4.16v-5.32h3.6v5.32h5.16v3.12Z"/><path class="cls-1" d="m649.52,563.24h-3.6v-2.92h-.08c-.45,1.01-1.24,1.83-2.36,2.46-1.12.63-2.41.94-3.88.94-.93,0-1.81-.14-2.64-.42-.83-.28-1.55-.71-2.18-1.3-.63-.59-1.13-1.34-1.5-2.26-.37-.92-.56-2.01-.56-3.26v-12.2h3.6v11.2c0,.88.12,1.63.36,2.26.24.63.56,1.13.96,1.52.4.39.86.67,1.38.84.52.17,1.06.26,1.62.26.75,0,1.44-.12,2.08-.36.64-.24,1.2-.62,1.68-1.14.48-.52.85-1.18,1.12-1.98.27-.8.4-1.75.4-2.84v-9.76h3.6v18.96Z"/><path class="cls-1" d="m654.96,544.28h3.6v2.92h.08c.24-.51.56-.97.96-1.38.4-.41.85-.77,1.34-1.06.49-.29,1.03-.53,1.62-.7.59-.17,1.17-.26,1.76-.26s1.12.08,1.6.24l-.16,3.88c-.29-.08-.59-.15-.88-.2-.29-.05-.59-.08-.88-.08-1.76,0-3.11.49-4.04,1.48-.93.99-1.4,2.52-1.4,4.6v9.52h-3.6v-18.96Z"/><path class="cls-1" d="m671.76,555.08c0,.83.18,1.58.54,2.26.36.68.83,1.26,1.42,1.74.59.48,1.27.85,2.04,1.12.77.27,1.57.4,2.4.4,1.12,0,2.09-.26,2.92-.78.83-.52,1.59-1.21,2.28-2.06l2.72,2.08c-2,2.59-4.8,3.88-8.4,3.88-1.49,0-2.85-.25-4.06-.76-1.21-.51-2.24-1.21-3.08-2.1s-1.49-1.95-1.94-3.16c-.45-1.21-.68-2.53-.68-3.94s.25-2.73.74-3.94c.49-1.21,1.17-2.27,2.04-3.16.87-.89,1.9-1.59,3.1-2.1,1.2-.51,2.51-.76,3.92-.76,1.68,0,3.1.29,4.26.88s2.11,1.35,2.86,2.3c.75.95,1.29,2.01,1.62,3.2s.5,2.39.5,3.62v1.28h-15.2Zm11.36-2.88c-.03-.8-.15-1.53-.38-2.2-.23-.67-.57-1.25-1.02-1.74-.45-.49-1.02-.88-1.7-1.16-.68-.28-1.47-.42-2.38-.42s-1.69.17-2.42.5c-.73.33-1.35.77-1.86,1.3-.51.53-.9,1.13-1.18,1.78-.28.65-.42,1.3-.42,1.94h11.36Z"/><path class="cls-1" d="m691.56,533h3.6v30.24h-3.6v-30.24Z"/><path class="cls-1" d="m701.16,533h3.6v30.24h-3.6v-30.24Z"/><path class="cls-1" d="m713.2,555.08c0,.83.18,1.58.54,2.26.36.68.83,1.26,1.42,1.74.59.48,1.27.85,2.04,1.12.77.27,1.57.4,2.4.4,1.12,0,2.09-.26,2.92-.78.83-.52,1.59-1.21,2.28-2.06l2.72,2.08c-2,2.59-4.8,3.88-8.4,3.88-1.49,0-2.85-.25-4.06-.76-1.21-.51-2.24-1.21-3.08-2.1s-1.49-1.95-1.94-3.16c-.45-1.21-.68-2.53-.68-3.94s.25-2.73.74-3.94c.49-1.21,1.17-2.27,2.04-3.16.87-.89,1.9-1.59,3.1-2.1,1.2-.51,2.51-.76,3.92-.76,1.68,0,3.1.29,4.26.88s2.11,1.35,2.86,2.3c.75.95,1.29,2.01,1.62,3.2s.5,2.39.5,3.62v1.28h-15.2Zm11.36-2.88c-.03-.8-.15-1.53-.38-2.2-.23-.67-.57-1.25-1.02-1.74-.45-.49-1.02-.88-1.7-1.16-.68-.28-1.47-.42-2.38-.42s-1.69.17-2.42.5c-.73.33-1.35.77-1.86,1.3-.51.53-.9,1.13-1.18,1.78-.28.65-.42,1.3-.42,1.94h11.36Z"/><path class="cls-1" d="m742.8,549.04c-.43-.53-.95-.98-1.58-1.34s-1.39-.54-2.3-.54c-.85,0-1.59.18-2.22.54-.63.36-.94.89-.94,1.58,0,.56.18,1.01.54,1.36.36.35.79.63,1.28.84.49.21,1.02.37,1.58.48.56.11,1.04.2,1.44.28.77.19,1.5.41,2.18.68.68.27,1.27.61,1.76,1.04.49.43.88.95,1.16,1.56s.42,1.36.42,2.24c0,1.07-.23,1.98-.68,2.74-.45.76-1.04,1.38-1.76,1.86-.72.48-1.54.83-2.46,1.04s-1.85.32-2.78.32c-1.57,0-2.95-.24-4.14-.72-1.19-.48-2.25-1.36-3.18-2.64l2.72-2.24c.59.59,1.24,1.11,1.96,1.56s1.6.68,2.64.68c.45,0,.91-.05,1.38-.14.47-.09.88-.24,1.24-.44.36-.2.65-.45.88-.76.23-.31.34-.66.34-1.06,0-.53-.17-.97-.5-1.32-.33-.35-.73-.62-1.2-.82-.47-.2-.96-.36-1.48-.48-.52-.12-.98-.22-1.38-.3-.77-.19-1.51-.4-2.2-.64s-1.31-.56-1.84-.96c-.53-.4-.96-.91-1.28-1.52-.32-.61-.48-1.37-.48-2.28,0-.99.21-1.85.62-2.58.41-.73.96-1.34,1.64-1.82.68-.48,1.45-.84,2.32-1.08.87-.24,1.74-.36,2.62-.36,1.28,0,2.51.24,3.68.72,1.17.48,2.11,1.28,2.8,2.4l-2.8,2.12Z"/></g></svg>