<?xml version="1.0" encoding="UTF-8"?><svg id="Calque_1" xmlns="http://www.w3.org/2000/svg" viewBox="0 0 668 668"><defs><style>.cls-1{fill:#99f;}.cls-2{isolation:isolate;}</style></defs><g class="cls-2"><g class="cls-2"><path class="cls-1" d="m126.8,254.51l-2.88-1.57,10.62-20.84-1.7-.52-8.26.92-6.16,3.93-4.59,6.03-.92,5.64,1.31,5.51-3.28.79-1.44-6.29,1.31-7.34,5.37-6.82,7.21-4.59,9.83-1.18,2.88.92,40.63-79.7,2.88,1.31-40.37,79.3,4.06,1.18,8.26,6.82,4.46,9.31,7.86,4.46,11.14,1.44,9.83-2.62,6.82-4.33,4.85-8.52,3.02,1.7-4.98,8.91-8.39,5.5-11.01,2.88-12.19-1.57-9.57-5.38-4.33-9.31-6.82-6.03-4.59-1.44-10.88,21.5Z"/><path class="cls-1" d="m212.79,238.25l-3.15-11.14-.13-.52v-11.54l.13-.52,3.67-11.8.26-.66,6.42-8.78.39-.39,6.69-4.85,1.18-.39h13.89l1.18.39,7.21,4.85.39.39,6.29,8.78.26.52.79,2.36v-17.3h3.28v66.59h-3.28v-16.91l-.79,2.49-.26.66-6.29,8.13-.52.39-7.21,4.85-1.05.39h-13.89l-1.18-.39-6.69-4.85-.39-.39-5.51-6.95-1.7-3.41Zm3.67.66l5.9,7.6,6.29,4.59h13.24l6.69-4.59,6.03-7.87,3.67-12.06v-11.4l-3.8-11.4-6.16-8.39-6.55-4.72h-13.11l-6.16,4.59-6.29,8.65-3.41,11.14v11.54l2.36,8.52,1.31,3.8Z"/></g><g class="cls-2"><path class="cls-1" d="m323.94,190.54h-22.68v63.7h-3.28v-63.7h-12.71v-3.15h12.71v-15.73l-7.6,7.47-2.1-1.97,9.7-9.7v-9.96h3.15v6.82l6.29-6.29.92-.52h11.01l1.18.26,4.98,3.8.39.52,3.02,5.64v5.5h-3.02v-5.37l-2.49-4.06-4.33-3.15h-9.83l-8.13,8v18.74h22.81v3.15Z"/></g><g class="cls-2"><path class="cls-1" d="m388.56,238.12l3.93-12.45v-38.01h3.28v66.59h-3.28v-17.83l-1.05,2.88-6.29,9.18-.52.52-7.21,4.85-1.05.39h-11.67l-1.18-.39-6.55-4.85-.39-.39-6.42-9.17-.26-.66-2.49-8.78-12.45,24.64-2.75-1.31,14.02-28.05v-37.62h3.28v38.14l3.41,12.06,6.03,8.65,6.29,4.59h10.62l7.08-4.72,5.64-8.26Z"/><path class="cls-1" d="m453.05,244.68l-.39.66-5.77,5.77-5.24,2.88-1.18.26h-11.27l-.92-.26-5.77-2.88-.52-.39-5.11-5.37-.52-.66-2.88-7.08,3.28-1.05,2.49,6.68,5.37,5.51,4.72,2.49h10.88l4.85-2.62,2.62-2.88,2.36-2.62,2.75-6.16v-6.82l-2.88-6.16-4.59-4.85h-.13l-5.64-1.83h-12.85l-1.18-.39-4.19-1.83-.79-.52-3.28-5.11-.39-.66v-5.77l.13-.79,2.1-6.29.39-.52,4.59-4.46.66-.39,5.11-2.62.92-.26h9.83l1.18.26,4.72,2.62.66.39,4.59,4.46.39.66,3.15,7.34-3.15,1.31-3.41-7.6-4.33-4.06-4.19-2.36h-8.91l-4.85,2.23-4.2,4.19-1.97,6.16v4.59l2.49,4.33,4.98,2.1h12.19l1.18.26,5.77,1.97.39.39,5.37,5.11.39.66,2.88,6.82v8.13l-2.88,7.08Z"/><path class="cls-1" d="m510.46,192.77l6.29,8.78.39.79,2.88,11.14v3.28h-47.71v9.31l3.41,11.8v.13l6.16,8.91,6.29,4.59h13.24l6.68-4.59,6.03-8.78,1.57,1.05-.52-.39,1.7,1.05-6.16,9.31-.66.66-7.34,4.59-1.05.26h-13.89l-1.18-.39-6.69-4.85-.39-.39-6.42-9.04-.26-.66-3.67-12.71-.13-.52v-11.54l.13-.52,3.67-11.8.26-.66,6.42-8.78.39-.39,6.69-4.98,1.18-.39h13.89l1.18.39,7.21,4.98.39.39Zm-28.58,2.1l-6.16,8.52-3.15,10.09h43.78l-2.49-10.36-6.16-8.52-6.42-4.46h-13.11l-6.29,4.72Zm10.09-17.17l-3.15-1.7,12.19-26.74,3.28,1.7-12.32,26.74Z"/><path class="cls-1" d="m576.26,237.73l2.75,1.7-6.16,9.31-.66.66-7.34,4.59-1.05.26h-13.89l-1.18-.39-7.08-5.24-6.42-9.04-.26-.66-3.8-12.85v-10.88l.13-.52,3.93-12.45,6.82-9.18,6.68-4.98,1.18-.39h13.89l1.18.39,7.6,5.38,6.29,8.78.39.79,2.88,11.14v3.15h-47.71v8.78l3.41,11.53,6.16,8.91,6.29,4.59h13.24l6.68-4.59,6.03-8.78Zm-32.25-42.21l-6.16,8.52-3.15,10.09h43.78l-2.49-10.36-6.16-8.52-6.42-4.46h-13.11l-6.29,4.72Z"/></g><g class="cls-2"><path class="cls-1" d="m117.37,303.67h10.35l8.78,3.41,3.8,3.15,28.18-34.87h2.49v62.52l1.84-1.7,2.49-3.67h.13l3.41-6.16v-8.52h3.15v8.52l-.26.92-4.59,8.65-3.54,3.67-2.62,2.49v38.14h-3.15l.26-35.39-12.19,5.24-.79.13h-10.75l-.79-.13-10.75-4.98-.66-.39-8.65-8.13-.26-.39-35.65,44.17-2.36-1.97,36.44-45.22-.92-1.83-2.1-4.72v-8.91h3.15v8.65l2.23,4.06,14.29-17.7-3.67-3.01-8-2.75h-8l-7.47,3.41-6.03,5.9-2.23,7.08v6.69h-3.28v-8.13l2.75-7.08,6.69-6.69,8.26-4.46Zm50.73,36.83l.39-61.21-.52,1.31-.79,1.18-24.64,30.41,2.49,2.1,4.06,7.34.26,1.05v7.34h-3.28v-7.34l-3.54-6.42-1.97-1.57-14.94,18.48.66,1.18,8,8h.13l10.62,4.59h9.57l11.4-4.59h.13l1.97-1.83Z"/><path class="cls-1" d="m192.48,345.35l-2.36-1.97,10.09-14.29v-15.47h3.28v10.75l3.41-4.85.39-.52,2.88-2.1.66-.39,5.11-2.62.92-.26h9.83l1.18.26,4.72,2.62.66.39,4.59,4.46.39.66,2.62,6.42-3.15,1.31-2.88-6.68-4.33-4.06-4.19-2.36h-8.91l-4.85,2.23-2.49,1.83-6.55,9.18v50.33h-3.28v-45.75l-7.73,10.88Z"/><path class="cls-1" d="m263.66,313.63v66.59h-3.15v-63.18h-12.71v-3.41h15.86Zm0-12.32h-3.28v-12.58h3.28v12.58Z"/><path class="cls-1" d="m290,364.22l-3.15-11.14-.13-.52v-11.54l.13-.52,3.67-11.8.26-.66,6.42-8.78.39-.39,6.69-4.85,1.18-.39h13.89l1.18.39,7.21,4.85.39.39,6.29,8.78.26.52.79,2.36v-17.3h3.28v66.59h-3.28v-16.91l-.79,2.49-.26.66-6.29,8.13-.52.39-7.21,4.85-1.05.39h-13.89l-1.18-.39-6.69-4.85-.39-.39-5.51-6.95-1.7-3.41Zm3.67.66l5.9,7.6,6.29,4.59h13.24l6.69-4.59,6.03-7.87,3.67-12.06v-11.4l-3.8-11.4-6.16-8.39-6.55-4.72h-13.11l-6.16,4.59-6.29,8.65-3.41,11.14v11.54l2.36,8.52,1.31,3.8Z"/><path class="cls-1" d="m409.54,324.38l.39.52,3.01,7.21.13.79v47.32h-3.28v-47.19l-3.01-6.95-5.11-5.77-6.42-3.54h-10.36l-6.95,3.54-5.5,6.29-2.49,3.54v50.07h-3.28v-45.35l-8.26,11.93-3.01-1.7,11.27-16.25v-15.21h3.28v10.49l5.64-6.03.52-.39,7.6-3.8.92-.26h10.88l.92.26,7.08,3.8.52.39,5.51,6.29Z"/><path class="cls-1" d="m471.94,363.7l2.75,1.7-6.16,9.31-.66.66-7.34,4.59-1.05.26h-13.89l-1.18-.39-7.08-5.24-6.42-9.04-.26-.66-3.8-12.85v-10.88l.13-.52,3.93-12.45,6.82-9.18,6.68-4.98,1.18-.39h13.89l1.18.39,7.6,5.38,6.29,8.78.39.79,2.88,11.14v3.15h-47.71v8.78l3.41,11.53,6.16,8.91,6.29,4.59h13.24l6.68-4.59,6.03-8.78Zm-32.25-42.21l-6.16,8.52-3.15,10.09h43.78l-2.49-10.36-6.16-8.52-6.42-4.46h-13.11l-6.29,4.72Z"/></g><g class="cls-2"><path class="cls-1" d="m510.28,356.07h4.12v14.58l4.75,11.73,6.97,10.14,8.08,5.55h15.69l7.61-5.55,7.45-10.77v-.16l4.12-14.1v-13.94l-3.96-13.15-7.61-10.3-7.45-5.7h-23.45v-49.12h47.06v3.96h-43.1v41.36h20.76l9.19,6.97,7.61,10.46.32.79,4.6,14.89v13.79l-.16.63-4.75,15.69-8.08,11.73-8.08,5.86-1.43.48h-16.64l-1.27-.48-8.71-5.86-.63-.63-7.92-11.57-5.07-12.36v-14.9Z"/></g></g><path class="cls-1" d="m142.82,436.47v-1.56l1.99-1.93c4.78-4.55,6.95-6.98,6.98-9.8,0-1.9-.92-3.66-3.72-3.66-1.7,0-3.11.87-3.98,1.59l-.81-1.79c1.3-1.1,3.14-1.9,5.3-1.9,4.04,0,5.74,2.77,5.74,5.45,0,3.46-2.51,6.25-6.46,10.06l-1.5,1.38v.06h8.42v2.1h-11.96Z"/><path class="cls-1" d="m169.77,426.9c0,6.37-2.36,9.89-6.51,9.89-3.66,0-6.14-3.43-6.2-9.63,0-6.28,2.71-9.74,6.51-9.74s6.2,3.52,6.2,9.48Zm-10.18.29c0,4.87,1.5,7.64,3.81,7.64,2.59,0,3.83-3.03,3.83-7.81s-1.18-7.64-3.8-7.64c-2.22,0-3.83,2.71-3.83,7.81Z"/><path class="cls-1" d="m171.81,436.47v-1.56l1.99-1.93c4.78-4.55,6.95-6.98,6.98-9.8,0-1.9-.92-3.66-3.72-3.66-1.7,0-3.11.87-3.98,1.59l-.81-1.79c1.3-1.1,3.14-1.9,5.3-1.9,4.04,0,5.74,2.77,5.74,5.45,0,3.46-2.51,6.25-6.46,10.06l-1.5,1.38v.06h8.42v2.1h-11.96Z"/><path class="cls-1" d="m186.92,433.56c.72.46,2.39,1.18,4.15,1.18,3.26,0,4.27-2.07,4.24-3.63-.03-2.62-2.39-3.75-4.84-3.75h-1.41v-1.9h1.41c1.84,0,4.18-.95,4.18-3.17,0-1.5-.95-2.82-3.29-2.82-1.5,0-2.94.66-3.75,1.24l-.66-1.84c.98-.72,2.88-1.44,4.9-1.44,3.69,0,5.36,2.19,5.36,4.47,0,1.93-1.15,3.57-3.46,4.41v.06c2.31.46,4.18,2.19,4.18,4.81,0,3-2.33,5.62-6.83,5.62-2.1,0-3.95-.66-4.87-1.27l.69-1.96Z"/><path class="cls-1" d="m213.32,427.74v1.87h-7.12v-1.87h7.12Z"/><path class="cls-1" d="m229.55,436.47l-.2-1.76h-.09c-.78,1.1-2.28,2.08-4.27,2.08-2.82,0-4.27-1.99-4.27-4.01,0-3.37,3-5.22,8.39-5.19v-.29c0-1.15-.32-3.23-3.17-3.23-1.3,0-2.65.4-3.63,1.04l-.58-1.67c1.15-.75,2.82-1.24,4.58-1.24,4.27,0,5.3,2.91,5.3,5.71v5.22c0,1.21.06,2.39.23,3.34h-2.31Zm-.37-7.12c-2.77-.06-5.91.43-5.91,3.14,0,1.64,1.1,2.42,2.39,2.42,1.82,0,2.97-1.15,3.37-2.33.09-.26.14-.55.14-.81v-2.42Z"/><path class="cls-1" d="m252.9,418.48c-.63-.4-1.67-.75-2.82-.75-2.68,0-3.49,1.87-3.49,4.09v.69h8.13v13.95h-2.54v-12.02h-5.56v12.02h-2.54v-12.02h-5.88v12.02h-2.51v-12.02h-1.96v-1.93h1.96v-.52c0-1.76.46-3.46,1.67-4.64.81-.84,2.02-1.35,3.57-1.35.95,0,1.93.35,2.45.61l-.69,1.87c-.43-.23-1.1-.49-1.76-.49-.81,0-1.38.29-1.82.75-.69.75-.92,2.02-.92,3.23v.55h5.88v-.75c0-3.69,2.19-6.08,6.11-6.08,1.27,0,2.71.38,3.46.89l-.75,1.9Z"/><path class="cls-1" d="m268.58,435.95c-.66.35-2.13.81-4.01.81-4.21,0-6.95-2.85-6.95-7.12s2.94-7.41,7.49-7.41c1.5,0,2.82.37,3.52.72l-.58,1.96c-.61-.35-1.56-.66-2.94-.66-3.2,0-4.93,2.36-4.93,5.28,0,3.23,2.08,5.22,4.84,5.22,1.44,0,2.39-.37,3.11-.69l.43,1.9Z"/><path class="cls-1" d="m271.27,416h2.54v8.71h.06c.4-.72,1.04-1.36,1.82-1.79.75-.43,1.64-.72,2.59-.72,1.87,0,4.87,1.15,4.87,5.97v8.3h-2.54v-8.01c0-2.25-.84-4.15-3.23-4.15-1.64,0-2.94,1.15-3.4,2.54-.14.35-.17.72-.17,1.21v8.42h-2.54v-20.47Z"/><path class="cls-1" d="m288.39,429.95c.06,3.43,2.25,4.84,4.78,4.84,1.82,0,2.91-.32,3.86-.72l.43,1.82c-.89.4-2.42.86-4.64.86-4.29,0-6.86-2.82-6.86-7.03s2.48-7.52,6.54-7.52c4.55,0,5.76,4.01,5.76,6.57,0,.52-.06.92-.09,1.18h-9.8Zm7.44-1.82c.03-1.61-.66-4.12-3.52-4.12-2.57,0-3.69,2.36-3.89,4.12h7.41Z"/><path class="cls-1" d="m319,416v16.86c0,1.24.03,2.65.12,3.6h-2.28l-.12-2.42h-.06c-.78,1.56-2.48,2.74-4.76,2.74-3.37,0-5.97-2.85-5.97-7.09-.03-4.64,2.85-7.49,6.25-7.49,2.13,0,3.57,1.01,4.21,2.13h.06v-8.33h2.54Zm-2.54,12.19c0-.32-.03-.75-.12-1.07-.37-1.61-1.76-2.94-3.66-2.94-2.62,0-4.18,2.31-4.18,5.39,0,2.82,1.38,5.16,4.12,5.16,1.7,0,3.26-1.12,3.72-3.03.09-.35.12-.69.12-1.1v-2.42Z"/><path class="cls-1" d="m325.75,418.6c.03.87-.61,1.56-1.61,1.56-.89,0-1.53-.69-1.53-1.56s.66-1.58,1.59-1.58,1.56.69,1.56,1.58Zm-2.82,17.87v-13.95h2.54v13.95h-2.54Z"/><path class="cls-1" d="m341.43,416v16.86c0,1.24.03,2.65.12,3.6h-2.28l-.12-2.42h-.06c-.78,1.56-2.48,2.74-4.76,2.74-3.37,0-5.97-2.85-5.97-7.09-.03-4.64,2.85-7.49,6.25-7.49,2.13,0,3.57,1.01,4.21,2.13h.06v-8.33h2.54Zm-2.54,12.19c0-.32-.03-.75-.12-1.07-.37-1.61-1.76-2.94-3.66-2.94-2.62,0-4.18,2.31-4.18,5.39,0,2.82,1.38,5.16,4.12,5.16,1.7,0,3.26-1.12,3.72-3.03.09-.35.12-.69.12-1.1v-2.42Z"/><path class="cls-1" d="m353.08,436.47l-.2-1.76h-.09c-.78,1.1-2.28,2.08-4.27,2.08-2.82,0-4.27-1.99-4.27-4.01,0-3.37,3-5.22,8.39-5.19v-.29c0-1.15-.32-3.23-3.17-3.23-1.3,0-2.65.4-3.63,1.04l-.58-1.67c1.15-.75,2.82-1.24,4.58-1.24,4.27,0,5.3,2.91,5.3,5.71v5.22c0,1.21.06,2.39.23,3.34h-2.31Zm-.37-7.12c-2.77-.06-5.91.43-5.91,3.14,0,1.64,1.1,2.42,2.39,2.42,1.82,0,2.97-1.15,3.37-2.33.09-.26.14-.55.14-.81v-2.42Z"/><path class="cls-1" d="m368.9,435.95c-.66.35-2.13.81-4.01.81-4.21,0-6.95-2.85-6.95-7.12s2.94-7.41,7.49-7.41c1.5,0,2.83.37,3.52.72l-.58,1.96c-.61-.35-1.56-.66-2.94-.66-3.2,0-4.93,2.36-4.93,5.28,0,3.23,2.08,5.22,4.84,5.22,1.44,0,2.39-.37,3.11-.69l.43,1.9Z"/><path class="cls-1" d="m375.01,418.51v4.01h3.63v1.93h-3.63v7.52c0,1.73.49,2.71,1.9,2.71.66,0,1.15-.09,1.47-.17l.12,1.9c-.49.2-1.27.35-2.25.35-1.18,0-2.13-.37-2.74-1.07-.72-.75-.98-1.99-.98-3.63v-7.61h-2.16v-1.93h2.16v-3.34l2.48-.66Z"/><path class="cls-1" d="m384.04,418.6c.03.87-.61,1.56-1.61,1.56-.89,0-1.53-.69-1.53-1.56s.66-1.58,1.58-1.58,1.56.69,1.56,1.58Zm-2.82,17.87v-13.95h2.54v13.95h-2.54Z"/><path class="cls-1" d="m397.18,434.31h-.06c-.75,1.38-2.31,2.48-4.55,2.48-3.26,0-5.91-2.83-5.91-7.06,0-5.22,3.37-7.52,6.31-7.52,2.16,0,3.6,1.07,4.29,2.42h.06l.09-2.1h2.39c-.06,1.18-.09,2.39-.09,3.83v15.82h-2.54v-7.87Zm0-6.14c0-.35-.03-.75-.12-1.07-.37-1.56-1.73-2.88-3.63-2.88-2.62,0-4.21,2.22-4.21,5.36,0,2.77,1.33,5.19,4.12,5.19,1.64,0,3.06-1.01,3.63-2.77.12-.35.2-.84.2-1.21v-2.62Z"/><path class="cls-1" d="m415.28,432.66c0,1.44.03,2.71.12,3.8h-2.25l-.14-2.28h-.06c-.66,1.12-2.13,2.59-4.61,2.59-2.19,0-4.81-1.21-4.81-6.11v-8.16h2.54v7.73c0,2.65.81,4.44,3.11,4.44,1.7,0,2.88-1.18,3.34-2.31.14-.38.23-.84.23-1.3v-8.56h2.54v10.15Z"/><path class="cls-1" d="m420.62,429.95c.06,3.43,2.25,4.84,4.78,4.84,1.82,0,2.91-.32,3.86-.72l.43,1.82c-.89.4-2.42.86-4.64.86-4.29,0-6.86-2.82-6.86-7.03s2.48-7.52,6.54-7.52c4.55,0,5.77,4.01,5.77,6.57,0,.52-.06.92-.09,1.18h-9.8Zm7.44-1.82c.03-1.61-.66-4.12-3.52-4.12-2.57,0-3.69,2.36-3.89,4.12h7.41Z"/><path class="cls-1" d="m439.18,427.07c0-1.79-.06-3.23-.12-4.55h2.28l.12,2.39h.06c1.04-1.7,2.68-2.71,4.96-2.71,3.37,0,5.91,2.85,5.91,7.09,0,5.02-3.06,7.49-6.34,7.49-1.84,0-3.46-.81-4.29-2.19h-.06v7.58h-2.51v-15.1Zm2.51,3.72c0,.38.06.72.12,1.04.46,1.76,1.99,2.97,3.81,2.97,2.68,0,4.24-2.19,4.24-5.39,0-2.8-1.47-5.19-4.15-5.19-1.73,0-3.34,1.24-3.83,3.14-.09.32-.17.69-.17,1.04v2.39Z"/><path class="cls-1" d="m467.92,429.38c0,5.16-3.57,7.41-6.95,7.41-3.78,0-6.69-2.77-6.69-7.18,0-4.67,3.06-7.41,6.92-7.41s6.72,2.91,6.72,7.18Zm-11.07.14c0,3.06,1.76,5.36,4.24,5.36s4.24-2.28,4.24-5.42c0-2.36-1.18-5.36-4.18-5.36s-4.29,2.77-4.29,5.42Z"/><path class="cls-1" d="m482.51,432.66c0,1.44.03,2.71.12,3.8h-2.25l-.14-2.28h-.06c-.66,1.12-2.13,2.59-4.61,2.59-2.19,0-4.81-1.21-4.81-6.11v-8.16h2.54v7.73c0,2.65.81,4.44,3.11,4.44,1.7,0,2.88-1.18,3.34-2.31.14-.38.23-.84.23-1.3v-8.56h2.54v10.15Z"/><path class="cls-1" d="m486.43,426.87c0-1.64-.03-3.06-.12-4.35h2.22l.09,2.74h.12c.63-1.87,2.16-3.06,3.86-3.06.29,0,.49.03.72.09v2.39c-.26-.06-.52-.09-.87-.09-1.79,0-3.06,1.35-3.4,3.26-.06.35-.12.75-.12,1.18v7.44h-2.51v-9.6Z"/><path class="cls-1" d="m501.39,416h2.54v20.47h-2.54v-20.47Z"/><path class="cls-1" d="m509.32,429.95c.06,3.43,2.25,4.84,4.78,4.84,1.82,0,2.91-.32,3.86-.72l.43,1.82c-.89.4-2.42.86-4.64.86-4.29,0-6.86-2.82-6.86-7.03s2.48-7.52,6.54-7.52c4.55,0,5.77,4.01,5.77,6.57,0,.52-.06.92-.09,1.18h-9.8Zm7.44-1.82c.03-1.61-.66-4.12-3.52-4.12-2.57,0-3.69,2.36-3.89,4.12h7.41Z"/><path class="cls-1" d="m150.91,462.73c-.14-2.71-.32-5.97-.29-8.39h-.09c-.66,2.28-1.47,4.7-2.45,7.38l-3.43,9.43h-1.9l-3.14-9.25c-.92-2.74-1.7-5.25-2.25-7.55h-.06c-.06,2.42-.2,5.68-.38,8.59l-.52,8.33h-2.39l1.35-19.43h3.2l3.32,9.4c.81,2.39,1.47,4.53,1.96,6.54h.09c.49-1.96,1.18-4.09,2.05-6.54l3.46-9.4h3.2l1.21,19.43h-2.45l-.49-8.53Z"/><path class="cls-1" d="m169.1,467.46c0,1.44.03,2.71.12,3.8h-2.25l-.14-2.28h-.06c-.66,1.12-2.13,2.59-4.61,2.59-2.19,0-4.81-1.21-4.81-6.11v-8.16h2.54v7.73c0,2.65.81,4.44,3.11,4.44,1.7,0,2.88-1.18,3.34-2.31.14-.38.23-.84.23-1.3v-8.56h2.54v10.15Z"/><path class="cls-1" d="m172.68,468.67c.75.49,2.07,1.01,3.34,1.01,1.84,0,2.71-.92,2.71-2.07,0-1.21-.72-1.87-2.59-2.57-2.51-.89-3.69-2.28-3.69-3.95,0-2.25,1.82-4.09,4.81-4.09,1.41,0,2.65.4,3.43.86l-.63,1.84c-.55-.35-1.56-.81-2.85-.81-1.5,0-2.33.87-2.33,1.9,0,1.15.84,1.67,2.65,2.36,2.42.92,3.66,2.13,3.66,4.21,0,2.45-1.9,4.18-5.22,4.18-1.53,0-2.94-.37-3.92-.95l.63-1.93Z"/><path class="cls-1" d="m185.56,464.75c.06,3.43,2.25,4.84,4.78,4.84,1.82,0,2.91-.32,3.86-.72l.43,1.82c-.89.4-2.42.86-4.64.86-4.29,0-6.86-2.82-6.86-7.03s2.48-7.52,6.54-7.52c4.55,0,5.77,4.01,5.77,6.57,0,.52-.06.92-.09,1.18h-9.8Zm7.44-1.82c.03-1.61-.66-4.12-3.52-4.12-2.57,0-3.69,2.36-3.89,4.12h7.41Zm.61-11.64l-3.52,4.12h-1.82l2.54-4.12h2.8Z"/><path class="cls-1" d="m199.72,464.75c.06,3.43,2.25,4.84,4.78,4.84,1.82,0,2.91-.32,3.86-.72l.43,1.82c-.89.4-2.42.86-4.64.86-4.29,0-6.86-2.82-6.86-7.03s2.48-7.52,6.54-7.52c4.55,0,5.77,4.01,5.77,6.57,0,.52-.06.92-.09,1.18h-9.8Zm7.44-1.82c.03-1.61-.66-4.12-3.52-4.12-2.57,0-3.69,2.36-3.89,4.12h7.41Z"/><path class="cls-1" d="m230.07,450.6v16.86c0,1.24.03,2.65.12,3.6h-2.28l-.12-2.42h-.06c-.78,1.56-2.48,2.74-4.76,2.74-3.37,0-5.97-2.85-5.97-7.09-.03-4.64,2.85-7.49,6.25-7.49,2.13,0,3.57,1.01,4.21,2.13h.06v-8.33h2.54Zm-2.54,12.19c0-.32-.03-.75-.12-1.07-.37-1.61-1.76-2.94-3.66-2.94-2.62,0-4.18,2.31-4.18,5.39,0,2.82,1.38,5.16,4.12,5.16,1.7,0,3.26-1.12,3.72-3.03.09-.35.12-.69.12-1.1v-2.42Z"/><path class="cls-1" d="m235.41,464.55c.06,3.43,2.25,4.84,4.78,4.84,1.82,0,2.91-.32,3.86-.72l.43,1.82c-.89.4-2.42.86-4.64.86-4.29,0-6.86-2.83-6.86-7.03s2.48-7.52,6.54-7.52c4.55,0,5.76,4.01,5.76,6.57,0,.52-.06.92-.09,1.18h-9.8Zm7.44-1.82c.03-1.61-.66-4.12-3.52-4.12-2.57,0-3.69,2.36-3.89,4.12h7.41Z"/><path class="cls-1" d="m247.8,468.47c.75.49,2.08,1.01,3.34,1.01,1.84,0,2.71-.92,2.71-2.07,0-1.21-.72-1.87-2.59-2.57-2.51-.89-3.69-2.28-3.69-3.95,0-2.25,1.82-4.09,4.81-4.09,1.41,0,2.65.4,3.43.86l-.63,1.84c-.55-.35-1.56-.81-2.85-.81-1.5,0-2.33.87-2.33,1.9,0,1.15.84,1.67,2.65,2.36,2.42.92,3.66,2.13,3.66,4.21,0,2.45-1.9,4.18-5.22,4.18-1.53,0-2.94-.37-3.92-.95l.63-1.93Z"/><path class="cls-1" d="m268.33,464.95l-2.02,6.11h-2.59l6.6-19.43h3.03l6.63,19.43h-2.68l-2.08-6.11h-6.89Zm6.37-1.96l-1.9-5.59c-.43-1.27-.72-2.42-1.01-3.55h-.06c-.29,1.15-.61,2.33-.98,3.52l-1.9,5.62h5.85Z"/><path class="cls-1" d="m282.37,461.46c0-1.64-.03-3.06-.12-4.35h2.22l.09,2.74h.12c.63-1.87,2.16-3.06,3.86-3.06.29,0,.49.03.72.09v2.39c-.26-.06-.52-.09-.86-.09-1.79,0-3.06,1.35-3.4,3.26-.06.35-.12.75-.12,1.18v7.44h-2.51v-9.6Z"/><path class="cls-1" d="m295.25,453.1v4.01h3.63v1.93h-3.63v7.52c0,1.73.49,2.71,1.9,2.71.66,0,1.15-.09,1.47-.17l.12,1.9c-.49.2-1.27.35-2.25.35-1.18,0-2.13-.37-2.74-1.07-.72-.75-.98-1.99-.98-3.63v-7.61h-2.16v-1.93h2.16v-3.34l2.48-.66Z"/><path class="cls-1" d="m301.1,468.47c.75.49,2.08,1.01,3.34,1.01,1.84,0,2.71-.92,2.71-2.07,0-1.21-.72-1.87-2.59-2.57-2.51-.89-3.69-2.28-3.69-3.95,0-2.25,1.82-4.09,4.81-4.09,1.41,0,2.65.4,3.43.86l-.63,1.84c-.55-.35-1.56-.81-2.85-.81-1.5,0-2.33.87-2.33,1.9,0,1.15.84,1.67,2.65,2.36,2.42.92,3.66,2.13,3.66,4.21,0,2.45-1.9,4.18-5.22,4.18-1.53,0-2.94-.37-3.92-.95l.63-1.93Z"/><path class="cls-1" d="m319.81,464.55c.06,3.43,2.25,4.84,4.78,4.84,1.82,0,2.91-.32,3.86-.72l.43,1.82c-.89.4-2.42.86-4.64.86-4.29,0-6.86-2.83-6.86-7.03s2.48-7.52,6.54-7.52c4.55,0,5.76,4.01,5.76,6.57,0,.52-.06.92-.09,1.18h-9.8Zm7.44-1.82c.03-1.61-.66-4.12-3.52-4.12-2.57,0-3.69,2.36-3.89,4.12h7.41Z"/><path class="cls-1" d="m335.61,453.1v4.01h3.63v1.93h-3.63v7.52c0,1.73.49,2.71,1.9,2.71.66,0,1.15-.09,1.47-.17l.12,1.9c-.49.2-1.27.35-2.25.35-1.18,0-2.13-.37-2.74-1.07-.72-.75-.98-1.99-.98-3.63v-7.61h-2.16v-1.93h2.16v-3.34l2.48-.66Z"/><path class="cls-1" d="m364.09,462.53c-.14-2.71-.32-5.97-.29-8.39h-.09c-.66,2.28-1.47,4.7-2.45,7.38l-3.43,9.43h-1.9l-3.14-9.25c-.92-2.74-1.7-5.25-2.25-7.55h-.06c-.06,2.42-.2,5.68-.37,8.59l-.52,8.33h-2.39l1.36-19.43h3.2l3.31,9.4c.81,2.39,1.47,4.53,1.96,6.54h.09c.49-1.96,1.18-4.09,2.05-6.54l3.46-9.4h3.2l1.21,19.43h-2.45l-.49-8.53Z"/><path class="cls-1" d="m372.1,464.55c.06,3.43,2.25,4.84,4.78,4.84,1.82,0,2.91-.32,3.86-.72l.43,1.82c-.89.4-2.42.86-4.64.86-4.29,0-6.86-2.83-6.86-7.03s2.48-7.52,6.54-7.52c4.55,0,5.76,4.01,5.76,6.57,0,.52-.06.92-.09,1.18h-9.8Zm7.44-1.82c.03-1.61-.66-4.12-3.52-4.12-2.57,0-3.69,2.36-3.89,4.12h7.41Zm.61-11.64l-3.52,4.12h-1.82l2.54-4.12h2.8Z"/><path class="cls-1" d="m387.9,453.1v4.01h3.63v1.93h-3.63v7.52c0,1.73.49,2.71,1.9,2.71.66,0,1.15-.09,1.47-.17l.12,1.9c-.49.2-1.27.35-2.25.35-1.18,0-2.13-.37-2.74-1.07-.72-.75-.98-1.99-.98-3.63v-7.61h-2.16v-1.93h2.16v-3.34l2.48-.66Z"/><path class="cls-1" d="m396.92,453.19c.03.87-.61,1.56-1.61,1.56-.89,0-1.53-.69-1.53-1.56s.66-1.58,1.59-1.58,1.56.69,1.56,1.58Zm-2.83,17.87v-13.95h2.54v13.95h-2.54Z"/><path class="cls-1" d="m401.97,464.55c.06,3.43,2.25,4.84,4.78,4.84,1.82,0,2.91-.32,3.86-.72l.43,1.82c-.89.4-2.42.86-4.64.86-4.29,0-6.86-2.83-6.86-7.03s2.48-7.52,6.54-7.52c4.55,0,5.77,4.01,5.77,6.57,0,.52-.06.92-.09,1.18h-9.8Zm7.44-1.82c.03-1.61-.66-4.12-3.52-4.12-2.57,0-3.69,2.36-3.89,4.12h7.41Z"/><path class="cls-1" d="m414.71,461.46c0-1.64-.03-3.06-.12-4.35h2.22l.09,2.74h.12c.63-1.87,2.16-3.06,3.86-3.06.29,0,.49.03.72.09v2.39c-.26-.06-.52-.09-.87-.09-1.79,0-3.06,1.35-3.4,3.26-.06.35-.12.75-.12,1.18v7.44h-2.51v-9.6Z"/><path class="cls-1" d="m423.5,468.47c.75.49,2.07,1.01,3.34,1.01,1.84,0,2.71-.92,2.71-2.07,0-1.21-.72-1.87-2.59-2.57-2.51-.89-3.69-2.28-3.69-3.95,0-2.25,1.82-4.09,4.81-4.09,1.41,0,2.65.4,3.43.86l-.63,1.84c-.55-.35-1.56-.81-2.85-.81-1.5,0-2.33.87-2.33,1.9,0,1.15.84,1.67,2.65,2.36,2.42.92,3.66,2.13,3.66,4.21,0,2.45-1.9,4.18-5.22,4.18-1.53,0-2.94-.37-3.92-.95l.63-1.93Z"/><path class="cls-1" d="m452.85,450.6v16.86c0,1.24.03,2.65.12,3.6h-2.28l-.12-2.42h-.06c-.78,1.56-2.48,2.74-4.76,2.74-3.37,0-5.97-2.85-5.97-7.09-.03-4.64,2.85-7.49,6.25-7.49,2.13,0,3.57,1.01,4.21,2.13h.06v-8.33h2.54Zm-2.54,12.19c0-.32-.03-.75-.12-1.07-.37-1.61-1.76-2.94-3.66-2.94-2.62,0-4.18,2.31-4.18,5.39,0,2.82,1.38,5.16,4.12,5.16,1.7,0,3.26-1.12,3.72-3.03.09-.35.12-.69.12-1.1v-2.42Z"/><path class="cls-1" d="m458.18,464.55c.06,3.43,2.25,4.84,4.78,4.84,1.82,0,2.91-.32,3.86-.72l.43,1.82c-.89.4-2.42.86-4.64.86-4.29,0-6.86-2.83-6.86-7.03s2.48-7.52,6.54-7.52c4.55,0,5.77,4.01,5.77,6.57,0,.52-.06.92-.09,1.18h-9.8Zm7.44-1.82c.03-1.61-.66-4.12-3.52-4.12-2.57,0-3.69,2.36-3.89,4.12h7.41Z"/><path class="cls-1" d="m476.83,451.86c1.21-.2,2.8-.38,4.81-.38,2.48,0,4.29.58,5.45,1.61,1.07.92,1.7,2.33,1.7,4.06s-.52,3.14-1.5,4.15c-1.33,1.41-3.49,2.13-5.94,2.13-.75,0-1.44-.03-2.02-.17v7.78h-2.51v-19.2Zm2.51,9.37c.55.14,1.24.2,2.08.2,3.03,0,4.87-1.47,4.87-4.15s-1.82-3.81-4.58-3.81c-1.1,0-1.93.09-2.36.2v7.55Z"/><path class="cls-1" d="m498.77,471.06l-.2-1.76h-.09c-.78,1.1-2.28,2.08-4.27,2.08-2.83,0-4.27-1.99-4.27-4.01,0-3.37,3-5.22,8.39-5.19v-.29c0-1.15-.32-3.23-3.17-3.23-1.3,0-2.65.4-3.63,1.04l-.58-1.67c1.15-.75,2.83-1.24,4.58-1.24,4.27,0,5.3,2.91,5.3,5.71v5.22c0,1.21.06,2.39.23,3.34h-2.31Zm-.37-7.12c-2.77-.06-5.91.43-5.91,3.14,0,1.64,1.1,2.42,2.39,2.42,1.82,0,2.97-1.15,3.37-2.33.09-.26.14-.55.14-.81v-2.42Z"/><path class="cls-1" d="m504.65,461.46c0-1.64-.03-3.06-.12-4.35h2.22l.09,2.74h.12c.63-1.87,2.16-3.06,3.86-3.06.29,0,.49.03.72.09v2.39c-.26-.06-.52-.09-.87-.09-1.79,0-3.06,1.35-3.4,3.26-.06.35-.12.75-.12,1.18v7.44h-2.51v-9.6Z"/><path class="cls-1" d="m516.73,453.19c.03.87-.61,1.56-1.61,1.56-.89,0-1.53-.69-1.53-1.56s.66-1.58,1.59-1.58,1.56.69,1.56,1.58Zm-2.83,17.87v-13.95h2.54v13.95h-2.54Z"/><path class="cls-1" d="m520.02,468.47c.75.49,2.07,1.01,3.34,1.01,1.84,0,2.71-.92,2.71-2.07,0-1.21-.72-1.87-2.59-2.57-2.51-.89-3.69-2.28-3.69-3.95,0-2.25,1.82-4.09,4.81-4.09,1.41,0,2.65.4,3.43.86l-.63,1.84c-.55-.35-1.56-.81-2.85-.81-1.5,0-2.33.87-2.33,1.9,0,1.15.84,1.67,2.65,2.36,2.42.92,3.66,2.13,3.66,4.21,0,2.45-1.9,4.18-5.22,4.18-1.53,0-2.94-.37-3.92-.95l.63-1.93Z"/></svg>