<?xml version="1.0" encoding="UTF-8"?><svg id="Calque_1" xmlns="http://www.w3.org/2000/svg" viewBox="0 0 800 800"><defs><style>.cls-1{fill:#ffe64b;}</style></defs><g><path class="cls-1" d="m271.13,299.77l-18.81,18.43h-6.65l-19.76-19.57v-92.91c0-2.66.09-5.06.28-7.22.19-2.15.67-3.92,1.43-5.32.76-1.39,2-2.47,3.71-3.23s4.08-1.14,7.12-1.14h29.83v27.17h-12.73v-14.25h-15.58v91.96l9.12,9.88,12.92-12.92,9.12,9.12Z"/><path class="cls-1" d="m292.03,160.5l10.83,10.64-10.83,10.64-10.64-10.64,10.64-10.64Zm6.46,28.31v129.39h-13.49v-129.39h13.49Z"/><path class="cls-1" d="m334.21,229.85v88.35h-13.3v-129.39h13.3v22.23l19.19-22.23h13.3v129.39h-13.3v-111.15l-19.19,22.8Z"/><path class="cls-1" d="m422.74,201.73h-28.31v74.67l13.11-12.92,9.12,9.31-22.23,22.04v10.45h28.31v12.92h-41.42v-129.39h41.42v12.92Zm-24.13-16.72l-7.22-7.98,15.96-16.53,10.07,10.83-18.81,13.68Z"/><path class="cls-1" d="m435.28,318.2v-110.2l22.61-23.18,16.15,16.34,15.58-16.34,22.42,22.42v110.96h-13.3v-106.78l-8.93-8.74-9.69,9.69v105.83h-13.3v-106.78l-8.74-8.74-9.5,9.69v105.83h-13.3Z"/><path class="cls-1" d="m574.36,188.81v129.39h-13.3v-22.23l-19.19,22.23h-12.92v-110.2c0-2.66.06-5.16.19-7.5.12-2.34.63-4.37,1.52-6.08.88-1.71,2.28-3.07,4.18-4.09,1.9-1.01,4.62-1.52,8.17-1.52h31.35Zm-13.3,12.92h-19.19v98.23l19.19-22.8v-75.43Z"/><path class="cls-1" d="m142.5,341.73h-28.31v74.67l13.11-12.92,9.12,9.31-22.23,22.04v10.45h28.31v12.92h-41.42v-129.2h41.42v12.73Z"/><path class="cls-1" d="m168.15,369.85v88.35h-13.3v-129.39h13.3v22.23l19.19-22.23h13.3v129.39h-13.3v-111.15l-19.19,22.8Z"/><path class="cls-1" d="m270.56,410.89l.38,47.31h-13.3v-129.58h21.66c3.04,0,5.98.32,8.83.95,2.85.64,5.35,1.8,7.5,3.52,2.15,1.71,3.9,4.05,5.23,7.03,1.33,2.98,2,6.81,2,11.5v27.55l-32.3,31.73Zm.38-18.24l18.24-18.24v-20.9c0-2.66-.26-4.78-.76-6.37-.51-1.58-1.21-2.75-2.09-3.51-.89-.76-1.93-1.26-3.13-1.52-1.21-.25-2.44-.38-3.71-.38h-8.55v50.92Z"/><path class="cls-1" d="m328.89,328.81v116.47h25.08v12.92h-38.38v-129.39h13.3Z"/><path class="cls-1" d="m404.32,341.73h-28.31v74.67l13.11-12.92,9.12,9.31-22.23,22.04v10.45h28.31v12.92h-41.42v-129.2h41.42v12.73Z"/><path class="cls-1" d="m426.36,300.5l10.83,10.64-10.83,10.64-10.64-10.64,10.64-10.64Zm6.46,28.31v129.39h-13.49v-129.39h13.49Z"/><path class="cls-1" d="m468.54,369.85v88.35h-13.3v-129.39h13.3v22.23l19.19-22.23h13.3v129.39h-13.3v-111.15l-19.19,22.8Z"/><path class="cls-1" d="m589.18,431.6l-10.64,10.64-10.83-10.64-3.23,26.6h-13.11l14.25-116.47h-9.69v-12.92h45.03v12.92h-9.69l14.82,116.47h-13.68l-3.23-26.6Zm-19.38-15.39l8.74,8.55,8.74-8.55-8.74-71.25-8.74,71.25Z"/><path class="cls-1" d="m628.13,300.5l10.83,10.64-10.83,10.64-10.64-10.64,10.64-10.64Zm6.46,28.31v129.39h-13.49v-129.39h13.49Z"/><path class="cls-1" d="m687.98,436.16l-9.5-9.69-8.17,7.98v23.75h-13.3v-129.39h22.23c3.04,0,5.92.32,8.64.95,2.72.64,5.1,1.81,7.12,3.51,2.02,1.71,3.64,4.02,4.84,6.94,1.2,2.92,1.81,6.71,1.81,11.4v51.68l-13.68,13.87,13.68,13.87v27.17h-13.68v-22.04Zm-17.67-19.57l17.67-17.48v-45.03c0-5.32-.83-8.71-2.47-10.16-1.65-1.46-3.74-2.19-6.27-2.19h-8.93v74.86Z"/></g><g><path class="cls-1" d="m128.22,527.04l11.36-11.28c.4-.37.79-.78,1.16-1.22.37-.44.71-.9,1-1.38.29-.48.53-.99.7-1.52.17-.53.26-1.09.26-1.68,0-.69-.13-1.32-.38-1.88-.25-.56-.6-1.03-1.04-1.42s-.96-.69-1.56-.9c-.6-.21-1.23-.32-1.9-.32-1.39,0-2.53.39-3.44,1.16-.91.77-1.48,1.84-1.72,3.2l-4.16-.36c.19-1.25.55-2.34,1.1-3.26.55-.92,1.23-1.69,2.04-2.3.81-.61,1.75-1.07,2.8-1.36,1.05-.29,2.19-.44,3.42-.44s2.38.17,3.46.5c1.08.33,2.03.83,2.84,1.48s1.45,1.47,1.92,2.44c.47.97.7,2.11.7,3.42,0,.93-.14,1.81-.42,2.62s-.65,1.58-1.1,2.3c-.45.72-.97,1.4-1.56,2.04-.59.64-1.2,1.27-1.84,1.88l-9.32,9h14.24v3.36h-18.56v-4.08Z"/><path class="cls-1" d="m149.98,516.96c0-1.04.05-2.12.16-3.24.11-1.12.3-2.22.58-3.3.28-1.08.65-2.11,1.12-3.1.47-.99,1.07-1.85,1.8-2.58.73-.73,1.6-1.32,2.6-1.76,1-.44,2.17-.66,3.5-.66s2.5.22,3.5.66c1,.44,1.87,1.03,2.6,1.76.73.73,1.33,1.59,1.8,2.58.47.99.84,2.02,1.12,3.1.28,1.08.47,2.18.58,3.3.11,1.12.16,2.2.16,3.24,0,1.49-.13,3.09-.4,4.8-.27,1.71-.76,3.29-1.48,4.76s-1.71,2.68-2.98,3.64c-1.27.96-2.9,1.44-4.9,1.44s-3.63-.48-4.9-1.44c-1.27-.96-2.26-2.17-2.98-3.64-.72-1.47-1.21-3.05-1.48-4.76-.27-1.71-.4-3.31-.4-4.8Zm3.84,0c0,.93.06,2.04.18,3.32s.38,2.51.78,3.7c.4,1.19.99,2.19,1.78,3.02.79.83,1.85,1.24,3.18,1.24s2.39-.41,3.18-1.24c.79-.83,1.38-1.83,1.78-3.02s.66-2.42.78-3.7c.12-1.28.18-2.39.18-3.32,0-.64-.02-1.37-.06-2.18s-.13-1.64-.28-2.48c-.15-.84-.35-1.65-.62-2.44-.27-.79-.62-1.49-1.06-2.12-.44-.63-.98-1.13-1.62-1.5-.64-.37-1.4-.56-2.28-.56s-1.64.19-2.28.56c-.64.37-1.18.87-1.62,1.5-.44.63-.79,1.33-1.06,2.12-.27.79-.47,1.6-.62,2.44-.15.84-.24,1.67-.28,2.48-.04.81-.06,1.54-.06,2.18Z"/><path class="cls-1" d="m172.7,527.04l11.36-11.28c.4-.37.79-.78,1.16-1.22.37-.44.71-.9,1-1.38.29-.48.53-.99.7-1.52.17-.53.26-1.09.26-1.68,0-.69-.13-1.32-.38-1.88-.25-.56-.6-1.03-1.04-1.42s-.96-.69-1.56-.9c-.6-.21-1.23-.32-1.9-.32-1.39,0-2.53.39-3.44,1.16-.91.77-1.48,1.84-1.72,3.2l-4.16-.36c.19-1.25.55-2.34,1.1-3.26.55-.92,1.23-1.69,2.04-2.3.81-.61,1.75-1.07,2.8-1.36,1.05-.29,2.19-.44,3.42-.44s2.38.17,3.46.5c1.08.33,2.03.83,2.84,1.48s1.45,1.47,1.92,2.44c.47.97.7,2.11.7,3.42,0,.93-.14,1.81-.42,2.62s-.65,1.58-1.1,2.3c-.45.72-.97,1.4-1.56,2.04-.59.64-1.2,1.27-1.84,1.88l-9.32,9h14.24v3.36h-18.56v-4.08Z"/><path class="cls-1" d="m203.9,507.2l-5.2,4.8-2.24-2.68,7.88-6.52h3.4v28.32h-3.84v-23.92Z"/><path class="cls-1" d="m237.7,523.12h-9.84v-3.36h9.84v3.36Z"/><path class="cls-1" d="m253.86,502.8h3.84v28.32h-3.84v-28.32Z"/><path class="cls-1" d="m283.06,531.12h-3.6v-2.72h-.08c-.69,1.01-1.65,1.8-2.86,2.36-1.21.56-2.46.84-3.74.84-1.47,0-2.79-.25-3.98-.76-1.19-.51-2.2-1.21-3.04-2.12-.84-.91-1.49-1.96-1.94-3.16-.45-1.2-.68-2.51-.68-3.92s.23-2.73.68-3.94c.45-1.21,1.1-2.27,1.94-3.16.84-.89,1.85-1.59,3.04-2.1,1.19-.51,2.51-.76,3.98-.76,1.36,0,2.64.29,3.84.86,1.2.57,2.12,1.35,2.76,2.34h.08v-14h3.6v30.24Zm-9.84-2.88c.96,0,1.83-.17,2.6-.5.77-.33,1.43-.79,1.96-1.36.53-.57.95-1.27,1.24-2.08.29-.81.44-1.7.44-2.66s-.15-1.85-.44-2.66c-.29-.81-.71-1.51-1.24-2.08-.53-.57-1.19-1.03-1.96-1.36-.77-.33-1.64-.5-2.6-.5s-1.83.17-2.6.5c-.77.33-1.43.79-1.96,1.36-.53.57-.95,1.27-1.24,2.08-.29.81-.44,1.7-.44,2.66s.15,1.85.44,2.66c.29.81.71,1.51,1.24,2.08.53.57,1.19,1.03,1.96,1.36.77.33,1.64.5,2.6.5Z"/><path class="cls-1" d="m291.22,522.96c0,.83.18,1.58.54,2.26.36.68.83,1.26,1.42,1.74.59.48,1.27.85,2.04,1.12.77.27,1.57.4,2.4.4,1.12,0,2.09-.26,2.92-.78.83-.52,1.59-1.21,2.28-2.06l2.72,2.08c-2,2.59-4.8,3.88-8.4,3.88-1.49,0-2.85-.25-4.06-.76-1.21-.51-2.24-1.21-3.08-2.1-.84-.89-1.49-1.95-1.94-3.16-.45-1.21-.68-2.53-.68-3.94s.25-2.73.74-3.94c.49-1.21,1.17-2.27,2.04-3.16.87-.89,1.9-1.59,3.1-2.1s2.51-.76,3.92-.76c1.68,0,3.1.29,4.26.88,1.16.59,2.11,1.35,2.86,2.3.75.95,1.29,2.01,1.62,3.2.33,1.19.5,2.39.5,3.62v1.28h-15.2Zm11.36-2.88c-.03-.8-.15-1.53-.38-2.2-.23-.67-.57-1.25-1.02-1.74-.45-.49-1.02-.88-1.7-1.16-.68-.28-1.47-.42-2.38-.42s-1.69.17-2.42.5c-.73.33-1.35.77-1.86,1.3-.51.53-.9,1.13-1.18,1.78-.28.65-.42,1.3-.42,1.94h11.36Z"/><path class="cls-1" d="m310.74,512.16h3.6v2.92h.08c.45-1.01,1.24-1.83,2.36-2.46,1.12-.63,2.41-.94,3.88-.94.91,0,1.78.14,2.62.42.84.28,1.57.71,2.2,1.3.63.59,1.13,1.34,1.5,2.26.37.92.56,2.01.56,3.26v12.2h-3.6v-11.2c0-.88-.12-1.63-.36-2.26-.24-.63-.56-1.13-.96-1.52-.4-.39-.86-.67-1.38-.84-.52-.17-1.06-.26-1.62-.26-.75,0-1.44.12-2.08.36-.64.24-1.2.62-1.68,1.14-.48.52-.85,1.18-1.12,1.98-.27.8-.4,1.75-.4,2.84v9.76h-3.6v-18.96Z"/><path class="cls-1" d="m343.14,515.28h-5.16v8.6c0,.53.01,1.06.04,1.58.03.52.13.99.3,1.4.17.41.44.75.8,1,.36.25.89.38,1.58.38.43,0,.87-.04,1.32-.12.45-.08.87-.23,1.24-.44v3.28c-.43.24-.98.41-1.66.5-.68.09-1.21.14-1.58.14-1.39,0-2.46-.19-3.22-.58-.76-.39-1.32-.89-1.68-1.5-.36-.61-.57-1.3-.64-2.06-.07-.76-.1-1.53-.1-2.3v-9.88h-4.16v-3.12h4.16v-5.32h3.6v5.32h5.16v3.12Z"/><path class="cls-1" d="m347.22,505.36c0-.72.26-1.34.78-1.86.52-.52,1.14-.78,1.86-.78s1.34.26,1.86.78c.52.52.78,1.14.78,1.86s-.26,1.34-.78,1.86c-.52.52-1.14.78-1.86.78s-1.34-.26-1.86-.78c-.52-.52-.78-1.14-.78-1.86Zm.84,6.8h3.6v18.96h-3.6v-18.96Z"/><path class="cls-1" d="m367.54,515.28h-5.16v8.6c0,.53.01,1.06.04,1.58.03.52.13.99.3,1.4.17.41.44.75.8,1,.36.25.89.38,1.58.38.43,0,.87-.04,1.32-.12.45-.08.87-.23,1.24-.44v3.28c-.43.24-.98.41-1.66.5-.68.09-1.21.14-1.58.14-1.39,0-2.46-.19-3.22-.58-.76-.39-1.32-.89-1.68-1.5-.36-.61-.57-1.3-.64-2.06-.07-.76-.1-1.53-.1-2.3v-9.88h-4.16v-3.12h4.16v-5.32h3.6v5.32h5.16v3.12Z"/><path class="cls-1" d="m374.9,522.96c0,.83.18,1.58.54,2.26.36.68.83,1.26,1.42,1.74.59.48,1.27.85,2.04,1.12.77.27,1.57.4,2.4.4,1.12,0,2.09-.26,2.92-.78.83-.52,1.59-1.21,2.28-2.06l2.72,2.08c-2,2.59-4.8,3.88-8.4,3.88-1.49,0-2.85-.25-4.06-.76-1.21-.51-2.24-1.21-3.08-2.1-.84-.89-1.49-1.95-1.94-3.16-.45-1.21-.68-2.53-.68-3.94s.25-2.73.74-3.94c.49-1.21,1.17-2.27,2.04-3.16.87-.89,1.9-1.59,3.1-2.1s2.51-.76,3.92-.76c1.68,0,3.1.29,4.26.88,1.16.59,2.11,1.35,2.86,2.3.75.95,1.29,2.01,1.62,3.2.33,1.19.5,2.39.5,3.62v1.28h-15.2Zm11.36-2.88c-.03-.8-.15-1.53-.38-2.2-.23-.67-.57-1.25-1.02-1.74-.45-.49-1.02-.88-1.7-1.16-.68-.28-1.47-.42-2.38-.42s-1.69.17-2.42.5c-.73.33-1.35.77-1.86,1.3-.51.53-.9,1.13-1.18,1.78-.28.65-.42,1.3-.42,1.94h11.36Zm-4.16-17.28h5.12l-5.96,5.76h-3.32l4.16-5.76Z"/><path class="cls-1" d="m403.26,512.16h4.16l5.68,14.52,5.44-14.52h3.84l-7.44,18.96h-3.96l-7.72-18.96Z"/><path class="cls-1" d="m424.98,505.36c0-.72.26-1.34.78-1.86.52-.52,1.14-.78,1.86-.78s1.34.26,1.86.78c.52.52.78,1.14.78,1.86s-.26,1.34-.78,1.86-1.14.78-1.86.78-1.34-.26-1.86-.78-.78-1.14-.78-1.86Zm.84,6.8h3.6v18.96h-3.6v-18.96Z"/><path class="cls-1" d="m445.22,516.92c-.43-.53-.95-.98-1.58-1.34s-1.39-.54-2.3-.54c-.85,0-1.59.18-2.22.54-.63.36-.94.89-.94,1.58,0,.56.18,1.01.54,1.36.36.35.79.63,1.28.84.49.21,1.02.37,1.58.48.56.11,1.04.2,1.44.28.77.19,1.5.41,2.18.68.68.27,1.27.61,1.76,1.04.49.43.88.95,1.16,1.56s.42,1.36.42,2.24c0,1.07-.23,1.98-.68,2.74-.45.76-1.04,1.38-1.76,1.86-.72.48-1.54.83-2.46,1.04s-1.85.32-2.78.32c-1.57,0-2.95-.24-4.14-.72-1.19-.48-2.25-1.36-3.18-2.64l2.72-2.24c.59.59,1.24,1.11,1.96,1.56s1.6.68,2.64.68c.45,0,.91-.05,1.38-.14.47-.09.88-.24,1.24-.44.36-.2.65-.45.88-.76.23-.31.34-.66.34-1.06,0-.53-.17-.97-.5-1.32-.33-.35-.73-.62-1.2-.82-.47-.2-.96-.36-1.48-.48-.52-.12-.98-.22-1.38-.3-.77-.19-1.51-.4-2.2-.64s-1.31-.56-1.84-.96c-.53-.4-.96-.91-1.28-1.52-.32-.61-.48-1.37-.48-2.28,0-.99.21-1.85.62-2.58s.96-1.34,1.64-1.82c.68-.48,1.45-.84,2.32-1.08.87-.24,1.74-.36,2.62-.36,1.28,0,2.51.24,3.68.72,1.17.48,2.11,1.28,2.8,2.4l-2.8,2.12Z"/><path class="cls-1" d="m469.7,531.12h-3.6v-2.92h-.08c-.45,1.01-1.24,1.83-2.36,2.46-1.12.63-2.41.94-3.88.94-.93,0-1.81-.14-2.64-.42-.83-.28-1.55-.71-2.18-1.3-.63-.59-1.13-1.34-1.5-2.26-.37-.92-.56-2.01-.56-3.26v-12.2h3.6v11.2c0,.88.12,1.63.36,2.26.24.63.56,1.13.96,1.52.4.39.86.67,1.38.84.52.17,1.06.26,1.62.26.75,0,1.44-.12,2.08-.36.64-.24,1.2-.62,1.68-1.14.48-.52.85-1.18,1.12-1.98.27-.8.4-1.75.4-2.84v-9.76h3.6v18.96Z"/><path class="cls-1" d="m477.86,522.96c0,.83.18,1.58.54,2.26.36.68.83,1.26,1.42,1.74.59.48,1.27.85,2.04,1.12.77.27,1.57.4,2.4.4,1.12,0,2.09-.26,2.92-.78.83-.52,1.59-1.21,2.28-2.06l2.72,2.08c-2,2.59-4.8,3.88-8.4,3.88-1.49,0-2.85-.25-4.06-.76-1.21-.51-2.24-1.21-3.08-2.1s-1.49-1.95-1.94-3.16c-.45-1.21-.68-2.53-.68-3.94s.25-2.73.74-3.94c.49-1.21,1.17-2.27,2.04-3.16.87-.89,1.9-1.59,3.1-2.1,1.2-.51,2.51-.76,3.92-.76,1.68,0,3.1.29,4.26.88s2.11,1.35,2.86,2.3c.75.95,1.29,2.01,1.62,3.2s.5,2.39.5,3.62v1.28h-15.2Zm11.36-2.88c-.03-.8-.15-1.53-.38-2.2-.23-.67-.57-1.25-1.02-1.74-.45-.49-1.02-.88-1.7-1.16-.68-.28-1.47-.42-2.38-.42s-1.69.17-2.42.5c-.73.33-1.35.77-1.86,1.3-.51.53-.9,1.13-1.18,1.78-.28.65-.42,1.3-.42,1.94h11.36Z"/><path class="cls-1" d="m497.66,500.88h3.6v30.24h-3.6v-30.24Z"/><path class="cls-1" d="m507.26,500.88h3.6v30.24h-3.6v-30.24Z"/><path class="cls-1" d="m519.3,522.96c0,.83.18,1.58.54,2.26.36.68.83,1.26,1.42,1.74.59.48,1.27.85,2.04,1.12.77.27,1.57.4,2.4.4,1.12,0,2.09-.26,2.92-.78.83-.52,1.59-1.21,2.28-2.06l2.72,2.08c-2,2.59-4.8,3.88-8.4,3.88-1.49,0-2.85-.25-4.06-.76-1.21-.51-2.24-1.21-3.08-2.1s-1.49-1.95-1.94-3.16c-.45-1.21-.68-2.53-.68-3.94s.25-2.73.74-3.94c.49-1.21,1.17-2.27,2.04-3.16.87-.89,1.9-1.59,3.1-2.1,1.2-.51,2.51-.76,3.92-.76,1.68,0,3.1.29,4.26.88s2.11,1.35,2.86,2.3c.75.95,1.29,2.01,1.62,3.2s.5,2.39.5,3.62v1.28h-15.2Zm11.36-2.88c-.03-.8-.15-1.53-.38-2.2-.23-.67-.57-1.25-1.02-1.74-.45-.49-1.02-.88-1.7-1.16-.68-.28-1.47-.42-2.38-.42s-1.69.17-2.42.5c-.73.33-1.35.77-1.86,1.3-.51.53-.9,1.13-1.18,1.78-.28.65-.42,1.3-.42,1.94h11.36Z"/><path class="cls-1" d="m549.94,512.16h3.6v2.72h.08c.69-1.01,1.65-1.8,2.86-2.36,1.21-.56,2.46-.84,3.74-.84,1.47,0,2.79.25,3.98.76,1.19.51,2.2,1.21,3.04,2.12.84.91,1.49,1.97,1.94,3.18.45,1.21.68,2.51.68,3.9s-.23,2.73-.68,3.94c-.45,1.21-1.1,2.27-1.94,3.16-.84.89-1.85,1.59-3.04,2.1-1.19.51-2.51.76-3.98.76-1.36,0-2.64-.29-3.84-.86s-2.12-1.35-2.76-2.34h-.08v14h-3.6v-30.24Zm9.84,2.88c-.96,0-1.83.17-2.6.5-.77.33-1.43.79-1.96,1.36-.53.57-.95,1.27-1.24,2.08-.29.81-.44,1.7-.44,2.66s.15,1.85.44,2.66c.29.81.71,1.51,1.24,2.08.53.57,1.19,1.03,1.96,1.36.77.33,1.64.5,2.6.5s1.83-.17,2.6-.5c.77-.33,1.43-.79,1.96-1.36.53-.57.95-1.27,1.24-2.08.29-.81.44-1.7.44-2.66s-.15-1.85-.44-2.66c-.29-.81-.71-1.51-1.24-2.08-.53-.57-1.19-1.03-1.96-1.36-.77-.33-1.64-.5-2.6-.5Z"/><path class="cls-1" d="m573.46,521.64c0-1.39.26-2.68.78-3.88.52-1.2,1.23-2.25,2.14-3.16s1.97-1.62,3.2-2.14c1.23-.52,2.55-.78,3.96-.78s2.73.26,3.96.78c1.23.52,2.29,1.23,3.2,2.14.91.91,1.62,1.96,2.14,3.16.52,1.2.78,2.49.78,3.88s-.26,2.69-.78,3.9c-.52,1.21-1.23,2.27-2.14,3.16-.91.89-1.97,1.6-3.2,2.12-1.23.52-2.55.78-3.96.78s-2.73-.26-3.96-.78c-1.23-.52-2.29-1.23-3.2-2.12s-1.62-1.95-2.14-3.16c-.52-1.21-.78-2.51-.78-3.9Zm3.84,0c0,.96.15,1.85.44,2.66.29.81.71,1.51,1.24,2.08.53.57,1.19,1.03,1.96,1.36.77.33,1.64.5,2.6.5s1.83-.17,2.6-.5c.77-.33,1.43-.79,1.96-1.36.53-.57.95-1.27,1.24-2.08.29-.81.44-1.7.44-2.66s-.15-1.85-.44-2.66-.71-1.51-1.24-2.08c-.53-.57-1.19-1.03-1.96-1.36-.77-.33-1.64-.5-2.6-.5s-1.83.17-2.6.5c-.77.33-1.43.79-1.96,1.36-.53.57-.95,1.27-1.24,2.08-.29.81-.44,1.7-.44,2.66Z"/><path class="cls-1" d="m614.94,531.12h-3.6v-2.92h-.08c-.45,1.01-1.24,1.83-2.36,2.46-1.12.63-2.41.94-3.88.94-.93,0-1.81-.14-2.64-.42-.83-.28-1.55-.71-2.18-1.3-.63-.59-1.13-1.34-1.5-2.26-.37-.92-.56-2.01-.56-3.26v-12.2h3.6v11.2c0,.88.12,1.63.36,2.26.24.63.56,1.13.96,1.52.4.39.86.67,1.38.84.52.17,1.06.26,1.62.26.75,0,1.44-.12,2.08-.36.64-.24,1.2-.62,1.68-1.14.48-.52.85-1.18,1.12-1.98.27-.8.4-1.75.4-2.84v-9.76h3.6v18.96Z"/><path class="cls-1" d="m620.38,512.16h3.6v2.92h.08c.24-.51.56-.97.96-1.38.4-.41.85-.77,1.34-1.06.49-.29,1.03-.53,1.62-.7.59-.17,1.17-.26,1.76-.26s1.12.08,1.6.24l-.16,3.88c-.29-.08-.59-.15-.88-.2-.29-.05-.59-.08-.88-.08-1.76,0-3.11.49-4.04,1.48-.93.99-1.4,2.52-1.4,4.6v9.52h-3.6v-18.96Z"/><path class="cls-1" d="m646.58,500.88h3.6v30.24h-3.6v-30.24Z"/><path class="cls-1" d="m658.62,522.96c0,.83.18,1.58.54,2.26.36.68.83,1.26,1.42,1.74.59.48,1.27.85,2.04,1.12.77.27,1.57.4,2.4.4,1.12,0,2.09-.26,2.92-.78.83-.52,1.59-1.21,2.28-2.06l2.72,2.08c-2,2.59-4.8,3.88-8.4,3.88-1.49,0-2.85-.25-4.06-.76-1.21-.51-2.24-1.21-3.08-2.1s-1.49-1.95-1.94-3.16c-.45-1.21-.68-2.53-.68-3.94s.25-2.73.74-3.94c.49-1.21,1.17-2.27,2.04-3.16.87-.89,1.9-1.59,3.1-2.1,1.2-.51,2.51-.76,3.92-.76,1.68,0,3.1.29,4.26.88s2.11,1.35,2.86,2.3c.75.95,1.29,2.01,1.62,3.2s.5,2.39.5,3.62v1.28h-15.2Zm11.36-2.88c-.03-.8-.15-1.53-.38-2.2-.23-.67-.57-1.25-1.02-1.74-.45-.49-1.02-.88-1.7-1.16-.68-.28-1.47-.42-2.38-.42s-1.69.17-2.42.5c-.73.33-1.35.77-1.86,1.3-.51.53-.9,1.13-1.18,1.78-.28.65-.42,1.3-.42,1.94h11.36Z"/><path class="cls-1" d="m130.5,556.92c-.8-1.04-1.81-1.84-3.04-2.4-1.23-.56-2.49-.84-3.8-.84-1.6,0-3.05.3-4.34.9-1.29.6-2.4,1.42-3.32,2.46s-1.63,2.26-2.14,3.66c-.51,1.4-.76,2.9-.76,4.5,0,1.49.24,2.91.72,4.24s1.17,2.51,2.08,3.52c.91,1.01,2.01,1.81,3.32,2.4,1.31.59,2.79.88,4.44.88s3.05-.33,4.28-1c1.23-.67,2.27-1.6,3.12-2.8l3.24,2.44c-.21.29-.59.71-1.12,1.26-.53.55-1.24,1.09-2.12,1.64s-1.94,1.03-3.18,1.44c-1.24.41-2.67.62-4.3.62-2.24,0-4.26-.43-6.06-1.28-1.8-.85-3.33-1.97-4.6-3.36s-2.23-2.95-2.9-4.7c-.67-1.75-1-3.51-1-5.3,0-2.19.36-4.21,1.08-6.06.72-1.85,1.73-3.45,3.02-4.8,1.29-1.35,2.85-2.39,4.66-3.14,1.81-.75,3.81-1.12,6-1.12,1.87,0,3.7.36,5.5,1.08,1.8.72,3.27,1.83,4.42,3.32l-3.2,2.44Z"/><path class="cls-1" d="m137.46,553.36c0-.72.26-1.34.78-1.86.52-.52,1.14-.78,1.86-.78s1.34.26,1.86.78c.52.52.78,1.14.78,1.86s-.26,1.34-.78,1.86c-.52.52-1.14.78-1.86.78s-1.34-.26-1.86-.78c-.52-.52-.78-1.14-.78-1.86Zm.84,6.8h3.6v18.96h-3.6v-18.96Z"/><path class="cls-1" d="m147.62,560.16h3.6v2.92h.08c.45-1.01,1.24-1.83,2.36-2.46,1.12-.63,2.41-.94,3.88-.94.91,0,1.78.14,2.62.42.84.28,1.57.71,2.2,1.3.63.59,1.13,1.34,1.5,2.26.37.92.56,2.01.56,3.26v12.2h-3.6v-11.2c0-.88-.12-1.63-.36-2.26-.24-.63-.56-1.13-.96-1.52-.4-.39-.86-.67-1.38-.84-.52-.17-1.06-.26-1.62-.26-.75,0-1.44.12-2.08.36-.64.24-1.2.62-1.68,1.14-.48.52-.85,1.18-1.12,1.98-.27.8-.4,1.75-.4,2.84v9.76h-3.6v-18.96Z"/><path class="cls-1" d="m172.58,570.96c0,.83.18,1.58.54,2.26.36.68.83,1.26,1.42,1.74.59.48,1.27.85,2.04,1.12.77.27,1.57.4,2.4.4,1.12,0,2.09-.26,2.92-.78.83-.52,1.59-1.21,2.28-2.06l2.72,2.08c-2,2.59-4.8,3.88-8.4,3.88-1.49,0-2.85-.25-4.06-.76-1.21-.51-2.24-1.21-3.08-2.1-.84-.89-1.49-1.95-1.94-3.16-.45-1.21-.68-2.53-.68-3.94s.25-2.73.74-3.94c.49-1.21,1.17-2.27,2.04-3.16.87-.89,1.9-1.59,3.1-2.1s2.51-.76,3.92-.76c1.68,0,3.1.29,4.26.88,1.16.59,2.11,1.35,2.86,2.3.75.95,1.29,2.01,1.62,3.2.33,1.19.5,2.39.5,3.62v1.28h-15.2Zm11.36-2.88c-.03-.8-.15-1.53-.38-2.2-.23-.67-.57-1.25-1.02-1.74-.45-.49-1.02-.88-1.7-1.16-.68-.28-1.47-.42-2.38-.42s-1.69.17-2.42.5c-.73.33-1.35.77-1.86,1.3-.51.53-.9,1.13-1.18,1.78-.28.65-.42,1.3-.42,1.94h11.36Zm-4.16-17.28h5.12l-5.96,5.76h-3.32l4.16-5.76Z"/><path class="cls-1" d="m192.1,560.16h3.36v2.96h.08c.08-.27.29-.6.62-1s.76-.78,1.28-1.14c.52-.36,1.13-.67,1.84-.92.71-.25,1.49-.38,2.34-.38,1.41,0,2.6.29,3.56.88s1.75,1.47,2.36,2.64c.61-1.17,1.48-2.05,2.6-2.64,1.12-.59,2.25-.88,3.4-.88,1.47,0,2.67.24,3.6.72.93.48,1.67,1.11,2.2,1.9.53.79.9,1.68,1.1,2.68.2,1,.3,2.03.3,3.1v11.04h-3.6v-10.56c0-.72-.05-1.41-.14-2.08-.09-.67-.29-1.25-.58-1.76-.29-.51-.71-.91-1.24-1.22-.53-.31-1.24-.46-2.12-.46-1.73,0-2.97.53-3.72,1.6-.75,1.07-1.12,2.44-1.12,4.12v10.36h-3.6v-9.92c0-.91-.05-1.73-.14-2.48-.09-.75-.28-1.39-.56-1.94-.28-.55-.68-.97-1.2-1.28-.52-.31-1.22-.46-2.1-.46-.64,0-1.26.13-1.86.38-.6.25-1.13.63-1.58,1.14-.45.51-.81,1.15-1.08,1.94-.27.79-.4,1.71-.4,2.78v9.84h-3.6v-18.96Z"/><path class="cls-1" d="m226.26,562.48c1.01-.93,2.19-1.63,3.52-2.1,1.33-.47,2.67-.7,4-.7s2.58.17,3.58.52,1.82.81,2.46,1.4c.64.59,1.11,1.26,1.42,2.02s.46,1.55.46,2.38v9.68c0,.67.01,1.28.04,1.84.03.56.07,1.09.12,1.6h-3.2c-.08-.96-.12-1.92-.12-2.88h-.08c-.8,1.23-1.75,2.09-2.84,2.6-1.09.51-2.36.76-3.8.76-.88,0-1.72-.12-2.52-.36-.8-.24-1.5-.6-2.1-1.08-.6-.48-1.07-1.07-1.42-1.78-.35-.71-.52-1.53-.52-2.46,0-1.23.27-2.25.82-3.08.55-.83,1.29-1.5,2.24-2.02.95-.52,2.05-.89,3.32-1.12,1.27-.23,2.62-.34,4.06-.34h2.64v-.8c0-.48-.09-.96-.28-1.44-.19-.48-.47-.91-.84-1.3s-.84-.69-1.4-.92-1.23-.34-2-.34c-.69,0-1.3.07-1.82.2-.52.13-.99.3-1.42.5-.43.2-.81.43-1.16.7-.35.27-.68.52-1,.76l-2.16-2.24Zm10.16,7.52c-.85,0-1.73.05-2.62.14-.89.09-1.71.27-2.44.54-.73.27-1.33.64-1.8,1.12-.47.48-.7,1.09-.7,1.84,0,1.09.37,1.88,1.1,2.36.73.48,1.73.72,2.98.72.99,0,1.83-.17,2.52-.5.69-.33,1.25-.77,1.68-1.3.43-.53.73-1.13.92-1.78.19-.65.28-1.3.28-1.94v-1.2h-1.92Z"/><path class="cls-1" d="m260.78,570.96c0,.83.18,1.58.54,2.26.36.68.83,1.26,1.42,1.74.59.48,1.27.85,2.04,1.12.77.27,1.57.4,2.4.4,1.12,0,2.09-.26,2.92-.78.83-.52,1.59-1.21,2.28-2.06l2.72,2.08c-2,2.59-4.8,3.88-8.4,3.88-1.49,0-2.85-.25-4.06-.76-1.21-.51-2.24-1.21-3.08-2.1-.84-.89-1.49-1.95-1.94-3.16-.45-1.21-.68-2.53-.68-3.94s.25-2.73.74-3.94c.49-1.21,1.17-2.27,2.04-3.16.87-.89,1.9-1.59,3.1-2.1s2.51-.76,3.92-.76c1.68,0,3.1.29,4.26.88,1.16.59,2.11,1.35,2.86,2.3.75.95,1.29,2.01,1.62,3.2.33,1.19.5,2.39.5,3.62v1.28h-15.2Zm11.36-2.88c-.03-.8-.15-1.53-.38-2.2-.23-.67-.57-1.25-1.02-1.74-.45-.49-1.02-.88-1.7-1.16-.68-.28-1.47-.42-2.38-.42s-1.69.17-2.42.5c-.73.33-1.35.77-1.86,1.3-.51.53-.9,1.13-1.18,1.78-.28.65-.42,1.3-.42,1.94h11.36Z"/><path class="cls-1" d="m280.3,560.16h3.6v2.92h.08c.45-1.01,1.24-1.83,2.36-2.46,1.12-.63,2.41-.94,3.88-.94.91,0,1.78.14,2.62.42.84.28,1.57.71,2.2,1.3.63.59,1.13,1.34,1.5,2.26.37.92.56,2.01.56,3.26v12.2h-3.6v-11.2c0-.88-.12-1.63-.36-2.26-.24-.63-.56-1.13-.96-1.52-.4-.39-.86-.67-1.38-.84-.52-.17-1.06-.26-1.62-.26-.75,0-1.44.12-2.08.36-.64.24-1.2.62-1.68,1.14-.48.52-.85,1.18-1.12,1.98-.27.8-.4,1.75-.4,2.84v9.76h-3.6v-18.96Z"/><path class="cls-1" d="m313.66,560.16h3.6v2.72h.08c.69-1.01,1.65-1.8,2.86-2.36,1.21-.56,2.46-.84,3.74-.84,1.47,0,2.79.25,3.98.76,1.19.51,2.2,1.21,3.04,2.12s1.49,1.97,1.94,3.18c.45,1.21.68,2.51.68,3.9s-.23,2.73-.68,3.94c-.45,1.21-1.1,2.27-1.94,3.16s-1.85,1.59-3.04,2.1c-1.19.51-2.51.76-3.98.76-1.36,0-2.64-.29-3.84-.86-1.2-.57-2.12-1.35-2.76-2.34h-.08v14h-3.6v-30.24Zm9.84,2.88c-.96,0-1.83.17-2.6.5-.77.33-1.43.79-1.96,1.36-.53.57-.95,1.27-1.24,2.08s-.44,1.7-.44,2.66.15,1.85.44,2.66c.29.81.71,1.51,1.24,2.08.53.57,1.19,1.03,1.96,1.36.77.33,1.64.5,2.6.5s1.83-.17,2.6-.5c.77-.33,1.43-.79,1.96-1.36.53-.57.95-1.27,1.24-2.08.29-.81.44-1.7.44-2.66s-.15-1.85-.44-2.66-.71-1.51-1.24-2.08c-.53-.57-1.19-1.03-1.96-1.36-.77-.33-1.64-.5-2.6-.5Z"/><path class="cls-1" d="m338.38,548.88h3.6v30.24h-3.6v-30.24Z"/><path class="cls-1" d="m350.42,570.96c0,.83.18,1.58.54,2.26.36.68.83,1.26,1.42,1.74.59.48,1.27.85,2.04,1.12.77.27,1.57.4,2.4.4,1.12,0,2.09-.26,2.92-.78.83-.52,1.59-1.21,2.28-2.06l2.72,2.08c-2,2.59-4.8,3.88-8.4,3.88-1.49,0-2.85-.25-4.06-.76-1.21-.51-2.24-1.21-3.08-2.1-.84-.89-1.49-1.95-1.94-3.16-.45-1.21-.68-2.53-.68-3.94s.25-2.73.74-3.94c.49-1.21,1.17-2.27,2.04-3.16.87-.89,1.9-1.59,3.1-2.1s2.51-.76,3.92-.76c1.68,0,3.1.29,4.26.88,1.16.59,2.11,1.35,2.86,2.3.75.95,1.29,2.01,1.62,3.2.33,1.19.5,2.39.5,3.62v1.28h-15.2Zm11.36-2.88c-.03-.8-.15-1.53-.38-2.2-.23-.67-.57-1.25-1.02-1.74-.45-.49-1.02-.88-1.7-1.16-.68-.28-1.47-.42-2.38-.42s-1.69.17-2.42.5c-.73.33-1.35.77-1.86,1.3-.51.53-.9,1.13-1.18,1.78-.28.65-.42,1.3-.42,1.94h11.36Z"/><path class="cls-1" d="m369.38,553.36c0-.72.26-1.34.78-1.86.52-.52,1.14-.78,1.86-.78s1.34.26,1.86.78c.52.52.78,1.14.78,1.86s-.26,1.34-.78,1.86c-.52.52-1.14.78-1.86.78s-1.34-.26-1.86-.78c-.52-.52-.78-1.14-.78-1.86Zm.84,6.8h3.6v18.96h-3.6v-18.96Z"/><path class="cls-1" d="m379.54,560.16h3.6v2.92h.08c.45-1.01,1.24-1.83,2.36-2.46,1.12-.63,2.41-.94,3.88-.94.91,0,1.78.14,2.62.42.84.28,1.57.71,2.2,1.3.63.59,1.13,1.34,1.5,2.26.37.92.56,2.01.56,3.26v12.2h-3.6v-11.2c0-.88-.12-1.63-.36-2.26-.24-.63-.56-1.13-.96-1.52-.4-.39-.86-.67-1.38-.84-.52-.17-1.06-.26-1.62-.26-.75,0-1.44.12-2.08.36-.64.24-1.2.62-1.68,1.14-.48.52-.85,1.18-1.12,1.98-.27.8-.4,1.75-.4,2.84v9.76h-3.6v-18.96Z"/><path class="cls-1" d="m412.98,562.48c1.01-.93,2.19-1.63,3.52-2.1,1.33-.47,2.67-.7,4-.7s2.58.17,3.58.52,1.82.81,2.46,1.4c.64.59,1.11,1.26,1.42,2.02s.46,1.55.46,2.38v9.68c0,.67.01,1.28.04,1.84.03.56.07,1.09.12,1.6h-3.2c-.08-.96-.12-1.92-.12-2.88h-.08c-.8,1.23-1.75,2.09-2.84,2.6-1.09.51-2.36.76-3.8.76-.88,0-1.72-.12-2.52-.36s-1.5-.6-2.1-1.08c-.6-.48-1.07-1.07-1.42-1.78-.35-.71-.52-1.53-.52-2.46,0-1.23.27-2.25.82-3.08.55-.83,1.29-1.5,2.24-2.02.95-.52,2.05-.89,3.32-1.12s2.62-.34,4.06-.34h2.64v-.8c0-.48-.09-.96-.28-1.44s-.47-.91-.84-1.3c-.37-.39-.84-.69-1.4-.92-.56-.23-1.23-.34-2-.34-.69,0-1.3.07-1.82.2-.52.13-.99.3-1.42.5-.43.2-.81.43-1.16.7-.35.27-.68.52-1,.76l-2.16-2.24Zm10.16,7.52c-.85,0-1.73.05-2.62.14-.89.09-1.71.27-2.44.54-.73.27-1.33.64-1.8,1.12-.47.48-.7,1.09-.7,1.84,0,1.09.37,1.88,1.1,2.36.73.48,1.73.72,2.98.72.99,0,1.83-.17,2.52-.5.69-.33,1.25-.77,1.68-1.3.43-.53.73-1.13.92-1.78.19-.65.28-1.3.28-1.94v-1.2h-1.92Z"/><path class="cls-1" d="m433.1,553.36c0-.72.26-1.34.78-1.86.52-.52,1.14-.78,1.86-.78s1.34.26,1.86.78c.52.52.78,1.14.78,1.86s-.26,1.34-.78,1.86-1.14.78-1.86.78-1.34-.26-1.86-.78-.78-1.14-.78-1.86Zm.84,6.8h3.6v18.96h-3.6v-18.96Z"/><path class="cls-1" d="m443.26,560.16h3.6v2.92h.08c.24-.51.56-.97.96-1.38.4-.41.85-.77,1.34-1.06.49-.29,1.03-.53,1.62-.7.59-.17,1.17-.26,1.76-.26s1.12.08,1.6.24l-.16,3.88c-.29-.08-.59-.15-.88-.2-.29-.05-.59-.08-.88-.08-1.76,0-3.11.49-4.04,1.48-.93.99-1.4,2.52-1.4,4.6v9.52h-3.6v-18.96Z"/><path class="cls-1" d="m488.18,579.12h-3.6v-2.72h-.08c-.69,1.01-1.65,1.8-2.86,2.36-1.21.56-2.46.84-3.74.84-1.47,0-2.79-.25-3.98-.76-1.19-.51-2.2-1.21-3.04-2.12-.84-.91-1.49-1.96-1.94-3.16-.45-1.2-.68-2.51-.68-3.92s.23-2.73.68-3.94c.45-1.21,1.1-2.27,1.94-3.16.84-.89,1.85-1.59,3.04-2.1s2.51-.76,3.98-.76c1.36,0,2.64.29,3.84.86,1.2.57,2.12,1.35,2.76,2.34h.08v-14h3.6v30.24Zm-9.84-2.88c.96,0,1.83-.17,2.6-.5.77-.33,1.43-.79,1.96-1.36.53-.57.95-1.27,1.24-2.08.29-.81.44-1.7.44-2.66s-.15-1.85-.44-2.66-.71-1.51-1.24-2.08c-.53-.57-1.19-1.03-1.96-1.36-.77-.33-1.64-.5-2.6-.5s-1.83.17-2.6.5c-.77.33-1.43.79-1.96,1.36-.53.57-.95,1.27-1.24,2.08-.29.81-.44,1.7-.44,2.66s.15,1.85.44,2.66c.29.81.71,1.51,1.24,2.08.53.57,1.19,1.03,1.96,1.36.77.33,1.64.5,2.6.5Z"/><path class="cls-1" d="m496.34,570.96c0,.83.18,1.58.54,2.26.36.68.83,1.26,1.42,1.74.59.48,1.27.85,2.04,1.12.77.27,1.57.4,2.4.4,1.12,0,2.09-.26,2.92-.78.83-.52,1.59-1.21,2.28-2.06l2.72,2.08c-2,2.59-4.8,3.88-8.4,3.88-1.49,0-2.85-.25-4.06-.76-1.21-.51-2.24-1.21-3.08-2.1s-1.49-1.95-1.94-3.16c-.45-1.21-.68-2.53-.68-3.94s.25-2.73.74-3.94c.49-1.21,1.17-2.27,2.04-3.16.87-.89,1.9-1.59,3.1-2.1,1.2-.51,2.51-.76,3.92-.76,1.68,0,3.1.29,4.26.88s2.11,1.35,2.86,2.3c.75.95,1.29,2.01,1.62,3.2s.5,2.39.5,3.62v1.28h-15.2Zm11.36-2.88c-.03-.8-.15-1.53-.38-2.2-.23-.67-.57-1.25-1.02-1.74-.45-.49-1.02-.88-1.7-1.16-.68-.28-1.47-.42-2.38-.42s-1.69.17-2.42.5c-.73.33-1.35.77-1.86,1.3-.51.53-.9,1.13-1.18,1.78-.28.65-.42,1.3-.42,1.94h11.36Z"/><path class="cls-1" d="m527.9,550.8h3.84v24.72h13v3.6h-16.84v-28.32Z"/><path class="cls-1" d="m547.82,562.48c1.01-.93,2.19-1.63,3.52-2.1,1.33-.47,2.67-.7,4-.7s2.58.17,3.58.52,1.82.81,2.46,1.4c.64.59,1.11,1.26,1.42,2.02.31.76.46,1.55.46,2.38v9.68c0,.67.01,1.28.04,1.84.03.56.07,1.09.12,1.6h-3.2c-.08-.96-.12-1.92-.12-2.88h-.08c-.8,1.23-1.75,2.09-2.84,2.6-1.09.51-2.36.76-3.8.76-.88,0-1.72-.12-2.52-.36s-1.5-.6-2.1-1.08c-.6-.48-1.07-1.07-1.42-1.78-.35-.71-.52-1.53-.52-2.46,0-1.23.27-2.25.82-3.08.55-.83,1.29-1.5,2.24-2.02.95-.52,2.05-.89,3.32-1.12s2.62-.34,4.06-.34h2.64v-.8c0-.48-.09-.96-.28-1.44s-.47-.91-.84-1.3-.84-.69-1.4-.92c-.56-.23-1.23-.34-2-.34-.69,0-1.3.07-1.82.2-.52.13-.99.3-1.42.5-.43.2-.81.43-1.16.7-.35.27-.68.52-1,.76l-2.16-2.24Zm10.16,7.52c-.85,0-1.73.05-2.62.14-.89.09-1.71.27-2.44.54-.73.27-1.33.64-1.8,1.12-.47.48-.7,1.09-.7,1.84,0,1.09.37,1.88,1.1,2.36.73.48,1.73.72,2.98.72.99,0,1.83-.17,2.52-.5.69-.33,1.25-.77,1.68-1.3.43-.53.73-1.13.92-1.78.19-.65.28-1.3.28-1.94v-1.2h-1.92Z"/><path class="cls-1" d="m576.66,550.8h4.44l8.32,23.04h.08l8.64-23.04h4.2l-11.16,28.32h-3.6l-10.92-28.32Z"/><path class="cls-1" d="m603.54,553.36c0-.72.26-1.34.78-1.86s1.14-.78,1.86-.78,1.34.26,1.86.78c.52.52.78,1.14.78,1.86s-.26,1.34-.78,1.86-1.14.78-1.86.78-1.34-.26-1.86-.78c-.52-.52-.78-1.14-.78-1.86Zm.84,6.8h3.6v18.96h-3.6v-18.96Z"/><path class="cls-1" d="m613.98,548.88h3.6v30.24h-3.6v-30.24Z"/><path class="cls-1" d="m626.02,570.96c0,.83.18,1.58.54,2.26.36.68.83,1.26,1.42,1.74.59.48,1.27.85,2.04,1.12.77.27,1.57.4,2.4.4,1.12,0,2.09-.26,2.92-.78.83-.52,1.59-1.21,2.28-2.06l2.72,2.08c-2,2.59-4.8,3.88-8.4,3.88-1.49,0-2.85-.25-4.06-.76-1.21-.51-2.24-1.21-3.08-2.1s-1.49-1.95-1.94-3.16c-.45-1.21-.68-2.53-.68-3.94s.25-2.73.74-3.94c.49-1.21,1.17-2.27,2.04-3.16.87-.89,1.9-1.59,3.1-2.1,1.2-.51,2.51-.76,3.92-.76,1.68,0,3.1.29,4.26.88s2.11,1.35,2.86,2.3c.75.95,1.29,2.01,1.62,3.2s.5,2.39.5,3.62v1.28h-15.2Zm11.36-2.88c-.03-.8-.15-1.53-.38-2.2-.23-.67-.57-1.25-1.02-1.74-.45-.49-1.02-.88-1.7-1.16-.68-.28-1.47-.42-2.38-.42s-1.69.17-2.42.5c-.73.33-1.35.77-1.86,1.3-.51.53-.9,1.13-1.18,1.78-.28.65-.42,1.3-.42,1.94h11.36Z"/><path class="cls-1" d="m655.7,563.28h-5.16v8.6c0,.53.01,1.06.04,1.58.03.52.13.99.3,1.4.17.41.44.75.8,1,.36.25.89.38,1.58.38.43,0,.87-.04,1.32-.12s.87-.23,1.24-.44v3.28c-.43.24-.98.41-1.66.5s-1.21.14-1.58.14c-1.39,0-2.46-.19-3.22-.58-.76-.39-1.32-.89-1.68-1.5-.36-.61-.57-1.3-.64-2.06s-.1-1.53-.1-2.3v-9.88h-4.16v-3.12h4.16v-5.32h3.6v5.32h5.16v3.12Z"/><path class="cls-1" d="m670.5,563.28h-5.16v8.6c0,.53.01,1.06.04,1.58.03.52.13.99.3,1.4.17.41.44.75.8,1,.36.25.89.38,1.58.38.43,0,.87-.04,1.32-.12s.87-.23,1.24-.44v3.28c-.43.24-.98.41-1.66.5s-1.21.14-1.58.14c-1.39,0-2.46-.19-3.22-.58-.76-.39-1.32-.89-1.68-1.5-.36-.61-.57-1.3-.64-2.06s-.1-1.53-.1-2.3v-9.88h-4.16v-3.12h4.16v-5.32h3.6v5.32h5.16v3.12Z"/><path class="cls-1" d="m677.86,570.96c0,.83.18,1.58.54,2.26.36.68.83,1.26,1.42,1.74.59.48,1.27.85,2.04,1.12.77.27,1.57.4,2.4.4,1.12,0,2.09-.26,2.92-.78.83-.52,1.59-1.21,2.28-2.06l2.72,2.08c-2,2.59-4.8,3.88-8.4,3.88-1.49,0-2.85-.25-4.06-.76-1.21-.51-2.24-1.21-3.08-2.1s-1.49-1.95-1.94-3.16c-.45-1.21-.68-2.53-.68-3.94s.25-2.73.74-3.94c.49-1.21,1.17-2.27,2.04-3.16.87-.89,1.9-1.59,3.1-2.1,1.2-.51,2.51-.76,3.92-.76,1.68,0,3.1.29,4.26.88s2.11,1.35,2.86,2.3c.75.95,1.29,2.01,1.62,3.2s.5,2.39.5,3.62v1.28h-15.2Zm11.36-2.88c-.03-.8-.15-1.53-.38-2.2-.23-.67-.57-1.25-1.02-1.74-.45-.49-1.02-.88-1.7-1.16-.68-.28-1.47-.42-2.38-.42s-1.69.17-2.42.5c-.73.33-1.35.77-1.86,1.3-.51.53-.9,1.13-1.18,1.78-.28.65-.42,1.3-.42,1.94h11.36Z"/></g></svg>