<?xml version="1.0" encoding="UTF-8"?><svg id="Calque_1" xmlns="http://www.w3.org/2000/svg" viewBox="0 0 800 800"><defs><style>.cls-1{fill:#fff1e2;}</style></defs><g><path class="cls-1" d="m126.24,343.03c1.39-.15,2.26-.39,2.58-.72.33-.33.5-.75.5-1.26v-40.48l-.22-.22-19.58,42.68-19.36-43.12h-.22v41.14c0,.51.17.93.5,1.26s1.19.57,2.58.72v1.32h-19.36v-1.32c1.39-.15,2.26-.39,2.59-.72.33-.33.49-.75.49-1.26v-51.26c0-.51-.17-.94-.49-1.27-.33-.33-1.19-.57-2.59-.71v-1.32h28.71v1.32c-1.76.07-2.64.73-2.64,1.98,0,.07.22.66.66,1.76.44,1.1,1.01,2.46,1.71,4.07.7,1.61,1.47,3.35,2.31,5.22.84,1.87,1.65,3.67,2.42,5.39.77,1.72,1.45,3.25,2.04,4.57.59,1.32.99,2.2,1.21,2.64,1.25-2.79,2.53-5.5,3.85-8.14,1.32-2.64,2.51-5.06,3.58-7.26,1.06-2.2,1.92-4.03,2.58-5.5s.99-2.38.99-2.75c0-1.25-.88-1.91-2.64-1.98v-1.32h29.81v1.32c-1.39.15-2.25.38-2.58.71s-.5.75-.5,1.27v51.26c0,.51.17.93.5,1.26s1.19.57,2.58.72v1.32h-22v-1.32Z"/><path class="cls-1" d="m196.53,285.83c4.69,0,9.11.64,13.26,1.93,4.14,1.28,7.77,3.17,10.89,5.66,3.12,2.49,5.59,5.57,7.42,9.24,1.83,3.67,2.75,7.92,2.75,12.76s-.92,9.09-2.75,12.76c-1.83,3.67-4.31,6.75-7.42,9.24-3.12,2.49-6.75,4.33-10.89,5.5-4.14,1.17-8.56,1.76-13.26,1.76s-9.11-.59-13.25-1.76c-4.14-1.17-7.77-3.01-10.89-5.5-3.12-2.49-5.59-5.57-7.42-9.24-1.83-3.67-2.75-7.92-2.75-12.76s.92-9.09,2.75-12.76c1.83-3.67,4.31-6.75,7.42-9.24,3.12-2.49,6.75-4.38,10.89-5.66,4.14-1.28,8.56-1.93,13.25-1.93Zm0,13.42c-2.42,0-4.71.37-6.88,1.1-2.16.73-4.07,1.78-5.72,3.13-1.65,1.36-2.97,3.04-3.96,5.06-.99,2.02-1.48,4.31-1.48,6.88s.49,4.86,1.48,6.88c.99,2.02,2.31,3.71,3.96,5.06,1.65,1.36,3.55,2.4,5.72,3.13,2.16.73,4.46,1.1,6.88,1.1s4.71-.37,6.88-1.1c2.16-.73,4.07-1.78,5.72-3.13,1.65-1.36,2.97-3.04,3.96-5.06.99-2.02,1.49-4.31,1.49-6.88s-.5-4.86-1.49-6.88c-.99-2.02-2.31-3.7-3.96-5.06-1.65-1.36-3.56-2.4-5.72-3.13-2.16-.73-4.46-1.1-6.88-1.1Z"/><path class="cls-1" d="m302.56,330.93c.59,0,1.03-.2,1.32-.6.29-.4.51-1.23.66-2.48h1.32v19.03h-1.32c-.15-1.17-.37-1.89-.66-2.15-.29-.26-.73-.38-1.32-.38h-57.42v-1.32c1.39-.15,2.25-.39,2.58-.72s.5-.75.5-1.26v-51.26c0-.51-.17-.94-.5-1.27s-1.19-.57-2.58-.71v-1.32h22.66v1.32c-1.39.15-2.26.38-2.59.71s-.49.75-.49,1.27v41.14h37.84Z"/><path class="cls-1" d="m361.85,323.23c-.15-.73-.46-1.34-.94-1.81-.48-.48-1.26-.71-2.36-.71h-20.46v10.23h35.31c.59,0,1.03-.2,1.32-.6.29-.4.51-1.3.66-2.7h1.32v18.81h-1.32c-.15-.95-.37-1.54-.66-1.76-.29-.22-.73-.33-1.32-.33h-54.89v-1.32c1.39-.15,2.25-.39,2.58-.72s.5-.75.5-1.26v-51.26c0-.51-.17-.94-.5-1.27s-1.19-.57-2.58-.71v-1.32h54.89c.59,0,1.03-.2,1.32-.6.29-.4.51-1.23.66-2.48h1.32v19.14h-1.32c-.15-1.25-.37-2.07-.66-2.47-.29-.4-.73-.61-1.32-.61h-35.31v9.13h20.46c1.1,0,1.89-.24,2.36-.71.48-.48.79-1.08.94-1.82h1.32v17.16h-1.32Z"/><path class="cls-1" d="m396.72,322.02c-.15.44-.22,1.21-.22,2.31,0,.73.68,1.56,2.04,2.48,1.36.92,3.12,1.78,5.28,2.58,2.16.81,4.64,1.48,7.42,2.04,2.79.55,5.61.82,8.47.82,5.5,0,9.53-.64,12.1-1.92,2.57-1.28,3.85-3.14,3.85-5.56,0-1.32-1.12-2.25-3.35-2.8-2.24-.55-5.04-.99-8.42-1.32-3.37-.33-7-.7-10.89-1.1-3.89-.4-7.52-1.13-10.89-2.2-3.38-1.06-6.18-2.6-8.42-4.62-2.24-2.02-3.35-4.79-3.35-8.31,0-2.79.64-5.32,1.92-7.59,1.28-2.27,3.08-4.22,5.39-5.83,2.31-1.61,5.11-2.88,8.41-3.79,3.3-.92,6.97-1.38,11-1.38,3.74,0,7.22.24,10.45.71,3.23.48,6.09,1.01,8.58,1.6,2.49.59,4.58,1.12,6.27,1.59,1.69.48,2.9.72,3.63.72s1.32-.17,1.76-.5.84-.71,1.21-1.15l1.21.44-7.59,15.29-1.32-.66v-1.21c0-.66-.71-1.34-2.15-2.04-1.43-.7-3.24-1.32-5.44-1.87-2.2-.55-4.66-1.01-7.37-1.38-2.71-.37-5.35-.55-7.92-.55-4.77,0-8.1.55-10.01,1.65-1.91,1.1-2.86,2.27-2.86,3.52s.66,2.18,1.98,2.81c1.32.62,3.04,1.08,5.17,1.38,2.13.29,4.55.53,7.26.71,2.71.18,5.5.46,8.36.83,2.86.37,5.65.88,8.36,1.54,2.71.66,5.13,1.63,7.26,2.92,2.13,1.28,3.85,2.97,5.17,5.06,1.32,2.09,1.98,4.71,1.98,7.87,0,2.42-.49,4.8-1.48,7.15-.99,2.35-2.68,4.46-5.06,6.33-2.38,1.87-5.57,3.35-9.57,4.46-4,1.1-8.96,1.65-14.9,1.65-4.62,0-8.6-.22-11.94-.66-3.34-.44-6.18-.97-8.53-1.59-2.35-.62-4.2-1.19-5.55-1.71-1.36-.51-2.37-.77-3.03-.77-.44,0-.82.15-1.15.44-.33.29-.68.62-1.04.99l-1.32-.33,8.14-19.58,1.1.55Z"/><path class="cls-1" d="m508.7,343.03c.66,0,1.17-.06,1.54-.17.37-.11.55-.53.55-1.26,0-.22-.33-.88-.99-1.98-.66-1.1-1.5-2.46-2.53-4.07-1.03-1.61-2.16-3.34-3.41-5.17-1.25-1.83-2.42-3.59-3.52-5.28-1.1-1.69-2.09-3.15-2.97-4.4-.88-1.25-1.47-2.09-1.76-2.53l-10.78,9.68v13.2c0,.51.16.93.49,1.26s1.19.57,2.59.72v1.32h-22.66v-1.32c1.39-.15,2.25-.39,2.58-.72s.5-.75.5-1.26v-51.26c0-.51-.17-.94-.5-1.27s-1.19-.57-2.58-.71v-1.32h22.66v1.32c-1.39.15-2.26.38-2.59.71s-.49.75-.49,1.27v19.8h.77c2.2-2.13,4.57-4.33,7.1-6.6,2.53-2.27,4.86-4.38,6.98-6.32,2.13-1.94,3.91-3.59,5.33-4.95,1.43-1.36,2.15-2.18,2.15-2.48,0-.66-.18-1.04-.55-1.15-.37-.11-.84-.2-1.43-.28v-1.32h27.94v1.32c-.73.07-1.34.18-1.82.33-.48.15-.92.37-1.32.66-.4.29-.84.64-1.32,1.04-.48.4-1.05.9-1.71,1.48l-19.03,16.39,22.44,33.55c.59.88,1.14,1.39,1.65,1.54.51.15,1.14.22,1.87.22v1.32h-25.19v-1.32Z"/><path class="cls-1" d="m545.88,343.03c1.39-.15,2.25-.39,2.58-.72s.5-.75.5-1.26v-51.26c0-.51-.17-.94-.5-1.27s-1.19-.57-2.58-.71v-1.32h22.66v1.32c-1.39.15-2.25.38-2.58.71s-.5.75-.5,1.27v51.26c0,.51.17.93.5,1.26s1.19.57,2.58.72v1.32h-22.66v-1.32Z"/><path class="cls-1" d="m590.54,289.79c0-.51-.17-.94-.5-1.27s-1.19-.57-2.58-.71v-1.32h26.51v1.32c-1.25.07-2.07.24-2.47.5-.4.26-.61.57-.61.93,0,.15.48.81,1.43,1.98.95,1.17,2.2,2.64,3.74,4.4,1.54,1.76,3.28,3.72,5.23,5.88,1.94,2.16,3.9,4.33,5.88,6.49,1.98,2.16,3.89,4.22,5.72,6.16,1.83,1.94,3.41,3.61,4.73,5v-29.37c0-1.25-.77-1.91-2.31-1.98v-1.32h20.13v1.32c-1.39.15-2.25.38-2.58.71s-.5.75-.5,1.27v51.26c0,.51.17.93.5,1.26s1.19.57,2.58.72v1.32h-20.9v-1.32c1.03,0,1.71-.11,2.04-.33.33-.22.49-.51.49-.88,0-.22-.11-.49-.33-.82-.22-.33-.7-.9-1.43-1.71-.73-.81-1.81-1.96-3.25-3.46-1.43-1.5-3.32-3.52-5.67-6.05-2.35-2.53-5.24-5.68-8.69-9.46-3.45-3.78-7.59-8.38-12.43-13.8v34.54c0,.51.16.93.49,1.26s1.19.57,2.58.72v1.32h-20.9v-1.32c1.39-.15,2.25-.39,2.58-.72s.5-.75.5-1.26v-51.26Z"/><path class="cls-1" d="m716.38,323.23c-.15-.73-.46-1.34-.93-1.81-.48-.48-1.27-.71-2.37-.71h-20.46v10.23h35.31c.59,0,1.03-.2,1.32-.6.29-.4.51-1.3.66-2.7h1.32v18.81h-1.32c-.15-.95-.37-1.54-.66-1.76-.29-.22-.73-.33-1.32-.33h-54.89v-1.32c1.39-.15,2.25-.39,2.58-.72s.5-.75.5-1.26v-51.26c0-.51-.17-.94-.5-1.27s-1.19-.57-2.58-.71v-1.32h54.89c.59,0,1.03-.2,1.32-.6.29-.4.51-1.23.66-2.48h1.32v19.14h-1.32c-.15-1.25-.37-2.07-.66-2.47-.29-.4-.73-.61-1.32-.61h-35.31v9.13h20.46c1.1,0,1.89-.24,2.37-.71.48-.48.79-1.08.93-1.82h1.32v17.16h-1.32Z"/></g><g><path class="cls-1" d="m95.53,418.39l11.08-11c.39-.36.77-.76,1.13-1.19.36-.43.69-.88.97-1.35.29-.47.51-.96.68-1.48.17-.52.25-1.07.25-1.64,0-.68-.12-1.29-.37-1.83s-.58-1.01-1.01-1.38c-.43-.38-.94-.67-1.52-.88s-1.2-.31-1.85-.31c-1.35,0-2.47.38-3.35,1.13-.88.75-1.44,1.79-1.68,3.12l-4.06-.35c.18-1.22.54-2.28,1.07-3.18.53-.9,1.2-1.64,1.99-2.24.79-.6,1.7-1.04,2.73-1.33,1.03-.29,2.14-.43,3.33-.43s2.32.16,3.37.49c1.05.33,1.98.81,2.77,1.44.79.64,1.42,1.43,1.87,2.38.45.95.68,2.06.68,3.33,0,.91-.14,1.76-.41,2.55-.27.79-.63,1.54-1.07,2.24s-.95,1.37-1.52,1.99c-.57.62-1.17,1.24-1.79,1.83l-9.09,8.77h13.88v3.28h-18.1v-3.98Z"/><path class="cls-1" d="m116.75,408.56c0-1.01.05-2.07.16-3.16s.29-2.17.57-3.22c.27-1.05.64-2.06,1.09-3.02s1.04-1.8,1.75-2.52,1.56-1.29,2.54-1.72c.97-.43,2.11-.64,3.41-.64s2.44.21,3.41.64c.97.43,1.82,1,2.54,1.72.71.72,1.3,1.55,1.75,2.52s.82,1.97,1.09,3.02c.27,1.05.46,2.13.57,3.22.1,1.09.16,2.14.16,3.16,0,1.46-.13,3.02-.39,4.68s-.74,3.21-1.44,4.64c-.7,1.43-1.67,2.61-2.9,3.55-1.24.94-2.83,1.4-4.78,1.4s-3.54-.47-4.78-1.4c-1.24-.94-2.2-2.12-2.91-3.55-.7-1.43-1.18-2.98-1.44-4.64s-.39-3.22-.39-4.68Zm3.74,0c0,.91.06,1.99.18,3.24s.37,2.45.76,3.61c.39,1.16.97,2.14,1.74,2.95s1.8,1.21,3.1,1.21,2.33-.4,3.1-1.21c.77-.81,1.35-1.79,1.74-2.95.39-1.16.64-2.36.76-3.61s.18-2.33.18-3.24c0-.62-.02-1.33-.06-2.13-.04-.79-.13-1.6-.27-2.42s-.34-1.61-.6-2.38c-.26-.77-.61-1.46-1.03-2.07-.43-.61-.96-1.1-1.58-1.46-.62-.36-1.37-.55-2.22-.55s-1.6.18-2.22.55-1.15.85-1.58,1.46c-.43.61-.77,1.3-1.03,2.07-.26.77-.46,1.56-.6,2.38s-.23,1.62-.27,2.42c-.04.79-.06,1.5-.06,2.13Z"/><path class="cls-1" d="m138.9,418.39l11.08-11c.39-.36.77-.76,1.13-1.19.36-.43.69-.88.98-1.35s.51-.96.68-1.48c.17-.52.25-1.07.25-1.64,0-.68-.12-1.29-.37-1.83-.25-.55-.58-1.01-1.01-1.38-.43-.38-.94-.67-1.52-.88s-1.2-.31-1.85-.31c-1.35,0-2.47.38-3.35,1.13-.88.75-1.44,1.79-1.68,3.12l-4.06-.35c.18-1.22.54-2.28,1.07-3.18.53-.9,1.2-1.64,1.99-2.24.79-.6,1.7-1.04,2.73-1.33s2.14-.43,3.33-.43,2.32.16,3.37.49,1.97.81,2.77,1.44c.79.64,1.42,1.43,1.87,2.38.46.95.68,2.06.68,3.33,0,.91-.14,1.76-.41,2.55-.27.79-.63,1.54-1.07,2.24-.44.7-.95,1.37-1.52,1.99-.57.62-1.17,1.24-1.79,1.83l-9.09,8.77h13.88v3.28h-18.1v-3.98Z"/><path class="cls-1" d="m169.32,399.04l-5.07,4.68-2.18-2.61,7.68-6.36h3.31v27.61h-3.74v-23.32Z"/><path class="cls-1" d="m202.28,414.56h-9.59v-3.28h9.59v3.28Z"/><path class="cls-1" d="m218.03,394.75h3.74v27.61h-3.74v-27.61Z"/><path class="cls-1" d="m246.5,422.36h-3.51v-2.65h-.08c-.68.99-1.61,1.75-2.79,2.3-1.18.55-2.4.82-3.65.82-1.43,0-2.72-.25-3.88-.74-1.16-.49-2.14-1.18-2.96-2.07s-1.45-1.91-1.89-3.08c-.44-1.17-.66-2.44-.66-3.82s.22-2.66.66-3.84c.44-1.18,1.07-2.21,1.89-3.08s1.81-1.55,2.96-2.05c1.16-.49,2.45-.74,3.88-.74,1.33,0,2.57.28,3.74.84,1.17.56,2.07,1.32,2.69,2.28h.08v-13.65h3.51v29.48Zm-9.59-2.81c.94,0,1.78-.16,2.54-.49.75-.32,1.39-.77,1.91-1.33.52-.56.92-1.24,1.21-2.03.29-.79.43-1.66.43-2.59s-.14-1.8-.43-2.59c-.29-.79-.69-1.47-1.21-2.03-.52-.56-1.16-1-1.91-1.33-.75-.33-1.6-.49-2.54-.49s-1.78.16-2.54.49c-.75.33-1.39.77-1.91,1.33-.52.56-.92,1.24-1.21,2.03-.29.79-.43,1.66-.43,2.59s.14,1.8.43,2.59.69,1.47,1.21,2.03c.52.56,1.16,1,1.91,1.33.75.33,1.6.49,2.54.49Z"/><path class="cls-1" d="m254.46,414.41c0,.81.18,1.54.53,2.2.35.66.81,1.23,1.38,1.7.57.47,1.24.83,1.99,1.09.75.26,1.53.39,2.34.39,1.09,0,2.04-.25,2.85-.76.81-.51,1.55-1.18,2.22-2.01l2.65,2.03c-1.95,2.52-4.68,3.78-8.19,3.78-1.46,0-2.78-.25-3.96-.74-1.18-.49-2.18-1.18-3-2.05-.82-.87-1.45-1.9-1.89-3.08-.44-1.18-.66-2.46-.66-3.84s.24-2.66.72-3.84c.48-1.18,1.14-2.21,1.99-3.08.84-.87,1.85-1.55,3.02-2.05s2.44-.74,3.82-.74c1.64,0,3.02.29,4.15.86s2.06,1.32,2.79,2.24c.73.92,1.25,1.96,1.58,3.12.33,1.16.49,2.33.49,3.53v1.25h-14.82Zm11.08-2.81c-.03-.78-.15-1.5-.37-2.15-.22-.65-.55-1.21-.99-1.7-.44-.48-.99-.86-1.66-1.13-.66-.27-1.44-.41-2.32-.41s-1.64.16-2.36.49-1.32.75-1.81,1.27c-.49.52-.88,1.1-1.15,1.74s-.41,1.27-.41,1.89h11.08Z"/><path class="cls-1" d="m273.49,403.88h3.51v2.85h.08c.44-.99,1.21-1.79,2.3-2.4,1.09-.61,2.35-.92,3.78-.92.88,0,1.74.14,2.55.41.82.27,1.53.7,2.15,1.27.61.57,1.1,1.31,1.46,2.2.36.9.55,1.96.55,3.18v11.89h-3.51v-10.92c0-.86-.12-1.59-.35-2.2-.23-.61-.55-1.11-.94-1.48-.39-.38-.84-.65-1.35-.82-.51-.17-1.03-.25-1.58-.25-.73,0-1.4.12-2.03.35-.62.23-1.17.6-1.64,1.11-.47.51-.83,1.15-1.09,1.93s-.39,1.7-.39,2.77v9.52h-3.51v-18.49Z"/><path class="cls-1" d="m305.08,406.92h-5.03v8.39c0,.52.01,1.03.04,1.54s.12.96.29,1.37c.17.4.43.73.78.97.35.25.86.37,1.54.37.42,0,.84-.04,1.29-.12.44-.08.85-.22,1.21-.43v3.2c-.42.23-.96.4-1.62.49-.66.09-1.18.14-1.54.14-1.35,0-2.4-.19-3.14-.57-.74-.38-1.29-.86-1.64-1.46-.35-.6-.56-1.27-.62-2.01-.06-.74-.1-1.49-.1-2.24v-9.63h-4.06v-3.04h4.06v-5.19h3.51v5.19h5.03v3.04Z"/><path class="cls-1" d="m309.06,397.25c0-.7.25-1.31.76-1.81s1.11-.76,1.81-.76,1.31.25,1.81.76.76,1.11.76,1.81-.25,1.31-.76,1.81-1.11.76-1.81.76-1.31-.25-1.81-.76-.76-1.11-.76-1.81Zm.82,6.63h3.51v18.49h-3.51v-18.49Z"/><path class="cls-1" d="m328.87,406.92h-5.03v8.39c0,.52.01,1.03.04,1.54.03.51.12.96.29,1.37s.43.73.78.97c.35.25.86.37,1.54.37.42,0,.84-.04,1.29-.12s.84-.22,1.21-.43v3.2c-.42.23-.96.4-1.62.49s-1.18.14-1.54.14c-1.35,0-2.4-.19-3.14-.57-.74-.38-1.29-.86-1.64-1.46-.35-.6-.56-1.27-.62-2.01s-.1-1.49-.1-2.24v-9.63h-4.06v-3.04h4.06v-5.19h3.51v5.19h5.03v3.04Z"/><path class="cls-1" d="m336.04,414.41c0,.81.17,1.54.53,2.2.35.66.81,1.23,1.38,1.7.57.47,1.23.83,1.99,1.09.75.26,1.53.39,2.34.39,1.09,0,2.04-.25,2.85-.76.81-.51,1.55-1.18,2.22-2.01l2.65,2.03c-1.95,2.52-4.68,3.78-8.19,3.78-1.46,0-2.78-.25-3.96-.74-1.18-.49-2.18-1.18-3-2.05s-1.45-1.9-1.89-3.08c-.44-1.18-.66-2.46-.66-3.84s.24-2.66.72-3.84c.48-1.18,1.14-2.21,1.99-3.08s1.85-1.55,3.02-2.05,2.44-.74,3.82-.74c1.64,0,3.02.29,4.15.86s2.06,1.32,2.79,2.24,1.25,1.96,1.58,3.12c.32,1.16.49,2.33.49,3.53v1.25h-14.82Zm11.08-2.81c-.03-.78-.15-1.5-.37-2.15-.22-.65-.55-1.21-.99-1.7-.44-.48-1-.86-1.66-1.13-.66-.27-1.44-.41-2.32-.41s-1.64.16-2.36.49c-.72.33-1.32.75-1.81,1.27s-.88,1.1-1.15,1.74c-.27.64-.41,1.27-.41,1.89h11.08Zm-4.06-16.85h4.99l-5.81,5.62h-3.24l4.06-5.62Z"/><path class="cls-1" d="m384.44,422.36h-3.51v-2.65h-.08c-.68.99-1.61,1.75-2.79,2.3-1.18.55-2.4.82-3.65.82-1.43,0-2.72-.25-3.88-.74-1.16-.49-2.14-1.18-2.96-2.07-.82-.88-1.45-1.91-1.89-3.08-.44-1.17-.66-2.44-.66-3.82s.22-2.66.66-3.84c.44-1.18,1.07-2.21,1.89-3.08.82-.87,1.81-1.55,2.96-2.05,1.16-.49,2.45-.74,3.88-.74,1.33,0,2.57.28,3.74.84,1.17.56,2.07,1.32,2.69,2.28h.08v-13.65h3.51v29.48Zm-9.59-2.81c.94,0,1.78-.16,2.54-.49.75-.32,1.39-.77,1.91-1.33.52-.56.92-1.24,1.21-2.03s.43-1.66.43-2.59-.14-1.8-.43-2.59c-.29-.79-.69-1.47-1.21-2.03-.52-.56-1.16-1-1.91-1.33-.75-.33-1.6-.49-2.54-.49s-1.78.16-2.54.49c-.75.33-1.39.77-1.91,1.33-.52.56-.92,1.24-1.21,2.03-.29.79-.43,1.66-.43,2.59s.14,1.8.43,2.59.69,1.47,1.21,2.03c.52.56,1.16,1,1.91,1.33.75.33,1.6.49,2.54.49Z"/><path class="cls-1" d="m392.4,414.41c0,.81.18,1.54.53,2.2.35.66.81,1.23,1.38,1.7.57.47,1.24.83,1.99,1.09s1.53.39,2.34.39c1.09,0,2.04-.25,2.85-.76.8-.51,1.55-1.18,2.22-2.01l2.65,2.03c-1.95,2.52-4.68,3.78-8.19,3.78-1.46,0-2.78-.25-3.96-.74-1.18-.49-2.18-1.18-3-2.05-.82-.87-1.45-1.9-1.89-3.08-.44-1.18-.66-2.46-.66-3.84s.24-2.66.72-3.84c.48-1.18,1.14-2.21,1.99-3.08.84-.87,1.85-1.55,3.02-2.05s2.44-.74,3.82-.74c1.64,0,3.02.29,4.15.86s2.06,1.32,2.79,2.24c.73.92,1.25,1.96,1.58,3.12.33,1.16.49,2.33.49,3.53v1.25h-14.82Zm11.08-2.81c-.03-.78-.15-1.5-.37-2.15-.22-.65-.55-1.21-.99-1.7-.44-.48-.99-.86-1.66-1.13-.66-.27-1.44-.41-2.32-.41s-1.65.16-2.36.49c-.72.33-1.32.75-1.81,1.27-.49.52-.88,1.1-1.15,1.74-.27.64-.41,1.27-.41,1.89h11.08Z"/><path class="cls-1" d="m421.26,408.52c-.42-.52-.93-.96-1.54-1.31-.61-.35-1.36-.53-2.24-.53-.83,0-1.55.17-2.16.53-.61.35-.92.86-.92,1.54,0,.55.18.99.53,1.33.35.34.77.61,1.25.82.48.21.99.36,1.54.47.55.1,1.01.2,1.4.27.75.18,1.46.4,2.13.66s1.24.6,1.72,1.01.86.92,1.13,1.52c.27.6.41,1.33.41,2.18,0,1.04-.22,1.93-.66,2.67-.44.74-1.01,1.35-1.72,1.81-.7.47-1.5.81-2.4,1.01-.9.21-1.8.31-2.71.31-1.53,0-2.88-.23-4.04-.7-1.16-.47-2.19-1.33-3.1-2.57l2.65-2.18c.57.57,1.21,1.08,1.91,1.52.7.44,1.56.66,2.57.66.44,0,.89-.05,1.35-.14s.86-.23,1.21-.43c.35-.2.64-.44.86-.74s.33-.64.33-1.03c0-.52-.16-.95-.49-1.29-.32-.34-.71-.6-1.17-.8s-.94-.35-1.44-.47c-.51-.12-.96-.21-1.35-.29-.75-.18-1.47-.39-2.15-.62-.68-.23-1.27-.55-1.79-.94-.52-.39-.94-.88-1.25-1.48-.31-.6-.47-1.34-.47-2.22,0-.96.2-1.8.61-2.52.4-.71.94-1.31,1.6-1.77s1.42-.82,2.26-1.05c.84-.23,1.7-.35,2.55-.35,1.25,0,2.44.23,3.59.7,1.14.47,2.05,1.25,2.73,2.34l-2.73,2.07Z"/><path class="cls-1" d="m439.59,392.88h3.51v13.65h.08c.62-.96,1.52-1.72,2.69-2.28,1.17-.56,2.42-.84,3.74-.84,1.43,0,2.72.25,3.88.74,1.16.49,2.14,1.18,2.96,2.05s1.45,1.9,1.89,3.08c.44,1.18.66,2.46.66,3.84s-.22,2.65-.66,3.82c-.44,1.17-1.07,2.2-1.89,3.08s-1.81,1.57-2.96,2.07c-1.16.49-2.45.74-3.88.74-1.25,0-2.46-.27-3.65-.82-1.18-.55-2.11-1.31-2.79-2.3h-.08v2.65h-3.51v-29.48Zm9.59,26.68c.94,0,1.78-.16,2.54-.49.75-.32,1.39-.77,1.91-1.33.52-.56.92-1.24,1.21-2.03.29-.79.43-1.66.43-2.59s-.14-1.8-.43-2.59c-.29-.79-.69-1.47-1.21-2.03-.52-.56-1.16-1-1.91-1.33-.75-.33-1.6-.49-2.54-.49s-1.78.16-2.54.49-1.39.77-1.91,1.33c-.52.56-.92,1.24-1.21,2.03-.29.79-.43,1.66-.43,2.59s.14,1.8.43,2.59.69,1.47,1.21,2.03c.52.56,1.16,1,1.91,1.33.75.33,1.6.49,2.54.49Z"/><path class="cls-1" d="m463.5,406.14c.99-.91,2.13-1.59,3.43-2.05,1.3-.46,2.6-.68,3.9-.68s2.52.17,3.49.51c.97.34,1.77.79,2.4,1.37.62.57,1.08,1.23,1.38,1.97.3.74.45,1.51.45,2.32v9.44c0,.65.01,1.25.04,1.79.03.55.06,1.07.12,1.56h-3.12c-.08-.94-.12-1.87-.12-2.81h-.08c-.78,1.2-1.7,2.04-2.77,2.53-1.07.49-2.3.74-3.71.74-.86,0-1.68-.12-2.46-.35-.78-.23-1.46-.58-2.05-1.05-.58-.47-1.05-1.05-1.38-1.74-.34-.69-.51-1.49-.51-2.4,0-1.2.27-2.2.8-3,.53-.81,1.26-1.46,2.18-1.97.92-.51,2-.87,3.24-1.09,1.23-.22,2.55-.33,3.96-.33h2.57v-.78c0-.47-.09-.94-.27-1.4-.18-.47-.46-.89-.82-1.27-.36-.38-.82-.68-1.37-.9s-1.2-.33-1.95-.33c-.68,0-1.27.07-1.77.2-.51.13-.97.29-1.38.49-.42.2-.79.42-1.13.68-.34.26-.66.51-.97.74l-2.11-2.18Zm9.91,7.33c-.83,0-1.68.04-2.55.14-.87.09-1.66.27-2.38.53s-1.3.62-1.75,1.09c-.46.47-.68,1.07-.68,1.79,0,1.07.36,1.83,1.07,2.3.71.47,1.68.7,2.91.7.96,0,1.78-.16,2.46-.49.68-.33,1.22-.75,1.64-1.27s.71-1.1.9-1.74c.18-.64.27-1.27.27-1.89v-1.17h-1.87Z"/><path class="cls-1" d="m483.66,403.88h3.51v2.85h.08c.44-.99,1.21-1.79,2.3-2.4,1.09-.61,2.35-.92,3.78-.92.88,0,1.74.14,2.55.41.82.27,1.53.7,2.14,1.27.61.57,1.1,1.31,1.46,2.2.36.9.55,1.96.55,3.18v11.89h-3.51v-10.92c0-.86-.12-1.59-.35-2.2-.23-.61-.55-1.11-.94-1.48-.39-.38-.84-.65-1.35-.82-.51-.17-1.03-.25-1.58-.25-.73,0-1.4.12-2.03.35-.62.23-1.17.6-1.64,1.11-.47.51-.83,1.15-1.09,1.93s-.39,1.7-.39,2.77v9.52h-3.51v-18.49Z"/><path class="cls-1" d="m523.87,422.36h-3.51v-2.65h-.08c-.68.99-1.61,1.75-2.79,2.3-1.18.55-2.4.82-3.65.82-1.43,0-2.72-.25-3.88-.74-1.16-.49-2.14-1.18-2.96-2.07s-1.45-1.91-1.89-3.08c-.44-1.17-.66-2.44-.66-3.82s.22-2.66.66-3.84c.44-1.18,1.07-2.21,1.89-3.08s1.81-1.55,2.96-2.05c1.16-.49,2.45-.74,3.88-.74,1.33,0,2.57.28,3.74.84,1.17.56,2.07,1.32,2.69,2.28h.08v-13.65h3.51v29.48Zm-9.59-2.81c.94,0,1.78-.16,2.54-.49.75-.32,1.39-.77,1.91-1.33.52-.56.92-1.24,1.21-2.03.29-.79.43-1.66.43-2.59s-.14-1.8-.43-2.59c-.29-.79-.69-1.47-1.21-2.03-.52-.56-1.16-1-1.91-1.33-.75-.33-1.6-.49-2.54-.49s-1.78.16-2.54.49-1.39.77-1.91,1.33c-.52.56-.92,1.24-1.21,2.03-.29.79-.43,1.66-.43,2.59s.14,1.8.43,2.59.69,1.47,1.21,2.03c.52.56,1.16,1,1.91,1.33.75.33,1.6.49,2.54.49Z"/><path class="cls-1" d="m531.82,414.41c0,.81.18,1.54.53,2.2.35.66.81,1.23,1.38,1.7.57.47,1.23.83,1.99,1.09.75.26,1.53.39,2.34.39,1.09,0,2.04-.25,2.85-.76.81-.51,1.55-1.18,2.22-2.01l2.65,2.03c-1.95,2.52-4.68,3.78-8.19,3.78-1.46,0-2.78-.25-3.96-.74-1.18-.49-2.18-1.18-3-2.05-.82-.87-1.45-1.9-1.89-3.08-.44-1.18-.66-2.46-.66-3.84s.24-2.66.72-3.84c.48-1.18,1.14-2.21,1.99-3.08s1.85-1.55,3.02-2.05,2.44-.74,3.82-.74c1.64,0,3.02.29,4.15.86s2.06,1.32,2.79,2.24,1.25,1.96,1.58,3.12c.32,1.16.49,2.33.49,3.53v1.25h-14.82Zm11.08-2.81c-.03-.78-.15-1.5-.37-2.15-.22-.65-.55-1.21-1-1.7-.44-.48-.99-.86-1.66-1.13-.66-.27-1.44-.41-2.32-.41s-1.64.16-2.36.49c-.72.33-1.32.75-1.81,1.27-.49.52-.88,1.1-1.15,1.74-.27.64-.41,1.27-.41,1.89h11.08Z"/><path class="cls-1" d="m550.93,406.14c.99-.91,2.13-1.59,3.43-2.05,1.3-.46,2.6-.68,3.9-.68s2.52.17,3.49.51c.97.34,1.77.79,2.4,1.37.62.57,1.08,1.23,1.38,1.97.3.74.45,1.51.45,2.32v9.44c0,.65.01,1.25.04,1.79.03.55.06,1.07.12,1.56h-3.12c-.08-.94-.12-1.87-.12-2.81h-.08c-.78,1.2-1.7,2.04-2.77,2.53-1.07.49-2.3.74-3.71.74-.86,0-1.68-.12-2.46-.35-.78-.23-1.46-.58-2.05-1.05-.58-.47-1.05-1.05-1.38-1.74-.34-.69-.51-1.49-.51-2.4,0-1.2.27-2.2.8-3,.53-.81,1.26-1.46,2.18-1.97.92-.51,2-.87,3.24-1.09,1.23-.22,2.55-.33,3.96-.33h2.57v-.78c0-.47-.09-.94-.27-1.4-.18-.47-.46-.89-.82-1.27-.36-.38-.82-.68-1.37-.9s-1.2-.33-1.95-.33c-.68,0-1.27.07-1.77.2-.51.13-.97.29-1.38.49-.42.2-.79.42-1.13.68-.34.26-.66.51-.97.74l-2.11-2.18Zm9.91,7.33c-.83,0-1.68.04-2.55.14-.87.09-1.66.27-2.38.53s-1.3.62-1.75,1.09c-.46.47-.68,1.07-.68,1.79,0,1.07.36,1.83,1.07,2.3.71.47,1.68.7,2.91.7.96,0,1.78-.16,2.46-.49.68-.33,1.22-.75,1.64-1.27s.71-1.1.9-1.74c.18-.64.27-1.27.27-1.89v-1.17h-1.87Z"/><path class="cls-1" d="m587.48,422.36h-3.51v-2.85h-.08c-.44.99-1.21,1.79-2.3,2.4-1.09.61-2.35.92-3.78.92-.91,0-1.77-.14-2.57-.41-.81-.27-1.51-.7-2.13-1.27-.61-.57-1.1-1.31-1.46-2.2-.36-.9-.55-1.96-.55-3.18v-11.9h3.51v10.92c0,.86.12,1.59.35,2.2.23.61.55,1.11.94,1.48.39.38.84.65,1.35.82.51.17,1.03.25,1.58.25.73,0,1.4-.12,2.03-.35.62-.23,1.17-.6,1.64-1.11s.83-1.15,1.09-1.93.39-1.7.39-2.77v-9.52h3.51v18.49Z"/><path class="cls-1" d="m597.85,412.5l-6.55-8.62h4.52l4.48,6.55,4.41-6.55h4.25l-6.32,8.62,7.49,9.87h-4.52l-5.46-7.76-5.46,7.76h-4.33l7.49-9.87Z"/><path class="cls-1" d="m642.39,422.36h-3.51v-2.65h-.08c-.68.99-1.61,1.75-2.79,2.3-1.18.55-2.4.82-3.65.82-1.43,0-2.72-.25-3.88-.74-1.16-.49-2.14-1.18-2.96-2.07s-1.45-1.91-1.89-3.08c-.44-1.17-.66-2.44-.66-3.82s.22-2.66.66-3.84c.44-1.18,1.07-2.21,1.89-3.08s1.81-1.55,2.96-2.05c1.16-.49,2.45-.74,3.88-.74,1.33,0,2.57.28,3.74.84,1.17.56,2.07,1.32,2.69,2.28h.08v-13.65h3.51v29.48Zm-9.59-2.81c.94,0,1.78-.16,2.54-.49.75-.32,1.39-.77,1.91-1.33.52-.56.92-1.24,1.21-2.03.29-.79.43-1.66.43-2.59s-.14-1.8-.43-2.59c-.29-.79-.69-1.47-1.21-2.03-.52-.56-1.16-1-1.91-1.33-.75-.33-1.6-.49-2.54-.49s-1.78.16-2.54.49-1.39.77-1.91,1.33c-.52.56-.92,1.24-1.21,2.03-.29.79-.43,1.66-.43,2.59s.14,1.8.43,2.59.69,1.47,1.21,2.03c.52.56,1.16,1,1.91,1.33.75.33,1.6.49,2.54.49Z"/><path class="cls-1" d="m650.34,414.41c0,.81.18,1.54.53,2.2.35.66.81,1.23,1.38,1.7.57.47,1.23.83,1.99,1.09.75.26,1.53.39,2.34.39,1.09,0,2.04-.25,2.85-.76.81-.51,1.55-1.18,2.22-2.01l2.65,2.03c-1.95,2.52-4.68,3.78-8.19,3.78-1.46,0-2.78-.25-3.96-.74-1.18-.49-2.18-1.18-3-2.05-.82-.87-1.45-1.9-1.89-3.08-.44-1.18-.66-2.46-.66-3.84s.24-2.66.72-3.84c.48-1.18,1.14-2.21,1.99-3.08s1.85-1.55,3.02-2.05,2.44-.74,3.82-.74c1.64,0,3.02.29,4.15.86s2.06,1.32,2.79,2.24,1.25,1.96,1.58,3.12c.32,1.16.49,2.33.49,3.53v1.25h-14.82Zm11.08-2.81c-.03-.78-.15-1.5-.37-2.15-.22-.65-.55-1.21-1-1.7-.44-.48-.99-.86-1.66-1.13-.66-.27-1.44-.41-2.32-.41s-1.64.16-2.36.49c-.72.33-1.32.75-1.81,1.27-.49.52-.88,1.1-1.15,1.74-.27.64-.41,1.27-.41,1.89h11.08Z"/><path class="cls-1" d="m680.49,392.88h3.51v29.48h-3.51v-29.48Z"/><path class="cls-1" d="m689.66,406.14c.99-.91,2.13-1.59,3.43-2.05,1.3-.46,2.6-.68,3.9-.68s2.52.17,3.49.51c.97.34,1.77.79,2.4,1.37.62.57,1.08,1.23,1.38,1.97.3.74.45,1.51.45,2.32v9.44c0,.65.01,1.25.04,1.79.03.55.06,1.07.12,1.56h-3.12c-.08-.94-.12-1.87-.12-2.81h-.08c-.78,1.2-1.7,2.04-2.77,2.53-1.07.49-2.3.74-3.71.74-.86,0-1.68-.12-2.46-.35-.78-.23-1.46-.58-2.05-1.05-.58-.47-1.05-1.05-1.38-1.74-.34-.69-.51-1.49-.51-2.4,0-1.2.27-2.2.8-3,.53-.81,1.26-1.46,2.18-1.97.92-.51,2-.87,3.24-1.09,1.23-.22,2.55-.33,3.96-.33h2.57v-.78c0-.47-.09-.94-.27-1.4-.18-.47-.46-.89-.82-1.27-.36-.38-.82-.68-1.37-.9s-1.2-.33-1.95-.33c-.68,0-1.27.07-1.77.2-.51.13-.97.29-1.38.49-.42.2-.79.42-1.13.68-.34.26-.66.51-.97.74l-2.11-2.18Zm9.91,7.33c-.83,0-1.68.04-2.55.14-.87.09-1.66.27-2.38.53s-1.3.62-1.75,1.09c-.46.47-.68,1.07-.68,1.79,0,1.07.36,1.83,1.07,2.3.71.47,1.68.7,2.91.7.96,0,1.78-.16,2.46-.49.68-.33,1.22-.75,1.64-1.27s.71-1.1.9-1.74c.18-.64.27-1.27.27-1.89v-1.17h-1.87Z"/><path class="cls-1" d="m105.95,455.59c-.65-.68-1.33-1.19-2.05-1.54-.72-.35-1.57-.53-2.55-.53s-1.8.17-2.52.53c-.72.35-1.31.83-1.79,1.44-.48.61-.85,1.31-1.09,2.11-.25.79-.37,1.62-.37,2.48s.14,1.67.43,2.44c.29.77.69,1.44,1.21,2.01.52.57,1.14,1.02,1.87,1.34.73.33,1.55.49,2.46.49.99,0,1.83-.18,2.54-.53.7-.35,1.35-.86,1.95-1.54l2.5,2.5c-.91,1.01-1.97,1.74-3.18,2.18-1.21.44-2.49.66-3.84.66-1.43,0-2.74-.23-3.92-.7-1.18-.47-2.2-1.12-3.06-1.97-.86-.84-1.52-1.86-1.99-3.04-.47-1.18-.7-2.49-.7-3.92s.23-2.74.7-3.94c.47-1.2,1.12-2.22,1.97-3.08.84-.86,1.86-1.53,3.04-2.01,1.18-.48,2.5-.72,3.96-.72,1.35,0,2.65.24,3.88.72,1.23.48,2.31,1.22,3.22,2.2l-2.65,2.42Z"/><path class="cls-1" d="m110.63,459.92c0-1.35.25-2.61.76-3.78.51-1.17,1.2-2.2,2.09-3.08.88-.88,1.92-1.58,3.12-2.09,1.2-.51,2.48-.76,3.86-.76s2.66.25,3.86.76,2.24,1.2,3.12,2.09c.88.88,1.58,1.91,2.09,3.08.51,1.17.76,2.43.76,3.78s-.25,2.62-.76,3.8c-.51,1.18-1.2,2.21-2.09,3.08-.88.87-1.92,1.56-3.12,2.07-1.2.51-2.48.76-3.86.76s-2.67-.25-3.86-.76c-1.2-.51-2.24-1.2-3.12-2.07s-1.58-1.9-2.09-3.08c-.51-1.18-.76-2.45-.76-3.8Zm3.74,0c0,.94.14,1.8.43,2.59s.69,1.47,1.21,2.03c.52.56,1.16,1,1.91,1.33.75.33,1.6.49,2.54.49s1.78-.16,2.54-.49c.75-.32,1.39-.77,1.91-1.33.52-.56.92-1.24,1.21-2.03s.43-1.66.43-2.59-.14-1.8-.43-2.59c-.29-.79-.69-1.47-1.21-2.03-.52-.56-1.16-1-1.91-1.33-.75-.33-1.6-.49-2.54-.49s-1.78.16-2.54.49c-.75.33-1.39.77-1.91,1.33-.52.56-.92,1.24-1.21,2.03-.29.79-.43,1.66-.43,2.59Z"/><path class="cls-1" d="m134.96,439.68h3.51v29.48h-3.51v-29.48Z"/><path class="cls-1" d="m144.32,439.68h3.51v29.48h-3.51v-29.48Z"/><path class="cls-1" d="m156.06,461.21c0,.81.17,1.54.53,2.2.35.66.81,1.23,1.38,1.7.57.47,1.23.83,1.99,1.09.75.26,1.53.39,2.34.39,1.09,0,2.04-.25,2.85-.76.81-.51,1.55-1.18,2.22-2.01l2.65,2.03c-1.95,2.52-4.68,3.78-8.19,3.78-1.46,0-2.78-.25-3.96-.74-1.18-.49-2.18-1.18-3-2.05s-1.45-1.9-1.89-3.08c-.44-1.18-.66-2.46-.66-3.84s.24-2.66.72-3.84c.48-1.18,1.14-2.21,1.99-3.08s1.85-1.55,3.02-2.05,2.44-.74,3.82-.74c1.64,0,3.02.29,4.15.86s2.06,1.32,2.79,2.24,1.25,1.96,1.58,3.12c.32,1.16.49,2.33.49,3.53v1.25h-14.82Zm11.08-2.81c-.03-.78-.15-1.5-.37-2.15-.22-.65-.55-1.21-.99-1.7-.44-.48-1-.86-1.66-1.13-.66-.27-1.44-.41-2.32-.41s-1.64.16-2.36.49c-.72.33-1.32.75-1.81,1.27s-.88,1.1-1.15,1.74c-.27.64-.41,1.27-.41,1.89h11.08Z"/><path class="cls-1" d="m188.31,455.59c-.65-.68-1.33-1.19-2.05-1.54-.72-.35-1.57-.53-2.55-.53s-1.8.17-2.52.53c-.71.35-1.31.83-1.79,1.44-.48.61-.84,1.31-1.09,2.11s-.37,1.62-.37,2.48.14,1.67.43,2.44c.29.77.69,1.44,1.21,2.01.52.57,1.14,1.02,1.87,1.34.73.33,1.55.49,2.46.49.99,0,1.83-.18,2.54-.53s1.35-.86,1.95-1.54l2.5,2.5c-.91,1.01-1.97,1.74-3.18,2.18-1.21.44-2.49.66-3.84.66-1.43,0-2.74-.23-3.92-.7-1.18-.47-2.2-1.12-3.06-1.97s-1.52-1.86-1.99-3.04c-.47-1.18-.7-2.49-.7-3.92s.23-2.74.7-3.94c.47-1.2,1.12-2.22,1.97-3.08.84-.86,1.86-1.53,3.04-2.01,1.18-.48,2.5-.72,3.96-.72,1.35,0,2.64.24,3.88.72,1.23.48,2.31,1.22,3.22,2.2l-2.65,2.42Z"/><path class="cls-1" d="m203.8,453.72h-5.03v8.39c0,.52.01,1.03.04,1.54s.12.96.29,1.37c.17.4.43.73.78.97.35.25.86.37,1.54.37.42,0,.84-.04,1.29-.12.44-.08.85-.22,1.21-.43v3.2c-.42.23-.96.4-1.62.49-.66.09-1.18.14-1.54.14-1.35,0-2.4-.19-3.14-.57-.74-.38-1.29-.86-1.64-1.46-.35-.6-.56-1.27-.62-2.01-.06-.74-.1-1.49-.1-2.24v-9.63h-4.06v-3.04h4.06v-5.19h3.51v5.19h5.03v3.04Z"/><path class="cls-1" d="m207.77,444.05c0-.7.25-1.31.76-1.81s1.11-.76,1.81-.76,1.31.25,1.81.76.76,1.11.76,1.81-.25,1.31-.76,1.81-1.11.76-1.81.76-1.31-.25-1.81-.76-.76-1.11-.76-1.81Zm.82,6.63h3.51v18.49h-3.51v-18.49Z"/><path class="cls-1" d="m216.78,459.92c0-1.35.25-2.61.76-3.78.51-1.17,1.2-2.2,2.09-3.08.88-.88,1.92-1.58,3.12-2.09,1.2-.51,2.48-.76,3.86-.76s2.67.25,3.86.76c1.2.51,2.24,1.2,3.12,2.09.88.88,1.58,1.91,2.09,3.08.51,1.17.76,2.43.76,3.78s-.25,2.62-.76,3.8c-.51,1.18-1.2,2.21-2.09,3.08-.88.87-1.92,1.56-3.12,2.07-1.2.51-2.48.76-3.86.76s-2.67-.25-3.86-.76c-1.2-.51-2.24-1.2-3.12-2.07s-1.58-1.9-2.09-3.08c-.51-1.18-.76-2.45-.76-3.8Zm3.74,0c0,.94.14,1.8.43,2.59s.69,1.47,1.21,2.03c.52.56,1.16,1,1.91,1.33.75.33,1.6.49,2.54.49s1.78-.16,2.54-.49c.75-.32,1.39-.77,1.91-1.33.52-.56.92-1.24,1.21-2.03.29-.79.43-1.66.43-2.59s-.14-1.8-.43-2.59c-.29-.79-.69-1.47-1.21-2.03-.52-.56-1.16-1-1.91-1.33-.75-.33-1.6-.49-2.54-.49s-1.78.16-2.54.49c-.75.33-1.39.77-1.91,1.33-.52.56-.92,1.24-1.21,2.03-.29.79-.43,1.66-.43,2.59Z"/><path class="cls-1" d="m240.85,450.68h3.51v2.85h.08c.44-.99,1.21-1.79,2.3-2.4,1.09-.61,2.35-.92,3.78-.92.88,0,1.74.14,2.55.41.82.27,1.53.7,2.14,1.27.61.57,1.1,1.31,1.46,2.2.36.9.55,1.96.55,3.18v11.89h-3.51v-10.92c0-.86-.12-1.59-.35-2.2-.23-.61-.55-1.11-.94-1.48-.39-.38-.84-.65-1.34-.82-.51-.17-1.03-.25-1.58-.25-.73,0-1.4.12-2.03.35-.62.23-1.17.6-1.64,1.11-.47.51-.83,1.15-1.09,1.93s-.39,1.7-.39,2.77v9.52h-3.51v-18.49Z"/><path class="cls-1" d="m293.5,447.52c-.78-1.01-1.77-1.79-2.96-2.34-1.2-.55-2.43-.82-3.71-.82-1.56,0-2.97.29-4.23.88s-2.34,1.38-3.24,2.4c-.9,1.01-1.59,2.2-2.09,3.57-.49,1.37-.74,2.83-.74,4.39,0,1.46.23,2.83.7,4.13.47,1.3,1.14,2.44,2.03,3.43.88.99,1.96,1.77,3.24,2.34,1.27.57,2.72.86,4.33.86s2.98-.33,4.17-.98c1.2-.65,2.21-1.56,3.04-2.73l3.16,2.38c-.21.29-.57.7-1.09,1.23-.52.53-1.21,1.07-2.07,1.6-.86.53-1.89,1-3.1,1.4-1.21.4-2.61.6-4.19.6-2.18,0-4.15-.42-5.91-1.25s-3.25-1.92-4.48-3.28c-1.24-1.35-2.18-2.88-2.83-4.58-.65-1.7-.97-3.43-.97-5.17,0-2.13.35-4.1,1.05-5.91.7-1.81,1.68-3.37,2.94-4.68s2.77-2.33,4.54-3.06c1.77-.73,3.72-1.09,5.85-1.09,1.82,0,3.61.35,5.36,1.05s3.19,1.78,4.31,3.24l-3.12,2.38Z"/><path class="cls-1" d="m300.28,444.05c0-.7.25-1.31.76-1.81.51-.51,1.11-.76,1.81-.76s1.31.25,1.81.76c.51.51.76,1.11.76,1.81s-.25,1.31-.76,1.81c-.51.51-1.11.76-1.81.76s-1.31-.25-1.81-.76c-.51-.51-.76-1.11-.76-1.81Zm.82,6.63h3.51v18.49h-3.51v-18.49Z"/><path class="cls-1" d="m320.09,453.72h-5.03v8.39c0,.52.01,1.03.04,1.54.03.51.12.96.29,1.37.17.4.43.73.78.97.35.25.86.37,1.54.37.42,0,.84-.04,1.29-.12.44-.08.84-.22,1.21-.43v3.2c-.42.23-.96.4-1.62.49s-1.18.14-1.54.14c-1.35,0-2.4-.19-3.14-.57-.74-.38-1.29-.86-1.64-1.46-.35-.6-.56-1.27-.62-2.01s-.1-1.49-.1-2.24v-9.63h-4.06v-3.04h4.06v-5.19h3.51v5.19h5.03v3.04Z"/><path class="cls-1" d="m322.43,450.68h4.06l5.47,14.43h.08l5.25-14.43h3.74l-8.78,22.46c-.31.81-.63,1.54-.97,2.2-.34.66-.74,1.23-1.2,1.7s-1.03.83-1.69,1.09c-.66.26-1.47.39-2.43.39-.52,0-1.04-.03-1.57-.1-.53-.07-1.04-.2-1.53-.41l.43-3.2c.7.29,1.39.43,2.09.43.54,0,1-.07,1.38-.21.37-.14.7-.35.97-.62.27-.27.5-.59.68-.96.18-.36.36-.78.54-1.25l1.14-2.92-7.65-18.6Z"/><path class="cls-1" d="m345.01,441.55h4.91l15.21,22.7h.08v-22.7h3.74v27.61h-4.76l-15.37-22.7h-.08v22.7h-3.74v-27.61Z"/><path class="cls-1" d="m374.26,459.92c0-1.35.25-2.61.76-3.78.51-1.17,1.2-2.2,2.09-3.08s1.92-1.58,3.12-2.09c1.2-.51,2.48-.76,3.86-.76s2.67.25,3.86.76c1.2.51,2.24,1.2,3.12,2.09.88.88,1.58,1.91,2.09,3.08.51,1.17.76,2.43.76,3.78s-.25,2.62-.76,3.8c-.51,1.18-1.2,2.21-2.09,3.08s-1.92,1.56-3.12,2.07c-1.2.51-2.48.76-3.86.76s-2.67-.25-3.86-.76c-1.2-.51-2.24-1.2-3.12-2.07-.88-.87-1.58-1.9-2.09-3.08-.51-1.18-.76-2.45-.76-3.8Zm3.74,0c0,.94.14,1.8.43,2.59.29.79.69,1.47,1.21,2.03.52.56,1.16,1,1.91,1.33.75.33,1.6.49,2.54.49s1.78-.16,2.54-.49c.75-.32,1.39-.77,1.91-1.33.52-.56.92-1.24,1.21-2.03s.43-1.66.43-2.59-.14-1.8-.43-2.59c-.29-.79-.69-1.47-1.21-2.03-.52-.56-1.16-1-1.91-1.33s-1.6-.49-2.54-.49-1.78.16-2.54.49-1.39.77-1.91,1.33c-.52.56-.92,1.24-1.21,2.03-.29.79-.43,1.66-.43,2.59Z"/><path class="cls-1" d="m408.23,453.72h-5.03v8.39c0,.52.01,1.03.04,1.54.03.51.12.96.29,1.37.17.4.43.73.78.97.35.25.86.37,1.54.37.42,0,.84-.04,1.29-.12.44-.08.84-.22,1.21-.43v3.2c-.42.23-.96.4-1.62.49s-1.18.14-1.54.14c-1.35,0-2.4-.19-3.14-.57-.74-.38-1.29-.86-1.64-1.46-.35-.6-.56-1.27-.62-2.01s-.1-1.49-.1-2.24v-9.63h-4.06v-3.04h4.06v-5.19h3.51v5.19h5.03v3.04Z"/><path class="cls-1" d="m415.41,461.21c0,.81.18,1.54.53,2.2.35.66.81,1.23,1.38,1.7.57.47,1.24.83,1.99,1.09s1.53.39,2.34.39c1.09,0,2.04-.25,2.85-.76.8-.51,1.55-1.18,2.22-2.01l2.65,2.03c-1.95,2.52-4.68,3.78-8.19,3.78-1.46,0-2.78-.25-3.96-.74-1.18-.49-2.18-1.18-3-2.05-.82-.87-1.45-1.9-1.89-3.08-.44-1.18-.66-2.46-.66-3.84s.24-2.66.72-3.84c.48-1.18,1.14-2.21,1.99-3.08.84-.87,1.85-1.55,3.02-2.05s2.44-.74,3.82-.74c1.64,0,3.02.29,4.15.86s2.06,1.32,2.79,2.24c.73.92,1.25,1.96,1.58,3.12.33,1.16.49,2.33.49,3.53v1.25h-14.82Zm11.08-2.81c-.03-.78-.15-1.5-.37-2.15-.22-.65-.55-1.21-.99-1.7-.44-.48-.99-.86-1.66-1.13-.66-.27-1.44-.41-2.32-.41s-1.65.16-2.36.49c-.72.33-1.32.75-1.81,1.27-.49.52-.88,1.1-1.15,1.74-.27.64-.41,1.27-.41,1.89h11.08Z"/><path class="cls-1" d="m446.18,441.55h9.59c1.2,0,2.31.14,3.33.43,1.03.29,1.91.71,2.65,1.27.74.56,1.33,1.27,1.75,2.14.43.87.64,1.89.64,3.06,0,1.59-.44,2.88-1.33,3.88-.88,1-2.03,1.74-3.43,2.2v.08c.83.05,1.61.27,2.34.64.73.38,1.36.87,1.89,1.48.53.61.96,1.32,1.27,2.13.31.81.47,1.68.47,2.61,0,1.25-.25,2.35-.76,3.29-.51.95-1.2,1.75-2.09,2.4-.88.65-1.91,1.14-3.08,1.48s-2.43.51-3.78.51h-9.48v-27.61Zm3.74,11.47h5.11c.7,0,1.36-.07,1.99-.21s1.17-.38,1.64-.72c.47-.34.84-.77,1.11-1.29.27-.52.41-1.16.41-1.91,0-1.09-.35-2.04-1.05-2.85-.7-.81-1.81-1.21-3.32-1.21h-5.89v8.19Zm0,12.87h5.5c.57,0,1.2-.06,1.89-.17.69-.12,1.33-.35,1.93-.7.6-.35,1.1-.83,1.52-1.42.42-.6.62-1.39.62-2.38,0-1.64-.53-2.87-1.6-3.69-1.07-.82-2.51-1.23-4.33-1.23h-5.54v9.59Z"/><path class="cls-1" d="m468.95,459.92c0-1.35.25-2.61.76-3.78s1.2-2.2,2.09-3.08c.88-.88,1.92-1.58,3.12-2.09s2.48-.76,3.86-.76,2.67.25,3.86.76c1.2.51,2.24,1.2,3.12,2.09.88.88,1.58,1.91,2.09,3.08s.76,2.43.76,3.78-.25,2.62-.76,3.8c-.51,1.18-1.2,2.21-2.09,3.08-.88.87-1.92,1.56-3.12,2.07-1.2.51-2.48.76-3.86.76s-2.67-.25-3.86-.76c-1.2-.51-2.24-1.2-3.12-2.07s-1.58-1.9-2.09-3.08c-.51-1.18-.76-2.45-.76-3.8Zm3.74,0c0,.94.14,1.8.43,2.59s.69,1.47,1.21,2.03c.52.56,1.16,1,1.91,1.33.75.33,1.6.49,2.54.49s1.78-.16,2.54-.49c.75-.32,1.39-.77,1.91-1.33.52-.56.92-1.24,1.21-2.03.29-.79.43-1.66.43-2.59s-.14-1.8-.43-2.59c-.29-.79-.69-1.47-1.21-2.03-.52-.56-1.16-1-1.91-1.33-.75-.33-1.6-.49-2.54-.49s-1.78.16-2.54.49-1.39.77-1.91,1.33c-.52.56-.92,1.24-1.21,2.03-.29.79-.43,1.66-.43,2.59Z"/><path class="cls-1" d="m492.12,459.92c0-1.35.25-2.61.76-3.78s1.2-2.2,2.09-3.08c.88-.88,1.92-1.58,3.12-2.09s2.48-.76,3.86-.76,2.67.25,3.86.76c1.2.51,2.24,1.2,3.12,2.09.88.88,1.58,1.91,2.09,3.08s.76,2.43.76,3.78-.25,2.62-.76,3.8c-.51,1.18-1.2,2.21-2.09,3.08-.88.87-1.92,1.56-3.12,2.07-1.2.51-2.48.76-3.86.76s-2.67-.25-3.86-.76c-1.2-.51-2.24-1.2-3.12-2.07s-1.58-1.9-2.09-3.08c-.51-1.18-.76-2.45-.76-3.8Zm3.74,0c0,.94.14,1.8.43,2.59s.69,1.47,1.21,2.03c.52.56,1.16,1,1.91,1.33.75.33,1.6.49,2.54.49s1.78-.16,2.54-.49c.75-.32,1.39-.77,1.91-1.33.52-.56.92-1.24,1.21-2.03.29-.79.43-1.66.43-2.59s-.14-1.8-.43-2.59c-.29-.79-.69-1.47-1.21-2.03-.52-.56-1.16-1-1.91-1.33-.75-.33-1.6-.49-2.54-.49s-1.78.16-2.54.49-1.39.77-1.91,1.33c-.52.56-.92,1.24-1.21,2.03-.29.79-.43,1.66-.43,2.59Z"/><path class="cls-1" d="m516.18,439.68h3.51v19.03l7.96-8h4.88l-8.62,8.39,9.36,10.06h-4.99l-8.58-9.59v9.59h-3.51v-29.48Z"/><path class="cls-1" d="m549.92,461.21c0,.81.18,1.54.53,2.2.35.66.81,1.23,1.38,1.7.57.47,1.23.83,1.99,1.09.75.26,1.53.39,2.34.39,1.09,0,2.04-.25,2.85-.76.81-.51,1.55-1.18,2.22-2.01l2.65,2.03c-1.95,2.52-4.68,3.78-8.19,3.78-1.46,0-2.78-.25-3.96-.74-1.18-.49-2.18-1.18-3-2.05-.82-.87-1.45-1.9-1.89-3.08-.44-1.18-.66-2.46-.66-3.84s.24-2.66.72-3.84c.48-1.18,1.14-2.21,1.99-3.08s1.85-1.55,3.02-2.05,2.44-.74,3.82-.74c1.64,0,3.02.29,4.15.86s2.06,1.32,2.79,2.24,1.25,1.96,1.58,3.12c.32,1.16.49,2.33.49,3.53v1.25h-14.82Zm11.08-2.81c-.03-.78-.15-1.5-.37-2.15-.22-.65-.55-1.21-1-1.7-.44-.48-.99-.86-1.66-1.13-.66-.27-1.44-.41-2.32-.41s-1.64.16-2.36.49c-.72.33-1.32.75-1.81,1.27-.49.52-.88,1.1-1.15,1.74-.27.64-.41,1.27-.41,1.89h11.08Zm-4.06-16.85h4.99l-5.81,5.62h-3.24l4.06-5.62Z"/><path class="cls-1" d="m566.73,450.68h4.06l5.54,14.16,5.3-14.16h3.74l-7.25,18.49h-3.86l-7.53-18.49Z"/><path class="cls-1" d="m587.55,459.92c0-1.35.25-2.61.76-3.78s1.2-2.2,2.09-3.08c.88-.88,1.92-1.58,3.12-2.09s2.48-.76,3.86-.76,2.67.25,3.86.76c1.2.51,2.24,1.2,3.12,2.09.88.88,1.58,1.91,2.09,3.08s.76,2.43.76,3.78-.25,2.62-.76,3.8c-.51,1.18-1.2,2.21-2.09,3.08-.88.87-1.92,1.56-3.12,2.07-1.2.51-2.48.76-3.86.76s-2.67-.25-3.86-.76c-1.2-.51-2.24-1.2-3.12-2.07s-1.58-1.9-2.09-3.08c-.51-1.18-.76-2.45-.76-3.8Zm3.74,0c0,.94.14,1.8.43,2.59s.69,1.47,1.21,2.03c.52.56,1.16,1,1.91,1.33.75.33,1.6.49,2.54.49s1.78-.16,2.54-.49c.75-.32,1.39-.77,1.91-1.33.52-.56.92-1.24,1.21-2.03.29-.79.43-1.66.43-2.59s-.14-1.8-.43-2.59c-.29-.79-.69-1.47-1.21-2.03-.52-.56-1.16-1-1.91-1.33-.75-.33-1.6-.49-2.54-.49s-1.78.16-2.54.49-1.39.77-1.91,1.33c-.52.56-.92,1.24-1.21,2.03-.29.79-.43,1.66-.43,2.59Z"/><path class="cls-1" d="m630.14,478.06h-3.51v-11.54h-.08c-.62.96-1.52,1.72-2.69,2.28-1.17.56-2.42.84-3.74.84-1.43,0-2.72-.25-3.88-.74-1.16-.49-2.14-1.18-2.96-2.05s-1.45-1.9-1.89-3.08c-.44-1.18-.66-2.46-.66-3.84s.22-2.62.66-3.8c.44-1.18,1.07-2.22,1.89-3.1.82-.88,1.81-1.57,2.96-2.07,1.16-.49,2.45-.74,3.88-.74,1.25,0,2.46.27,3.65.82,1.18.55,2.11,1.31,2.79,2.3h.08v-2.65h3.51v27.38Zm-9.59-24.57c-.94,0-1.78.16-2.54.49s-1.39.77-1.91,1.33c-.52.56-.92,1.24-1.21,2.03-.29.79-.43,1.66-.43,2.59s.14,1.8.43,2.59.69,1.47,1.21,2.03c.52.56,1.16,1,1.91,1.33.75.33,1.6.49,2.54.49s1.78-.16,2.54-.49c.75-.32,1.39-.77,1.91-1.33.52-.56.92-1.24,1.21-2.03.29-.79.43-1.66.43-2.59s-.14-1.8-.43-2.59c-.29-.79-.69-1.47-1.21-2.03-.52-.56-1.16-1-1.91-1.33-.75-.33-1.6-.49-2.54-.49Z"/><path class="cls-1" d="m651.82,469.17h-3.51v-2.85h-.08c-.44.99-1.21,1.79-2.3,2.4-1.09.61-2.35.92-3.78.92-.91,0-1.77-.14-2.57-.41-.81-.27-1.51-.7-2.13-1.27-.61-.57-1.1-1.31-1.46-2.2-.36-.9-.55-1.96-.55-3.18v-11.9h3.51v10.92c0,.86.12,1.59.35,2.2.23.61.55,1.11.94,1.48.39.38.84.65,1.35.82.51.17,1.03.25,1.58.25.73,0,1.4-.12,2.03-.35.62-.23,1.17-.6,1.64-1.11s.83-1.15,1.09-1.93.39-1.7.39-2.77v-9.52h3.51v18.49Z"/><path class="cls-1" d="m657.21,452.94c.99-.91,2.13-1.59,3.43-2.05,1.3-.46,2.6-.68,3.9-.68s2.52.17,3.49.51c.97.34,1.77.79,2.4,1.37.62.57,1.08,1.23,1.38,1.97.3.74.45,1.51.45,2.32v9.44c0,.65.01,1.25.04,1.79.03.55.06,1.07.12,1.56h-3.12c-.08-.94-.12-1.87-.12-2.81h-.08c-.78,1.2-1.7,2.04-2.77,2.53-1.07.49-2.3.74-3.71.74-.86,0-1.68-.12-2.46-.35-.78-.23-1.46-.58-2.05-1.05-.58-.47-1.05-1.05-1.38-1.74-.34-.69-.51-1.49-.51-2.4,0-1.2.27-2.2.8-3,.53-.81,1.26-1.46,2.18-1.97.92-.51,2-.87,3.24-1.09,1.23-.22,2.55-.33,3.96-.33h2.57v-.78c0-.47-.09-.94-.27-1.4-.18-.47-.46-.89-.82-1.27-.36-.38-.82-.68-1.37-.9s-1.2-.33-1.95-.33c-.68,0-1.27.07-1.77.2-.51.13-.97.29-1.38.49-.42.2-.79.42-1.13.68-.34.26-.66.51-.97.74l-2.11-2.18Zm9.91,7.33c-.83,0-1.68.04-2.55.14-.87.09-1.66.27-2.38.53s-1.3.62-1.75,1.09c-.46.47-.68,1.07-.68,1.79,0,1.07.36,1.83,1.07,2.3.71.47,1.68.7,2.91.7.96,0,1.78-.16,2.46-.49.68-.33,1.22-.75,1.64-1.27s.71-1.1.9-1.74c.18-.64.27-1.27.27-1.89v-1.17h-1.87Z"/><path class="cls-1" d="m677.37,450.68h3.51v2.85h.08c.44-.99,1.21-1.79,2.3-2.4,1.09-.61,2.35-.92,3.78-.92.88,0,1.74.14,2.55.41.82.27,1.53.7,2.14,1.27.61.57,1.1,1.31,1.46,2.2.36.9.55,1.96.55,3.18v11.89h-3.51v-10.92c0-.86-.12-1.59-.35-2.2-.23-.61-.55-1.11-.94-1.48-.39-.38-.84-.65-1.35-.82-.51-.17-1.03-.25-1.58-.25-.73,0-1.4.12-2.03.35-.62.23-1.17.6-1.64,1.11-.47.51-.83,1.15-1.09,1.93s-.39,1.7-.39,2.77v9.52h-3.51v-18.49Z"/><path class="cls-1" d="m708.96,453.72h-5.03v8.39c0,.52.01,1.03.04,1.54.03.51.12.96.29,1.37s.43.73.78.97c.35.25.86.37,1.54.37.42,0,.84-.04,1.29-.12s.84-.22,1.21-.43v3.2c-.42.23-.96.4-1.62.49s-1.18.14-1.54.14c-1.35,0-2.4-.19-3.14-.57-.74-.38-1.29-.86-1.64-1.46-.35-.6-.56-1.27-.62-2.01-.07-.74-.1-1.49-.1-2.24v-9.63h-4.06v-3.04h4.06v-5.19h3.51v5.19h5.03v3.04Z"/><path class="cls-1" d="m175.46,486.48h3.51v29.48h-3.51v-29.48Z"/><path class="cls-1" d="m187.2,508.01c0,.81.17,1.54.53,2.2.35.66.81,1.23,1.38,1.7.57.47,1.23.83,1.99,1.09.75.26,1.53.39,2.34.39,1.09,0,2.04-.25,2.85-.76.81-.51,1.55-1.18,2.22-2.01l2.65,2.03c-1.95,2.52-4.68,3.78-8.19,3.78-1.46,0-2.78-.25-3.96-.74-1.18-.49-2.18-1.18-3-2.05s-1.45-1.9-1.89-3.08c-.44-1.18-.66-2.46-.66-3.84s.24-2.66.72-3.84c.48-1.18,1.14-2.21,1.99-3.08s1.85-1.55,3.02-2.05,2.44-.74,3.82-.74c1.64,0,3.02.29,4.15.86s2.06,1.32,2.79,2.24,1.25,1.96,1.58,3.12c.32,1.16.49,2.33.49,3.53v1.25h-14.82Zm11.08-2.81c-.03-.78-.15-1.5-.37-2.15-.22-.65-.55-1.21-.99-1.7-.44-.48-1-.86-1.66-1.13-.66-.27-1.44-.41-2.32-.41s-1.64.16-2.36.49c-.72.33-1.32.75-1.81,1.27s-.88,1.1-1.15,1.74c-.27.64-.41,1.27-.41,1.89h11.08Z"/><path class="cls-1" d="m214.85,497.48h4.06l5.54,14.16,5.3-14.16h3.74l-7.25,18.49h-3.86l-7.53-18.49Z"/><path class="cls-1" d="m235.68,506.72c0-1.35.25-2.61.76-3.78.51-1.17,1.2-2.2,2.09-3.08.88-.88,1.92-1.58,3.12-2.09,1.2-.51,2.48-.76,3.86-.76s2.66.25,3.86.76,2.24,1.2,3.12,2.09c.88.88,1.58,1.91,2.09,3.08.51,1.17.76,2.43.76,3.78s-.25,2.62-.76,3.8c-.51,1.18-1.2,2.21-2.09,3.08-.88.87-1.92,1.56-3.12,2.07-1.2.51-2.48.76-3.86.76s-2.67-.25-3.86-.76c-1.2-.51-2.24-1.2-3.12-2.07s-1.58-1.9-2.09-3.08c-.51-1.18-.76-2.45-.76-3.8Zm3.74,0c0,.94.14,1.8.43,2.59s.69,1.47,1.21,2.03c.52.56,1.16,1,1.91,1.33.75.33,1.6.49,2.54.49s1.78-.16,2.54-.49c.75-.32,1.39-.77,1.91-1.33.52-.56.92-1.24,1.21-2.03s.43-1.66.43-2.59-.14-1.8-.43-2.59c-.29-.79-.69-1.47-1.21-2.03-.52-.56-1.16-1-1.91-1.33-.75-.33-1.6-.49-2.54-.49s-1.78.16-2.54.49c-.75.33-1.39.77-1.91,1.33-.52.56-.92,1.24-1.21,2.03-.29.79-.43,1.66-.43,2.59Z"/><path class="cls-1" d="m257.56,497.48h4.06l5.47,14.43h.08l5.25-14.43h3.74l-8.77,22.46c-.31.81-.63,1.54-.97,2.2-.34.66-.74,1.23-1.2,1.7-.47.47-1.03.83-1.69,1.09s-1.47.39-2.43.39c-.52,0-1.04-.03-1.57-.1-.53-.07-1.04-.2-1.53-.41l.43-3.2c.7.29,1.39.43,2.09.43.54,0,1-.07,1.38-.21.38-.14.7-.35.97-.62.27-.27.5-.59.68-.96.18-.36.36-.78.54-1.25l1.14-2.92-7.65-18.6Z"/><path class="cls-1" d="m279.32,499.74c.99-.91,2.13-1.59,3.43-2.05,1.3-.46,2.6-.68,3.9-.68s2.52.17,3.49.51c.97.34,1.77.79,2.4,1.37.62.57,1.08,1.23,1.38,1.97.3.74.45,1.51.45,2.32v9.44c0,.65.01,1.25.04,1.79.03.55.06,1.07.12,1.56h-3.12c-.08-.94-.12-1.87-.12-2.81h-.08c-.78,1.2-1.7,2.04-2.77,2.53-1.07.49-2.3.74-3.71.74-.86,0-1.68-.12-2.46-.35-.78-.23-1.46-.58-2.05-1.05-.58-.47-1.05-1.05-1.38-1.74-.34-.69-.51-1.49-.51-2.4,0-1.2.27-2.2.8-3,.53-.81,1.26-1.46,2.18-1.97.92-.51,2-.87,3.24-1.09,1.23-.22,2.55-.33,3.96-.33h2.57v-.78c0-.47-.09-.94-.27-1.4-.18-.47-.46-.89-.82-1.27-.36-.38-.82-.68-1.37-.9-.55-.22-1.2-.33-1.95-.33-.68,0-1.27.07-1.78.2-.51.13-.97.29-1.38.49-.42.2-.79.42-1.13.68-.34.26-.66.51-.97.74l-2.11-2.18Zm9.91,7.33c-.83,0-1.68.04-2.55.14-.87.09-1.66.27-2.38.53-.72.26-1.3.62-1.76,1.09-.46.47-.68,1.07-.68,1.79,0,1.07.36,1.83,1.07,2.3.71.47,1.68.7,2.91.7.96,0,1.78-.16,2.46-.49.68-.33,1.22-.75,1.64-1.27s.71-1.1.9-1.74c.18-.64.27-1.27.27-1.89v-1.17h-1.87Z"/><path class="cls-1" d="m318.01,515.81c0,1.4-.24,2.68-.72,3.84-.48,1.16-1.16,2.16-2.05,3s-1.95,1.5-3.2,1.97-2.63.7-4.13.7c-1.77,0-3.39-.25-4.86-.74-1.47-.49-2.87-1.35-4.19-2.57l2.38-2.96c.91.99,1.9,1.74,2.96,2.24s2.28.76,3.63.76,2.38-.19,3.24-.57,1.54-.87,2.05-1.46c.51-.6.86-1.28,1.07-2.05.21-.77.31-1.54.31-2.32v-2.73h-.12c-.68,1.12-1.59,1.94-2.75,2.48-1.16.53-2.37.8-3.65.8-1.35,0-2.61-.24-3.76-.72s-2.15-1.14-2.98-1.99c-.83-.84-1.48-1.85-1.95-3-.47-1.16-.7-2.41-.7-3.76s.22-2.62.66-3.8c.44-1.18,1.07-2.22,1.89-3.1.82-.88,1.81-1.57,2.96-2.07,1.16-.49,2.45-.74,3.88-.74,1.25,0,2.46.27,3.65.82s2.11,1.31,2.79,2.3h.08v-2.65h3.51v18.33Zm-9.59-15.52c-.94,0-1.78.16-2.54.49-.75.33-1.39.77-1.91,1.33-.52.56-.92,1.24-1.21,2.03-.29.79-.43,1.66-.43,2.59,0,1.87.54,3.37,1.64,4.5,1.09,1.13,2.57,1.7,4.45,1.7s3.35-.57,4.45-1.7,1.64-2.63,1.64-4.5c0-.94-.14-1.8-.43-2.59-.29-.79-.69-1.47-1.21-2.03-.52-.56-1.16-1-1.91-1.33-.75-.33-1.6-.49-2.54-.49Z"/><path class="cls-1" d="m325.96,508.01c0,.81.18,1.54.53,2.2.35.66.81,1.23,1.38,1.7.57.47,1.24.83,1.99,1.09s1.53.39,2.34.39c1.09,0,2.04-.25,2.85-.76.8-.51,1.55-1.18,2.22-2.01l2.65,2.03c-1.95,2.52-4.68,3.78-8.19,3.78-1.46,0-2.78-.25-3.96-.74-1.18-.49-2.18-1.18-3-2.05-.82-.87-1.45-1.9-1.89-3.08-.44-1.18-.66-2.46-.66-3.84s.24-2.66.72-3.84c.48-1.18,1.14-2.21,1.99-3.08.84-.87,1.85-1.55,3.02-2.05s2.44-.74,3.82-.74c1.64,0,3.02.29,4.15.86s2.06,1.32,2.79,2.24c.73.92,1.25,1.96,1.58,3.12.33,1.16.49,2.33.49,3.53v1.25h-14.82Zm11.08-2.81c-.03-.78-.15-1.5-.37-2.15-.22-.65-.55-1.21-.99-1.7-.44-.48-.99-.86-1.66-1.13-.66-.27-1.44-.41-2.32-.41s-1.65.16-2.36.49c-.72.33-1.32.75-1.81,1.27-.49.52-.88,1.1-1.15,1.74-.27.64-.41,1.27-.41,1.89h11.08Z"/><path class="cls-1" d="m355.84,497.48h3.51v2.65h.08c.68-.99,1.6-1.75,2.79-2.3,1.18-.55,2.4-.82,3.65-.82,1.43,0,2.72.25,3.88.74s2.15,1.18,2.96,2.07c.82.88,1.45,1.92,1.89,3.1.44,1.18.66,2.45.66,3.8s-.22,2.66-.66,3.84c-.44,1.18-1.07,2.21-1.89,3.08-.82.87-1.81,1.55-2.96,2.05-1.16.49-2.45.74-3.88.74-1.33,0-2.57-.28-3.74-.84-1.17-.56-2.07-1.32-2.69-2.28h-.08v13.65h-3.51v-29.48Zm9.59,2.81c-.94,0-1.78.16-2.54.49-.75.33-1.39.77-1.91,1.33-.52.56-.92,1.24-1.21,2.03-.29.79-.43,1.66-.43,2.59s.14,1.8.43,2.59c.29.79.69,1.47,1.21,2.03.52.56,1.16,1,1.91,1.33.75.33,1.6.49,2.54.49s1.78-.16,2.53-.49c.75-.32,1.39-.77,1.91-1.33.52-.56.92-1.24,1.21-2.03s.43-1.66.43-2.59-.14-1.8-.43-2.59c-.29-.79-.69-1.47-1.21-2.03-.52-.56-1.16-1-1.91-1.33-.75-.33-1.6-.49-2.53-.49Z"/><path class="cls-1" d="m382.32,508.01c0,.81.17,1.54.53,2.2.35.66.81,1.23,1.38,1.7.57.47,1.23.83,1.99,1.09.75.26,1.53.39,2.34.39,1.09,0,2.04-.25,2.85-.76.81-.51,1.55-1.18,2.22-2.01l2.65,2.03c-1.95,2.52-4.68,3.78-8.19,3.78-1.46,0-2.78-.25-3.96-.74-1.18-.49-2.18-1.18-3-2.05s-1.45-1.9-1.89-3.08c-.44-1.18-.66-2.46-.66-3.84s.24-2.66.72-3.84c.48-1.18,1.14-2.21,1.99-3.08s1.85-1.55,3.02-2.05,2.44-.74,3.82-.74c1.64,0,3.02.29,4.15.86s2.06,1.32,2.79,2.24,1.25,1.96,1.58,3.12c.32,1.16.49,2.33.49,3.53v1.25h-14.82Zm11.08-2.81c-.03-.78-.15-1.5-.37-2.15-.22-.65-.55-1.21-.99-1.7-.44-.48-1-.86-1.66-1.13-.66-.27-1.44-.41-2.32-.41s-1.64.16-2.36.49c-.72.33-1.32.75-1.81,1.27s-.88,1.1-1.15,1.74c-.27.64-.41,1.27-.41,1.89h11.08Z"/><path class="cls-1" d="m401.35,497.48h3.51v2.85h.08c.23-.49.55-.94.94-1.35.39-.4.83-.75,1.31-1.03.48-.29,1.01-.51,1.58-.68s1.14-.25,1.72-.25,1.09.08,1.56.23l-.16,3.78c-.29-.08-.57-.14-.86-.2s-.57-.08-.86-.08c-1.72,0-3.03.48-3.94,1.44s-1.37,2.46-1.37,4.48v9.28h-3.51v-18.49Z"/><path class="cls-1" d="m425.61,502.12c-.42-.52-.93-.96-1.54-1.31-.61-.35-1.36-.53-2.24-.53-.83,0-1.55.17-2.16.53-.61.35-.92.86-.92,1.54,0,.55.17.99.53,1.33.35.34.77.61,1.25.82s.99.36,1.54.47c.55.1,1.01.2,1.4.27.75.18,1.46.4,2.12.66s1.23.6,1.72,1.01.86.92,1.13,1.52c.27.6.41,1.33.41,2.18,0,1.04-.22,1.93-.66,2.67-.44.74-1.01,1.35-1.72,1.81-.7.47-1.5.81-2.4,1.01-.9.21-1.8.31-2.71.31-1.53,0-2.88-.23-4.04-.7-1.16-.47-2.19-1.33-3.1-2.57l2.65-2.18c.57.57,1.21,1.08,1.91,1.52s1.56.66,2.57.66c.44,0,.89-.05,1.35-.14.45-.09.86-.23,1.21-.43.35-.2.64-.44.86-.74.22-.3.33-.64.33-1.03,0-.52-.16-.95-.49-1.29-.33-.34-.72-.6-1.17-.8-.46-.2-.94-.35-1.44-.47-.51-.12-.96-.21-1.35-.29-.75-.18-1.47-.39-2.14-.62-.68-.23-1.27-.55-1.79-.94-.52-.39-.94-.88-1.25-1.48-.31-.6-.47-1.34-.47-2.22,0-.96.2-1.8.6-2.52.4-.71.94-1.31,1.6-1.77.66-.47,1.42-.82,2.26-1.05.84-.23,1.7-.35,2.55-.35,1.25,0,2.44.23,3.59.7s2.05,1.25,2.73,2.34l-2.73,2.07Z"/><path class="cls-1" d="m432.2,506.72c0-1.35.25-2.61.76-3.78.51-1.17,1.2-2.2,2.09-3.08s1.92-1.58,3.12-2.09c1.2-.51,2.48-.76,3.86-.76s2.67.25,3.86.76,2.24,1.2,3.12,2.09c.88.88,1.58,1.91,2.09,3.08.51,1.17.76,2.43.76,3.78s-.25,2.62-.76,3.8c-.51,1.18-1.2,2.21-2.09,3.08-.88.87-1.93,1.56-3.12,2.07-1.2.51-2.48.76-3.86.76s-2.66-.25-3.86-.76c-1.2-.51-2.24-1.2-3.12-2.07-.88-.87-1.58-1.9-2.09-3.08-.51-1.18-.76-2.45-.76-3.8Zm3.74,0c0,.94.14,1.8.43,2.59.29.79.69,1.47,1.21,2.03.52.56,1.16,1,1.91,1.33.75.33,1.6.49,2.54.49s1.78-.16,2.54-.49c.75-.32,1.39-.77,1.91-1.33.52-.56.92-1.24,1.21-2.03.29-.79.43-1.66.43-2.59s-.14-1.8-.43-2.59c-.29-.79-.69-1.47-1.21-2.03-.52-.56-1.16-1-1.91-1.33s-1.6-.49-2.54-.49-1.78.16-2.54.49-1.39.77-1.91,1.33c-.52.56-.92,1.24-1.21,2.03-.29.79-.43,1.66-.43,2.59Z"/><path class="cls-1" d="m456.26,497.48h3.51v2.85h.08c.44-.99,1.21-1.79,2.3-2.4,1.09-.61,2.35-.92,3.78-.92.88,0,1.74.14,2.55.41.82.27,1.53.7,2.14,1.27.61.57,1.1,1.31,1.46,2.2.36.9.55,1.96.55,3.18v11.89h-3.51v-10.92c0-.86-.12-1.59-.35-2.2-.23-.61-.55-1.11-.94-1.48-.39-.38-.84-.65-1.35-.82-.51-.17-1.03-.25-1.58-.25-.73,0-1.4.12-2.03.35-.62.23-1.17.6-1.64,1.11-.47.51-.83,1.15-1.09,1.93s-.39,1.7-.39,2.77v9.52h-3.51v-18.49Z"/><path class="cls-1" d="m477.94,497.48h3.51v2.85h.08c.44-.99,1.21-1.79,2.3-2.4,1.09-.61,2.35-.92,3.78-.92.88,0,1.74.14,2.55.41.82.27,1.53.7,2.14,1.27.61.57,1.1,1.31,1.46,2.2.36.9.55,1.96.55,3.18v11.89h-3.51v-10.92c0-.86-.12-1.59-.35-2.2-.23-.61-.55-1.11-.94-1.48-.39-.38-.84-.65-1.35-.82-.51-.17-1.03-.25-1.58-.25-.73,0-1.4.12-2.03.35-.62.23-1.17.6-1.64,1.11-.47.51-.83,1.15-1.09,1.93s-.39,1.7-.39,2.77v9.52h-3.51v-18.49Z"/><path class="cls-1" d="m499.71,499.74c.99-.91,2.13-1.59,3.43-2.05,1.3-.46,2.6-.68,3.9-.68s2.52.17,3.49.51c.97.34,1.77.79,2.4,1.37.62.57,1.08,1.23,1.38,1.97.3.74.45,1.51.45,2.32v9.44c0,.65.01,1.25.04,1.79.03.55.06,1.07.12,1.56h-3.12c-.08-.94-.12-1.87-.12-2.81h-.08c-.78,1.2-1.7,2.04-2.77,2.53-1.07.49-2.3.74-3.71.74-.86,0-1.68-.12-2.46-.35-.78-.23-1.46-.58-2.05-1.05-.58-.47-1.05-1.05-1.38-1.74-.34-.69-.51-1.49-.51-2.4,0-1.2.27-2.2.8-3,.53-.81,1.26-1.46,2.18-1.97.92-.51,2-.87,3.24-1.09,1.23-.22,2.55-.33,3.96-.33h2.57v-.78c0-.47-.09-.94-.27-1.4-.18-.47-.46-.89-.82-1.27-.36-.38-.82-.68-1.37-.9s-1.2-.33-1.95-.33c-.68,0-1.27.07-1.77.2-.51.13-.97.29-1.38.49-.42.2-.79.42-1.13.68-.34.26-.66.51-.97.74l-2.11-2.18Zm9.91,7.33c-.83,0-1.68.04-2.55.14-.87.09-1.66.27-2.38.53s-1.3.62-1.75,1.09c-.46.47-.68,1.07-.68,1.79,0,1.07.36,1.83,1.07,2.3.71.47,1.68.7,2.91.7.96,0,1.78-.16,2.46-.49.68-.33,1.22-.75,1.64-1.27s.71-1.1.9-1.74c.18-.64.27-1.27.27-1.89v-1.17h-1.87Z"/><path class="cls-1" d="m520.14,486.48h3.51v29.48h-3.51v-29.48Z"/><path class="cls-1" d="m528.68,490.85c0-.7.25-1.31.76-1.81s1.11-.76,1.81-.76,1.31.25,1.81.76c.51.51.76,1.11.76,1.81s-.25,1.31-.76,1.81c-.51.51-1.11.76-1.81.76s-1.31-.25-1.81-.76-.76-1.11-.76-1.81Zm.82,6.63h3.51v18.49h-3.51v-18.49Z"/><path class="cls-1" d="m548.42,502.12c-.42-.52-.93-.96-1.54-1.31-.61-.35-1.36-.53-2.24-.53-.83,0-1.55.17-2.17.53-.61.35-.92.86-.92,1.54,0,.55.17.99.53,1.33.35.34.77.61,1.25.82.48.21.99.36,1.54.47.55.1,1.01.2,1.4.27.75.18,1.46.4,2.13.66.66.26,1.23.6,1.72,1.01.48.42.86.92,1.13,1.52.27.6.41,1.33.41,2.18,0,1.04-.22,1.93-.66,2.67-.44.74-1.01,1.35-1.72,1.81-.7.47-1.5.81-2.4,1.01-.9.21-1.8.31-2.71.31-1.53,0-2.88-.23-4.04-.7-1.16-.47-2.19-1.33-3.1-2.57l2.65-2.18c.57.57,1.21,1.08,1.91,1.52s1.56.66,2.57.66c.44,0,.89-.05,1.35-.14s.86-.23,1.21-.43c.35-.2.64-.44.86-.74.22-.3.33-.64.33-1.03,0-.52-.16-.95-.49-1.29s-.71-.6-1.17-.8-.94-.35-1.44-.47c-.51-.12-.96-.21-1.34-.29-.75-.18-1.47-.39-2.15-.62-.68-.23-1.27-.55-1.79-.94-.52-.39-.94-.88-1.25-1.48-.31-.6-.47-1.34-.47-2.22,0-.96.2-1.8.6-2.52.4-.71.94-1.31,1.6-1.77s1.42-.82,2.26-1.05c.84-.23,1.7-.35,2.55-.35,1.25,0,2.44.23,3.59.7,1.14.47,2.05,1.25,2.73,2.34l-2.73,2.07Z"/><path class="cls-1" d="m555.98,499.74c.99-.91,2.13-1.59,3.43-2.05,1.3-.46,2.6-.68,3.9-.68s2.52.17,3.49.51c.97.34,1.77.79,2.4,1.37.62.57,1.08,1.23,1.38,1.97.3.74.45,1.51.45,2.32v9.44c0,.65.01,1.25.04,1.79.03.55.06,1.07.12,1.56h-3.12c-.08-.94-.12-1.87-.12-2.81h-.08c-.78,1.2-1.7,2.04-2.77,2.53-1.07.49-2.3.74-3.71.74-.86,0-1.68-.12-2.46-.35-.78-.23-1.46-.58-2.05-1.05-.58-.47-1.05-1.05-1.38-1.74-.34-.69-.51-1.49-.51-2.4,0-1.2.27-2.2.8-3,.53-.81,1.26-1.46,2.18-1.97.92-.51,2-.87,3.24-1.09,1.23-.22,2.55-.33,3.96-.33h2.57v-.78c0-.47-.09-.94-.27-1.4-.18-.47-.46-.89-.82-1.27-.36-.38-.82-.68-1.37-.9s-1.2-.33-1.95-.33c-.68,0-1.27.07-1.77.2-.51.13-.97.29-1.38.49-.42.2-.79.42-1.13.68-.34.26-.66.51-.97.74l-2.11-2.18Zm9.91,7.33c-.83,0-1.68.04-2.55.14-.87.09-1.66.27-2.38.53s-1.3.62-1.75,1.09c-.46.47-.68,1.07-.68,1.79,0,1.07.36,1.83,1.07,2.3.71.47,1.68.7,2.91.7.96,0,1.78-.16,2.46-.49.68-.33,1.22-.75,1.64-1.27s.71-1.1.9-1.74c.18-.64.27-1.27.27-1.89v-1.17h-1.87Z"/><path class="cls-1" d="m576.14,486.48h3.51v13.65h.08c.62-.96,1.52-1.72,2.69-2.28,1.17-.56,2.42-.84,3.74-.84,1.43,0,2.72.25,3.88.74,1.16.49,2.14,1.18,2.96,2.05s1.45,1.9,1.89,3.08c.44,1.18.66,2.46.66,3.84s-.22,2.65-.66,3.82c-.44,1.17-1.07,2.2-1.89,3.08s-1.81,1.57-2.96,2.07c-1.16.49-2.45.74-3.88.74-1.25,0-2.46-.27-3.65-.82-1.18-.55-2.11-1.31-2.79-2.3h-.08v2.65h-3.51v-29.48Zm9.59,26.68c.94,0,1.78-.16,2.54-.49.75-.32,1.39-.77,1.91-1.33.52-.56.92-1.24,1.21-2.03.29-.79.43-1.66.43-2.59s-.14-1.8-.43-2.59c-.29-.79-.69-1.47-1.21-2.03-.52-.56-1.16-1-1.91-1.33-.75-.33-1.6-.49-2.54-.49s-1.78.16-2.54.49-1.39.77-1.91,1.33c-.52.56-.92,1.24-1.21,2.03-.29.79-.43,1.66-.43,2.59s.14,1.8.43,2.59.69,1.47,1.21,2.03c.52.56,1.16,1,1.91,1.33.75.33,1.6.49,2.54.49Z"/><path class="cls-1" d="m600.25,486.48h3.51v29.48h-3.51v-29.48Z"/><path class="cls-1" d="m611.98,508.01c0,.81.18,1.54.53,2.2.35.66.81,1.23,1.38,1.7.57.47,1.23.83,1.99,1.09.75.26,1.53.39,2.34.39,1.09,0,2.04-.25,2.85-.76.81-.51,1.55-1.18,2.22-2.01l2.65,2.03c-1.95,2.52-4.68,3.78-8.19,3.78-1.46,0-2.78-.25-3.96-.74-1.18-.49-2.18-1.18-3-2.05-.82-.87-1.45-1.9-1.89-3.08-.44-1.18-.66-2.46-.66-3.84s.24-2.66.72-3.84c.48-1.18,1.14-2.21,1.99-3.08s1.85-1.55,3.02-2.05,2.44-.74,3.82-.74c1.64,0,3.02.29,4.15.86s2.06,1.32,2.79,2.24,1.25,1.96,1.58,3.12c.32,1.16.49,2.33.49,3.53v1.25h-14.82Zm11.08-2.81c-.03-.78-.15-1.5-.37-2.15-.22-.65-.55-1.21-1-1.7-.44-.48-.99-.86-1.66-1.13-.66-.27-1.44-.41-2.32-.41s-1.64.16-2.36.49c-.72.33-1.32.75-1.81,1.27-.49.52-.88,1.1-1.15,1.74-.27.64-.41,1.27-.41,1.89h11.08Z"/></g></svg>