<?xml version="1.0" encoding="UTF-8"?><svg id="Calque_1" xmlns="http://www.w3.org/2000/svg" viewBox="0 0 668 668"><defs><style>.cls-1{fill:#fff;}</style></defs><path class="cls-1" d="m300.98,202.73l-27.92.26h-42.03s0,0,0,0c-1.05,0-1.83.25-2.88.25-10.44,1.3-21.66,9.92-21.66,31.84v25.05l-.58,51.25-44.82-118.33h-.54v-.26h-24.27v.26h-.77l.76,2.02-.77,141.25c1.83,22.71-7.3,29.23-14.87,38.63l32.1.26h0c9.13-13.84,7.82-27.94,7.82-36.54v-78.99l43.33,115.27h27.39l1.56-115.61v-6.26c0-28.71,3.13-22.71,32.09-23.75h10.2s25.84-.27,25.84-.27h0v-26.35Z"/><polygon class="cls-1" points="361.51 247.34 347.63 280.41 333.58 247.08 307.74 247.08 334.67 311.29 307.75 375.47 333.59 375.47 347.63 342.16 361.5 375.21 387.6 375.21 360.65 311.29 387.61 247.34 361.51 247.34"/><polygon class="cls-1" points="258.17 247.1 244.86 247.1 244.86 375.23 263.13 375.23 263.13 375.22 300.45 375.22 300.45 351.74 272.32 351.74 272.32 309.21 300.45 309.21 300.45 285.72 272.32 285.72 272.32 270.58 300.45 270.58 300.45 247.09 258.17 247.09 258.17 247.1"/><path class="cls-1" d="m526.43,298.24h0l-56.91-49.83.02-.03c-18.27-16.44,0-31.06,26.88-29.75h34.19v-26.35h-56.89c-30.28,0-64.98,36.8-21.4,76.73h0l.07-.09,11.05,10.08-.67,42.99c-.25,17.43-10.73,26.35-21.25,26.61h-.42c-10.61.03-21.13-8.77-21.13-26.61,0-59.5,1.05-24.54,1.05-74.9h-25.31l-.78,74.9c0,30.28,10.96,53.75,46.97,53.75,3.68,0,7.07-.27,10.23-.78h51.87c32.62,0,65.25-37.05,22.45-76.72h0Zm-36.81,50.35h-5.73c2.75-7.81,3.91-16.88,3.91-26.61l.22-20.56,19.09,17.43c20.09,21.92,6.51,29.75-17.48,29.75h0Z"/><path class="cls-1" d="m10.29,419.84v-1.9l2.43-2.36c5.85-5.56,8.48-8.52,8.52-11.97,0-2.33-1.12-4.47-4.54-4.47-2.07,0-3.8,1.06-4.86,1.94l-.99-2.18c1.58-1.34,3.83-2.33,6.47-2.33,4.93,0,7,3.38,7,6.65,0,4.22-3.06,7.64-7.88,12.28l-1.83,1.69v.07h10.28v2.57h-14.6Z"/><path class="cls-1" d="m43.55,408.15c0,7.78-2.88,12.08-7.96,12.08-4.47,0-7.5-4.19-7.57-11.75,0-7.68,3.31-11.9,7.95-11.9s7.57,4.29,7.57,11.58h0Zm-12.43.35c0,5.95,1.83,9.33,4.65,9.33,3.17,0,4.68-3.7,4.68-9.53s-1.45-9.33-4.65-9.33c-2.71,0-4.68,3.31-4.68,9.53Z"/><path class="cls-1" d="m46.4,419.84v-1.9l2.43-2.36c5.85-5.56,8.48-8.52,8.52-11.97,0-2.33-1.12-4.47-4.54-4.47-2.07,0-3.8,1.06-4.86,1.94l-.99-2.18c1.58-1.34,3.83-2.33,6.47-2.33,4.93,0,7,3.38,7,6.65,0,4.22-3.06,7.64-7.88,12.28l-1.83,1.69v.07h10.28v2.57h-14.61,0Z"/><path class="cls-1" d="m65.2,416.29c.88.57,2.92,1.45,5.07,1.45,3.98,0,5.21-2.53,5.17-4.44-.04-3.21-2.92-4.58-5.92-4.58h-1.72v-2.33h1.72c2.25,0,5.1-1.16,5.1-3.87,0-1.83-1.16-3.45-4.01-3.45-1.83,0-3.59.81-4.58,1.52l-.81-2.25c1.19-.88,3.52-1.76,5.98-1.76,4.51,0,6.55,2.68,6.55,5.46,0,2.36-1.41,4.36-4.22,5.39v.07c2.82.57,5.1,2.68,5.1,5.88,0,3.66-2.86,6.86-8.34,6.86-2.57,0-4.82-.81-5.95-1.55,0,0,.84-2.4.84-2.4Z"/><path class="cls-1" d="m98.15,409.18v2.29h-8.69v-2.29h8.69Z"/><path class="cls-1" d="m112.98,397.91v4.89h4.44v2.36h-4.44v9.18c0,2.11.6,3.31,2.33,3.31.81,0,1.41-.11,1.8-.22l.14,2.33c-.6.24-1.55.42-2.75.42-1.45,0-2.6-.46-3.34-1.3-.88-.92-1.19-2.43-1.19-4.44v-9.29h-2.64v-2.36h2.64v-4.09l3.03-.81v.02Z"/><path class="cls-1" d="m122.33,402.8l3.74,10.06c.39,1.12.81,2.46,1.1,3.48h.07c.31-1.02.66-2.33,1.1-3.56l3.38-9.99h3.28l-4.65,12.15c-2.22,5.84-3.74,8.83-5.85,10.67-1.52,1.34-3.03,1.87-3.8,2l-.77-2.6c.77-.24,1.8-.74,2.71-1.52.84-.66,1.9-1.87,2.6-3.45.14-.31.24-.57.24-.74s-.07-.42-.22-.81l-6.3-15.7h3.38,0Z"/><path class="cls-1" d="m137.79,408.37c0-2.18-.07-3.94-.14-5.56h2.78l.14,2.92h.07c1.27-2.07,3.28-3.31,6.05-3.31,4.12,0,7.22,3.48,7.22,8.65,0,6.12-3.74,9.15-7.74,9.15-2.25,0-4.22-.99-5.24-2.68h-.07v9.26h-3.06v-18.44Zm3.06,4.54c0,.46.07.88.14,1.27.57,2.15,2.43,3.63,4.65,3.63,3.28,0,5.17-2.68,5.17-6.58,0-3.41-1.8-6.34-5.07-6.34-2.11,0-4.09,1.52-4.68,3.83-.11.39-.22.84-.22,1.27v2.92h0Z"/><path class="cls-1" d="m173.24,411.18c0,6.3-4.36,9.05-8.48,9.05-4.62,0-8.17-3.38-8.17-8.76,0-5.7,3.74-9.05,8.45-9.05s8.2,3.55,8.2,8.76h0Zm-13.51.18c0,3.74,2.15,6.55,5.17,6.55s5.17-2.78,5.17-6.62c0-2.88-1.45-6.55-5.1-6.55s-5.24,3.38-5.24,6.62h0Z"/><path class="cls-1" d="m191.82,402.8c-.07,1.23-.14,2.6-.14,4.68v9.9c0,3.91-.77,6.3-2.43,7.78-1.65,1.55-4.05,2.04-6.2,2.04s-4.29-.49-5.66-1.41l.77-2.36c1.12.7,2.88,1.34,5,1.34,3.17,0,5.5-1.65,5.5-5.95v-1.9h-.07c-.95,1.58-2.78,2.86-5.42,2.86-4.22,0-7.26-3.59-7.26-8.31,0-5.77,3.76-9.05,7.68-9.05,2.95,0,4.58,1.55,5.32,2.95h.07l.14-2.57h2.71v-.02Zm-3.21,6.73c0-.53-.04-.99-.18-1.41-.57-1.8-2.07-3.28-4.33-3.28-2.95,0-5.07,2.5-5.07,6.44,0,3.34,1.69,6.12,5.04,6.12,1.9,0,3.63-1.19,4.29-3.17.18-.53.24-1.12.24-1.65v-3.06h0Z"/><path class="cls-1" d="m196.61,408.12c0-2-.04-3.74-.14-5.32h2.71l.11,3.34h.14c.77-2.29,2.64-3.74,4.71-3.74.35,0,.6.04.88.11v2.92c-.31-.07-.64-.11-1.06-.11-2.18,0-3.74,1.65-4.16,3.98-.07.42-.14.92-.14,1.45v9.08h-3.06v-11.72h0Z"/><path class="cls-1" d="m217.38,419.84l-.24-2.15h-.11c-.95,1.34-2.78,2.53-5.21,2.53-3.45,0-5.21-2.43-5.21-4.89,0-4.12,3.66-6.38,10.24-6.34v-.35c0-1.41-.39-3.94-3.87-3.94-1.58,0-3.24.49-4.44,1.27l-.7-2.04c1.41-.92,3.45-1.52,5.59-1.52,5.21,0,6.47,3.55,6.47,6.97v6.37c0,1.48.07,2.92.28,4.09h-2.82.02Zm-.46-8.69c-3.38-.07-7.22.53-7.22,3.83,0,2,1.34,2.95,2.92,2.95,2.22,0,3.63-1.41,4.12-2.86.11-.31.18-.66.18-.99v-2.95h0Z"/><path class="cls-1" d="m224.92,408.37c0-2.18-.07-3.94-.14-5.56h2.78l.14,2.92h.07c1.27-2.07,3.28-3.31,6.05-3.31,4.12,0,7.22,3.48,7.22,8.65,0,6.12-3.74,9.15-7.74,9.15-2.25,0-4.22-.99-5.24-2.68h-.07v9.26h-3.06v-18.44Zm3.06,4.54c0,.46.07.88.14,1.27.57,2.15,2.43,3.63,4.65,3.63,3.28,0,5.17-2.68,5.17-6.58,0-3.41-1.8-6.34-5.07-6.34-2.11,0-4.09,1.52-4.68,3.83-.11.39-.22.84-.22,1.27v2.92h0Z"/><path class="cls-1" d="m244.95,394.85h3.1v10.63h.07c.49-.88,1.27-1.65,2.22-2.18.92-.53,2-.88,3.17-.88,2.29,0,5.95,1.41,5.95,7.29v10.14h-3.1v-9.79c0-2.75-1.02-5.07-3.94-5.07-2,0-3.59,1.41-4.16,3.1-.18.42-.22.88-.22,1.48v10.28h-3.1v-24.99h0Z"/><path class="cls-1" d="m267.94,398.02c.04,1.06-.74,1.9-1.98,1.9-1.1,0-1.87-.84-1.87-1.9s.81-1.94,1.94-1.94,1.9.84,1.9,1.94h0Zm-3.45,21.83v-17.03h3.1v17.03h-3.1Z"/><path class="cls-1" d="m274.45,411.89c.07,4.19,2.75,5.92,5.85,5.92,2.22,0,3.56-.39,4.71-.88l.53,2.22c-1.1.49-2.95,1.06-5.67,1.06-5.24,0-8.38-3.45-8.38-8.59s3.03-9.18,7.99-9.18c5.56,0,7.04,4.89,7.04,8.03,0,.64-.07,1.12-.11,1.45h-11.97v-.02Zm9.08-2.22c.04-1.98-.81-5.04-4.29-5.04-3.13,0-4.51,2.88-4.75,5.04h9.05Z"/><path class="cls-1" d="m298.71,410.97l4.71,6.47h-2.5l-4.65-6.47,4.65-6.47h2.5l-4.71,6.47Zm5.77,0l4.71,6.47h-2.5l-4.65-6.47,4.65-6.47h2.5l-4.71,6.47Z"/><path class="cls-1" d="m312.68,419.84v-23.72h3.34l7.6,12c1.76,2.78,3.13,5.28,4.26,7.71l.07-.04c-.28-3.17-.35-6.05-.35-9.75v-9.93h2.88v23.72h-3.1l-7.53-12.04c-1.65-2.64-3.24-5.35-4.44-7.92l-.11.04c.18,2.99.24,5.84.24,9.79v10.14h-2.88,0Z"/><path class="cls-1" d="m337.47,411.89c.07,4.19,2.75,5.92,5.84,5.92,2.22,0,3.56-.39,4.71-.88l.53,2.22c-1.1.49-2.95,1.06-5.66,1.06-5.24,0-8.38-3.45-8.38-8.59s3.03-9.18,7.99-9.18c5.56,0,7.04,4.89,7.04,8.03,0,.64-.07,1.12-.11,1.45h-11.97v-.02Zm9.08-2.22c.04-1.98-.81-5.04-4.29-5.04-3.13,0-4.51,2.88-4.75,5.04h9.05Z"/><path class="cls-1" d="m354.72,402.8l2.43,3.66c.64.95,1.16,1.83,1.72,2.78h.11c.57-1.02,1.12-1.9,1.69-2.82l2.4-3.63h3.34l-5.81,8.23,5.98,8.8h-3.52l-2.5-3.83c-.66-.99-1.23-1.94-1.83-2.95h-.07c-.57,1.02-1.16,1.94-1.8,2.95l-2.46,3.83h-3.41l6.05-8.69-5.77-8.34h3.45,0Z"/><path class="cls-1" d="m383.82,415.19c0,1.76.04,3.31.14,4.65h-2.75l-.18-2.78h-.07c-.81,1.37-2.6,3.17-5.63,3.17-2.68,0-5.88-1.48-5.88-7.46v-9.96h3.1v9.44c0,3.24.99,5.42,3.8,5.42,2.07,0,3.52-1.45,4.08-2.82.18-.46.28-1.02.28-1.58v-10.45h3.1v12.39h0Z"/><path class="cls-1" d="m388.55,416.68c.92.6,2.53,1.23,4.09,1.23,2.25,0,3.31-1.12,3.31-2.53s-.88-2.29-3.17-3.13c-3.06-1.1-4.51-2.78-4.51-4.82,0-2.75,2.22-5,5.88-5,1.72,0,3.24.49,4.19,1.06l-.77,2.25c-.66-.42-1.9-.99-3.48-.99-1.83,0-2.86,1.06-2.86,2.33,0,1.41,1.02,2.04,3.24,2.88,2.95,1.12,4.47,2.6,4.47,5.13,0,2.99-2.33,5.1-6.38,5.1-1.87,0-3.59-.46-4.78-1.16l.77-2.36h0Z"/><path class="cls-1" d="m401.15,404.49h2.5l4.68,6.47-4.68,6.47h-2.46l4.68-6.47-4.71-6.47h0Zm5.74,0h2.5l4.68,6.47-4.68,6.47h-2.46l4.68-6.47-4.71-6.47h0Z"/><path class="cls-1" d="m424.7,416.68c.92.6,2.53,1.23,4.09,1.23,2.25,0,3.31-1.12,3.31-2.53s-.88-2.29-3.17-3.13c-3.06-1.1-4.51-2.78-4.51-4.82,0-2.75,2.22-5,5.88-5,1.72,0,3.24.49,4.19,1.06l-.77,2.25c-.66-.42-1.9-.99-3.48-.99-1.83,0-2.86,1.06-2.86,2.33,0,1.41,1.02,2.04,3.24,2.88,2.95,1.12,4.47,2.6,4.47,5.13,0,2.99-2.33,5.1-6.38,5.1-1.87,0-3.59-.46-4.78-1.16l.77-2.36h0Z"/><path class="cls-1" d="m442.52,398.02c.04,1.06-.74,1.9-1.98,1.9-1.1,0-1.87-.84-1.87-1.9s.81-1.94,1.94-1.94,1.9.84,1.9,1.94h0Zm-3.45,21.83v-17.03h3.1v17.03h-3.1Z"/><path class="cls-1" d="m461.98,402.8c-.07,1.23-.14,2.6-.14,4.68v9.9c0,3.91-.77,6.3-2.43,7.78-1.65,1.55-4.05,2.04-6.19,2.04s-4.29-.49-5.66-1.41l.77-2.36c1.12.7,2.88,1.34,5,1.34,3.17,0,5.5-1.65,5.5-5.95v-1.9h-.07c-.95,1.58-2.78,2.86-5.42,2.86-4.22,0-7.26-3.59-7.26-8.31,0-5.77,3.76-9.05,7.68-9.05,2.95,0,4.58,1.55,5.32,2.95h.07l.14-2.57h2.71l-.02-.02Zm-3.21,6.73c0-.53-.04-.99-.18-1.41-.57-1.8-2.07-3.28-4.33-3.28-2.95,0-5.07,2.5-5.07,6.44,0,3.34,1.69,6.12,5.04,6.12,1.9,0,3.63-1.19,4.29-3.17.18-.53.24-1.12.24-1.65v-3.06h0Z"/><path class="cls-1" d="m466.77,407.42c0-1.76-.04-3.21-.14-4.62h2.75l.18,2.82h.07c.84-1.62,2.82-3.21,5.63-3.21,2.36,0,6.02,1.41,6.02,7.26v10.17h-3.1v-9.82c0-2.75-1.02-5.04-3.94-5.04-2.04,0-3.63,1.45-4.16,3.17-.14.39-.22.92-.22,1.45v10.24h-3.1v-12.43h0Z"/><path class="cls-1" d="m489.76,398.02c.04,1.06-.74,1.9-1.98,1.9-1.1,0-1.87-.84-1.87-1.9s.81-1.94,1.94-1.94,1.9.84,1.9,1.94h0Zm-3.45,21.83v-17.03h3.1v17.03h-3.1Z"/><path class="cls-1" d="m494.86,419.84v-14.68h-2.4v-2.36h2.4v-.92c0-4.51,2.64-7.43,7.43-7.43,1.58,0,3.45.49,4.33,1.12l-.88,2.36c-.74-.53-2.07-.99-3.59-.99-3.28,0-4.22,2.29-4.22,5v.84h9.9v17.03h-3.06v-14.68h-6.83v14.68h-3.06l-.02.02Z"/><path class="cls-1" d="m522.39,419.84l-.24-2.15h-.11c-.95,1.34-2.78,2.53-5.21,2.53-3.45,0-5.21-2.43-5.21-4.89,0-4.12,3.66-6.38,10.24-6.34v-.35c0-1.41-.39-3.94-3.87-3.94-1.58,0-3.24.49-4.44,1.27l-.7-2.04c1.41-.92,3.45-1.52,5.59-1.52,5.21,0,6.47,3.55,6.47,6.97v6.37c0,1.48.07,2.92.28,4.09h-2.82.02Zm-.46-8.69c-3.38-.07-7.22.53-7.22,3.83,0,2,1.34,2.95,2.92,2.95,2.22,0,3.63-1.41,4.12-2.86.11-.31.18-.66.18-.99v-2.95h0Z"/><path class="cls-1" d="m529.93,407.42c0-1.76-.04-3.21-.14-4.62h2.75l.18,2.82h.07c.84-1.62,2.82-3.21,5.63-3.21,2.36,0,6.02,1.41,6.02,7.26v10.17h-3.1v-9.82c0-2.75-1.02-5.04-3.94-5.04-2.04,0-3.63,1.45-4.16,3.17-.14.39-.22.92-.22,1.45v10.24h-3.1v-12.43h0Z"/><path class="cls-1" d="m553.06,397.91v4.89h4.44v2.36h-4.44v9.18c0,2.11.6,3.31,2.33,3.31.81,0,1.41-.11,1.79-.22l.14,2.33c-.6.24-1.55.42-2.75.42-1.45,0-2.6-.46-3.34-1.3-.88-.92-1.19-2.43-1.19-4.44v-9.29h-2.64v-2.36h2.64v-4.09l3.03-.81v.02Z"/><path class="cls-1" d="m568.34,410.97l4.71,6.47h-2.5l-4.65-6.47,4.65-6.47h2.5l-4.71,6.47Zm5.77,0l4.71,6.47h-2.5l-4.65-6.47,4.65-6.47h2.5l-4.71,6.47Z"/><path class="cls-1" d="m582.32,396.11h3.06v21.15h10.14v2.57h-13.2v-23.72h0Z"/><path class="cls-1" d="m602.27,398.02c.04,1.06-.74,1.9-1.98,1.9-1.1,0-1.87-.84-1.87-1.9s.81-1.94,1.94-1.94,1.9.84,1.9,1.94h0Zm-3.45,21.83v-17.03h3.1v17.03h-3.1Z"/><path class="cls-1" d="m608.79,411.89c.07,4.19,2.75,5.92,5.84,5.92,2.22,0,3.56-.39,4.71-.88l.53,2.22c-1.1.49-2.95,1.06-5.67,1.06-5.24,0-8.38-3.45-8.38-8.59s3.03-9.18,7.99-9.18c5.56,0,7.04,4.89,7.04,8.03,0,.64-.07,1.12-.11,1.45h-11.97l.02-.02Zm9.08-2.22c.04-1.98-.81-5.04-4.29-5.04-3.13,0-4.51,2.88-4.75,5.04h9.05Z"/><path class="cls-1" d="m624.7,407.42c0-1.76-.04-3.21-.14-4.62h2.75l.18,2.82h.07c.84-1.62,2.82-3.21,5.63-3.21,2.36,0,6.02,1.41,6.02,7.26v10.17h-3.1v-9.82c0-2.75-1.02-5.04-3.94-5.04-2.04,0-3.63,1.45-4.16,3.17-.14.39-.22.92-.22,1.45v10.24h-3.1v-12.43h0Z"/><path class="cls-1" d="m642.48,404.49h2.5l4.68,6.47-4.68,6.47h-2.46l4.68-6.47-4.71-6.47h0Zm5.74,0h2.5l4.68,6.47-4.68,6.47h-2.46l4.68-6.47-4.71-6.47h0Z"/><path class="cls-1" d="m176.68,454.13c.07,4.19,2.75,5.92,5.85,5.92,2.22,0,3.56-.39,4.71-.88l.53,2.22c-1.1.49-2.95,1.06-5.67,1.06-5.24,0-8.38-3.45-8.38-8.59s3.03-9.18,7.99-9.18c5.56,0,7.04,4.89,7.04,8.03,0,.64-.07,1.12-.11,1.45h-11.97v-.02Zm9.08-2.22c.04-1.98-.81-5.04-4.29-5.04-3.13,0-4.51,2.88-4.75,5.04h9.05Z"/><path class="cls-1" d="m192.59,449.66c0-1.76-.04-3.21-.14-4.62h2.75l.18,2.82h.07c.84-1.62,2.82-3.21,5.63-3.21,2.36,0,6.02,1.41,6.02,7.26v10.17h-3.1v-9.82c0-2.75-1.02-5.04-3.94-5.04-2.04,0-3.63,1.45-4.16,3.17-.14.39-.22.92-.22,1.45v10.24h-3.1v-12.43h0Z"/><path class="cls-1" d="m221.32,454.13c.07,4.19,2.75,5.92,5.85,5.92,2.22,0,3.56-.39,4.71-.88l.53,2.22c-1.1.49-2.95,1.06-5.67,1.06-5.24,0-8.38-3.45-8.38-8.59s3.03-9.18,7.99-9.18c5.56,0,7.04,4.89,7.04,8.03,0,.64-.07,1.12-.11,1.45h-11.97v-.02Zm9.08-2.22c.04-1.98-.81-5.04-4.29-5.04-3.13,0-4.51,2.88-4.75,5.04h9.05Zm.74-14.22l-4.29,5.04h-2.22l3.1-5.04h3.41Z"/><path class="cls-1" d="m249.37,461.46c-.81.42-2.6.99-4.89.99-5.14,0-8.49-3.48-8.49-8.69s3.59-9.05,9.15-9.05c1.83,0,3.45.46,4.29.88l-.7,2.4c-.74-.42-1.9-.81-3.59-.81-3.91,0-6.02,2.88-6.02,6.44,0,3.94,2.53,6.37,5.92,6.37,1.76,0,2.92-.46,3.8-.84l.53,2.33h0Z"/><path class="cls-1" d="m253,437.1h3.1v10.63h.07c.49-.88,1.27-1.65,2.22-2.18.92-.53,2-.88,3.17-.88,2.29,0,5.95,1.41,5.95,7.29v10.14h-3.1v-9.79c0-2.75-1.02-5.07-3.94-5.07-2,0-3.59,1.41-4.16,3.1-.18.42-.22.88-.22,1.48v10.28h-3.1v-24.99h0Z"/><path class="cls-1" d="m287.95,453.43c0,6.3-4.36,9.05-8.48,9.05-4.62,0-8.17-3.38-8.17-8.76,0-5.7,3.74-9.05,8.45-9.05s8.2,3.55,8.2,8.76h0Zm-13.51.18c0,3.74,2.15,6.55,5.17,6.55s5.17-2.78,5.17-6.62c0-2.88-1.45-6.55-5.1-6.55s-5.24,3.38-5.24,6.62h0Z"/><path class="cls-1" d="m308.76,462.08l-.24-2.15h-.11c-.95,1.34-2.78,2.53-5.21,2.53-3.45,0-5.21-2.43-5.21-4.89,0-4.12,3.66-6.38,10.24-6.34v-.35c0-1.41-.39-3.94-3.87-3.94-1.58,0-3.24.49-4.44,1.27l-.7-2.04c1.41-.92,3.45-1.52,5.59-1.52,5.21,0,6.47,3.55,6.47,6.97v6.37c0,1.48.07,2.92.28,4.09h-2.82.02Zm-5.24-24.4l3.06,5.04h-2.18l-4.29-5.04h3.41Zm4.79,15.7c-3.38-.07-7.22.53-7.22,3.83,0,2,1.34,2.95,2.92,2.95,2.22,0,3.63-1.41,4.12-2.86.11-.31.18-.66.18-.99v-2.95h0Z"/><path class="cls-1" d="m323.33,458.92c.92.6,2.53,1.23,4.09,1.23,2.25,0,3.31-1.12,3.31-2.53s-.88-2.29-3.17-3.13c-3.06-1.1-4.51-2.78-4.51-4.82,0-2.75,2.22-5,5.88-5,1.72,0,3.24.49,4.19,1.06l-.77,2.25c-.66-.42-1.9-.99-3.48-.99-1.83,0-2.86,1.06-2.86,2.33,0,1.41,1.02,2.04,3.24,2.88,2.95,1.12,4.47,2.6,4.47,5.13,0,2.99-2.33,5.1-6.38,5.1-1.87,0-3.59-.46-4.79-1.16l.77-2.36h.02Z"/><path class="cls-1" d="m339.42,454.13c.07,4.19,2.75,5.92,5.85,5.92,2.22,0,3.56-.39,4.71-.88l.53,2.22c-1.1.49-2.95,1.06-5.67,1.06-5.24,0-8.38-3.45-8.38-8.59s3.03-9.18,7.99-9.18c5.56,0,7.04,4.89,7.04,8.03,0,.64-.07,1.12-.11,1.45h-11.97v-.02Zm9.08-2.22c.04-1.98-.81-5.04-4.29-5.04-3.13,0-4.51,2.88-4.75,5.04h9.05Z"/><path class="cls-1" d="m354.91,458.92c.92.6,2.53,1.23,4.09,1.23,2.25,0,3.31-1.12,3.31-2.53s-.88-2.29-3.17-3.13c-3.06-1.1-4.51-2.78-4.51-4.82,0-2.75,2.22-5,5.88-5,1.72,0,3.24.49,4.19,1.06l-.77,2.25c-.66-.42-1.9-.99-3.48-.99-1.83,0-2.86,1.06-2.86,2.33,0,1.41,1.02,2.04,3.24,2.88,2.95,1.12,4.47,2.6,4.47,5.13,0,2.99-2.33,5.1-6.37,5.1-1.87,0-3.59-.46-4.79-1.16l.77-2.36h0Z"/><path class="cls-1" d="m376.73,437.1h3.1v24.99h-3.1v-24.99Z"/><path class="cls-1" d="m388.5,440.26c.04,1.06-.74,1.9-1.98,1.9-1.1,0-1.87-.84-1.87-1.9s.81-1.94,1.94-1.94,1.9.84,1.9,1.94h0Zm-3.45,21.83v-17.03h3.1v17.03h-3.1Z"/><path class="cls-1" d="m407.96,445.05c-.07,1.23-.14,2.6-.14,4.68v9.9c0,3.91-.77,6.3-2.43,7.78-1.65,1.55-4.05,2.04-6.19,2.04s-4.29-.49-5.66-1.41l.77-2.36c1.12.7,2.88,1.34,5,1.34,3.17,0,5.5-1.65,5.5-5.95v-1.9h-.07c-.95,1.58-2.78,2.86-5.42,2.86-4.22,0-7.26-3.59-7.26-8.31,0-5.77,3.76-9.05,7.68-9.05,2.95,0,4.58,1.55,5.32,2.95h.07l.14-2.57h2.71l-.02-.02Zm-3.21,6.73c0-.53-.04-.99-.18-1.41-.57-1.8-2.07-3.28-4.33-3.28-2.95,0-5.07,2.5-5.07,6.44,0,3.34,1.69,6.12,5.04,6.12,1.9,0,3.63-1.19,4.29-3.17.18-.53.24-1.12.24-1.65v-3.06h0Z"/><path class="cls-1" d="m422.4,462.08l-.24-2.15h-.11c-.95,1.34-2.78,2.53-5.21,2.53-3.45,0-5.21-2.43-5.21-4.89,0-4.12,3.66-6.38,10.24-6.34v-.35c0-1.41-.39-3.94-3.87-3.94-1.58,0-3.24.49-4.44,1.27l-.7-2.04c1.41-.92,3.45-1.52,5.59-1.52,5.21,0,6.47,3.55,6.47,6.97v6.37c0,1.48.07,2.92.28,4.09h-2.82.02Zm-.46-8.69c-3.38-.07-7.22.53-7.22,3.83,0,2,1.34,2.95,2.92,2.95,2.22,0,3.63-1.41,4.12-2.86.11-.31.18-.66.18-.99v-2.95h0Z"/><path class="cls-1" d="m433.52,440.16v4.89h4.44v2.36h-4.44v9.18c0,2.11.6,3.31,2.33,3.31.81,0,1.41-.11,1.79-.22l.14,2.33c-.6.24-1.55.42-2.75.42-1.45,0-2.6-.46-3.34-1.3-.88-.92-1.19-2.43-1.19-4.44v-9.29h-2.64v-2.36h2.64v-4.09l3.03-.81v.02Z"/><path class="cls-1" d="m455.7,457.44c0,1.76.04,3.31.14,4.65h-2.75l-.18-2.78h-.07c-.81,1.37-2.6,3.17-5.63,3.17-2.68,0-5.88-1.48-5.88-7.46v-9.96h3.1v9.44c0,3.24.99,5.42,3.8,5.42,2.07,0,3.52-1.45,4.08-2.82.18-.46.28-1.02.28-1.58v-10.45h3.1v12.39h0Z"/><path class="cls-1" d="m460.84,450.37c0-2-.04-3.74-.14-5.32h2.71l.11,3.34h.14c.77-2.29,2.64-3.74,4.71-3.74.35,0,.6.04.88.11v2.92c-.31-.07-.64-.11-1.06-.11-2.18,0-3.74,1.65-4.16,3.98-.07.42-.14.92-.14,1.45v9.08h-3.06v-11.72h0Z"/><path class="cls-1" d="m473.72,454.13c.07,4.19,2.75,5.92,5.85,5.92,2.22,0,3.55-.39,4.71-.88l.53,2.22c-1.1.49-2.95,1.06-5.67,1.06-5.24,0-8.38-3.45-8.38-8.59s3.03-9.18,7.99-9.18c5.56,0,7.04,4.89,7.04,8.03,0,.64-.07,1.12-.11,1.45h-11.97v-.02Zm9.08-2.22c.04-1.98-.81-5.04-4.29-5.04-3.13,0-4.51,2.88-4.75,5.04h9.05Z"/><path class="cls-1" d="m489.21,458.92c.92.6,2.53,1.23,4.09,1.23,2.25,0,3.31-1.12,3.31-2.53s-.88-2.29-3.17-3.13c-3.06-1.1-4.51-2.78-4.51-4.82,0-2.75,2.22-5,5.88-5,1.72,0,3.24.49,4.19,1.06l-.77,2.25c-.66-.42-1.9-.99-3.48-.99-1.83,0-2.86,1.06-2.86,2.33,0,1.41,1.02,2.04,3.24,2.88,2.95,1.12,4.47,2.6,4.47,5.13,0,2.99-2.33,5.1-6.38,5.1-1.87,0-3.59-.46-4.78-1.16l.77-2.36h0Z"/></svg>