<?xml version="1.0" encoding="UTF-8"?><svg id="Calque_1" xmlns="http://www.w3.org/2000/svg" viewBox="0 0 800 800"><defs><style>.cls-1{fill:#d4abff;}</style></defs><g><path class="cls-1" d="m62.66,307.81c3.2-.12,3.69,1.48,7.13,1.35,4.18-.12,5.78-5.41,10.46-5.41,4.43,0,6.64,3.08,10.95,3.08,4.55,0,6.77-5.17,10.7-6.03,3.32-.86,6.27,1.84,5.41,6.03-.74,4.06-3.2,6.52-3.44,9.47-.25,2.83,1.23,4.92.62,8.36-1.35,7.87-10.82,8.37-12.3.86-.86-4.06,1.97-6.27.37-9.35-1.85-3.94-14.15-.98-15.25,5.29-.74,4.06,1.23,6.15.98,9.1-.25,2.95-3.32,4.55-3.94,7.38-.62,2.83,1.35,5.66.61,8.98-.74,3.2-4.18,3.69-4.8,6.89-.62,3.2.62,6.76.37,9.72-.49,3.32-3.94,6.76-2.46,10.21,1.48,3.69,7.5-.37,11.56.37,6.64,1.48,5.54,11.07-1.11,11.93-4.31.62-7.13-2.21-10.7-1.6-4.06.74-4.43,3.44-8.24,3.44-3.32,0-4.43-2.83-7.63-3.07-2.71-.25-5.54,1.72-9.72.62-6.27-1.6-5.41-11.81,2.34-11.81,4.8,0,9.96,3.69,12.79.25,2.21-2.83-1.23-7.26-.62-11.93.74-4.92,5.41-8.86,6.03-12.91.61-4.18-2.34-7.13-1.72-11.93.37-4.43,5.54-7.38,5.54-13.41,0-6.52-9.1-6.89-13.28-2.58-3.69,3.57-4.31,8.12-8,11.19-5.04,4.06-11.81,1.35-8.73-6.15,1.35-3.44,3.94-4.55,5.29-7.75,1.23-3.44-.25-8,3.2-9.59,4.18-1.97,6.4,2.58,9.84,2.58,3.2,0,4.3-3.44,7.75-3.57Z"/><path class="cls-1" d="m118.01,326.75c9.23-1.23,6.15,6.03,10.21,8.24,3.57,1.85,9.72-1.35,13.16,2.09,3.08,3.2,1.85,7.13,3.2,9.35,1.72,2.83,2.58,6.03,1.85,10.58-.98,5.17-4.43,8.49-8.73,10.46-5.29,2.46-4.67,5.66-7.87,9.23-3.81,3.81-10.7,6.4-14.88,5.66-4.92-.86-3.94-5.04-7.5-7.01-3.32-1.97-6.4-.74-8-3.81-1.85-3.44-.98-6.52-.98-9.96,0-3.69-1.6-10.21,0-13.53,1.84-4.18,5.66-5.29,8.98-8.86,2.95-3.08,2.21-11.44,10.58-12.42Zm-3.08,17.22c-7.87.37-11.32,20.91-3.57,23.49,7.63,2.46,10.82-2.34,15.87-3.44,10.82-2.83,11.44-14.76,5.41-17.59-3.94-1.97-5.9,1.35-9.59.37-3.2-.74-5.04-2.83-8.12-2.83Z"/><path class="cls-1" d="m176.81,320.35c6.27,3.08-1.6,12.67,2.21,15.99,3.81,3.32,9.72-5.78,14.39-5.78s4.31,5.41,9.47,5.78c4.92.37,7.5-8.36,13.53-8.36s5.17,6.03,8,8.61,7.5,1.85,8.49,8.36c.98,6.52-2.46,10.82-1.85,14.02.62,3.32,3.32,2.21,7.63,2.83,5.17.74,6.15,9.47-.49,10.21-5.17.62-4.8-2.21-11.32-3.32-2.83-.49-5.78,1.35-8.49,1.35-5.04,0-6.27-6.4-.98-8.24,4.18-1.48,5.29-3.57,5.41-8.49.12-6.64-4.8-12.05-10.09-12.05-4.43,0-8.36,3.08-8.36,8.49,0,4.92,2.34,5.29,2.83,9.23.49,3.94-3.32,5.78-2.34,10.46.86,4.18,5.04,3.2,8.86,3.69,2.58.37,3.94,1.85,3.81,3.94-.12,1.97-1.84,3.08-3.81,3.2-2.21.12-5.17-.37-7.63,0-2.83.37-7.13,2.46-9.96,2.95-2.71.37-4.67-.25-4.8-2.21-.25-3.69,6.4-4.3,5.9-9.72-.37-4.31-4.43-4.67-4.92-8.73-.49-4.3,2.58-5.66,2.58-10.58,0-5.29-3.08-9.22-8.36-8-6.03,1.35-7.38,11.07-6.89,15.5.49,5.04,3.08,6.4,3.44,10.7.37,4.31-1.48,6.52-.12,11.19.98,3.44,4.06,5.54,7.87,5.9,7.75.74,7.38,9.84-.98,9.84-4.06,0-8.12-1.6-11.56-1.6s-8,1.11-11.56,1.11c-6.77,0-7.63-7.75,0-7.75,3.32,0,7.01-.86,7.63-4.55,1.11-6.64-5.53-11.69-6.03-19.56-.37-6.52,8.24-17.22,2.46-20.79-3.57-2.21-6.52,4.55-11.32,6.03-6.4,2.09-9.96-4.67-4.92-9.72,2.34-2.34,6.15-3.32,9.59-7.26,3.69-4.31,7.38-15.25,12.67-12.67Z"/><path class="cls-1" d="m270.53,326.75c9.23-1.23,6.15,6.03,10.21,8.24,3.57,1.85,9.72-1.35,13.16,2.09,3.08,3.2,1.84,7.13,3.2,9.35,1.72,2.83,2.58,6.03,1.85,10.58-.98,5.17-4.43,8.49-8.73,10.46-5.29,2.46-4.67,5.66-7.87,9.23-3.81,3.81-10.7,6.4-14.88,5.66-4.92-.86-3.94-5.04-7.5-7.01-3.32-1.97-6.4-.74-8-3.81-1.85-3.44-.98-6.52-.98-9.96,0-3.69-1.6-10.21,0-13.53,1.84-4.18,5.66-5.29,8.98-8.86,2.95-3.08,2.21-11.44,10.58-12.42Zm-3.08,17.22c-7.87.37-11.32,20.91-3.57,23.49,7.63,2.46,10.82-2.34,15.87-3.44,10.82-2.83,11.44-14.76,5.41-17.59-3.94-1.97-5.9,1.35-9.59.37-3.2-.74-5.04-2.83-8.12-2.83Z"/><path class="cls-1" d="m309.03,390.96c-3.08.49-5.04,3.57-8.49,3.44-4.8-.12-5.04-10.33,1.48-12.79,3.57-1.48,10.21.37,12.55-4.67,2.21-4.55-.37-9.72-.12-15.01.12-5.04,5.78-9.59,3.94-14.39-1.35-3.32-6.15-.49-10.09-1.23-6.4-1.23-4.67-9.47.62-10.82,5.17-1.35,9.47,1.11,11.69-1.23,2.83-2.83-1.11-7.87.25-12.55.98-3.44,4.18-3.81,5.29-7.13,1.35-4.3-1.11-11.19,4.31-15.13,3.69-2.71,6.4-1.11,9.35-1.48,2.95-.62,5.54-3.32,9.23-1.6,3.69,1.97,2.71,5.78,3.69,10.09.98,4.06,4.55,3.32,5.29,8.12.86,6.77-7.38,12.55-11.56,7.13-3.32-4.3.25-18.33-6.64-16.97-5.04.98-2.09,8.98-3.2,13.53-1.35,5.29-6.64,5.78-4.92,11.32,1.23,5.17,7.26-.49,11.32,0,7.5,1.11,6.03,13.29-2.58,13.29-4.92,0-10.09-2.95-12.55-.49-2.34,2.34,1.11,5.9.61,8.98-.49,3.44-3.32,4.06-3.32,7.5s.98,4.3.86,7.13c-.12,3.44-2.95,5.53-1.11,8.24,1.72,2.71,7.01-1.6,11.56-1.97,8-.62,7.13,8.37,2.21,10.33-2.95,1.11-7.13.74-10.46,2.34-3.44,1.72-4.3,3.94-8.86,5.9-4.18,1.72-5.66-.62-10.33.12Z"/><path class="cls-1" d="m381.73,303.25c1.97.49,4.18-.86,5.9-.49,2.21.49,3.2,3.44,6.03,3.44s4.92-5.29,9.84-5.29c3.69,0,5.78,2.83,6.03,6.15.12,3.94-3.2,6.52-5.9,7.01-3.07.49-7.13-1.72-9.1,1.11-1.97,2.83-.12,5.78-1.48,8.61-1.6,3.32-7.01,3.94-5.54,8.24,1.35,4.06,6.77,1.35,10.58,2.21,3.57.49,5.9,2.71,8.98,2.71,5.29,0,8.86-6.77,6.15-11.32-1.97-3.2-6.64-2.46-5.66-6.89.86-3.94,4.43-2.58,7.38-3.81,3.69-1.48,2.71-4.92,6.4-6.4,2.09-.86,5.04-.12,5.9,1.48.74,1.48.49,3.81,1.48,4.8,1.11,1.11,3.32.49,4.55,1.72,1.84,1.84.49,5.78-3.08,6.76-2.95.74-5.9-.12-7.26,2.34-2.21,3.94,1.48,13.16-.62,21.77-1.84,7.63-10.95,16.24-7.87,21.03,2.34,3.57,7.01-.25,9.96,2.58,3.69,3.44.86,9.96-3.44,10.58-3.07.49-6.89-.49-8.73-.12-1.97.49-4.67,2.71-7.38,2.58-2.71-.25-3.81-2.95-5.66-3.44-1.48-.49-3.69,1.72-6.27.49-4.06-1.72-4.18-10.33,1.23-11.19,3.81-.62,8.98,1.84,10.58-.25,1.6-2.34-.25-4.92.37-10.7.37-3.08,5.41-6.27,6.4-8.73.86-2.71-1.11-6.89-3.44-6.15-3.2.86-6.4,5.17-12.05,4.43-4.3-.62-6.27-6.77-10.09-6.77-3.32,0-7.13,6.4-7.75,9.84-.62,3.32.49,8,0,12.55-.49,5.04-6.4,11.56-3.94,15.01,1.6,2.34,4.43-.12,7.26,1.11,4.31,1.6,3.94,7.75-.61,9.35-5.29,1.84-11.56-.12-15.38,0-3.81.12-6.64,3.44-11.69,2.46-6.03-1.11-6.15-9.59-.61-12.3,3.81-1.85,8.86-.86,11.07-3.69,2.21-2.95-.74-10.58.62-16.24,1.23-5.78,3.94-7.87,6.64-13.28,2.21-4.92,1.6-11.56,4.55-16.85,2.58-4.67,7.26-7.26,7.01-11.93-.25-4.55-7.38-2.95-11.07-5.41-4.06-2.71-3.94-10.95,2.58-12.05,3.81-.62,5.04,2.46,7.13,2.95Z"/><path class="cls-1" d="m453.56,326.75c9.23-1.23,6.15,6.03,10.21,8.24,3.57,1.85,9.72-1.35,13.16,2.09,3.08,3.2,1.84,7.13,3.2,9.35,1.72,2.83,2.58,6.03,1.85,10.58-.98,5.17-4.43,8.49-8.73,10.46-5.29,2.46-4.67,5.66-7.87,9.23-3.81,3.81-10.7,6.4-14.88,5.66-4.92-.86-3.94-5.04-7.5-7.01-3.32-1.97-6.4-.74-8-3.81-1.85-3.44-.98-6.52-.98-9.96,0-3.69-1.6-10.21,0-13.53,1.84-4.18,5.66-5.29,8.98-8.86,2.95-3.08,2.21-11.44,10.58-12.42Zm-3.08,17.22c-7.87.37-11.32,20.91-3.57,23.49,7.63,2.46,10.82-2.34,15.87-3.44,10.82-2.83,11.44-14.76,5.41-17.59-3.94-1.97-5.9,1.35-9.59.37-3.2-.74-5.04-2.83-8.12-2.83Z"/><path class="cls-1" d="m512.23,292.31c5.41.86,3.08,6.76,3.44,12.42.49,6.03,2.34,8.98,1.6,16.97-.74,8.12-5.9,14.51-7.01,20.42-.86,4.8.98,8.73.74,13.78-.25,4.43-3.2,9.84-1.23,14.15,2.71,5.9,15.13,6.52,18.08-.74,1.72-4.18-.49-8.98.25-12.79.74-3.69,3.32-5.66,3.94-10.46.74-5.66-3.2-11.56-1.72-19.06,1.35-7.13,9.1-12.55,8.24-15.99-.98-3.81-8.73-.98-9.35-5.41-.49-3.57,6.15-4.92,9.35-7.63s3.44-7.13,6.76-7.01c2.58.12,4.31,4.55,3.69,11.93-.74,10.33-5.9,18.94-6.64,25.95-.74,6.89.37,11.56-.37,17.59-.74,5.29-6.03,17.84-2.34,23,3.44,4.8,6.4-1.48,10.82-1.48,6.15,0,8.98,12.67-4.43,15.62-9.1,1.97-17.96-3.32-27.55-1.6-8.36,1.48-11.32,6.64-16.6,7.38-3.81.49-5.9-1.35-8.73-1.11-2.46.25-3.44,2.46-6.64,2.46-7.13,0-8.12-10.33,0-12.3,3.94-.98,9.84.98,12.05-3.07,3.57-6.52-1.48-17.22-.86-25.22.61-8.61,5.78-12.05,6.64-17.47.61-3.81-.86-6.64-.74-9.72.12-3.81,4.8-8.86,2.58-10.82-1.84-1.72-4.67,2.83-8.49,3.32-4.31.62-6.15-4.3-3.2-7.87,2.46-3.08,7.38-2.83,9.96-6.89,2.21-3.44,3.32-9.1,7.75-8.36Z"/><path class="cls-1" d="m591.81,327.98c3.44-3.45.74-10.7,6.64-11.93,4.67-.98,4.55,2.95,8.36,3.94,3.2.86,6.27-3.2,10.58-1.35,3.07,1.35,3.44,5.54,2.09,7.87-1.6,2.71-4.43,5.41-4.8,9.1-.37,3.44,1.72,5.54.61,9.1-1.6,5.04-8.73,7.01-9.47,11.32-.86,4.92,2.58,9.96,6.89,10.33,4.92.37,6.52-4.06,10.82-6.52,3.69-2.09,8.61,1.11,6.4,6.4-2.21,5.41-7.13,5.17-10.7,9.1-3.94,4.3-6.15,13.04-13.04,11.68-5.17-.98-5.54-8.36-3.32-14.39,2.09-5.66-5.41-7.38-7.87-2.09-2.21,4.8-3.2,12.3-9.22,12.67-4.43.25-6.64-4.3-9.23-4.92-2.46-.62-8.12.37-10.95-.74-8.98-3.57-5.78-17.71,1.72-19.06,3.94-.74,5.9,1.23,9.1-.49,2.95-1.6,1.84-7.75,6.64-8.98,4.67-1.23,7.38,1.48,12.3,1.23,11.56-.62,14.51-23.49,10.33-24.72-4.06-1.23-9.1,15.99-18.45,17.59-8.61,1.48-13.53-6.52-6.89-10.95,3.2-1.97,8.36-1.11,11.44-4.18Zm-20.29,39.85c-.12,1.23.62,2.71,3.94,3.08,7.38.86,13.78-2.95,14.76-6.64.86-3.32-.49-4.92-2.71-5.17-2.71-.25-4.06,4.3-8.73,6.03-3.32,1.23-7.01.25-7.26,2.71Z"/><path class="cls-1" d="m644.33,343.23c-1.84.98-3.2,2.83-5.54,2.83-4.67,0-6.52-5.41-3.32-8.24,1.97-1.72,5.54-2.21,8.24-4.55,2.71-2.34,2.21-6.27,5.04-9.1,3.57-3.57,8.12-2.09,8.49,1.23.37,3.57-3.08,6.15-.74,7.5,2.95,1.72,6.64-9.96,13.04-9.96,4.18,0,4.8,3.81,7.75,6.03,2.46,1.84,5.78.37,8.12,2.83,5.41,5.66-7.26,15.01-7.26,20.29,0,3.32,1.23,5.17,1.35,8s-1.11,5.04-.12,6.89c1.11,2.09,6.15.86,6.4,5.9.25,6.03-8.12,5.29-12.05,6.52-4.92,1.48-6.15,4.8-10.82,4.8-4.3,0-5.29-5.66-1.48-9.47,4.67-4.67,7.5-3.44,8.36-8.37.86-4.92-1.6-9.22-1.35-13.65s4.8-8.86,3.57-13.65c-1.23-4.8-7.63-4.8-12.05,1.6-3.08,4.43-2.09,8.12-3.94,12.42-2.71,6.15-5.66,9.35-5.29,13.78.37,4.18,3.07,4.92,4.8,6.89,2.09,2.34,1.84,5.54-.49,7.13-2.71,1.84-5.78,1.35-8.86,2.95-3.2,1.6-5.66,5.17-9.59,5.17-6.15,0-4.18-7.38,0-10.09,2.83-1.85,5.41-4.18,5.66-7.5.25-3.2-1.6-7.38,0-12.3.86-2.58,4.67-8.24,5.9-12.18,1.23-4.06-1.11-5.17-3.81-3.69Z"/><path class="cls-1" d="m748.02,296.86c2.21-3.94,8-3.69,9.59,0,1.35,3.08.12,7.13,1.84,10.7,1.6,3.44,7.13,6.76,7.75,10.95.62,5.29-5.17,8.12-8.73,5.54-3.32-2.46-3.08-10.7-5.9-9.72-3.57,1.11.62,8.24.37,13.04-.25,4.67-3.81,5.29-5.41,10.09-1.23,3.81.86,11.44-.74,15.87-1.48,3.94-8.49,9.84-5.41,13.41,2.58,3.08,7.38-1.84,11.56-2.83,5.54-1.23,7.87,3.81,4.67,7.5-1.84,2.21-6.27,2.46-9.84,4.67-6.03,3.81-10.33,12.3-14.27,10.21-4.8-2.58,1.84-10.58-3.32-13.41-5.66-3.07-7.01,8.73-13.78,8.73-4.55,0-6.89-4.8-9.72-7.63-2.58-2.58-4.92-2.34-8.24-5.04-5.41-4.43-6.27-20.66,6.4-26.81,3.44-1.72,5.41-1.23,8.73-2.83,3.94-1.97,7.63-8.36,13.65-5.17,8,4.18.37,18.94,7.13,18.94,5.78,0,1.11-17.47,1.97-23.62.86-6.03,5.17-9.96,7.38-15.13,2.09-4.8,1.6-13.16,4.3-17.47Zm-27.55,54.61c-2.21-2.21-2.71-6.27-6.64-6.15-4.43.12-6.27,6.15-6.27,9.47,0,3.57,1.35,4.8,1.97,6.89.74,2.71,0,6.89,3.44,8.37,7.5,3.07,16.36-6.89,14.27-11.81-1.48-3.44-4.67-4.67-6.76-6.77Z"/></g><g><path class="cls-1" d="m47.28,465.82l11.36-11.28c.4-.37.79-.78,1.16-1.22.37-.44.71-.9,1-1.38.29-.48.53-.99.7-1.52.17-.53.26-1.09.26-1.68,0-.69-.13-1.32-.38-1.88-.25-.56-.6-1.03-1.04-1.42s-.96-.69-1.56-.9c-.6-.21-1.23-.32-1.9-.32-1.39,0-2.53.39-3.44,1.16-.91.77-1.48,1.84-1.72,3.2l-4.16-.36c.19-1.25.55-2.34,1.1-3.26.55-.92,1.23-1.69,2.04-2.3.81-.61,1.75-1.07,2.8-1.36,1.05-.29,2.19-.44,3.42-.44s2.38.17,3.46.5c1.08.33,2.03.83,2.84,1.48s1.45,1.47,1.92,2.44c.47.97.7,2.11.7,3.42,0,.93-.14,1.81-.42,2.62s-.65,1.58-1.1,2.3c-.45.72-.97,1.4-1.56,2.04-.59.64-1.2,1.27-1.84,1.88l-9.32,9h14.24v3.36h-18.56v-4.08Z"/><path class="cls-1" d="m69.04,455.74c0-1.04.05-2.12.16-3.24.11-1.12.3-2.22.58-3.3.28-1.08.65-2.11,1.12-3.1.47-.99,1.07-1.85,1.8-2.58.73-.73,1.6-1.32,2.6-1.76,1-.44,2.17-.66,3.5-.66s2.5.22,3.5.66c1,.44,1.87,1.03,2.6,1.76.73.73,1.33,1.59,1.8,2.58.47.99.84,2.02,1.12,3.1.28,1.08.47,2.18.58,3.3.11,1.12.16,2.2.16,3.24,0,1.49-.13,3.09-.4,4.8-.27,1.71-.76,3.29-1.48,4.76s-1.71,2.68-2.98,3.64c-1.27.96-2.9,1.44-4.9,1.44s-3.63-.48-4.9-1.44c-1.27-.96-2.26-2.17-2.98-3.64-.72-1.47-1.21-3.05-1.48-4.76-.27-1.71-.4-3.31-.4-4.8Zm3.84,0c0,.93.06,2.04.18,3.32s.38,2.51.78,3.7c.4,1.19.99,2.19,1.78,3.02.79.83,1.85,1.24,3.18,1.24s2.39-.41,3.18-1.24c.79-.83,1.38-1.83,1.78-3.02s.66-2.42.78-3.7c.12-1.28.18-2.39.18-3.32,0-.64-.02-1.37-.06-2.18s-.13-1.64-.28-2.48c-.15-.84-.35-1.65-.62-2.44-.27-.79-.62-1.49-1.06-2.12-.44-.63-.98-1.13-1.62-1.5-.64-.37-1.4-.56-2.28-.56s-1.64.19-2.28.56c-.64.37-1.18.87-1.62,1.5-.44.63-.79,1.33-1.06,2.12-.27.79-.47,1.6-.62,2.44-.15.84-.24,1.67-.28,2.48-.04.81-.06,1.54-.06,2.18Z"/><path class="cls-1" d="m91.76,465.82l11.36-11.28c.4-.37.79-.78,1.16-1.22.37-.44.71-.9,1-1.38.29-.48.53-.99.7-1.52.17-.53.26-1.09.26-1.68,0-.69-.13-1.32-.38-1.88-.25-.56-.6-1.03-1.04-1.42s-.96-.69-1.56-.9c-.6-.21-1.23-.32-1.9-.32-1.39,0-2.53.39-3.44,1.16-.91.77-1.48,1.84-1.72,3.2l-4.16-.36c.19-1.25.55-2.34,1.1-3.26.55-.92,1.23-1.69,2.04-2.3.81-.61,1.75-1.07,2.8-1.36,1.05-.29,2.19-.44,3.42-.44s2.38.17,3.46.5c1.08.33,2.03.83,2.84,1.48s1.45,1.47,1.92,2.44c.47.97.7,2.11.7,3.42,0,.93-.14,1.81-.42,2.62s-.65,1.58-1.1,2.3c-.45.72-.97,1.4-1.56,2.04-.59.64-1.2,1.27-1.84,1.88l-9.32,9h14.24v3.36h-18.56v-4.08Z"/><path class="cls-1" d="m122.96,445.98l-5.2,4.8-2.24-2.68,7.88-6.52h3.4v28.32h-3.84v-23.92Z"/><path class="cls-1" d="m145.64,461.9h-9.84v-3.36h9.84v3.36Z"/><path class="cls-1" d="m161.8,441.58h3.84v28.32h-3.84v-28.32Z"/><path class="cls-1" d="m191,469.9h-3.6v-2.72h-.08c-.69,1.01-1.65,1.8-2.86,2.36-1.21.56-2.46.84-3.74.84-1.47,0-2.79-.25-3.98-.76-1.19-.51-2.2-1.21-3.04-2.12-.84-.91-1.49-1.96-1.94-3.16-.45-1.2-.68-2.51-.68-3.92s.23-2.73.68-3.94c.45-1.21,1.1-2.27,1.94-3.16.84-.89,1.85-1.59,3.04-2.1,1.19-.51,2.51-.76,3.98-.76,1.36,0,2.64.29,3.84.86,1.2.57,2.12,1.35,2.76,2.34h.08v-14h3.6v30.24Zm-9.84-2.88c.96,0,1.83-.17,2.6-.5.77-.33,1.43-.79,1.96-1.36.53-.57.95-1.27,1.24-2.08.29-.81.44-1.7.44-2.66s-.15-1.85-.44-2.66c-.29-.81-.71-1.51-1.24-2.08-.53-.57-1.19-1.03-1.96-1.36-.77-.33-1.64-.5-2.6-.5s-1.83.17-2.6.5c-.77.33-1.43.79-1.96,1.36-.53.57-.95,1.27-1.24,2.08-.29.81-.44,1.7-.44,2.66s.15,1.85.44,2.66c.29.81.71,1.51,1.24,2.08.53.57,1.19,1.03,1.96,1.36.77.33,1.64.5,2.6.5Z"/><path class="cls-1" d="m199.16,461.74c0,.83.18,1.58.54,2.26.36.68.83,1.26,1.42,1.74.59.48,1.27.85,2.04,1.12.77.27,1.57.4,2.4.4,1.12,0,2.09-.26,2.92-.78.83-.52,1.59-1.21,2.28-2.06l2.72,2.08c-2,2.59-4.8,3.88-8.4,3.88-1.49,0-2.85-.25-4.06-.76-1.21-.51-2.24-1.21-3.08-2.1-.84-.89-1.49-1.95-1.94-3.16-.45-1.21-.68-2.53-.68-3.94s.25-2.73.74-3.94c.49-1.21,1.17-2.27,2.04-3.16.87-.89,1.9-1.59,3.1-2.1s2.51-.76,3.92-.76c1.68,0,3.1.29,4.26.88,1.16.59,2.11,1.35,2.86,2.3.75.95,1.29,2.01,1.62,3.2.33,1.19.5,2.39.5,3.62v1.28h-15.2Zm11.36-2.88c-.03-.8-.15-1.53-.38-2.2-.23-.67-.57-1.25-1.02-1.74-.45-.49-1.02-.88-1.7-1.16-.68-.28-1.47-.42-2.38-.42s-1.69.17-2.42.5c-.73.33-1.35.77-1.86,1.3-.51.53-.9,1.13-1.18,1.78-.28.65-.42,1.3-.42,1.94h11.36Z"/><path class="cls-1" d="m218.68,450.94h3.6v2.92h.08c.45-1.01,1.24-1.83,2.36-2.46,1.12-.63,2.41-.94,3.88-.94.91,0,1.78.14,2.62.42.84.28,1.57.71,2.2,1.3.63.59,1.13,1.34,1.5,2.26.37.92.56,2.01.56,3.26v12.2h-3.6v-11.2c0-.88-.12-1.63-.36-2.26-.24-.63-.56-1.13-.96-1.52-.4-.39-.86-.67-1.38-.84-.52-.17-1.06-.26-1.62-.26-.75,0-1.44.12-2.08.36-.64.24-1.2.62-1.68,1.14-.48.52-.85,1.18-1.12,1.98-.27.8-.4,1.75-.4,2.84v9.76h-3.6v-18.96Z"/><path class="cls-1" d="m251.08,454.06h-5.16v8.6c0,.53.01,1.06.04,1.58.03.52.13.99.3,1.4.17.41.44.75.8,1,.36.25.89.38,1.58.38.43,0,.87-.04,1.32-.12.45-.08.87-.23,1.24-.44v3.28c-.43.24-.98.41-1.66.5-.68.09-1.21.14-1.58.14-1.39,0-2.46-.19-3.22-.58-.76-.39-1.32-.89-1.68-1.5-.36-.61-.57-1.3-.64-2.06-.07-.76-.1-1.53-.1-2.3v-9.88h-4.16v-3.12h4.16v-5.32h3.6v5.32h5.16v3.12Z"/><path class="cls-1" d="m255.16,444.14c0-.72.26-1.34.78-1.86.52-.52,1.14-.78,1.86-.78s1.34.26,1.86.78c.52.52.78,1.14.78,1.86s-.26,1.34-.78,1.86c-.52.52-1.14.78-1.86.78s-1.34-.26-1.86-.78c-.52-.52-.78-1.14-.78-1.86Zm.84,6.8h3.6v18.96h-3.6v-18.96Z"/><path class="cls-1" d="m275.48,454.06h-5.16v8.6c0,.53.01,1.06.04,1.58.03.52.13.99.3,1.4.17.41.44.75.8,1,.36.25.89.38,1.58.38.43,0,.87-.04,1.32-.12.45-.08.87-.23,1.24-.44v3.28c-.43.24-.98.41-1.66.5-.68.09-1.21.14-1.58.14-1.39,0-2.46-.19-3.22-.58-.76-.39-1.32-.89-1.68-1.5-.36-.61-.57-1.3-.64-2.06-.07-.76-.1-1.53-.1-2.3v-9.88h-4.16v-3.12h4.16v-5.32h3.6v5.32h5.16v3.12Z"/><path class="cls-1" d="m282.84,461.74c0,.83.18,1.58.54,2.26.36.68.83,1.26,1.42,1.74.59.48,1.27.85,2.04,1.12.77.27,1.57.4,2.4.4,1.12,0,2.09-.26,2.92-.78.83-.52,1.59-1.21,2.28-2.06l2.72,2.08c-2,2.59-4.8,3.88-8.4,3.88-1.49,0-2.85-.25-4.06-.76-1.21-.51-2.24-1.21-3.08-2.1-.84-.89-1.49-1.95-1.94-3.16-.45-1.21-.68-2.53-.68-3.94s.25-2.73.74-3.94c.49-1.21,1.17-2.27,2.04-3.16.87-.89,1.9-1.59,3.1-2.1s2.51-.76,3.92-.76c1.68,0,3.1.29,4.26.88,1.16.59,2.11,1.35,2.86,2.3.75.95,1.29,2.01,1.62,3.2.33,1.19.5,2.39.5,3.62v1.28h-15.2Zm11.36-2.88c-.03-.8-.15-1.53-.38-2.2-.23-.67-.57-1.25-1.02-1.74-.45-.49-1.02-.88-1.7-1.16-.68-.28-1.47-.42-2.38-.42s-1.69.17-2.42.5c-.73.33-1.35.77-1.86,1.3-.51.53-.9,1.13-1.18,1.78-.28.65-.42,1.3-.42,1.94h11.36Zm-4.16-17.28h5.12l-5.96,5.76h-3.32l4.16-5.76Z"/><path class="cls-1" d="m311.2,450.94h4.16l5.68,14.52,5.44-14.52h3.84l-7.44,18.96h-3.96l-7.72-18.96Z"/><path class="cls-1" d="m332.92,444.14c0-.72.26-1.34.78-1.86.52-.52,1.14-.78,1.86-.78s1.34.26,1.86.78c.52.52.78,1.14.78,1.86s-.26,1.34-.78,1.86c-.52.52-1.14.78-1.86.78s-1.34-.26-1.86-.78c-.52-.52-.78-1.14-.78-1.86Zm.84,6.8h3.6v18.96h-3.6v-18.96Z"/><path class="cls-1" d="m353.16,455.7c-.43-.53-.95-.98-1.58-1.34-.63-.36-1.39-.54-2.3-.54-.85,0-1.59.18-2.22.54-.63.36-.94.89-.94,1.58,0,.56.18,1.01.54,1.36.36.35.79.63,1.28.84.49.21,1.02.37,1.58.48.56.11,1.04.2,1.44.28.77.19,1.5.41,2.18.68.68.27,1.27.61,1.76,1.04.49.43.88.95,1.16,1.56.28.61.42,1.36.42,2.24,0,1.07-.23,1.98-.68,2.74-.45.76-1.04,1.38-1.76,1.86-.72.48-1.54.83-2.46,1.04-.92.21-1.85.32-2.78.32-1.57,0-2.95-.24-4.14-.72-1.19-.48-2.25-1.36-3.18-2.64l2.72-2.24c.59.59,1.24,1.11,1.96,1.56.72.45,1.6.68,2.64.68.45,0,.91-.05,1.38-.14.47-.09.88-.24,1.24-.44s.65-.45.88-.76c.23-.31.34-.66.34-1.06,0-.53-.17-.97-.5-1.32s-.73-.62-1.2-.82c-.47-.2-.96-.36-1.48-.48-.52-.12-.98-.22-1.38-.3-.77-.19-1.51-.4-2.2-.64-.69-.24-1.31-.56-1.84-.96-.53-.4-.96-.91-1.28-1.52-.32-.61-.48-1.37-.48-2.28,0-.99.21-1.85.62-2.58.41-.73.96-1.34,1.64-1.82.68-.48,1.45-.84,2.32-1.08.87-.24,1.74-.36,2.62-.36,1.28,0,2.51.24,3.68.72,1.17.48,2.11,1.28,2.8,2.4l-2.8,2.12Z"/><path class="cls-1" d="m377.64,469.9h-3.6v-2.92h-.08c-.45,1.01-1.24,1.83-2.36,2.46s-2.41.94-3.88.94c-.93,0-1.81-.14-2.64-.42-.83-.28-1.55-.71-2.18-1.3-.63-.59-1.13-1.34-1.5-2.26s-.56-2.01-.56-3.26v-12.2h3.6v11.2c0,.88.12,1.63.36,2.26.24.63.56,1.13.96,1.52.4.39.86.67,1.38.84s1.06.26,1.62.26c.75,0,1.44-.12,2.08-.36.64-.24,1.2-.62,1.68-1.14.48-.52.85-1.18,1.12-1.98.27-.8.4-1.75.4-2.84v-9.76h3.6v18.96Z"/><path class="cls-1" d="m385.8,461.74c0,.83.18,1.58.54,2.26.36.68.83,1.26,1.42,1.74.59.48,1.27.85,2.04,1.12.77.27,1.57.4,2.4.4,1.12,0,2.09-.26,2.92-.78.83-.52,1.59-1.21,2.28-2.06l2.72,2.08c-2,2.59-4.8,3.88-8.4,3.88-1.49,0-2.85-.25-4.06-.76-1.21-.51-2.24-1.21-3.08-2.1-.84-.89-1.49-1.95-1.94-3.16-.45-1.21-.68-2.53-.68-3.94s.25-2.73.74-3.94c.49-1.21,1.17-2.27,2.04-3.16.87-.89,1.9-1.59,3.1-2.1s2.51-.76,3.92-.76c1.68,0,3.1.29,4.26.88,1.16.59,2.11,1.35,2.86,2.3.75.95,1.29,2.01,1.62,3.2.33,1.19.5,2.39.5,3.62v1.28h-15.2Zm11.36-2.88c-.03-.8-.15-1.53-.38-2.2-.23-.67-.57-1.25-1.02-1.74-.45-.49-1.02-.88-1.7-1.16-.68-.28-1.47-.42-2.38-.42s-1.69.17-2.42.5c-.73.33-1.35.77-1.86,1.3-.51.53-.9,1.13-1.18,1.78-.28.65-.42,1.3-.42,1.94h11.36Z"/><path class="cls-1" d="m405.6,439.66h3.6v30.24h-3.6v-30.24Z"/><path class="cls-1" d="m415.2,439.66h3.6v30.24h-3.6v-30.24Z"/><path class="cls-1" d="m427.24,461.74c0,.83.18,1.58.54,2.26.36.68.83,1.26,1.42,1.74.59.48,1.27.85,2.04,1.12.77.27,1.57.4,2.4.4,1.12,0,2.09-.26,2.92-.78.83-.52,1.59-1.21,2.28-2.06l2.72,2.08c-2,2.59-4.8,3.88-8.4,3.88-1.49,0-2.85-.25-4.06-.76-1.21-.51-2.24-1.21-3.08-2.1-.84-.89-1.49-1.95-1.94-3.16-.45-1.21-.68-2.53-.68-3.94s.25-2.73.74-3.94c.49-1.21,1.17-2.27,2.04-3.16.87-.89,1.9-1.59,3.1-2.1s2.51-.76,3.92-.76c1.68,0,3.1.29,4.26.88s2.11,1.35,2.86,2.3c.75.95,1.29,2.01,1.62,3.2s.5,2.39.5,3.62v1.28h-15.2Zm11.36-2.88c-.03-.8-.15-1.53-.38-2.2-.23-.67-.57-1.25-1.02-1.74-.45-.49-1.02-.88-1.7-1.16-.68-.28-1.47-.42-2.38-.42s-1.69.17-2.42.5c-.73.33-1.35.77-1.86,1.3-.51.53-.9,1.13-1.18,1.78-.28.65-.42,1.3-.42,1.94h11.36Z"/><path class="cls-1" d="m457.88,450.94h3.6v2.72h.08c.69-1.01,1.65-1.8,2.86-2.36,1.21-.56,2.46-.84,3.74-.84,1.47,0,2.79.25,3.98.76,1.19.51,2.2,1.21,3.04,2.12.84.91,1.49,1.97,1.94,3.18.45,1.21.68,2.51.68,3.9s-.23,2.73-.68,3.94c-.45,1.21-1.1,2.27-1.94,3.16-.84.89-1.85,1.59-3.04,2.1-1.19.51-2.51.76-3.98.76-1.36,0-2.64-.29-3.84-.86s-2.12-1.35-2.76-2.34h-.08v14h-3.6v-30.24Zm9.84,2.88c-.96,0-1.83.17-2.6.5-.77.33-1.43.79-1.96,1.36-.53.57-.95,1.27-1.24,2.08-.29.81-.44,1.7-.44,2.66s.15,1.85.44,2.66c.29.81.71,1.51,1.24,2.08.53.57,1.19,1.03,1.96,1.36.77.33,1.64.5,2.6.5s1.83-.17,2.6-.5c.77-.33,1.43-.79,1.96-1.36.53-.57.95-1.27,1.24-2.08.29-.81.44-1.7.44-2.66s-.15-1.85-.44-2.66c-.29-.81-.71-1.51-1.24-2.08-.53-.57-1.19-1.03-1.96-1.36-.77-.33-1.64-.5-2.6-.5Z"/><path class="cls-1" d="m481.4,460.42c0-1.39.26-2.68.78-3.88.52-1.2,1.23-2.25,2.14-3.16s1.97-1.62,3.2-2.14c1.23-.52,2.55-.78,3.96-.78s2.73.26,3.96.78c1.23.52,2.29,1.23,3.2,2.14.91.91,1.62,1.96,2.14,3.16.52,1.2.78,2.49.78,3.88s-.26,2.69-.78,3.9c-.52,1.21-1.23,2.27-2.14,3.16-.91.89-1.97,1.6-3.2,2.12-1.23.52-2.55.78-3.96.78s-2.73-.26-3.96-.78c-1.23-.52-2.29-1.23-3.2-2.12s-1.62-1.95-2.14-3.16c-.52-1.21-.78-2.51-.78-3.9Zm3.84,0c0,.96.15,1.85.44,2.66.29.81.71,1.51,1.24,2.08.53.57,1.19,1.03,1.96,1.36.77.33,1.64.5,2.6.5s1.83-.17,2.6-.5c.77-.33,1.43-.79,1.96-1.36.53-.57.95-1.27,1.24-2.08.29-.81.44-1.7.44-2.66s-.15-1.85-.44-2.66-.71-1.51-1.24-2.08c-.53-.57-1.19-1.03-1.96-1.36-.77-.33-1.64-.5-2.6-.5s-1.83.17-2.6.5c-.77.33-1.43.79-1.96,1.36-.53.57-.95,1.27-1.24,2.08-.29.81-.44,1.7-.44,2.66Z"/><path class="cls-1" d="m522.88,469.9h-3.6v-2.92h-.08c-.45,1.01-1.24,1.83-2.36,2.46-1.12.63-2.41.94-3.88.94-.93,0-1.81-.14-2.64-.42-.83-.28-1.55-.71-2.18-1.3-.63-.59-1.13-1.34-1.5-2.26-.37-.92-.56-2.01-.56-3.26v-12.2h3.6v11.2c0,.88.12,1.63.36,2.26.24.63.56,1.13.96,1.52.4.39.86.67,1.38.84.52.17,1.06.26,1.62.26.75,0,1.44-.12,2.08-.36.64-.24,1.2-.62,1.68-1.14.48-.52.85-1.18,1.12-1.98.27-.8.4-1.75.4-2.84v-9.76h3.6v18.96Z"/><path class="cls-1" d="m528.32,450.94h3.6v2.92h.08c.24-.51.56-.97.96-1.38.4-.41.85-.77,1.34-1.06.49-.29,1.03-.53,1.62-.7.59-.17,1.17-.26,1.76-.26s1.12.08,1.6.24l-.16,3.88c-.29-.08-.59-.15-.88-.2-.29-.05-.59-.08-.88-.08-1.76,0-3.11.49-4.04,1.48-.93.99-1.4,2.52-1.4,4.6v9.52h-3.6v-18.96Z"/><path class="cls-1" d="m571.04,469.9h-3.6v-2.92h-.08c-.45,1.01-1.24,1.83-2.36,2.46-1.12.63-2.41.94-3.88.94-.93,0-1.81-.14-2.64-.42-.83-.28-1.55-.71-2.18-1.3-.63-.59-1.13-1.34-1.5-2.26-.37-.92-.56-2.01-.56-3.26v-12.2h3.6v11.2c0,.88.12,1.63.36,2.26.24.63.56,1.13.96,1.52.4.39.86.67,1.38.84.52.17,1.06.26,1.62.26.75,0,1.44-.12,2.08-.36.64-.24,1.2-.62,1.68-1.14.48-.52.85-1.18,1.12-1.98.27-.8.4-1.75.4-2.84v-9.76h3.6v18.96Z"/><path class="cls-1" d="m576.48,450.94h3.6v2.92h.08c.45-1.01,1.24-1.83,2.36-2.46,1.12-.63,2.41-.94,3.88-.94.91,0,1.78.14,2.62.42.84.28,1.57.71,2.2,1.3.63.59,1.13,1.34,1.5,2.26.37.92.56,2.01.56,3.26v12.2h-3.6v-11.2c0-.88-.12-1.63-.36-2.26-.24-.63-.56-1.13-.96-1.52-.4-.39-.86-.67-1.38-.84-.52-.17-1.06-.26-1.62-.26-.75,0-1.44.12-2.08.36-.64.24-1.2.62-1.68,1.14-.48.52-.85,1.18-1.12,1.98-.27.8-.4,1.75-.4,2.84v9.76h-3.6v-18.96Z"/><path class="cls-1" d="m623.4,455.98c-.67-.69-1.37-1.22-2.1-1.58s-1.61-.54-2.62-.54-1.85.18-2.58.54c-.73.36-1.35.85-1.84,1.48-.49.63-.87,1.35-1.12,2.16-.25.81-.38,1.66-.38,2.54s.15,1.71.44,2.5c.29.79.71,1.47,1.24,2.06.53.59,1.17,1.05,1.92,1.38.75.33,1.59.5,2.52.5,1.01,0,1.88-.18,2.6-.54.72-.36,1.39-.89,2-1.58l2.56,2.56c-.93,1.04-2.02,1.79-3.26,2.24s-2.55.68-3.94.68c-1.47,0-2.81-.24-4.02-.72-1.21-.48-2.26-1.15-3.14-2.02-.88-.87-1.56-1.91-2.04-3.12-.48-1.21-.72-2.55-.72-4.02s.24-2.81.72-4.04c.48-1.23,1.15-2.28,2.02-3.16.87-.88,1.91-1.57,3.12-2.06,1.21-.49,2.57-.74,4.06-.74,1.39,0,2.71.25,3.98.74,1.27.49,2.37,1.25,3.3,2.26l-2.72,2.48Z"/><path class="cls-1" d="m629.12,450.94h3.6v2.92h.08c.24-.51.56-.97.96-1.38.4-.41.85-.77,1.34-1.06.49-.29,1.03-.53,1.62-.7.59-.17,1.17-.26,1.76-.26s1.12.08,1.6.24l-.16,3.88c-.29-.08-.59-.15-.88-.2-.29-.05-.59-.08-.88-.08-1.76,0-3.11.49-4.04,1.48-.93.99-1.4,2.52-1.4,4.6v9.52h-3.6v-18.96Z"/><path class="cls-1" d="m645.92,461.74c0,.83.18,1.58.54,2.26.36.68.83,1.26,1.42,1.74.59.48,1.27.85,2.04,1.12.77.27,1.57.4,2.4.4,1.12,0,2.09-.26,2.92-.78.83-.52,1.59-1.21,2.28-2.06l2.72,2.08c-2,2.59-4.8,3.88-8.4,3.88-1.49,0-2.85-.25-4.06-.76-1.21-.51-2.24-1.21-3.08-2.1s-1.49-1.95-1.94-3.16c-.45-1.21-.68-2.53-.68-3.94s.25-2.73.74-3.94c.49-1.21,1.17-2.27,2.04-3.16.87-.89,1.9-1.59,3.1-2.1,1.2-.51,2.51-.76,3.92-.76,1.68,0,3.1.29,4.26.88s2.11,1.35,2.86,2.3c.75.95,1.29,2.01,1.62,3.2s.5,2.39.5,3.62v1.28h-15.2Zm11.36-2.88c-.03-.8-.15-1.53-.38-2.2-.23-.67-.57-1.25-1.02-1.74-.45-.49-1.02-.88-1.7-1.16-.68-.28-1.47-.42-2.38-.42s-1.69.17-2.42.5c-.73.33-1.35.77-1.86,1.3-.51.53-.9,1.13-1.18,1.78-.28.65-.42,1.3-.42,1.94h11.36Zm-4.16-17.28h5.12l-5.96,5.76h-3.32l4.16-5.76Z"/><path class="cls-1" d="m665.52,453.26c1.01-.93,2.19-1.63,3.52-2.1,1.33-.47,2.67-.7,4-.7s2.58.17,3.58.52,1.82.81,2.46,1.4c.64.59,1.11,1.26,1.42,2.02.31.76.46,1.55.46,2.38v9.68c0,.67.01,1.28.04,1.84.03.56.07,1.09.12,1.6h-3.2c-.08-.96-.12-1.92-.12-2.88h-.08c-.8,1.23-1.75,2.09-2.84,2.6-1.09.51-2.36.76-3.8.76-.88,0-1.72-.12-2.52-.36s-1.5-.6-2.1-1.08c-.6-.48-1.07-1.07-1.42-1.78-.35-.71-.52-1.53-.52-2.46,0-1.23.27-2.25.82-3.08.55-.83,1.29-1.5,2.24-2.02.95-.52,2.05-.89,3.32-1.12s2.62-.34,4.06-.34h2.64v-.8c0-.48-.09-.96-.28-1.44s-.47-.91-.84-1.3-.84-.69-1.4-.92c-.56-.23-1.23-.34-2-.34-.69,0-1.3.07-1.82.2-.52.13-.99.3-1.42.5-.43.2-.81.43-1.16.7-.35.27-.68.52-1,.76l-2.16-2.24Zm10.16,7.52c-.85,0-1.73.05-2.62.14-.89.09-1.71.27-2.44.54-.73.27-1.33.64-1.8,1.12-.47.48-.7,1.09-.7,1.84,0,1.09.37,1.88,1.1,2.36.73.48,1.73.72,2.98.72.99,0,1.83-.17,2.52-.5.69-.33,1.25-.77,1.68-1.3.43-.53.73-1.13.92-1.78.19-.65.28-1.3.28-1.94v-1.2h-1.92Z"/><path class="cls-1" d="m696.36,454.06h-5.16v8.6c0,.53.01,1.06.04,1.58.03.52.13.99.3,1.4.17.41.44.75.8,1,.36.25.89.38,1.58.38.43,0,.87-.04,1.32-.12s.87-.23,1.24-.44v3.28c-.43.24-.98.41-1.66.5s-1.21.14-1.58.14c-1.39,0-2.46-.19-3.22-.58-.76-.39-1.32-.89-1.68-1.5-.36-.61-.57-1.3-.64-2.06s-.1-1.53-.1-2.3v-9.88h-4.16v-3.12h4.16v-5.32h3.6v5.32h5.16v3.12Z"/><path class="cls-1" d="m703.72,461.74c0,.83.18,1.58.54,2.26.36.68.83,1.26,1.42,1.74.59.48,1.27.85,2.04,1.12.77.27,1.57.4,2.4.4,1.12,0,2.09-.26,2.92-.78.83-.52,1.59-1.21,2.28-2.06l2.72,2.08c-2,2.59-4.8,3.88-8.4,3.88-1.49,0-2.85-.25-4.06-.76-1.21-.51-2.24-1.21-3.08-2.1s-1.49-1.95-1.94-3.16c-.45-1.21-.68-2.53-.68-3.94s.25-2.73.74-3.94c.49-1.21,1.17-2.27,2.04-3.16.87-.89,1.9-1.59,3.1-2.1,1.2-.51,2.51-.76,3.92-.76,1.68,0,3.1.29,4.26.88s2.11,1.35,2.86,2.3c.75.95,1.29,2.01,1.62,3.2s.5,2.39.5,3.62v1.28h-15.2Zm11.36-2.88c-.03-.8-.15-1.53-.38-2.2-.23-.67-.57-1.25-1.02-1.74-.45-.49-1.02-.88-1.7-1.16-.68-.28-1.47-.42-2.38-.42s-1.69.17-2.42.5c-.73.33-1.35.77-1.86,1.3-.51.53-.9,1.13-1.18,1.78-.28.65-.42,1.3-.42,1.94h11.36Z"/><path class="cls-1" d="m740.04,469.9h-3.6v-2.92h-.08c-.45,1.01-1.24,1.83-2.36,2.46-1.12.63-2.41.94-3.88.94-.93,0-1.81-.14-2.64-.42-.83-.28-1.55-.71-2.18-1.3-.63-.59-1.13-1.34-1.5-2.26-.37-.92-.56-2.01-.56-3.26v-12.2h3.6v11.2c0,.88.12,1.63.36,2.26.24.63.56,1.13.96,1.52.4.39.86.67,1.38.84.52.17,1.06.26,1.62.26.75,0,1.44-.12,2.08-.36.64-.24,1.2-.62,1.68-1.14.48-.52.85-1.18,1.12-1.98.27-.8.4-1.75.4-2.84v-9.76h3.6v18.96Z"/><path class="cls-1" d="m745.48,450.94h3.6v2.92h.08c.24-.51.56-.97.96-1.38.4-.41.85-.77,1.34-1.06.49-.29,1.03-.53,1.62-.7.59-.17,1.17-.26,1.76-.26s1.12.08,1.6.24l-.16,3.88c-.29-.08-.59-.15-.88-.2-.29-.05-.59-.08-.88-.08-1.76,0-3.11.49-4.04,1.48-.93.99-1.4,2.52-1.4,4.6v9.52h-3.6v-18.96Z"/><path class="cls-1" d="m137.68,527.02h-3.6v-11.84h-.08c-.64.99-1.56,1.77-2.76,2.34-1.2.57-2.48.86-3.84.86-1.47,0-2.79-.25-3.98-.76-1.19-.51-2.2-1.21-3.04-2.1s-1.49-1.95-1.94-3.16c-.45-1.21-.68-2.53-.68-3.94s.23-2.69.68-3.9c.45-1.21,1.1-2.27,1.94-3.18s1.85-1.61,3.04-2.12c1.19-.51,2.51-.76,3.98-.76,1.28,0,2.53.28,3.74.84,1.21.56,2.17,1.35,2.86,2.36h.08v-2.72h3.6v28.08Zm-9.84-25.2c-.96,0-1.83.17-2.6.5-.77.33-1.43.79-1.96,1.36-.53.57-.95,1.27-1.24,2.08-.29.81-.44,1.7-.44,2.66s.15,1.85.44,2.66c.29.81.71,1.51,1.24,2.08.53.57,1.19,1.03,1.96,1.36.77.33,1.64.5,2.6.5s1.83-.17,2.6-.5c.77-.33,1.43-.79,1.96-1.36.53-.57.95-1.27,1.24-2.08.29-.81.44-1.7.44-2.66s-.15-1.85-.44-2.66c-.29-.81-.71-1.51-1.24-2.08-.53-.57-1.19-1.03-1.96-1.36-.77-.33-1.64-.5-2.6-.5Z"/><path class="cls-1" d="m159.92,517.9h-3.6v-2.92h-.08c-.45,1.01-1.24,1.83-2.36,2.46s-2.41.94-3.88.94c-.93,0-1.81-.14-2.64-.42-.83-.28-1.55-.71-2.18-1.3-.63-.59-1.13-1.34-1.5-2.26s-.56-2.01-.56-3.26v-12.2h3.6v11.2c0,.88.12,1.63.36,2.26.24.63.56,1.13.96,1.52.4.39.86.67,1.38.84s1.06.26,1.62.26c.75,0,1.44-.12,2.08-.36.64-.24,1.2-.62,1.68-1.14.48-.52.85-1.18,1.12-1.98.27-.8.4-1.75.4-2.84v-9.76h3.6v18.96Z"/><path class="cls-1" d="m164.8,492.14c0-.72.26-1.34.78-1.86.52-.52,1.14-.78,1.86-.78s1.34.26,1.86.78c.52.52.78,1.14.78,1.86s-.26,1.34-.78,1.86c-.52.52-1.14.78-1.86.78s-1.34-.26-1.86-.78c-.52-.52-.78-1.14-.78-1.86Zm.84,6.8h3.6v18.96h-3.6v-18.96Z"/><path class="cls-1" d="m196.16,503.7c-.43-.53-.95-.98-1.58-1.34-.63-.36-1.39-.54-2.3-.54-.85,0-1.59.18-2.22.54-.63.36-.94.89-.94,1.58,0,.56.18,1.01.54,1.36.36.35.79.63,1.28.84.49.21,1.02.37,1.58.48.56.11,1.04.2,1.44.28.77.19,1.5.41,2.18.68.68.27,1.27.61,1.76,1.04.49.43.88.95,1.16,1.56.28.61.42,1.36.42,2.24,0,1.07-.23,1.98-.68,2.74-.45.76-1.04,1.38-1.76,1.86-.72.48-1.54.83-2.46,1.04-.92.21-1.85.32-2.78.32-1.57,0-2.95-.24-4.14-.72-1.19-.48-2.25-1.36-3.18-2.64l2.72-2.24c.59.59,1.24,1.11,1.96,1.56.72.45,1.6.68,2.64.68.45,0,.91-.05,1.38-.14.47-.09.88-.24,1.24-.44s.65-.45.88-.76c.23-.31.34-.66.34-1.06,0-.53-.17-.97-.5-1.32s-.73-.62-1.2-.82c-.47-.2-.96-.36-1.48-.48-.52-.12-.98-.22-1.38-.3-.77-.19-1.51-.4-2.2-.64-.69-.24-1.31-.56-1.84-.96-.53-.4-.96-.91-1.28-1.52-.32-.61-.48-1.37-.48-2.28,0-.99.21-1.85.62-2.58.41-.73.96-1.34,1.64-1.82.68-.48,1.45-.84,2.32-1.08.87-.24,1.74-.36,2.62-.36,1.28,0,2.51.24,3.68.72,1.17.48,2.11,1.28,2.8,2.4l-2.8,2.12Z"/><path class="cls-1" d="m220.64,517.9h-3.6v-2.92h-.08c-.45,1.01-1.24,1.83-2.36,2.46s-2.41.94-3.88.94c-.93,0-1.81-.14-2.64-.42-.83-.28-1.55-.71-2.18-1.3-.63-.59-1.13-1.34-1.5-2.26s-.56-2.01-.56-3.26v-12.2h3.6v11.2c0,.88.12,1.63.36,2.26.24.63.56,1.13.96,1.52.4.39.86.67,1.38.84s1.06.26,1.62.26c.75,0,1.44-.12,2.08-.36.64-.24,1.2-.62,1.68-1.14.48-.52.85-1.18,1.12-1.98.27-.8.4-1.75.4-2.84v-9.76h3.6v18.96Z"/><path class="cls-1" d="m226.08,487.66h3.6v14h.08c.64-.99,1.56-1.77,2.76-2.34,1.2-.57,2.48-.86,3.84-.86,1.47,0,2.79.25,3.98.76,1.19.51,2.2,1.21,3.04,2.1.84.89,1.49,1.95,1.94,3.16.45,1.21.68,2.53.68,3.94s-.23,2.72-.68,3.92c-.45,1.2-1.1,2.25-1.94,3.16-.84.91-1.85,1.61-3.04,2.12-1.19.51-2.51.76-3.98.76-1.28,0-2.53-.28-3.74-.84-1.21-.56-2.17-1.35-2.86-2.36h-.08v2.72h-3.6v-30.24Zm9.84,27.36c.96,0,1.83-.17,2.6-.5.77-.33,1.43-.79,1.96-1.36.53-.57.95-1.27,1.24-2.08.29-.81.44-1.7.44-2.66s-.15-1.85-.44-2.66-.71-1.51-1.24-2.08c-.53-.57-1.19-1.03-1.96-1.36-.77-.33-1.64-.5-2.6-.5s-1.83.17-2.6.5c-.77.33-1.43.79-1.96,1.36-.53.57-.95,1.27-1.24,2.08s-.44,1.7-.44,2.66.15,1.85.44,2.66c.29.81.71,1.51,1.24,2.08.53.57,1.19,1.03,1.96,1.36.77.33,1.64.5,2.6.5Z"/><path class="cls-1" d="m250.8,487.66h3.6v30.24h-3.6v-30.24Z"/><path class="cls-1" d="m259.56,492.14c0-.72.26-1.34.78-1.86.52-.52,1.14-.78,1.86-.78s1.34.26,1.86.78c.52.52.78,1.14.78,1.86s-.26,1.34-.78,1.86c-.52.52-1.14.78-1.86.78s-1.34-.26-1.86-.78c-.52-.52-.78-1.14-.78-1.86Zm.84,6.8h3.6v18.96h-3.6v-18.96Z"/><path class="cls-1" d="m269.72,498.94h3.36v2.96h.08c.08-.27.29-.6.62-1s.76-.78,1.28-1.14c.52-.36,1.13-.67,1.84-.92.71-.25,1.49-.38,2.34-.38,1.41,0,2.6.29,3.56.88s1.75,1.47,2.36,2.64c.61-1.17,1.48-2.05,2.6-2.64,1.12-.59,2.25-.88,3.4-.88,1.47,0,2.67.24,3.6.72.93.48,1.67,1.11,2.2,1.9.53.79.9,1.68,1.1,2.68.2,1,.3,2.03.3,3.1v11.04h-3.6v-10.56c0-.72-.05-1.41-.14-2.08-.09-.67-.29-1.25-.58-1.76-.29-.51-.71-.91-1.24-1.22-.53-.31-1.24-.46-2.12-.46-1.73,0-2.97.53-3.72,1.6-.75,1.07-1.12,2.44-1.12,4.12v10.36h-3.6v-9.92c0-.91-.05-1.73-.14-2.48-.09-.75-.28-1.39-.56-1.94-.28-.55-.68-.97-1.2-1.28-.52-.31-1.22-.46-2.1-.46-.64,0-1.26.13-1.86.38-.6.25-1.13.63-1.58,1.14-.45.51-.81,1.15-1.08,1.94-.27.79-.4,1.71-.4,2.78v9.84h-3.6v-18.96Z"/><path class="cls-1" d="m306.52,509.74c0,.83.18,1.58.54,2.26.36.68.83,1.26,1.42,1.74.59.48,1.27.85,2.04,1.12.77.27,1.57.4,2.4.4,1.12,0,2.09-.26,2.92-.78.83-.52,1.59-1.21,2.28-2.06l2.72,2.08c-2,2.59-4.8,3.88-8.4,3.88-1.49,0-2.85-.25-4.06-.76-1.21-.51-2.24-1.21-3.08-2.1-.84-.89-1.49-1.95-1.94-3.16-.45-1.21-.68-2.53-.68-3.94s.25-2.73.74-3.94c.49-1.21,1.17-2.27,2.04-3.16.87-.89,1.9-1.59,3.1-2.1s2.51-.76,3.92-.76c1.68,0,3.1.29,4.26.88,1.16.59,2.11,1.35,2.86,2.3.75.95,1.29,2.01,1.62,3.2.33,1.19.5,2.39.5,3.62v1.28h-15.2Zm11.36-2.88c-.03-.8-.15-1.53-.38-2.2-.23-.67-.57-1.25-1.02-1.74-.45-.49-1.02-.88-1.7-1.16-.68-.28-1.47-.42-2.38-.42s-1.69.17-2.42.5c-.73.33-1.35.77-1.86,1.3-.51.53-.9,1.13-1.18,1.78-.28.65-.42,1.3-.42,1.94h11.36Z"/><path class="cls-1" d="m337.44,487.66h3.6v30.24h-3.6v-30.24Z"/><path class="cls-1" d="m349.48,509.74c0,.83.18,1.58.54,2.26.36.68.83,1.26,1.42,1.74.59.48,1.27.85,2.04,1.12.77.27,1.57.4,2.4.4,1.12,0,2.09-.26,2.92-.78.83-.52,1.59-1.21,2.28-2.06l2.72,2.08c-2,2.59-4.8,3.88-8.4,3.88-1.49,0-2.85-.25-4.06-.76-1.21-.51-2.24-1.21-3.08-2.1-.84-.89-1.49-1.95-1.94-3.16-.45-1.21-.68-2.53-.68-3.94s.25-2.73.74-3.94c.49-1.21,1.17-2.27,2.04-3.16.87-.89,1.9-1.59,3.1-2.1s2.51-.76,3.92-.76c1.68,0,3.1.29,4.26.88,1.16.59,2.11,1.35,2.86,2.3.75.95,1.29,2.01,1.62,3.2.33,1.19.5,2.39.5,3.62v1.28h-15.2Zm11.36-2.88c-.03-.8-.15-1.53-.38-2.2-.23-.67-.57-1.25-1.02-1.74-.45-.49-1.02-.88-1.7-1.16-.68-.28-1.47-.42-2.38-.42s-1.69.17-2.42.5c-.73.33-1.35.77-1.86,1.3-.51.53-.9,1.13-1.18,1.78-.28.65-.42,1.3-.42,1.94h11.36Z"/><path class="cls-1" d="m379.08,503.7c-.43-.53-.95-.98-1.58-1.34-.63-.36-1.39-.54-2.3-.54-.85,0-1.59.18-2.22.54-.63.36-.94.89-.94,1.58,0,.56.18,1.01.54,1.36.36.35.79.63,1.28.84.49.21,1.02.37,1.58.48.56.11,1.04.2,1.44.28.77.19,1.5.41,2.18.68.68.27,1.27.61,1.76,1.04.49.43.88.95,1.16,1.56.28.61.42,1.36.42,2.24,0,1.07-.23,1.98-.68,2.74-.45.76-1.04,1.38-1.76,1.86-.72.48-1.54.83-2.46,1.04-.92.21-1.85.32-2.78.32-1.57,0-2.95-.24-4.14-.72-1.19-.48-2.25-1.36-3.18-2.64l2.72-2.24c.59.59,1.24,1.11,1.96,1.56.72.45,1.6.68,2.64.68.45,0,.91-.05,1.38-.14.47-.09.88-.24,1.24-.44s.65-.45.88-.76c.23-.31.34-.66.34-1.06,0-.53-.17-.97-.5-1.32s-.73-.62-1.2-.82c-.47-.2-.96-.36-1.48-.48-.52-.12-.98-.22-1.38-.3-.77-.19-1.51-.4-2.2-.64-.69-.24-1.31-.56-1.84-.96-.53-.4-.96-.91-1.28-1.52-.32-.61-.48-1.37-.48-2.28,0-.99.21-1.85.62-2.58.41-.73.96-1.34,1.64-1.82.68-.48,1.45-.84,2.32-1.08.87-.24,1.74-.36,2.62-.36,1.28,0,2.51.24,3.68.72,1.17.48,2.11,1.28,2.8,2.4l-2.8,2.12Z"/><path class="cls-1" d="m408.04,502.06h-5.16v8.6c0,.53.01,1.06.04,1.58.03.52.13.99.3,1.4.17.41.44.75.8,1,.36.25.89.38,1.58.38.43,0,.87-.04,1.32-.12.45-.08.87-.23,1.24-.44v3.28c-.43.24-.98.41-1.66.5-.68.09-1.21.14-1.58.14-1.39,0-2.46-.19-3.22-.58-.76-.39-1.32-.89-1.68-1.5-.36-.61-.57-1.3-.64-2.06-.07-.76-.1-1.53-.1-2.3v-9.88h-4.16v-3.12h4.16v-5.32h3.6v5.32h5.16v3.12Z"/><path class="cls-1" d="m412.68,498.94h3.6v2.92h.08c.24-.51.56-.97.96-1.38.4-.41.85-.77,1.34-1.06.49-.29,1.03-.53,1.62-.7.59-.17,1.17-.26,1.76-.26s1.12.08,1.6.24l-.16,3.88c-.29-.08-.59-.15-.88-.2-.29-.05-.59-.08-.88-.08-1.76,0-3.11.49-4.04,1.48-.93.99-1.4,2.52-1.4,4.6v9.52h-3.6v-18.96Z"/><path class="cls-1" d="m427.56,501.26c1.01-.93,2.19-1.63,3.52-2.1,1.33-.47,2.67-.7,4-.7s2.58.17,3.58.52,1.82.81,2.46,1.4c.64.59,1.11,1.26,1.42,2.02s.46,1.55.46,2.38v9.68c0,.67.01,1.28.04,1.84.03.56.07,1.09.12,1.6h-3.2c-.08-.96-.12-1.92-.12-2.88h-.08c-.8,1.23-1.75,2.09-2.84,2.6-1.09.51-2.36.76-3.8.76-.88,0-1.72-.12-2.52-.36-.8-.24-1.5-.6-2.1-1.08-.6-.48-1.07-1.07-1.42-1.78-.35-.71-.52-1.53-.52-2.46,0-1.23.27-2.25.82-3.08.55-.83,1.29-1.5,2.24-2.02.95-.52,2.05-.89,3.32-1.12,1.27-.23,2.62-.34,4.06-.34h2.64v-.8c0-.48-.09-.96-.28-1.44-.19-.48-.47-.91-.84-1.3s-.84-.69-1.4-.92-1.23-.34-2-.34c-.69,0-1.3.07-1.82.2-.52.13-.99.3-1.42.5-.43.2-.81.43-1.16.7-.35.27-.68.52-1,.76l-2.16-2.24Zm10.16,7.52c-.85,0-1.73.05-2.62.14-.89.09-1.71.27-2.44.54-.73.27-1.33.64-1.8,1.12-.47.48-.7,1.09-.7,1.84,0,1.09.37,1.88,1.1,2.36.73.48,1.73.72,2.98.72.99,0,1.83-.17,2.52-.5.69-.33,1.25-.77,1.68-1.3.43-.53.73-1.13.92-1.78.19-.65.28-1.3.28-1.94v-1.2h-1.92Z"/><path class="cls-1" d="m461.8,503.98c-.67-.69-1.37-1.22-2.1-1.58s-1.61-.54-2.62-.54-1.85.18-2.58.54c-.73.36-1.35.85-1.84,1.48-.49.63-.87,1.35-1.12,2.16-.25.81-.38,1.66-.38,2.54s.15,1.71.44,2.5c.29.79.71,1.47,1.24,2.06.53.59,1.17,1.05,1.92,1.38.75.33,1.59.5,2.52.5,1.01,0,1.88-.18,2.6-.54.72-.36,1.39-.89,2-1.58l2.56,2.56c-.93,1.04-2.02,1.79-3.26,2.24s-2.55.68-3.94.68c-1.47,0-2.81-.24-4.02-.72-1.21-.48-2.26-1.15-3.14-2.02-.88-.87-1.56-1.91-2.04-3.12-.48-1.21-.72-2.55-.72-4.02s.24-2.81.72-4.04c.48-1.23,1.15-2.28,2.02-3.16.87-.88,1.91-1.57,3.12-2.06,1.21-.49,2.57-.74,4.06-.74,1.39,0,2.71.25,3.98.74,1.27.49,2.37,1.25,3.3,2.26l-2.72,2.48Z"/><path class="cls-1" d="m470.24,509.74c0,.83.18,1.58.54,2.26.36.68.83,1.26,1.42,1.74.59.48,1.27.85,2.04,1.12.77.27,1.57.4,2.4.4,1.12,0,2.09-.26,2.92-.78.83-.52,1.59-1.21,2.28-2.06l2.72,2.08c-2,2.59-4.8,3.88-8.4,3.88-1.49,0-2.85-.25-4.06-.76-1.21-.51-2.24-1.21-3.08-2.1s-1.49-1.95-1.94-3.16c-.45-1.21-.68-2.53-.68-3.94s.25-2.73.74-3.94c.49-1.21,1.17-2.27,2.04-3.16.87-.89,1.9-1.59,3.1-2.1,1.2-.51,2.51-.76,3.92-.76,1.68,0,3.1.29,4.26.88s2.11,1.35,2.86,2.3c.75.95,1.29,2.01,1.62,3.2s.5,2.39.5,3.62v1.28h-15.2Zm11.36-2.88c-.03-.8-.15-1.53-.38-2.2-.23-.67-.57-1.25-1.02-1.74-.45-.49-1.02-.88-1.7-1.16-.68-.28-1.47-.42-2.38-.42s-1.69.17-2.42.5c-.73.33-1.35.77-1.86,1.3-.51.53-.9,1.13-1.18,1.78-.28.65-.42,1.3-.42,1.94h11.36Z"/><path class="cls-1" d="m499.84,503.7c-.43-.53-.95-.98-1.58-1.34s-1.39-.54-2.3-.54c-.85,0-1.59.18-2.22.54-.63.36-.94.89-.94,1.58,0,.56.18,1.01.54,1.36.36.35.79.63,1.28.84.49.21,1.02.37,1.58.48.56.11,1.04.2,1.44.28.77.19,1.5.41,2.18.68.68.27,1.27.61,1.76,1.04.49.43.88.95,1.16,1.56s.42,1.36.42,2.24c0,1.07-.23,1.98-.68,2.74-.45.76-1.04,1.38-1.76,1.86-.72.48-1.54.83-2.46,1.04s-1.85.32-2.78.32c-1.57,0-2.95-.24-4.14-.72-1.19-.48-2.25-1.36-3.18-2.64l2.72-2.24c.59.59,1.24,1.11,1.96,1.56s1.6.68,2.64.68c.45,0,.91-.05,1.38-.14.47-.09.88-.24,1.24-.44.36-.2.65-.45.88-.76.23-.31.34-.66.34-1.06,0-.53-.17-.97-.5-1.32-.33-.35-.73-.62-1.2-.82-.47-.2-.96-.36-1.48-.48-.52-.12-.98-.22-1.38-.3-.77-.19-1.51-.4-2.2-.64s-1.31-.56-1.84-.96c-.53-.4-.96-.91-1.28-1.52-.32-.61-.48-1.37-.48-2.28,0-.99.21-1.85.62-2.58.41-.73.96-1.34,1.64-1.82.68-.48,1.45-.84,2.32-1.08.87-.24,1.74-.36,2.62-.36,1.28,0,2.51.24,3.68.72,1.17.48,2.11,1.28,2.8,2.4l-2.8,2.12Z"/><path class="cls-1" d="m537.64,517.9h-3.6v-2.72h-.08c-.69,1.01-1.65,1.8-2.86,2.36-1.21.56-2.46.84-3.74.84-1.47,0-2.79-.25-3.98-.76-1.19-.51-2.2-1.21-3.04-2.12-.84-.91-1.49-1.96-1.94-3.16-.45-1.2-.68-2.51-.68-3.92s.23-2.73.68-3.94c.45-1.21,1.1-2.27,1.94-3.16.84-.89,1.85-1.59,3.04-2.1s2.51-.76,3.98-.76c1.36,0,2.64.29,3.84.86,1.2.57,2.12,1.35,2.76,2.34h.08v-14h3.6v30.24Zm-9.84-2.88c.96,0,1.83-.17,2.6-.5.77-.33,1.43-.79,1.96-1.36.53-.57.95-1.27,1.24-2.08.29-.81.44-1.7.44-2.66s-.15-1.85-.44-2.66-.71-1.51-1.24-2.08c-.53-.57-1.19-1.03-1.96-1.36-.77-.33-1.64-.5-2.6-.5s-1.83.17-2.6.5c-.77.33-1.43.79-1.96,1.36-.53.57-.95,1.27-1.24,2.08-.29.81-.44,1.7-.44,2.66s.15,1.85.44,2.66c.29.81.71,1.51,1.24,2.08.53.57,1.19,1.03,1.96,1.36.77.33,1.64.5,2.6.5Z"/><path class="cls-1" d="m559.88,517.9h-3.6v-2.92h-.08c-.45,1.01-1.24,1.83-2.36,2.46-1.12.63-2.41.94-3.88.94-.93,0-1.81-.14-2.64-.42-.83-.28-1.55-.71-2.18-1.3-.63-.59-1.13-1.34-1.5-2.26-.37-.92-.56-2.01-.56-3.26v-12.2h3.6v11.2c0,.88.12,1.63.36,2.26.24.63.56,1.13.96,1.52.4.39.86.67,1.38.84.52.17,1.06.26,1.62.26.75,0,1.44-.12,2.08-.36.64-.24,1.2-.62,1.68-1.14.48-.52.85-1.18,1.12-1.98.27-.8.4-1.75.4-2.84v-9.76h3.6v18.96Z"/><path class="cls-1" d="m586.6,502.06h-5.16v8.6c0,.53.01,1.06.04,1.58.03.52.13.99.3,1.4.17.41.44.75.8,1,.36.25.89.38,1.58.38.43,0,.87-.04,1.32-.12s.87-.23,1.24-.44v3.28c-.43.24-.98.41-1.66.5s-1.21.14-1.58.14c-1.39,0-2.46-.19-3.22-.58-.76-.39-1.32-.89-1.68-1.5-.36-.61-.57-1.3-.64-2.06s-.1-1.53-.1-2.3v-9.88h-4.16v-3.12h4.16v-5.32h3.6v5.32h5.16v3.12Z"/><path class="cls-1" d="m593.96,509.74c0,.83.18,1.58.54,2.26.36.68.83,1.26,1.42,1.74.59.48,1.27.85,2.04,1.12.77.27,1.57.4,2.4.4,1.12,0,2.09-.26,2.92-.78.83-.52,1.59-1.21,2.28-2.06l2.72,2.08c-2,2.59-4.8,3.88-8.4,3.88-1.49,0-2.85-.25-4.06-.76-1.21-.51-2.24-1.21-3.08-2.1s-1.49-1.95-1.94-3.16c-.45-1.21-.68-2.53-.68-3.94s.25-2.73.74-3.94c.49-1.21,1.17-2.27,2.04-3.16.87-.89,1.9-1.59,3.1-2.1,1.2-.51,2.51-.76,3.92-.76,1.68,0,3.1.29,4.26.88s2.11,1.35,2.86,2.3c.75.95,1.29,2.01,1.62,3.2s.5,2.39.5,3.62v1.28h-15.2Zm11.36-2.88c-.03-.8-.15-1.53-.38-2.2-.23-.67-.57-1.25-1.02-1.74-.45-.49-1.02-.88-1.7-1.16-.68-.28-1.47-.42-2.38-.42s-1.69.17-2.42.5c-.73.33-1.35.77-1.86,1.3-.51.53-.9,1.13-1.18,1.78-.28.65-.42,1.3-.42,1.94h11.36Z"/><path class="cls-1" d="m613.48,498.94h3.36v2.96h.08c.08-.27.29-.6.62-1,.33-.4.76-.78,1.28-1.14.52-.36,1.13-.67,1.84-.92.71-.25,1.49-.38,2.34-.38,1.41,0,2.6.29,3.56.88s1.75,1.47,2.36,2.64c.61-1.17,1.48-2.05,2.6-2.64s2.25-.88,3.4-.88c1.47,0,2.67.24,3.6.72.93.48,1.67,1.11,2.2,1.9.53.79.9,1.68,1.1,2.68.2,1,.3,2.03.3,3.1v11.04h-3.6v-10.56c0-.72-.05-1.41-.14-2.08-.09-.67-.29-1.25-.58-1.76-.29-.51-.71-.91-1.24-1.22-.53-.31-1.24-.46-2.12-.46-1.73,0-2.97.53-3.72,1.6-.75,1.07-1.12,2.44-1.12,4.12v10.36h-3.6v-9.92c0-.91-.05-1.73-.14-2.48-.09-.75-.28-1.39-.56-1.94s-.68-.97-1.2-1.28c-.52-.31-1.22-.46-2.1-.46-.64,0-1.26.13-1.86.38-.6.25-1.13.63-1.58,1.14s-.81,1.15-1.08,1.94c-.27.79-.4,1.71-.4,2.78v9.84h-3.6v-18.96Z"/><path class="cls-1" d="m647.56,498.94h3.6v2.72h.08c.69-1.01,1.65-1.8,2.86-2.36,1.21-.56,2.46-.84,3.74-.84,1.47,0,2.79.25,3.98.76,1.19.51,2.2,1.21,3.04,2.12.84.91,1.49,1.97,1.94,3.18.45,1.21.68,2.51.68,3.9s-.23,2.73-.68,3.94c-.45,1.21-1.1,2.27-1.94,3.16-.84.89-1.85,1.59-3.04,2.1-1.19.51-2.51.76-3.98.76-1.36,0-2.64-.29-3.84-.86s-2.12-1.35-2.76-2.34h-.08v14h-3.6v-30.24Zm9.84,2.88c-.96,0-1.83.17-2.6.5-.77.33-1.43.79-1.96,1.36-.53.57-.95,1.27-1.24,2.08-.29.81-.44,1.7-.44,2.66s.15,1.85.44,2.66c.29.81.71,1.51,1.24,2.08.53.57,1.19,1.03,1.96,1.36.77.33,1.64.5,2.6.5s1.83-.17,2.6-.5c.77-.33,1.43-.79,1.96-1.36.53-.57.95-1.27,1.24-2.08.29-.81.44-1.7.44-2.66s-.15-1.85-.44-2.66c-.29-.81-.71-1.51-1.24-2.08-.53-.57-1.19-1.03-1.96-1.36-.77-.33-1.64-.5-2.6-.5Z"/><path class="cls-1" d="m682.08,503.7c-.43-.53-.95-.98-1.58-1.34s-1.39-.54-2.3-.54c-.85,0-1.59.18-2.22.54-.63.36-.94.89-.94,1.58,0,.56.18,1.01.54,1.36.36.35.79.63,1.28.84.49.21,1.02.37,1.58.48.56.11,1.04.2,1.44.28.77.19,1.5.41,2.18.68.68.27,1.27.61,1.76,1.04.49.43.88.95,1.16,1.56s.42,1.36.42,2.24c0,1.07-.23,1.98-.68,2.74-.45.76-1.04,1.38-1.76,1.86-.72.48-1.54.83-2.46,1.04s-1.85.32-2.78.32c-1.57,0-2.95-.24-4.14-.72-1.19-.48-2.25-1.36-3.18-2.64l2.72-2.24c.59.59,1.24,1.11,1.96,1.56s1.6.68,2.64.68c.45,0,.91-.05,1.38-.14.47-.09.88-.24,1.24-.44.36-.2.65-.45.88-.76.23-.31.34-.66.34-1.06,0-.53-.17-.97-.5-1.32-.33-.35-.73-.62-1.2-.82-.47-.2-.96-.36-1.48-.48-.52-.12-.98-.22-1.38-.3-.77-.19-1.51-.4-2.2-.64s-1.31-.56-1.84-.96c-.53-.4-.96-.91-1.28-1.52-.32-.61-.48-1.37-.48-2.28,0-.99.21-1.85.62-2.58.41-.73.96-1.34,1.64-1.82.68-.48,1.45-.84,2.32-1.08.87-.24,1.74-.36,2.62-.36,1.28,0,2.51.24,3.68.72,1.17.48,2.11,1.28,2.8,2.4l-2.8,2.12Z"/></g></svg>