<?xml version="1.0" encoding="UTF-8"?><svg id="Calque_1" xmlns="http://www.w3.org/2000/svg" viewBox="0 0 800 800"><defs><style>.cls-1,.cls-2{fill:#1370da;}.cls-3{letter-spacing:-.02em;}.cls-2{font-family:Avenir-Medium, Avenir;font-size:30px;font-weight:500;}</style></defs><g><path class="cls-1" d="m169.62,308.51c7.41-.13,12.35-1.56,13.13-8.19l5.59-46.02c.91-7.15-2.6-11.7-8.06-10.66-5.46,1.04-10.14,10.92-12.09,14.95l-15.73,32.24c-4.16,8.58-11.44,10.27-16.25,10.27-7.67,0-13.91-6.37-13.91-14.43,0-5.59,3.9-10.66,9.88-15.47l26.13-20.8c11.31-8.97,15.99-12.35,24.44-12.35,7.8,0,13.13,5.59,14.82,14.43l11.83,62.53c2.73,14.56-1.69,25.74-15.08,25.74-10.66,0-15.73-6.76-15.73-14.69v-6.76c0-7.15-3.77-8.06-8.32-4.16l-12.74,10.92c-5.98,5.07-15.6,14.69-26.26,14.69-7.54,0-15.99-4.29-15.99-16.51,0-10.4,9.36-14.69,20.8-14.95l33.54-.78Z"/><path class="cls-1" d="m231.37,258.59c1.95-13.91,7.15-20.54,15.99-20.54,7.41,0,15.73,4.94,15.73,14.82,0,3.38-1.04,7.41-3.51,12.09l-27.43,50.96c-2.21,4.03-3.77,7.54-3.77,10.14,0,3.38,2.86,5.59,5.07,5.59,2.73,0,6.5-2.86,13.13-7.93l11.96-9.23c4.94-3.77,9.49-5.33,13.39-5.33,8.58,0,14.3,7.41,14.3,14.82s-5.59,14.82-19.24,14.82h-25.87c-14.17,0-17.94-4.81-17.94-18.2,0-2.08.13-4.42.52-7.02l7.67-54.99Z"/><path class="cls-1" d="m299.49,259.5l14.69-16.9c2.73-3.12,6.5-4.55,10.27-4.55,6.63,0,13,4.55,13,12.35,0,7.28-4.42,10.66-10.66,12.87l-14.3,4.94c-1.69.52-2.47,1.69-2.47,2.99,0,2.21,2.21,2.21,3.38,2.08l8.84-1.04c13.13-1.56,17.55,9.49,8.97,19.37l-24.83,28.34c-2.08,2.34-2.73,3.38-2.73,4.68,0,2.6,2.21,4.81,4.68,3.77l15.6-6.76c5.46-2.34,11.83-1.56,12.61,5.98.91,8.71-9.49,13.13-19.5,13.13-14.82,0-21.71-9.88-18.2-22.88l10.53-38.48c.26-.91.39-1.69.39-2.34,0-2.99-2.34-4.03-6.5-4.03h-5.59c-3.25,0-4.29-1.82-4.29-4.16,0-2.08,2.86-5.59,6.11-9.36Z"/><path class="cls-1" d="m389.44,269.64c4.94,6.24,4.42,13.13-3.51,18.46l-20.93,14.3c-9.75,6.63-1.17,22.49,8.84,16.51l54.99-32.76c12.48-7.41,21.84-2.99,22.36,7.67l1.3,27.3c.65,14.04-5.72,19.63-15.34,19.63s-17.29-10.01-8.71-23.14l13.91-21.45c2.73-4.16-.52-7.15-3.38-7.15-2.47,0-4.42.26-9.1,6.5l-21.32,27.82c-10.01,13.13-15.47,17.42-27.17,17.42-15.34,0-29.64-16.64-29.64-49.53s20.41-53.17,49.92-53.17c24.7,0,41.08,8.06,45.11,21.84,3.64,12.22-14.17,19.89-22.36,9.1l-14.43-18.98c-4.29-5.59-12.74-8.32-20.54-4.94-9.1,3.9-8.58,13.78-3.77,19.76l3.77,4.81Z"/><path class="cls-1" d="m468.09,308.9v-35.1c0-29.25,6.11-35.75,20.02-35.75,10.27,0,15.99,8.06,23.79,20.28l30.81,48.23c3.12,4.94,4.94,6.76,7.28,6.76,3.25,0,4.81-1.43,4.81-4.29,0-2.34-1.04-5.33-2.73-9.62l-11.96-30.81c-3.25-8.32-2.99-12.48-2.99-15.6,0-6.63,3.38-15.08,14.3-15.08,12.87,0,16.77,12.48,15.47,24.44l-6.63,60.19c-1.43,12.48-5.72,18.2-14.17,18.2-7.93,0-11.96-5.59-21.19-18.33l-21.58-29.9c-5.2-7.15-10.66-18.72-8.97-29.51l1.17-7.41c1.04-6.63-2.99-10.01-7.67-10.01-7.28,0-11.57,5.46-11.57,12.87,0,3.64,1.17,9.49,2.34,12.35l17.68,43.29c5.85,14.43,3.25,26.65-10.79,26.65-17.03,0-17.42-13-17.42-31.85Z"/><path class="cls-1" d="m605.11,253.78c-7.54-.65-10.92,2.86-10.92,6.5s2.99,6.37,10.92,7.41l46.54,5.72c9.88,1.17,13.26,7.15,13.26,13.39,0,4.81-1.82,10.92-13.26,14.56l-50.7,16.12c-6.11,1.95-7.15,4.55-7.15,7.8,0,2.86,3.51,8.19,9.88,5.98l53.17-18.59c11.18-3.9,17.03-.78,17.42,7.02.39,7.41-3.25,11.57-10.14,14.82-7.54,3.51-27.04,6.5-44.46,6.37-17.29,0-32.89-3.9-32.89-16.9,0-4.81,3.25-9.49,9.1-13.65l38.74-26.91c5.2-3.64,2.6-8.45-3.38-5.98l-26,10.66c-12.74,5.2-23.79-1.04-23.79-12.87,0-23.66,28.34-37.05,61.62-37.05,23.27,0,31.2,5.33,31.2,13.52,0,4.16-2.21,8.06-11.96,7.15l-57.2-5.07Z"/><path class="cls-1" d="m114.69,416.83c2.87,7.63,1.33,13.02-6.16,13.02-6.72,0-8.12-3.85-8.26-11.27l-.77-34.23c-.07-4.41-.84-6.23-2.73-6.23-2.38,0-3.08,2.31-3.08,5.39v3.08c0,9.66-2.03,14.28-8.4,14.07-4.48-.14-7.84-3.99-7.84-8.33,0-9.73,7.7-16.73,20.37-16.73h23.94c7.28,0,9.59,4.2,9.59,7.77,0,8.05-10.36,12.11-16.8,4.97l-7.84-8.75c-.7-.77-1.47-1.12-2.1-1.12-1.89,0-2.59,1.61-1.19,5.6l11.27,32.76Z"/><path class="cls-1" d="m146.54,383.01c-4.06-.35-5.88,1.54-5.88,3.5s1.61,3.43,5.88,3.99l25.06,3.08c5.32.63,7.14,3.85,7.14,7.21,0,2.59-.98,5.88-7.14,7.84l-27.3,8.68c-3.29,1.05-3.85,2.45-3.85,4.2,0,1.54,1.89,4.41,5.32,3.22l28.63-10.01c6.02-2.1,9.17-.42,9.38,3.78.21,3.99-1.75,6.23-5.46,7.98-4.06,1.89-14.56,3.5-23.94,3.43-9.31,0-17.71-2.1-17.71-9.1,0-2.59,1.75-5.11,4.9-7.35l20.86-14.49c2.8-1.96,1.4-4.55-1.82-3.22l-14,5.74c-6.86,2.8-12.81-.56-12.81-6.93,0-12.74,15.26-19.95,33.18-19.95,12.53,0,16.8,2.87,16.8,7.28,0,2.24-1.19,4.34-6.44,3.85l-30.8-2.73Z"/><path class="cls-1" d="m243.07,391.62c0,3.85-1.54,8.33-5.74,8.33-3.36,0-5.46-2.87-5.46-5.81v-11.9c0-3.36-2.1-5.11-6.3-3.08l-24.5,11.83c-2.94,1.4-5.46,2.52-4.76,5.11.7,2.59,2.87,2.94,5.25,1.82l14.84-6.86c6.65-3.08,11.2,1.4,11.34,6.44l.07,2.66c.07,2.59,1.19,2.94,3.99,3.57l4.41,1.05c2.87.7,4.76,3.5,4.76,6.37,0,12.18-12.46,18.83-24.78,18.83s-24.08-5.18-24.08-17.78c0-4.97,1.89-8.4,6.02-8.4,2.73,0,6.86,2.66,3.08,8.33l-3.08,4.62c-.84,1.26-.63,2.52.07,3.01,1.12.77,2.59.7,4.9.21l30.17-6.51c3.01-.63,3.71-1.96,3.5-3.43-.21-1.54-1.12-2.17-3.36-2.59l-35.63-6.44c-3.99-.7-5.95-3.5-5.95-6.86,0-9.73,12.67-19.53,28.7-19.53s22.54,8.89,22.54,17.01Z"/><path class="cls-1" d="m306.21,375.59c15.33,0,22.12,7.56,22.12,21.77,0,10.5-4.41,18.41-14.98,18.41-6.02,0-10.15-2.45-14.84-8.61l-8.05-10.57c-1.75-2.24-5.04-2.38-7.21,0-1.89,2.1-1.54,5.18.28,7.21l8.61,9.66c2.87,3.29,4.06,5.95,4.06,9.38,0,4.9-3.01,7-8.4,7-4.83,0-9.24-1.61-9.24-10.43v-30.17c0-7.84,4.27-13.65,13.37-13.65h14.28Zm-14.91,17.64l24.29,12.32c7.07,3.57,10.99-.91,7.35-6.09l-10.64-15.26c-2.52-3.57-3.78-3.92-7.56-2.38l-12.95,5.32c-1.82.77-2.94,1.47-2.94,2.94,0,1.19.7,2.24,2.45,3.15Z"/><path class="cls-1" d="m339.03,385.61c1.05-7.49,3.85-11.06,8.61-11.06,3.99,0,8.47,2.66,8.47,7.98,0,1.82-.56,3.99-1.89,6.51l-14.77,27.44c-1.19,2.17-2.03,4.06-2.03,5.46,0,1.82,1.54,3.01,2.73,3.01,1.47,0,3.5-1.54,7.07-4.27l6.44-4.97c2.66-2.03,5.11-2.87,7.21-2.87,4.62,0,7.7,3.99,7.7,7.98s-3.01,7.98-10.36,7.98h-13.93c-7.63,0-9.66-2.59-9.66-9.8,0-1.12.07-2.38.28-3.78l4.13-29.61Z"/><path class="cls-1" d="m403.09,412.49c3.99-.07,6.65-.84,7.07-4.41l3.01-24.78c.49-3.85-1.4-6.3-4.34-5.74-2.94.56-5.46,5.88-6.51,8.05l-8.47,17.36c-2.24,4.62-6.16,5.53-8.75,5.53-4.13,0-7.49-3.43-7.49-7.77,0-3.01,2.1-5.74,5.32-8.33l14.07-11.2c6.09-4.83,8.61-6.65,13.16-6.65,4.2,0,7.07,3.01,7.98,7.77l6.37,33.67c1.47,7.84-.91,13.86-8.12,13.86-5.74,0-8.47-3.64-8.47-7.91v-3.64c0-3.85-2.03-4.34-4.48-2.24l-6.86,5.88c-3.22,2.73-8.4,7.91-14.14,7.91-4.06,0-8.61-2.31-8.61-8.89,0-5.6,5.04-7.91,11.2-8.05l18.06-.42Z"/><path class="cls-1" d="m431.92,412.7v-18.9c0-15.75,3.29-19.25,10.78-19.25,5.53,0,8.61,4.34,12.81,10.92l16.59,25.97c1.68,2.66,2.66,3.64,3.92,3.64,1.75,0,2.59-.77,2.59-2.31,0-1.26-.56-2.87-1.47-5.18l-6.44-16.59c-1.75-4.48-1.61-6.72-1.61-8.4,0-3.57,1.82-8.12,7.7-8.12,6.93,0,9.03,6.72,8.33,13.16l-3.57,32.41c-.77,6.72-3.08,9.8-7.63,9.8-4.27,0-6.44-3.01-11.41-9.87l-11.62-16.1c-2.8-3.85-5.74-10.08-4.83-15.89l.63-3.99c.56-3.57-1.61-5.39-4.13-5.39-3.92,0-6.23,2.94-6.23,6.93,0,1.96.63,5.11,1.26,6.65l9.52,23.31c3.15,7.77,1.75,14.35-5.81,14.35-9.17,0-9.38-7-9.38-17.15Z"/><path class="cls-1" d="m505.7,383.01c-4.06-.35-5.88,1.54-5.88,3.5s1.61,3.43,5.88,3.99l25.06,3.08c5.32.63,7.14,3.85,7.14,7.21,0,2.59-.98,5.88-7.14,7.84l-27.3,8.68c-3.29,1.05-3.85,2.45-3.85,4.2,0,1.54,1.89,4.41,5.32,3.22l28.63-10.01c6.02-2.1,9.17-.42,9.38,3.78.21,3.99-1.75,6.23-5.46,7.98-4.06,1.89-14.56,3.5-23.94,3.43-9.31,0-17.71-2.1-17.71-9.1,0-2.59,1.75-5.11,4.9-7.35l20.86-14.49c2.8-1.96,1.4-4.55-1.82-3.22l-14,5.74c-6.86,2.8-12.81-.56-12.81-6.93,0-12.74,15.26-19.95,33.18-19.95,12.53,0,16.8,2.87,16.8,7.28,0,2.24-1.19,4.34-6.44,3.85l-30.8-2.73Zm8.19-12.95c-3.99-.77-4.97-3.43-4.13-6.16.98-3.29,5.18-4.34,7.98-2.03l10.22,8.4c.91.77.21,2.52-1.26,2.24l-12.81-2.45Z"/><path class="cls-1" d="m584.73,416.83c2.87,7.63,1.33,13.02-6.16,13.02-6.72,0-8.12-3.85-8.26-11.27l-.77-34.23c-.07-4.41-.84-6.23-2.73-6.23-2.38,0-3.08,2.31-3.08,5.39v3.08c0,9.66-2.03,14.28-8.4,14.07-4.48-.14-7.84-3.99-7.84-8.33,0-9.73,7.7-16.73,20.37-16.73h23.94c7.28,0,9.59,4.2,9.59,7.77,0,8.05-10.36,12.11-16.8,4.97l-7.84-8.75c-.7-.77-1.47-1.12-2.1-1.12-1.89,0-2.59,1.61-1.19,5.6l11.27,32.76Z"/><path class="cls-1" d="m616.58,383.01c-4.06-.35-5.88,1.54-5.88,3.5s1.61,3.43,5.88,3.99l25.06,3.08c5.32.63,7.14,3.85,7.14,7.21,0,2.59-.98,5.88-7.14,7.84l-27.3,8.68c-3.29,1.05-3.85,2.45-3.85,4.2,0,1.54,1.89,4.41,5.32,3.22l28.63-10.01c6.02-2.1,9.17-.42,9.38,3.78.21,3.99-1.75,6.23-5.46,7.98-4.06,1.89-14.56,3.5-23.94,3.43-9.31,0-17.71-2.1-17.71-9.1,0-2.59,1.75-5.11,4.9-7.35l20.86-14.49c2.8-1.96,1.4-4.55-1.82-3.22l-14,5.74c-6.86,2.8-12.81-.56-12.81-6.93,0-12.74,15.26-19.95,33.18-19.95,12.53,0,16.8,2.87,16.8,7.28,0,2.24-1.19,4.34-6.44,3.85l-30.8-2.73Z"/><path class="cls-1" d="m713.12,391.62c0,3.85-1.54,8.33-5.74,8.33-3.36,0-5.46-2.87-5.46-5.81v-11.9c0-3.36-2.1-5.11-6.3-3.08l-24.5,11.83c-2.94,1.4-5.46,2.52-4.76,5.11.7,2.59,2.87,2.94,5.25,1.82l14.84-6.86c6.65-3.08,11.2,1.4,11.34,6.44l.07,2.66c.07,2.59,1.19,2.94,3.99,3.57l4.41,1.05c2.87.7,4.76,3.5,4.76,6.37,0,12.18-12.46,18.83-24.78,18.83s-24.08-5.18-24.08-17.78c0-4.97,1.89-8.4,6.02-8.4,2.73,0,6.86,2.66,3.08,8.33l-3.08,4.62c-.84,1.26-.63,2.52.07,3.01,1.12.77,2.59.7,4.9.21l30.17-6.51c3.01-.63,3.71-1.96,3.5-3.43-.21-1.54-1.12-2.17-3.36-2.59l-35.63-6.44c-3.99-.7-5.95-3.5-5.95-6.86,0-9.73,12.67-19.53,28.7-19.53s22.54,8.89,22.54,17.01Z"/></g><text class="cls-2" transform="translate(82.23 493.56)"><tspan x="0" y="0">2022 - Système de communication autour des </tspan><tspan x="67.59" y="36">24 fo</tspan><tspan class="cls-3" x="137.1" y="36">r</tspan><tspan x="147.66" y="36">ces de la psychologie positive </tspan></text></svg>