<?xml version="1.0" encoding="UTF-8"?><svg id="Calque_1" xmlns="http://www.w3.org/2000/svg" viewBox="0 0 800 800"><defs><style>.cls-1,.cls-2{fill:#ff8bb2;}.cls-2{font-family:Bagnard, Bagnard;font-size:110px;}</style></defs><text class="cls-2" transform="translate(51.82 378.45)"><tspan x="0" y="0">Les Essentiels</tspan></text><g><path class="cls-1" d="m116.43,427.5l8.52-8.46c.3-.28.59-.59.87-.92.28-.33.53-.68.75-1.04.22-.36.39-.74.52-1.14.13-.4.2-.82.2-1.26,0-.52-.1-.99-.29-1.41-.19-.42-.45-.77-.78-1.06-.33-.29-.72-.51-1.17-.67-.45-.16-.93-.24-1.42-.24-1.04,0-1.9.29-2.58.87-.68.58-1.11,1.38-1.29,2.4l-3.12-.27c.14-.94.42-1.75.83-2.45.41-.69.92-1.26,1.53-1.72.61-.46,1.31-.8,2.1-1.02.79-.22,1.65-.33,2.56-.33s1.79.12,2.6.38c.81.25,1.52.62,2.13,1.11.61.49,1.09,1.1,1.44,1.83.35.73.52,1.58.52,2.56,0,.7-.1,1.36-.31,1.97s-.48,1.18-.82,1.72c-.34.54-.73,1.05-1.17,1.53-.44.48-.9.95-1.38,1.41l-6.99,6.75h10.68v2.52h-13.92v-3.06Z"/><path class="cls-1" d="m132.75,419.94c0-.78.04-1.59.12-2.43.08-.84.23-1.67.44-2.48.21-.81.49-1.58.84-2.32.35-.74.8-1.38,1.35-1.94.55-.55,1.2-.99,1.95-1.32.75-.33,1.62-.49,2.62-.49s1.88.17,2.62.49c.75.33,1.4.77,1.95,1.32.55.55,1,1.2,1.35,1.94.35.74.63,1.51.84,2.32.21.81.35,1.64.44,2.48.08.84.12,1.65.12,2.43,0,1.12-.1,2.32-.3,3.6-.2,1.28-.57,2.47-1.11,3.57-.54,1.1-1.29,2.01-2.23,2.73-.95.72-2.18,1.08-3.68,1.08s-2.73-.36-3.67-1.08c-.95-.72-1.69-1.63-2.23-2.73-.54-1.1-.91-2.29-1.11-3.57-.2-1.28-.3-2.48-.3-3.6Zm2.88,0c0,.7.04,1.53.14,2.49.09.96.28,1.88.58,2.77.3.89.74,1.65,1.33,2.27.59.62,1.38.93,2.38.93s1.79-.31,2.39-.93c.59-.62,1.03-1.38,1.33-2.27.3-.89.5-1.81.58-2.77s.13-1.79.13-2.49c0-.48-.01-1.02-.04-1.63-.03-.61-.1-1.23-.21-1.86s-.27-1.24-.46-1.83c-.2-.59-.46-1.12-.79-1.59-.33-.47-.74-.84-1.22-1.12-.48-.28-1.05-.42-1.71-.42s-1.23.14-1.71.42c-.48.28-.88.66-1.21,1.12-.33.47-.6,1-.79,1.59-.2.59-.36,1.2-.47,1.83s-.18,1.25-.21,1.86c-.03.61-.04,1.16-.04,1.63Z"/><path class="cls-1" d="m149.79,427.5l8.52-8.46c.3-.28.59-.59.87-.92.28-.33.53-.68.75-1.04.22-.36.39-.74.52-1.14.13-.4.2-.82.2-1.26,0-.52-.1-.99-.29-1.41-.19-.42-.45-.77-.78-1.06-.33-.29-.72-.51-1.17-.67-.45-.16-.93-.24-1.42-.24-1.04,0-1.9.29-2.58.87-.68.58-1.11,1.38-1.29,2.4l-3.12-.27c.14-.94.42-1.75.83-2.45.41-.69.92-1.26,1.53-1.72.61-.46,1.31-.8,2.1-1.02.79-.22,1.65-.33,2.56-.33s1.79.12,2.6.38c.81.25,1.52.62,2.13,1.11.61.49,1.09,1.1,1.44,1.83.35.73.52,1.58.52,2.56,0,.7-.1,1.36-.31,1.97s-.48,1.18-.82,1.72c-.34.54-.73,1.05-1.17,1.53-.44.48-.9.95-1.38,1.41l-6.99,6.75h10.68v2.52h-13.92v-3.06Z"/><path class="cls-1" d="m166.47,427.5l8.52-8.46c.3-.28.59-.59.87-.92.28-.33.53-.68.75-1.04.22-.36.39-.74.52-1.14.13-.4.2-.82.2-1.26,0-.52-.1-.99-.29-1.41-.19-.42-.45-.77-.78-1.06-.33-.29-.72-.51-1.17-.67-.45-.16-.93-.24-1.42-.24-1.04,0-1.9.29-2.58.87-.68.58-1.11,1.38-1.29,2.4l-3.12-.27c.14-.94.42-1.75.83-2.45.41-.69.92-1.26,1.53-1.72.61-.46,1.31-.8,2.1-1.02.79-.22,1.65-.33,2.56-.33s1.79.12,2.6.38c.81.25,1.52.62,2.13,1.11.61.49,1.09,1.1,1.44,1.83.35.73.52,1.58.52,2.56,0,.7-.1,1.36-.31,1.97s-.48,1.18-.82,1.72c-.34.54-.73,1.05-1.17,1.53-.44.48-.9.95-1.38,1.41l-6.99,6.75h10.68v2.52h-13.92v-3.06Z"/><path class="cls-1" d="m198.54,424.56h-7.38v-2.52h7.38v2.52Z"/><path class="cls-1" d="m225.45,413.91c-.6-.78-1.36-1.38-2.28-1.8-.92-.42-1.87-.63-2.85-.63-1.2,0-2.29.22-3.26.67s-1.8,1.07-2.49,1.85c-.69.78-1.23,1.69-1.6,2.74-.38,1.05-.57,2.18-.57,3.38,0,1.12.18,2.18.54,3.18.36,1,.88,1.88,1.56,2.64.68.76,1.51,1.36,2.49,1.8.98.44,2.09.66,3.33.66s2.29-.25,3.21-.75c.92-.5,1.7-1.2,2.34-2.1l2.43,1.83c-.16.22-.44.54-.84.94-.4.41-.93.82-1.59,1.23s-1.46.77-2.38,1.08c-.93.31-2.01.46-3.23.46-1.68,0-3.2-.32-4.54-.96-1.35-.64-2.5-1.48-3.45-2.52-.95-1.04-1.68-2.21-2.17-3.52-.5-1.31-.75-2.63-.75-3.98,0-1.64.27-3.15.81-4.54.54-1.39,1.29-2.59,2.26-3.6s2.13-1.79,3.5-2.36c1.36-.56,2.86-.84,4.5-.84,1.4,0,2.77.27,4.12.81s2.46,1.37,3.31,2.49l-2.4,1.83Z"/><path class="cls-1" d="m230.4,423.45c0-1.04.19-2.01.58-2.91.39-.9.92-1.69,1.6-2.37.68-.68,1.48-1.22,2.4-1.61s1.91-.58,2.97-.58,2.05.2,2.97.58,1.72.93,2.4,1.61c.68.68,1.22,1.47,1.6,2.37.39.9.59,1.87.59,2.91s-.2,2.02-.59,2.93c-.39.91-.93,1.7-1.6,2.37-.68.67-1.48,1.2-2.4,1.59-.92.39-1.91.58-2.97.58s-2.05-.2-2.97-.58c-.92-.39-1.72-.92-2.4-1.59-.68-.67-1.21-1.46-1.6-2.37s-.58-1.89-.58-2.93Zm2.88,0c0,.72.11,1.39.33,2,.22.61.53,1.13.93,1.56.4.43.89.77,1.47,1.02s1.23.38,1.95.38,1.37-.12,1.95-.38,1.07-.59,1.47-1.02c.4-.43.71-.95.93-1.56.22-.61.33-1.27.33-2s-.11-1.38-.33-2c-.22-.61-.53-1.13-.93-1.56-.4-.43-.89-.77-1.47-1.02s-1.23-.38-1.95-.38-1.37.12-1.95.38-1.07.59-1.47,1.02c-.4.43-.71.95-.93,1.56-.22.61-.33,1.28-.33,2Z"/><path class="cls-1" d="m249.12,407.88h2.7v22.68h-2.7v-22.68Z"/><path class="cls-1" d="m256.32,407.88h2.7v22.68h-2.7v-22.68Z"/><path class="cls-1" d="m265.35,424.44c0,.62.13,1.19.4,1.7s.62.94,1.06,1.3.95.64,1.53.84c.58.2,1.18.3,1.8.3.84,0,1.57-.19,2.19-.58.62-.39,1.19-.9,1.71-1.54l2.04,1.56c-1.5,1.94-3.6,2.91-6.3,2.91-1.12,0-2.14-.19-3.04-.57-.91-.38-1.68-.9-2.31-1.58-.63-.67-1.12-1.46-1.46-2.37-.34-.91-.51-1.89-.51-2.96s.18-2.04.55-2.96c.37-.91.88-1.7,1.53-2.37.65-.67,1.42-1.2,2.32-1.58s1.88-.57,2.94-.57c1.26,0,2.33.22,3.2.66.87.44,1.58,1.02,2.15,1.72.56.71.96,1.51,1.21,2.4.25.89.38,1.79.38,2.71v.96h-11.4Zm8.52-2.16c-.02-.6-.12-1.15-.29-1.65s-.43-.93-.77-1.31c-.34-.37-.76-.66-1.27-.87-.51-.21-1.1-.31-1.78-.31s-1.27.12-1.82.38c-.55.25-1.02.58-1.4.97-.38.4-.67.85-.88,1.33-.21.49-.31.98-.31,1.46h8.52Z"/><path class="cls-1" d="m290.16,420.12c-.5-.52-1.02-.92-1.58-1.18s-1.21-.41-1.96-.41-1.39.14-1.94.41c-.55.27-1.01.64-1.38,1.11-.37.47-.65,1.01-.84,1.62-.19.61-.29,1.24-.29,1.9s.11,1.29.33,1.88c.22.59.53,1.11.93,1.54.4.44.88.79,1.44,1.04.56.25,1.19.38,1.89.38.76,0,1.41-.13,1.95-.41.54-.27,1.04-.66,1.5-1.18l1.92,1.92c-.7.78-1.52,1.34-2.44,1.68-.93.34-1.92.51-2.96.51-1.1,0-2.1-.18-3.02-.54-.91-.36-1.69-.87-2.35-1.52-.66-.65-1.17-1.43-1.53-2.34-.36-.91-.54-1.92-.54-3.01s.18-2.11.54-3.03c.36-.92.86-1.71,1.51-2.37s1.43-1.17,2.34-1.54c.91-.37,1.92-.55,3.04-.55,1.04,0,2.03.18,2.98.55.95.37,1.77.94,2.48,1.7l-2.04,1.86Z"/><path class="cls-1" d="m302.07,418.68h-3.87v6.45c0,.4,0,.79.03,1.18s.09.74.23,1.05c.13.31.33.56.6.75.27.19.66.29,1.19.29.32,0,.65-.03.99-.09.34-.06.65-.17.93-.33v2.46c-.32.18-.73.3-1.25.38-.51.07-.91.11-1.19.11-1.04,0-1.84-.15-2.42-.44-.57-.29-.99-.66-1.26-1.12-.27-.46-.43-.97-.48-1.54-.05-.57-.08-1.14-.08-1.72v-7.41h-3.12v-2.34h3.12v-3.99h2.7v3.99h3.87v2.34Z"/><path class="cls-1" d="m305.13,411.24c0-.54.19-1,.58-1.39.39-.39.85-.58,1.4-.58s1,.19,1.4.58c.39.39.58.85.58,1.39s-.2,1-.58,1.4c-.39.39-.85.58-1.4.58s-1-.2-1.4-.58c-.39-.39-.58-.86-.58-1.4Zm.63,5.1h2.7v14.22h-2.7v-14.22Z"/><path class="cls-1" d="m312.06,423.45c0-1.04.19-2.01.58-2.91.39-.9.92-1.69,1.6-2.37.68-.68,1.48-1.22,2.4-1.61s1.91-.58,2.97-.58,2.05.2,2.97.58,1.72.93,2.4,1.61c.68.68,1.22,1.47,1.6,2.37.39.9.59,1.87.59,2.91s-.2,2.02-.59,2.93c-.39.91-.93,1.7-1.6,2.37-.68.67-1.48,1.2-2.4,1.59-.92.39-1.91.58-2.97.58s-2.05-.2-2.97-.58c-.92-.39-1.72-.92-2.4-1.59-.68-.67-1.21-1.46-1.6-2.37s-.58-1.89-.58-2.93Zm2.88,0c0,.72.11,1.39.33,2,.22.61.53,1.13.93,1.56.4.43.89.77,1.47,1.02s1.23.38,1.95.38,1.37-.12,1.95-.38,1.07-.59,1.47-1.02c.4-.43.71-.95.93-1.56.22-.61.33-1.27.33-2s-.11-1.38-.33-2c-.22-.61-.53-1.13-.93-1.56-.4-.43-.89-.77-1.47-1.02s-1.23-.38-1.95-.38-1.37.12-1.95.38-1.07.59-1.47,1.02c-.4.43-.71.95-.93,1.56-.22.61-.33,1.28-.33,2Z"/><path class="cls-1" d="m330.57,416.34h2.7v2.19h.06c.34-.76.93-1.38,1.77-1.84.84-.47,1.81-.71,2.91-.71.68,0,1.33.11,1.96.32.63.21,1.18.54,1.65.97.47.44.84,1,1.12,1.7.28.69.42,1.5.42,2.44v9.15h-2.7v-8.4c0-.66-.09-1.22-.27-1.69-.18-.47-.42-.85-.72-1.14-.3-.29-.65-.5-1.04-.63-.39-.13-.79-.19-1.21-.19-.56,0-1.08.09-1.56.27s-.9.46-1.26.86c-.36.39-.64.88-.84,1.48-.2.6-.3,1.31-.3,2.13v7.32h-2.7v-14.22Z"/><path class="cls-1" d="m369.84,430.56h-2.7v-2.04h-.06c-.52.76-1.23,1.35-2.15,1.77-.91.42-1.84.63-2.8.63-1.1,0-2.1-.19-2.98-.57-.89-.38-1.65-.91-2.28-1.59s-1.12-1.47-1.46-2.37c-.34-.9-.51-1.88-.51-2.94s.17-2.04.51-2.96c.34-.91.83-1.7,1.46-2.37s1.39-1.2,2.28-1.58c.89-.38,1.88-.57,2.98-.57,1.02,0,1.98.21,2.88.65.9.43,1.59,1.01,2.07,1.75h.06v-10.5h2.7v22.68Zm-7.38-2.16c.72,0,1.37-.12,1.95-.38s1.07-.59,1.47-1.02c.4-.43.71-.95.93-1.56.22-.61.33-1.27.33-2s-.11-1.38-.33-2c-.22-.61-.53-1.13-.93-1.56-.4-.43-.89-.77-1.47-1.02s-1.23-.38-1.95-.38-1.37.12-1.95.38-1.07.59-1.47,1.02c-.4.43-.71.95-.93,1.56-.22.61-.33,1.28-.33,2s.11,1.39.33,2c.22.61.53,1.13.93,1.56.4.43.89.77,1.47,1.02s1.23.38,1.95.38Z"/><path class="cls-1" d="m375.96,424.44c0,.62.13,1.19.4,1.7s.62.94,1.06,1.3.95.64,1.53.84c.58.2,1.18.3,1.8.3.84,0,1.57-.19,2.19-.58.62-.39,1.19-.9,1.71-1.54l2.04,1.56c-1.5,1.94-3.6,2.91-6.3,2.91-1.12,0-2.14-.19-3.04-.57-.91-.38-1.68-.9-2.31-1.58-.63-.67-1.12-1.46-1.46-2.37-.34-.91-.51-1.89-.51-2.96s.18-2.04.55-2.96c.37-.91.88-1.7,1.53-2.37.65-.67,1.42-1.2,2.32-1.58s1.88-.57,2.94-.57c1.26,0,2.33.22,3.2.66.87.44,1.58,1.02,2.15,1.72.56.71.96,1.51,1.21,2.4.25.89.38,1.79.38,2.71v.96h-11.4Zm8.52-2.16c-.02-.6-.12-1.15-.29-1.65s-.43-.93-.77-1.31c-.34-.37-.76-.66-1.27-.87-.51-.21-1.1-.31-1.78-.31s-1.27.12-1.82.38c-.55.25-1.02.58-1.4.97-.38.4-.67.85-.88,1.33-.21.49-.31.98-.31,1.46h8.52Z"/><path class="cls-1" d="m398.94,407.88h2.7v14.64l6.12-6.15h3.75l-6.63,6.45,7.2,7.74h-3.84l-6.6-7.38v7.38h-2.7v-22.68Z"/><path class="cls-1" d="m414.09,411.24c0-.54.19-1,.58-1.39.39-.39.85-.58,1.4-.58s1,.19,1.4.58c.39.39.58.85.58,1.39s-.2,1-.58,1.4c-.39.39-.85.58-1.4.58s-1-.2-1.4-.58c-.39-.39-.58-.86-.58-1.4Zm.63,5.1h2.7v14.22h-2.7v-14.22Z"/><path class="cls-1" d="m429.33,418.68h-3.87v6.45c0,.4,0,.79.03,1.18s.09.74.23,1.05c.13.31.33.56.6.75.27.19.66.29,1.19.29.32,0,.65-.03.99-.09.34-.06.65-.17.93-.33v2.46c-.32.18-.73.3-1.25.38-.51.07-.91.11-1.19.11-1.04,0-1.84-.15-2.42-.44-.57-.29-.99-.66-1.26-1.12-.27-.46-.43-.97-.48-1.54-.05-.57-.08-1.14-.08-1.72v-7.41h-3.12v-2.34h3.12v-3.99h2.7v3.99h3.87v2.34Z"/><path class="cls-1" d="m440.37,419.91c-.32-.4-.71-.73-1.18-1-.47-.27-1.04-.4-1.72-.4-.64,0-1.2.13-1.67.4-.47.27-.71.67-.71,1.19,0,.42.13.76.4,1.02.27.26.59.47.96.63.37.16.77.28,1.19.36s.78.15,1.08.21c.58.14,1.12.31,1.63.51.51.2.95.46,1.32.78.37.32.66.71.87,1.17s.31,1.02.31,1.68c0,.8-.17,1.49-.51,2.06-.34.57-.78,1.04-1.32,1.39-.54.36-1.15.62-1.84.78s-1.38.24-2.08.24c-1.18,0-2.22-.18-3.1-.54-.89-.36-1.69-1.02-2.39-1.98l2.04-1.68c.44.44.93.83,1.47,1.17.54.34,1.2.51,1.98.51.34,0,.68-.03,1.04-.1.35-.07.66-.18.93-.33.27-.15.49-.34.66-.57.17-.23.25-.5.25-.79,0-.4-.12-.73-.38-.99-.25-.26-.55-.46-.9-.62-.35-.15-.72-.27-1.11-.36-.39-.09-.74-.17-1.04-.23-.58-.14-1.13-.3-1.65-.48s-.98-.42-1.38-.72c-.4-.3-.72-.68-.96-1.14-.24-.46-.36-1.03-.36-1.71,0-.74.15-1.38.46-1.93s.72-1,1.23-1.37,1.09-.63,1.74-.81c.65-.18,1.3-.27,1.96-.27.96,0,1.88.18,2.76.54s1.58.96,2.1,1.8l-2.1,1.59Z"/><path class="cls-1" d="m464.64,420.12c-.5-.52-1.03-.92-1.58-1.18s-1.21-.41-1.96-.41-1.38.14-1.93.41c-.55.27-1.01.64-1.38,1.11-.37.47-.65,1.01-.84,1.62-.19.61-.28,1.24-.28,1.9s.11,1.29.33,1.88c.22.59.53,1.11.93,1.54.4.44.88.79,1.44,1.04s1.19.38,1.89.38c.76,0,1.41-.13,1.95-.41.54-.27,1.04-.66,1.5-1.18l1.92,1.92c-.7.78-1.52,1.34-2.45,1.68s-1.92.51-2.96.51c-1.1,0-2.11-.18-3.01-.54-.91-.36-1.7-.87-2.36-1.52-.66-.65-1.17-1.43-1.53-2.34-.36-.91-.54-1.92-.54-3.01s.18-2.11.54-3.03c.36-.92.87-1.71,1.52-2.37.65-.66,1.43-1.17,2.34-1.54s1.92-.55,3.04-.55c1.04,0,2.04.18,2.99.55.95.37,1.77.94,2.47,1.7l-2.04,1.86Z"/><path class="cls-1" d="m468.24,423.45c0-1.04.2-2.01.58-2.91.39-.9.92-1.69,1.61-2.37.68-.68,1.48-1.22,2.4-1.61.92-.39,1.91-.58,2.97-.58s2.05.2,2.97.58,1.72.93,2.4,1.61c.68.68,1.21,1.47,1.6,2.37.39.9.58,1.87.58,2.91s-.19,2.02-.58,2.93c-.39.91-.92,1.7-1.6,2.37-.68.67-1.48,1.2-2.4,1.59-.92.39-1.91.58-2.97.58s-2.05-.2-2.97-.58c-.92-.39-1.72-.92-2.4-1.59-.68-.67-1.21-1.46-1.61-2.37-.39-.91-.58-1.89-.58-2.93Zm2.88,0c0,.72.11,1.39.33,2,.22.61.53,1.13.93,1.56.4.43.89.77,1.47,1.02s1.23.38,1.95.38,1.37-.12,1.95-.38c.58-.25,1.07-.59,1.47-1.02.4-.43.71-.95.93-1.56.22-.61.33-1.27.33-2s-.11-1.38-.33-2c-.22-.61-.53-1.13-.93-1.56-.4-.43-.89-.77-1.47-1.02-.58-.25-1.23-.38-1.95-.38s-1.37.12-1.95.38-1.07.59-1.47,1.02c-.4.43-.71.95-.93,1.56-.22.61-.33,1.28-.33,2Z"/><path class="cls-1" d="m486.75,416.34h2.52v2.22h.06c.06-.2.21-.45.46-.75s.57-.58.96-.86c.39-.27.85-.5,1.38-.69.53-.19,1.12-.29,1.75-.29,1.06,0,1.95.22,2.67.66.72.44,1.31,1.1,1.77,1.98.46-.88,1.11-1.54,1.95-1.98.84-.44,1.69-.66,2.55-.66,1.1,0,2,.18,2.7.54.7.36,1.25.83,1.65,1.42.4.59.67,1.26.83,2.01s.22,1.53.22,2.33v8.28h-2.7v-7.92c0-.54-.04-1.06-.11-1.56-.07-.5-.21-.94-.43-1.32-.22-.38-.53-.68-.93-.92-.4-.23-.93-.34-1.59-.34-1.3,0-2.23.4-2.79,1.2-.56.8-.84,1.83-.84,3.09v7.77h-2.7v-7.44c0-.68-.04-1.3-.1-1.86-.07-.56-.21-1.04-.42-1.46s-.51-.73-.9-.96c-.39-.23-.92-.34-1.58-.34-.48,0-.94.09-1.39.28-.45.19-.85.48-1.19.86s-.61.87-.81,1.46c-.2.59-.3,1.29-.3,2.08v7.38h-2.7v-14.22Z"/><path class="cls-1" d="m512.31,416.34h2.52v2.22h.06c.06-.2.21-.45.46-.75s.57-.58.96-.86c.39-.27.85-.5,1.38-.69.53-.19,1.12-.29,1.75-.29,1.06,0,1.95.22,2.67.66.72.44,1.31,1.1,1.77,1.98.46-.88,1.11-1.54,1.95-1.98.84-.44,1.69-.66,2.55-.66,1.1,0,2,.18,2.7.54.7.36,1.25.83,1.65,1.42.4.59.67,1.26.83,2.01s.22,1.53.22,2.33v8.28h-2.7v-7.92c0-.54-.04-1.06-.11-1.56-.07-.5-.21-.94-.43-1.32-.22-.38-.53-.68-.93-.92-.4-.23-.93-.34-1.59-.34-1.3,0-2.23.4-2.79,1.2-.56.8-.84,1.83-.84,3.09v7.77h-2.7v-7.44c0-.68-.04-1.3-.1-1.86-.07-.56-.21-1.04-.42-1.46s-.51-.73-.9-.96c-.39-.23-.92-.34-1.58-.34-.48,0-.94.09-1.39.28-.45.19-.85.48-1.19.86s-.61.87-.81,1.46c-.2.59-.3,1.29-.3,2.08v7.38h-2.7v-14.22Z"/><path class="cls-1" d="m550.47,430.56h-2.7v-2.19h-.06c-.34.76-.93,1.38-1.77,1.85-.84.47-1.81.71-2.91.71-.7,0-1.36-.11-1.98-.32s-1.17-.54-1.63-.97c-.47-.44-.84-1-1.12-1.7s-.42-1.5-.42-2.45v-9.15h2.7v8.4c0,.66.09,1.23.27,1.7.18.47.42.85.72,1.14.3.29.64.5,1.03.63.39.13.79.2,1.22.2.56,0,1.08-.09,1.56-.27.48-.18.9-.46,1.26-.86.36-.39.64-.88.84-1.48.2-.6.3-1.31.3-2.13v-7.32h2.7v14.22Z"/><path class="cls-1" d="m554.55,416.34h2.7v2.19h.06c.34-.76.93-1.38,1.77-1.84s1.81-.71,2.91-.71c.68,0,1.33.11,1.96.32s1.18.54,1.65.97c.47.44.84,1,1.12,1.7.28.69.42,1.5.42,2.44v9.15h-2.7v-8.4c0-.66-.09-1.22-.27-1.69s-.42-.85-.72-1.14c-.3-.29-.65-.5-1.04-.63-.39-.13-.79-.19-1.21-.19-.56,0-1.08.09-1.56.27-.48.18-.9.46-1.26.86-.36.39-.64.88-.84,1.48-.2.6-.3,1.31-.3,2.13v7.32h-2.7v-14.22Z"/><path class="cls-1" d="m570.81,411.24c0-.54.2-1,.58-1.39.39-.39.85-.58,1.39-.58s1.01.19,1.4.58c.39.39.58.85.58,1.39s-.2,1-.58,1.4c-.39.39-.86.58-1.4.58s-1-.2-1.39-.58c-.39-.39-.58-.86-.58-1.4Zm.63,5.1h2.7v14.22h-2.7v-14.22Z"/><path class="cls-1" d="m592.67,437.4h-2.7v-8.88h-.06c-.48.74-1.17,1.33-2.07,1.75s-1.86.65-2.88.65c-1.1,0-2.1-.19-2.99-.57s-1.65-.9-2.28-1.58c-.63-.67-1.12-1.46-1.46-2.37-.34-.91-.51-1.89-.51-2.96s.17-2.01.51-2.92c.34-.91.82-1.71,1.46-2.38.63-.68,1.39-1.21,2.28-1.59s1.88-.57,2.99-.57c.96,0,1.89.21,2.8.63s1.62,1.01,2.15,1.77h.06v-2.04h2.7v21.06Zm-7.38-18.9c-.72,0-1.37.12-1.95.38s-1.07.59-1.47,1.02c-.4.43-.71.95-.93,1.56-.22.61-.33,1.28-.33,2s.11,1.39.33,2c.22.61.53,1.13.93,1.56.4.43.89.77,1.47,1.02s1.23.38,1.95.38,1.37-.12,1.95-.38c.58-.25,1.07-.59,1.47-1.02.4-.43.71-.95.93-1.56.22-.61.33-1.27.33-2s-.11-1.38-.33-2c-.22-.61-.53-1.13-.93-1.56-.4-.43-.89-.77-1.47-1.02-.58-.25-1.23-.38-1.95-.38Z"/><path class="cls-1" d="m609.35,430.56h-2.7v-2.19h-.06c-.34.76-.93,1.38-1.77,1.85-.84.47-1.81.71-2.91.71-.7,0-1.36-.11-1.98-.32s-1.17-.54-1.63-.97c-.47-.44-.84-1-1.12-1.7s-.42-1.5-.42-2.45v-9.15h2.7v8.4c0,.66.09,1.23.27,1.7.18.47.42.85.72,1.14.3.29.64.5,1.03.63.39.13.79.2,1.22.2.56,0,1.08-.09,1.56-.27.48-.18.9-.46,1.26-.86.36-.39.64-.88.84-1.48.2-.6.3-1.31.3-2.13v-7.32h2.7v14.22Z"/><path class="cls-1" d="m613.49,418.08c.76-.7,1.64-1.22,2.64-1.57,1-.35,2-.53,3-.53s1.93.13,2.68.39c.75.26,1.37.61,1.84,1.05.48.44.83.94,1.07,1.51.23.57.34,1.17.34,1.79v7.26c0,.5,0,.96.03,1.38.02.42.05.82.09,1.2h-2.4c-.06-.72-.09-1.44-.09-2.16h-.06c-.6.92-1.31,1.57-2.13,1.95-.82.38-1.77.57-2.85.57-.66,0-1.29-.09-1.89-.27-.6-.18-1.12-.45-1.58-.81-.45-.36-.8-.8-1.06-1.33-.26-.53-.39-1.14-.39-1.85,0-.92.21-1.69.62-2.31s.97-1.12,1.68-1.51c.71-.39,1.54-.67,2.49-.84.95-.17,1.96-.25,3.04-.25h1.98v-.6c0-.36-.07-.72-.21-1.08-.14-.36-.35-.68-.63-.97-.28-.29-.63-.52-1.05-.69-.42-.17-.92-.25-1.5-.25-.52,0-.97.05-1.36.15-.39.1-.75.22-1.07.38-.32.15-.61.33-.87.52-.26.2-.51.39-.75.57l-1.62-1.68Zm7.62,5.64c-.64,0-1.29.04-1.96.1-.67.07-1.28.21-1.83.41-.55.2-1,.48-1.35.84-.35.36-.53.82-.53,1.38,0,.82.27,1.41.83,1.77.55.36,1.29.54,2.24.54.74,0,1.37-.12,1.89-.38.52-.25.94-.58,1.26-.98.32-.4.55-.84.69-1.33.14-.49.21-.97.21-1.46v-.9h-1.44Z"/><path class="cls-1" d="m629,416.34h2.7v2.19h.06c.34-.76.93-1.38,1.77-1.84s1.81-.71,2.91-.71c.68,0,1.33.11,1.96.32s1.18.54,1.65.97c.47.44.84,1,1.12,1.7.28.69.42,1.5.42,2.44v9.15h-2.7v-8.4c0-.66-.09-1.22-.27-1.69s-.42-.85-.72-1.14c-.3-.29-.65-.5-1.04-.63-.39-.13-.79-.19-1.21-.19-.56,0-1.08.09-1.56.27-.48.18-.9.46-1.26.86-.36.39-.64.88-.84,1.48-.2.6-.3,1.31-.3,2.13v7.32h-2.7v-14.22Z"/><path class="cls-1" d="m653.3,418.68h-3.87v6.45c0,.4,0,.79.03,1.18.02.39.09.74.22,1.05.13.31.33.56.6.75.27.19.67.29,1.19.29.32,0,.65-.03.99-.09.34-.06.65-.17.93-.33v2.46c-.32.18-.74.3-1.25.38s-.91.11-1.18.11c-1.04,0-1.85-.15-2.42-.44-.57-.29-.99-.66-1.26-1.12-.27-.46-.43-.97-.48-1.54s-.08-1.14-.08-1.72v-7.41h-3.12v-2.34h3.12v-3.99h2.7v3.99h3.87v2.34Z"/><path class="cls-1" d="m665.33,407.88h2.7v22.68h-2.7v-22.68Z"/><path class="cls-1" d="m672.38,418.08c.76-.7,1.64-1.22,2.64-1.57,1-.35,2-.53,3-.53s1.93.13,2.68.39c.75.26,1.37.61,1.84,1.05.48.44.83.94,1.07,1.51.23.57.34,1.17.34,1.79v7.26c0,.5,0,.96.03,1.38.02.42.05.82.09,1.2h-2.4c-.06-.72-.09-1.44-.09-2.16h-.06c-.6.92-1.31,1.57-2.13,1.95-.82.38-1.77.57-2.85.57-.66,0-1.29-.09-1.89-.27-.6-.18-1.12-.45-1.58-.81-.45-.36-.8-.8-1.06-1.33-.26-.53-.39-1.14-.39-1.85,0-.92.21-1.69.62-2.31s.97-1.12,1.68-1.51c.71-.39,1.54-.67,2.49-.84.95-.17,1.96-.25,3.04-.25h1.98v-.6c0-.36-.07-.72-.21-1.08-.14-.36-.35-.68-.63-.97-.28-.29-.63-.52-1.05-.69-.42-.17-.92-.25-1.5-.25-.52,0-.97.05-1.36.15-.39.1-.75.22-1.07.38-.32.15-.61.33-.87.52-.26.2-.51.39-.75.57l-1.62-1.68Zm7.62,5.64c-.64,0-1.29.04-1.96.1-.67.07-1.28.21-1.83.41-.55.2-1,.48-1.35.84-.35.36-.53.82-.53,1.38,0,.82.27,1.41.83,1.77.55.36,1.29.54,2.24.54.74,0,1.37-.12,1.89-.38.52-.25.94-.58,1.26-.98.32-.4.55-.84.69-1.33.14-.49.21-.97.21-1.46v-.9h-1.44Z"/><path class="cls-1" d="m248.59,452.34h2.7v2.04h.06c.52-.76,1.23-1.35,2.15-1.77s1.85-.63,2.81-.63c1.1,0,2.09.19,2.98.57.89.38,1.65.91,2.28,1.59.63.68,1.11,1.47,1.46,2.38.34.91.51,1.89.51,2.92s-.17,2.05-.51,2.96c-.34.91-.83,1.7-1.46,2.37-.63.67-1.39,1.2-2.28,1.58-.89.38-1.89.57-2.98.57-1.02,0-1.98-.22-2.88-.65s-1.59-1.01-2.07-1.75h-.06v10.5h-2.7v-22.68Zm7.38,2.16c-.72,0-1.37.12-1.95.38-.58.25-1.07.59-1.47,1.02-.4.43-.71.95-.93,1.56-.22.61-.33,1.28-.33,2s.11,1.39.33,2c.22.61.53,1.13.93,1.56.4.43.89.77,1.47,1.02.58.25,1.23.38,1.95.38s1.37-.12,1.95-.38c.58-.25,1.07-.59,1.47-1.02.4-.43.71-.95.93-1.56.22-.61.33-1.27.33-2s-.11-1.38-.33-2c-.22-.61-.53-1.13-.93-1.56-.4-.43-.89-.77-1.47-1.02-.58-.25-1.23-.38-1.95-.38Z"/><path class="cls-1" d="m266.92,452.34h2.7v2.19h.06c.18-.38.42-.72.72-1.04.3-.31.63-.57,1-.79.37-.22.77-.39,1.22-.52.44-.13.88-.2,1.32-.2s.84.06,1.2.18l-.12,2.91c-.22-.06-.44-.11-.66-.15-.22-.04-.44-.06-.66-.06-1.32,0-2.33.37-3.03,1.11-.7.74-1.05,1.89-1.05,3.45v7.14h-2.7v-14.22Z"/><path class="cls-1" d="m279.52,460.44c0,.62.13,1.19.4,1.7s.62.94,1.06,1.3.95.64,1.53.84c.58.2,1.18.3,1.8.3.84,0,1.57-.19,2.19-.58.62-.39,1.19-.9,1.71-1.54l2.04,1.56c-1.5,1.94-3.6,2.91-6.3,2.91-1.12,0-2.14-.19-3.04-.57-.91-.38-1.68-.9-2.31-1.58-.63-.67-1.12-1.46-1.46-2.37-.34-.91-.51-1.89-.51-2.96s.18-2.04.55-2.96c.37-.91.88-1.7,1.53-2.37.65-.67,1.42-1.2,2.32-1.58s1.88-.57,2.94-.57c1.26,0,2.33.22,3.2.66.87.44,1.58,1.02,2.15,1.72.56.71.96,1.51,1.21,2.4.25.89.38,1.79.38,2.71v.96h-11.4Zm8.52-2.16c-.02-.6-.12-1.15-.29-1.65s-.43-.93-.77-1.31c-.34-.37-.76-.66-1.27-.87-.51-.21-1.1-.31-1.78-.31s-1.27.12-1.82.38c-.55.25-1.02.58-1.4.97-.38.4-.67.85-.88,1.33-.21.49-.31.98-.31,1.46h8.52Zm-3.12-12.96h3.84l-4.47,4.32h-2.49l3.12-4.32Z"/><path class="cls-1" d="m304.33,456.12c-.5-.52-1.02-.92-1.58-1.18s-1.21-.41-1.96-.41-1.39.14-1.94.41c-.55.27-1.01.64-1.38,1.11-.37.47-.65,1.01-.84,1.62-.19.61-.29,1.24-.29,1.9s.11,1.29.33,1.88c.22.59.53,1.11.93,1.54.4.44.88.79,1.44,1.04.56.25,1.19.38,1.89.38.76,0,1.41-.13,1.95-.41.54-.27,1.04-.66,1.5-1.18l1.92,1.92c-.7.78-1.52,1.34-2.44,1.68-.93.34-1.92.51-2.96.51-1.1,0-2.1-.18-3.02-.54-.91-.36-1.69-.87-2.35-1.52-.66-.65-1.17-1.43-1.53-2.34-.36-.91-.54-1.92-.54-3.01s.18-2.11.54-3.03c.36-.92.86-1.71,1.51-2.37s1.43-1.17,2.34-1.54c.91-.37,1.92-.55,3.04-.55,1.04,0,2.03.18,2.98.55.95.37,1.77.94,2.48,1.7l-2.04,1.86Z"/><path class="cls-1" d="m308.2,447.24c0-.54.19-1,.58-1.39.39-.39.85-.58,1.4-.58s1,.19,1.4.58c.39.39.58.85.58,1.39s-.2,1-.58,1.4c-.39.39-.85.58-1.4.58s-1-.2-1.4-.58c-.39-.39-.58-.86-.58-1.4Zm.63,5.1h2.7v14.22h-2.7v-14.22Z"/><path class="cls-1" d="m315.13,459.45c0-1.04.19-2.01.58-2.91.39-.9.92-1.69,1.6-2.37.68-.68,1.48-1.22,2.4-1.61s1.91-.58,2.97-.58,2.05.2,2.97.58,1.72.93,2.4,1.61c.68.68,1.22,1.47,1.6,2.37.39.9.59,1.87.59,2.91s-.2,2.02-.59,2.93c-.39.91-.93,1.7-1.6,2.37-.68.67-1.48,1.2-2.4,1.59-.92.39-1.91.58-2.97.58s-2.05-.2-2.97-.58c-.92-.39-1.72-.92-2.4-1.59-.68-.67-1.21-1.46-1.6-2.37s-.58-1.89-.58-2.93Zm2.88,0c0,.72.11,1.39.33,2,.22.61.53,1.13.93,1.56.4.43.89.77,1.47,1.02s1.23.38,1.95.38,1.37-.12,1.95-.38,1.07-.59,1.47-1.02c.4-.43.71-.95.93-1.56.22-.61.33-1.27.33-2s-.11-1.38-.33-2c-.22-.61-.53-1.13-.93-1.56-.4-.43-.89-.77-1.47-1.02s-1.23-.38-1.95-.38-1.37.12-1.95.38-1.07.59-1.47,1.02c-.4.43-.71.95-.93,1.56-.22.61-.33,1.28-.33,2Z"/><path class="cls-1" d="m341.2,455.91c-.32-.4-.72-.73-1.19-1-.47-.27-1.05-.4-1.73-.4-.64,0-1.2.13-1.67.4-.47.27-.71.67-.71,1.19,0,.42.14.76.41,1.02.27.26.59.47.96.63.37.16.77.28,1.19.36s.78.15,1.08.21c.58.14,1.12.31,1.63.51.51.2.95.46,1.32.78.37.32.66.71.87,1.17s.31,1.02.31,1.68c0,.8-.17,1.49-.51,2.06-.34.57-.78,1.04-1.32,1.39-.54.36-1.15.62-1.84.78s-1.39.24-2.08.24c-1.18,0-2.22-.18-3.1-.54-.89-.36-1.69-1.02-2.39-1.98l2.04-1.68c.44.44.93.83,1.47,1.17s1.2.51,1.98.51c.34,0,.68-.03,1.04-.1.35-.07.66-.18.93-.33.27-.15.49-.34.66-.57.17-.23.25-.5.25-.79,0-.4-.12-.73-.38-.99-.25-.26-.55-.46-.9-.62-.35-.15-.72-.27-1.11-.36-.39-.09-.74-.17-1.04-.23-.58-.14-1.13-.3-1.65-.48-.52-.18-.98-.42-1.38-.72-.4-.3-.72-.68-.96-1.14-.24-.46-.36-1.03-.36-1.71,0-.74.15-1.38.46-1.93s.72-1,1.23-1.37c.51-.36,1.09-.63,1.74-.81.65-.18,1.31-.27,1.96-.27.96,0,1.88.18,2.76.54.88.36,1.58.96,2.1,1.8l-2.1,1.59Z"/><path class="cls-1" d="m346.54,447.24c0-.54.19-1,.58-1.39.39-.39.85-.58,1.4-.58s1,.19,1.4.58c.39.39.58.85.58,1.39s-.2,1-.58,1.4c-.39.39-.85.58-1.4.58s-1-.2-1.4-.58c-.39-.39-.58-.86-.58-1.4Zm.63,5.1h2.7v14.22h-2.7v-14.22Z"/><path class="cls-1" d="m361.78,454.68h-3.87v6.45c0,.4,0,.79.03,1.18s.09.74.23,1.05c.13.31.33.56.6.75.27.19.66.29,1.19.29.32,0,.65-.03.99-.09.34-.06.65-.17.93-.33v2.46c-.32.18-.73.3-1.25.38-.51.07-.91.11-1.19.11-1.04,0-1.84-.15-2.42-.44-.57-.29-.99-.66-1.26-1.12-.27-.46-.43-.97-.48-1.54-.05-.57-.08-1.14-.08-1.72v-7.41h-3.12v-2.34h3.12v-3.99h2.7v3.99h3.87v2.34Z"/><path class="cls-1" d="m367.3,460.44c0,.62.13,1.19.4,1.7s.62.94,1.06,1.3.95.64,1.53.84c.58.2,1.18.3,1.8.3.84,0,1.57-.19,2.19-.58.62-.39,1.19-.9,1.71-1.54l2.04,1.56c-1.5,1.94-3.6,2.91-6.3,2.91-1.12,0-2.14-.19-3.04-.57-.91-.38-1.68-.9-2.31-1.58-.63-.67-1.12-1.46-1.46-2.37-.34-.91-.51-1.89-.51-2.96s.18-2.04.55-2.96c.37-.91.88-1.7,1.53-2.37.65-.67,1.42-1.2,2.32-1.58s1.88-.57,2.94-.57c1.26,0,2.33.22,3.2.66.87.44,1.58,1.02,2.15,1.72.56.71.96,1.51,1.21,2.4.25.89.38,1.79.38,2.71v.96h-11.4Zm8.52-2.16c-.02-.6-.12-1.15-.29-1.65s-.43-.93-.77-1.31c-.34-.37-.76-.66-1.27-.87-.51-.21-1.1-.31-1.78-.31s-1.27.12-1.82.38c-.55.25-1.02.58-1.4.97-.38.4-.67.85-.88,1.33-.21.49-.31.98-.31,1.46h8.52Zm-3.12-12.96h3.84l-4.47,4.32h-2.49l3.12-4.32Z"/><path class="cls-1" d="m404.53,466.56h-2.7v-2.04h-.06c-.52.76-1.23,1.35-2.15,1.77-.91.42-1.84.63-2.8.63-1.1,0-2.1-.19-2.98-.57-.89-.38-1.65-.91-2.28-1.59s-1.12-1.47-1.46-2.37c-.34-.9-.51-1.88-.51-2.94s.17-2.04.51-2.96c.34-.91.83-1.7,1.46-2.37s1.39-1.2,2.28-1.58c.89-.38,1.88-.57,2.98-.57,1.02,0,1.98.21,2.88.65.9.43,1.59,1.01,2.07,1.75h.06v-10.5h2.7v22.68Zm-7.38-2.16c.72,0,1.37-.12,1.95-.38s1.07-.59,1.47-1.02c.4-.43.71-.95.93-1.56.22-.61.33-1.27.33-2s-.11-1.38-.33-2c-.22-.61-.53-1.13-.93-1.56-.4-.43-.89-.77-1.47-1.02s-1.23-.38-1.95-.38-1.37.12-1.95.38-1.07.59-1.47,1.02c-.4.43-.71.95-.93,1.56-.22.61-.33,1.28-.33,2s.11,1.39.33,2c.22.61.53,1.13.93,1.56.4.43.89.77,1.47,1.02s1.23.38,1.95.38Z"/><path class="cls-1" d="m410.65,460.44c0,.62.13,1.19.4,1.7s.62.94,1.06,1.3.95.64,1.53.84c.58.2,1.18.3,1.8.3.84,0,1.57-.19,2.19-.58.62-.39,1.19-.9,1.71-1.54l2.04,1.56c-1.5,1.94-3.6,2.91-6.3,2.91-1.12,0-2.14-.19-3.04-.57-.91-.38-1.68-.9-2.31-1.58-.63-.67-1.12-1.46-1.46-2.37-.34-.91-.51-1.89-.51-2.96s.18-2.04.55-2.96c.37-.91.88-1.7,1.53-2.37.65-.67,1.42-1.2,2.32-1.58s1.88-.57,2.94-.57c1.26,0,2.33.22,3.2.66.87.44,1.58,1.02,2.15,1.72.56.71.96,1.51,1.21,2.4.25.89.38,1.79.38,2.71v.96h-11.4Zm8.52-2.16c-.02-.6-.12-1.15-.29-1.65s-.43-.93-.77-1.31c-.34-.37-.76-.66-1.27-.87-.51-.21-1.1-.31-1.78-.31s-1.27.12-1.82.38c-.55.25-1.02.58-1.4.97-.38.4-.67.85-.88,1.33-.21.49-.31.98-.31,1.46h8.52Z"/><path class="cls-1" d="m432.85,455.91c-.32-.4-.72-.73-1.19-1-.47-.27-1.05-.4-1.73-.4-.64,0-1.2.13-1.67.4-.47.27-.71.67-.71,1.19,0,.42.14.76.41,1.02.27.26.59.47.96.63.37.16.77.28,1.19.36s.78.15,1.08.21c.58.14,1.12.31,1.63.51.51.2.95.46,1.32.78.37.32.66.71.87,1.17s.31,1.02.31,1.68c0,.8-.17,1.49-.51,2.06-.34.57-.78,1.04-1.32,1.39-.54.36-1.15.62-1.84.78s-1.39.24-2.08.24c-1.18,0-2.22-.18-3.1-.54-.89-.36-1.69-1.02-2.39-1.98l2.04-1.68c.44.44.93.83,1.47,1.17s1.2.51,1.98.51c.34,0,.68-.03,1.04-.1.35-.07.66-.18.93-.33.27-.15.49-.34.66-.57.17-.23.25-.5.25-.79,0-.4-.12-.73-.38-.99-.25-.26-.55-.46-.9-.62-.35-.15-.72-.27-1.11-.36-.39-.09-.74-.17-1.04-.23-.58-.14-1.13-.3-1.65-.48-.52-.18-.98-.42-1.38-.72-.4-.3-.72-.68-.96-1.14-.24-.46-.36-1.03-.36-1.71,0-.74.15-1.38.46-1.93s.72-1,1.23-1.37c.51-.36,1.09-.63,1.74-.81.65-.18,1.31-.27,1.96-.27.96,0,1.88.18,2.76.54.88.36,1.58.96,2.1,1.8l-2.1,1.59Z"/><path class="cls-1" d="m446.53,447.24c0-.54.2-1,.58-1.39.39-.39.85-.58,1.39-.58s1.01.19,1.4.58c.39.39.58.85.58,1.39s-.2,1-.58,1.4c-.39.39-.86.58-1.4.58s-1-.2-1.39-.58c-.39-.39-.58-.86-.58-1.4Zm.63,5.1h2.7v14.22h-2.7v-14.22Z"/><path class="cls-1" d="m454.15,452.34h2.7v2.19h.06c.34-.76.93-1.38,1.77-1.84s1.81-.71,2.91-.71c.68,0,1.33.11,1.96.32s1.18.54,1.65.97c.47.44.84,1,1.12,1.7.28.69.42,1.5.42,2.44v9.15h-2.7v-8.4c0-.66-.09-1.22-.27-1.69s-.42-.85-.72-1.14c-.3-.29-.65-.5-1.04-.63-.39-.13-.79-.19-1.21-.19-.56,0-1.08.09-1.56.27-.48.18-.9.46-1.26.86-.36.39-.64.88-.84,1.48-.2.6-.3,1.31-.3,2.13v7.32h-2.7v-14.22Z"/><path class="cls-1" d="m478.39,455.91c-.32-.4-.71-.73-1.18-1-.47-.27-1.04-.4-1.72-.4-.64,0-1.2.13-1.67.4-.47.27-.71.67-.71,1.19,0,.42.13.76.4,1.02.27.26.59.47.96.63.37.16.77.28,1.19.36s.78.15,1.08.21c.58.14,1.12.31,1.63.51.51.2.95.46,1.32.78.37.32.66.71.87,1.17s.31,1.02.31,1.68c0,.8-.17,1.49-.51,2.06-.34.57-.78,1.04-1.32,1.39-.54.36-1.15.62-1.84.78s-1.38.24-2.08.24c-1.18,0-2.22-.18-3.11-.54-.89-.36-1.68-1.02-2.38-1.98l2.04-1.68c.44.44.93.83,1.47,1.17s1.2.51,1.98.51c.34,0,.68-.03,1.04-.1.35-.07.66-.18.93-.33.27-.15.49-.34.66-.57.17-.23.25-.5.25-.79,0-.4-.12-.73-.38-.99-.25-.26-.55-.46-.9-.62-.35-.15-.72-.27-1.11-.36-.39-.09-.74-.17-1.04-.23-.58-.14-1.13-.3-1.65-.48-.52-.18-.98-.42-1.38-.72-.4-.3-.72-.68-.96-1.14-.24-.46-.36-1.03-.36-1.71,0-.74.15-1.38.46-1.93.31-.55.72-1,1.23-1.37s1.09-.63,1.74-.81c.65-.18,1.3-.27,1.96-.27.96,0,1.88.18,2.76.54s1.58.96,2.1,1.8l-2.1,1.59Z"/><path class="cls-1" d="m486.19,460.44c0,.62.13,1.19.41,1.7.27.51.62.94,1.06,1.3.44.36.95.64,1.53.84.58.2,1.18.3,1.8.3.84,0,1.57-.19,2.19-.58.62-.39,1.19-.9,1.71-1.54l2.04,1.56c-1.5,1.94-3.6,2.91-6.3,2.91-1.12,0-2.13-.19-3.04-.57s-1.68-.9-2.31-1.58c-.63-.67-1.12-1.46-1.46-2.37-.34-.91-.51-1.89-.51-2.96s.18-2.04.55-2.96c.37-.91.88-1.7,1.53-2.37.65-.67,1.42-1.2,2.33-1.58.9-.38,1.88-.57,2.94-.57,1.26,0,2.33.22,3.2.66.87.44,1.58,1.02,2.14,1.72.56.71.96,1.51,1.22,2.4.25.89.38,1.79.38,2.71v.96h-11.4Zm8.52-2.16c-.02-.6-.12-1.15-.28-1.65-.17-.5-.43-.93-.77-1.31-.34-.37-.76-.66-1.27-.87-.51-.21-1.11-.31-1.79-.31s-1.27.12-1.82.38-1.01.58-1.39.97c-.38.4-.67.85-.89,1.33-.21.49-.31.98-.31,1.46h8.52Z"/><path class="cls-1" d="m511,456.12c-.5-.52-1.03-.92-1.58-1.18s-1.21-.41-1.96-.41-1.38.14-1.93.41c-.55.27-1.01.64-1.38,1.11-.37.47-.65,1.01-.84,1.62-.19.61-.28,1.24-.28,1.9s.11,1.29.33,1.88c.22.59.53,1.11.93,1.54.4.44.88.79,1.44,1.04s1.19.38,1.89.38c.76,0,1.41-.13,1.95-.41.54-.27,1.04-.66,1.5-1.18l1.92,1.92c-.7.78-1.52,1.34-2.45,1.68s-1.92.51-2.96.51c-1.1,0-2.11-.18-3.01-.54-.91-.36-1.7-.87-2.36-1.52-.66-.65-1.17-1.43-1.53-2.34-.36-.91-.54-1.92-.54-3.01s.18-2.11.54-3.03c.36-.92.87-1.71,1.52-2.37.65-.66,1.43-1.17,2.34-1.54s1.92-.55,3.04-.55c1.04,0,2.04.18,2.99.55.95.37,1.77.94,2.47,1.7l-2.04,1.86Z"/><path class="cls-1" d="m522.91,454.68h-3.87v6.45c0,.4,0,.79.03,1.18.02.39.09.74.22,1.05.13.31.33.56.6.75.27.19.67.29,1.19.29.32,0,.65-.03.99-.09.34-.06.65-.17.93-.33v2.46c-.32.18-.74.3-1.25.38s-.91.11-1.18.11c-1.04,0-1.85-.15-2.42-.44-.57-.29-.99-.66-1.26-1.12-.27-.46-.43-.97-.48-1.54s-.08-1.14-.08-1.72v-7.41h-3.12v-2.34h3.12v-3.99h2.7v3.99h3.87v2.34Z"/><path class="cls-1" d="m528.43,460.44c0,.62.13,1.19.41,1.7.27.51.62.94,1.06,1.3.44.36.95.64,1.53.84.58.2,1.18.3,1.8.3.84,0,1.57-.19,2.19-.58.62-.39,1.19-.9,1.71-1.54l2.04,1.56c-1.5,1.94-3.6,2.91-6.3,2.91-1.12,0-2.13-.19-3.04-.57s-1.68-.9-2.31-1.58c-.63-.67-1.12-1.46-1.46-2.37-.34-.91-.51-1.89-.51-2.96s.18-2.04.55-2.96c.37-.91.88-1.7,1.53-2.37.65-.67,1.42-1.2,2.33-1.58.9-.38,1.88-.57,2.94-.57,1.26,0,2.33.22,3.2.66.87.44,1.58,1.02,2.14,1.72.56.71.96,1.51,1.22,2.4.25.89.38,1.79.38,2.71v.96h-11.4Zm8.52-2.16c-.02-.6-.12-1.15-.28-1.65-.17-.5-.43-.93-.77-1.31-.34-.37-.76-.66-1.27-.87-.51-.21-1.11-.31-1.79-.31s-1.27.12-1.82.38-1.01.58-1.39.97c-.38.4-.67.85-.89,1.33-.21.49-.31.98-.31,1.46h8.52Z"/><path class="cls-1" d="m550.63,455.91c-.32-.4-.71-.73-1.18-1-.47-.27-1.04-.4-1.72-.4-.64,0-1.2.13-1.67.4-.47.27-.71.67-.71,1.19,0,.42.13.76.4,1.02.27.26.59.47.96.63.37.16.77.28,1.19.36s.78.15,1.08.21c.58.14,1.12.31,1.63.51.51.2.95.46,1.32.78.37.32.66.71.87,1.17s.31,1.02.31,1.68c0,.8-.17,1.49-.51,2.06-.34.57-.78,1.04-1.32,1.39-.54.36-1.15.62-1.84.78s-1.38.24-2.08.24c-1.18,0-2.22-.18-3.11-.54-.89-.36-1.68-1.02-2.38-1.98l2.04-1.68c.44.44.93.83,1.47,1.17s1.2.51,1.98.51c.34,0,.68-.03,1.04-.1.35-.07.66-.18.93-.33.27-.15.49-.34.66-.57.17-.23.25-.5.25-.79,0-.4-.12-.73-.38-.99-.25-.26-.55-.46-.9-.62-.35-.15-.72-.27-1.11-.36-.39-.09-.74-.17-1.04-.23-.58-.14-1.13-.3-1.65-.48-.52-.18-.98-.42-1.38-.72-.4-.3-.72-.68-.96-1.14-.24-.46-.36-1.03-.36-1.71,0-.74.15-1.38.46-1.93.31-.55.72-1,1.23-1.37s1.09-.63,1.74-.81c.65-.18,1.3-.27,1.96-.27.96,0,1.88.18,2.76.54s1.58.96,2.1,1.8l-2.1,1.59Z"/></g></svg>