<?xml version="1.0" encoding="UTF-8"?><svg id="Calque_1" xmlns="http://www.w3.org/2000/svg" viewBox="0 0 800 800"><defs><style>.cls-1,.cls-2{fill:#f91b00;}.cls-3{letter-spacing:-.02em;}.cls-2{font-family:Avenir-Medium, Avenir;font-size:40px;font-weight:500;}</style></defs><text/><text/><g><path class="cls-1" d="m72.82,256.72h9.24l-12.74,90.72h46.2l-1.12,8.4h-55.44l13.86-99.12Z"/><path class="cls-1" d="m185.38,343.66c-4.01,4.95-8.56,8.49-13.65,10.64-5.09,2.15-10.52,3.22-16.31,3.22-4.95,0-9.31-.84-13.09-2.52-3.78-1.68-6.91-4.04-9.38-7.07-2.47-3.03-4.2-6.63-5.18-10.78-.98-4.15-1.1-8.75-.35-13.79.65-4.85,2.08-9.33,4.27-13.44,2.19-4.11,4.95-7.68,8.26-10.71,3.31-3.03,7.05-5.41,11.2-7.14,4.15-1.73,8.61-2.59,13.37-2.59s9.19.86,12.74,2.59c3.55,1.73,6.42,4.01,8.61,6.86,2.19,2.85,3.69,6.09,4.48,9.73.79,3.64.91,7.33.35,11.06l-.84,5.88h-54.32c-.28,1.77-.26,4.04.07,6.79.33,2.75,1.24,5.44,2.73,8.05,1.49,2.61,3.66,4.85,6.51,6.72,2.85,1.87,6.74,2.8,11.69,2.8,4.29,0,8.61-1.03,12.95-3.08,4.34-2.05,7.82-4.85,10.43-8.4l5.46,5.18Zm-2.94-25.62c.37-2.89.19-5.6-.56-8.12-.75-2.52-2.01-4.74-3.78-6.65-1.77-1.91-3.94-3.43-6.51-4.55-2.57-1.12-5.39-1.68-8.47-1.68-4.57,0-8.52.93-11.83,2.8-3.31,1.87-6.04,4.01-8.19,6.44-2.15,2.43-3.76,4.78-4.83,7.07-1.07,2.29-1.66,3.85-1.75,4.69h45.92Z"/><path class="cls-1" d="m206.8,339.32c1.31,3.45,3.55,6.09,6.72,7.91,3.17,1.82,6.67,2.73,10.5,2.73,1.77,0,3.59-.28,5.46-.84,1.87-.56,3.57-1.35,5.11-2.38,1.54-1.03,2.85-2.26,3.92-3.71,1.07-1.45,1.75-3.1,2.03-4.97.28-2.24-.02-4.04-.91-5.39-.89-1.35-2.17-2.45-3.85-3.29s-3.62-1.54-5.81-2.1c-2.19-.56-4.46-1.1-6.79-1.61-2.33-.51-4.6-1.14-6.79-1.89-2.19-.75-4.11-1.77-5.74-3.08-1.63-1.31-2.87-2.96-3.71-4.97-.84-2.01-1.03-4.55-.56-7.63.47-3.17,1.52-5.93,3.15-8.26,1.63-2.33,3.62-4.27,5.95-5.81,2.33-1.54,4.85-2.68,7.56-3.43,2.71-.75,5.41-1.12,8.12-1.12,5.32,0,9.78.98,13.37,2.94,3.59,1.96,6.18,5.04,7.77,9.24l-8.26,4.48c-1.21-2.99-2.87-5.25-4.97-6.79-2.1-1.54-5.06-2.31-8.89-2.31-1.49,0-3.08.23-4.76.7-1.68.47-3.27,1.12-4.76,1.96-1.49.84-2.75,1.91-3.78,3.22-1.03,1.31-1.68,2.8-1.96,4.48-.37,2.89.28,5.04,1.96,6.44,1.68,1.4,3.9,2.5,6.65,3.29,2.75.79,5.74,1.47,8.96,2.03s6.16,1.47,8.82,2.73c2.66,1.26,4.76,3.08,6.3,5.46,1.54,2.38,2.03,5.76,1.47,10.15-.47,3.36-1.52,6.28-3.15,8.75-1.63,2.47-3.64,4.55-6.02,6.23-2.38,1.68-5.04,2.94-7.98,3.78s-5.95,1.26-9.03,1.26c-5.6,0-10.57-1.07-14.91-3.22-4.34-2.15-7.44-5.46-9.31-9.94l8.12-5.04Z"/><path class="cls-1" d="m316.7,256.72h9.24l-12.74,90.72h46.2l-1.12,8.4h-55.44l13.86-99.12Z"/><path class="cls-1" d="m424.5,328.68c-.47,3.17-.86,6.02-1.19,8.54-.33,2.52-.58,4.85-.77,7-.19,2.15-.33,4.15-.42,6.02-.09,1.87-.14,3.73-.14,5.6h-7.84c-.09-1.59-.09-3.27,0-5.04.09-1.77.28-3.59.56-5.46h-.28c-2.99,4.2-6.42,7.28-10.29,9.24-3.87,1.96-8.56,2.94-14.07,2.94-2.8,0-5.51-.35-8.12-1.05-2.61-.7-4.9-1.82-6.86-3.36s-3.43-3.52-4.41-5.95c-.98-2.43-1.24-5.37-.77-8.82.65-4.95,2.47-8.87,5.46-11.76,2.99-2.89,6.42-5.06,10.29-6.51,3.87-1.45,7.91-2.38,12.11-2.8s7.89-.63,11.06-.63h9.8l.56-3.92c.75-5.6-.42-9.61-3.5-12.04-3.08-2.43-7.23-3.64-12.46-3.64-7.56,0-14.51,2.43-20.86,7.28l-4.06-5.74c3.55-2.99,7.7-5.25,12.46-6.79,4.76-1.54,9.24-2.31,13.44-2.31,7.84,0,13.84,1.84,17.99,5.53,4.15,3.69,5.67,9.64,4.55,17.85l-2.24,15.82Zm-16.1-5.32c-3.55,0-7.02.23-10.43.7-3.41.47-6.49,1.26-9.24,2.38-2.75,1.12-5.09,2.61-7,4.48-1.91,1.87-3.06,4.2-3.43,7-.28,1.96-.09,3.71.56,5.25.65,1.54,1.61,2.8,2.87,3.78,1.26.98,2.73,1.73,4.41,2.24,1.68.51,3.41.77,5.18.77,4.48,0,8.26-.65,11.34-1.96,3.08-1.31,5.62-3.01,7.63-5.11,2.01-2.1,3.55-4.48,4.62-7.14,1.07-2.66,1.8-5.34,2.17-8.05l.56-4.34h-9.24Z"/><path class="cls-1" d="m449.56,309.36c.19-1.21.37-2.68.56-4.41.19-1.73.35-3.48.49-5.25.14-1.77.28-3.43.42-4.97.14-1.54.26-2.73.35-3.57h8.4c-.19,2.43-.42,4.76-.7,7-.28,2.24-.37,3.69-.28,4.34,2.71-3.83,5.9-6.95,9.59-9.38,3.69-2.43,7.96-3.64,12.81-3.64,1.49,0,3.08.23,4.76.7l-2.1,8.26c-1.03-.37-2.05-.56-3.08-.56-3.64,0-6.86.58-9.66,1.75-2.8,1.17-5.23,2.78-7.28,4.83-2.05,2.05-3.69,4.46-4.9,7.21-1.21,2.75-2.05,5.72-2.52,8.89l-4.9,35.28h-8.4l6.44-46.48Z"/><path class="cls-1" d="m496.18,309.36c.19-1.21.37-2.68.56-4.41.19-1.73.35-3.48.49-5.25.14-1.77.28-3.43.42-4.97.14-1.54.26-2.73.35-3.57h8.4c-.19,2.43-.42,4.76-.7,7-.28,2.24-.37,3.69-.28,4.34h.42c1.12-1.77,2.5-3.45,4.13-5.04,1.63-1.59,3.48-2.96,5.53-4.13,2.05-1.17,4.29-2.1,6.72-2.8,2.43-.7,4.95-1.05,7.56-1.05,4.29,0,8.07,1.1,11.34,3.29,3.27,2.19,5.32,5.76,6.16,10.71,2.71-4.85,6.25-8.4,10.64-10.64,4.39-2.24,8.82-3.36,13.3-3.36,5.04,0,9.05.79,12.04,2.38,2.99,1.59,5.2,3.66,6.65,6.23,1.45,2.57,2.26,5.53,2.45,8.89.19,3.36.05,6.81-.42,10.36l-5.32,38.5h-8.4l5.32-38.08c.37-2.61.51-5.16.42-7.63-.09-2.47-.61-4.69-1.54-6.65-.93-1.96-2.36-3.52-4.27-4.69-1.91-1.17-4.55-1.75-7.91-1.75-3.92,0-7.23.72-9.94,2.17-2.71,1.45-4.97,3.29-6.79,5.53-1.82,2.24-3.22,4.67-4.2,7.28-.98,2.61-1.61,5.09-1.89,7.42l-5.04,36.4h-8.4l5.46-38.92c.84-5.97.42-10.78-1.26-14.42-1.68-3.64-4.81-5.46-9.38-5.46-3.08,0-6.07.54-8.96,1.61-2.89,1.07-5.51,2.71-7.84,4.9-2.33,2.2-4.32,4.95-5.95,8.26-1.63,3.31-2.78,7.21-3.43,11.69l-4.48,32.34h-8.4l6.44-46.48Z"/><path class="cls-1" d="m667.82,343.66c-4.01,4.95-8.56,8.49-13.65,10.64-5.09,2.15-10.52,3.22-16.31,3.22-4.95,0-9.31-.84-13.09-2.52-3.78-1.68-6.91-4.04-9.38-7.07-2.47-3.03-4.2-6.63-5.18-10.78-.98-4.15-1.1-8.75-.35-13.79.65-4.85,2.08-9.33,4.27-13.44,2.19-4.11,4.95-7.68,8.26-10.71,3.31-3.03,7.05-5.41,11.2-7.14,4.15-1.73,8.61-2.59,13.37-2.59s9.19.86,12.74,2.59c3.55,1.73,6.42,4.01,8.61,6.86,2.19,2.85,3.69,6.09,4.48,9.73.79,3.64.91,7.33.35,11.06l-.84,5.88h-54.32c-.28,1.77-.26,4.04.07,6.79.33,2.75,1.24,5.44,2.73,8.05,1.49,2.61,3.66,4.85,6.51,6.72,2.85,1.87,6.74,2.8,11.69,2.8,4.29,0,8.61-1.03,12.95-3.08,4.34-2.05,7.82-4.85,10.43-8.4l5.46,5.18Zm-2.94-25.62c.37-2.89.19-5.6-.56-8.12-.75-2.52-2.01-4.74-3.78-6.65-1.77-1.91-3.94-3.43-6.51-4.55-2.57-1.12-5.39-1.68-8.47-1.68-4.57,0-8.52.93-11.83,2.8-3.31,1.87-6.04,4.01-8.19,6.44-2.15,2.43-3.76,4.78-4.83,7.07-1.07,2.29-1.66,3.85-1.75,4.69h45.92Z"/><path class="cls-1" d="m689.24,339.32c1.31,3.45,3.55,6.09,6.72,7.91,3.17,1.82,6.67,2.73,10.5,2.73,1.77,0,3.59-.28,5.46-.84,1.87-.56,3.57-1.35,5.11-2.38,1.54-1.03,2.85-2.26,3.92-3.71,1.07-1.45,1.75-3.1,2.03-4.97.28-2.24-.02-4.04-.91-5.39-.89-1.35-2.17-2.45-3.85-3.29-1.68-.84-3.62-1.54-5.81-2.1-2.19-.56-4.46-1.1-6.79-1.61-2.33-.51-4.6-1.14-6.79-1.89-2.19-.75-4.11-1.77-5.74-3.08-1.63-1.31-2.87-2.96-3.71-4.97-.84-2.01-1.03-4.55-.56-7.63.47-3.17,1.52-5.93,3.15-8.26,1.63-2.33,3.62-4.27,5.95-5.81,2.33-1.54,4.85-2.68,7.56-3.43,2.71-.75,5.41-1.12,8.12-1.12,5.32,0,9.78.98,13.37,2.94,3.59,1.96,6.18,5.04,7.77,9.24l-8.26,4.48c-1.21-2.99-2.87-5.25-4.97-6.79-2.1-1.54-5.06-2.31-8.89-2.31-1.49,0-3.08.23-4.76.7-1.68.47-3.27,1.12-4.76,1.96-1.49.84-2.75,1.91-3.78,3.22-1.03,1.31-1.68,2.8-1.96,4.48-.37,2.89.28,5.04,1.96,6.44,1.68,1.4,3.9,2.5,6.65,3.29,2.75.79,5.74,1.47,8.96,2.03,3.22.56,6.16,1.47,8.82,2.73,2.66,1.26,4.76,3.08,6.3,5.46,1.54,2.38,2.03,5.76,1.47,10.15-.47,3.36-1.52,6.28-3.15,8.75-1.63,2.47-3.64,4.55-6.02,6.23-2.38,1.68-5.04,2.94-7.98,3.78s-5.95,1.26-9.03,1.26c-5.6,0-10.57-1.07-14.91-3.22-4.34-2.15-7.44-5.46-9.31-9.94l8.12-5.04Z"/><path class="cls-1" d="m108.04,435.84h-19.32v-8.96h-.28c-.84,1.21-1.94,2.45-3.29,3.71-1.35,1.26-2.94,2.4-4.76,3.43-1.82,1.03-3.83,1.87-6.02,2.52-2.19.65-4.46.98-6.79.98-5.04,0-9.61-.86-13.72-2.59-4.11-1.73-7.63-4.15-10.57-7.28-2.94-3.13-5.2-6.84-6.79-11.13-1.59-4.29-2.38-9.01-2.38-14.14,0-4.76.72-9.31,2.17-13.65,1.45-4.34,3.5-8.19,6.16-11.55,2.66-3.36,5.9-6.04,9.73-8.05,3.83-2.01,8.17-3.01,13.02-3.01,4.39,0,8.47.68,12.25,2.03,3.78,1.35,6.88,3.66,9.31,6.93h.28v-45.08h21v105.84Zm-19.32-34.02c0-5.13-1.47-9.29-4.41-12.46-2.94-3.17-7.07-4.76-12.39-4.76s-9.45,1.59-12.39,4.76c-2.94,3.17-4.41,7.33-4.41,12.46s1.47,9.29,4.41,12.46c2.94,3.17,7.07,4.76,12.39,4.76s9.45-1.59,12.39-4.76c2.94-3.17,4.41-7.33,4.41-12.46Z"/><path class="cls-1" d="m190.36,435.84h-20.16v-9.24h-.28c-.75,1.31-1.7,2.61-2.87,3.92-1.17,1.31-2.59,2.47-4.27,3.5-1.68,1.03-3.59,1.87-5.74,2.52-2.15.65-4.48.98-7,.98-5.32,0-9.64-.82-12.95-2.45-3.31-1.63-5.88-3.9-7.7-6.79-1.82-2.89-3.03-6.3-3.64-10.22-.61-3.92-.91-8.17-.91-12.74v-37.52h21v33.32c0,1.96.07,3.99.21,6.09.14,2.1.56,4.04,1.26,5.81.7,1.77,1.77,3.22,3.22,4.34,1.45,1.12,3.52,1.68,6.23,1.68s4.9-.49,6.58-1.47c1.68-.98,2.96-2.29,3.85-3.92.89-1.63,1.47-3.48,1.75-5.53.28-2.05.42-4.2.42-6.44v-33.88h21v68.04Z"/><path class="cls-1" d="m268.47,356.04h-28.28v-19.32h78.4v19.32h-28.28v79.8h-21.84v-79.8Z"/><path class="cls-1" d="m355.69,427.3h-.28c-2.33,3.64-5.44,6.25-9.31,7.84-3.87,1.59-7.96,2.38-12.25,2.38-3.17,0-6.23-.44-9.17-1.33-2.94-.89-5.53-2.22-7.77-3.99-2.24-1.77-4.01-3.97-5.32-6.58-1.31-2.61-1.96-5.65-1.96-9.1,0-3.92.72-7.23,2.17-9.94,1.45-2.71,3.41-4.95,5.88-6.72,2.47-1.77,5.3-3.15,8.47-4.13,3.17-.98,6.46-1.7,9.87-2.17,3.41-.47,6.81-.75,10.22-.84,3.41-.09,6.56-.14,9.45-.14,0-3.73-1.33-6.7-3.99-8.89-2.66-2.19-5.81-3.29-9.45-3.29s-6.6.72-9.45,2.17c-2.85,1.45-5.39,3.43-7.63,5.95l-11.2-11.48c3.92-3.64,8.49-6.37,13.72-8.19,5.23-1.82,10.64-2.73,16.24-2.73,6.16,0,11.22.77,15.19,2.31,3.97,1.54,7.14,3.8,9.52,6.79,2.38,2.99,4.04,6.65,4.97,10.99.93,4.34,1.4,9.36,1.4,15.05v34.58h-19.32v-8.54Zm-5.18-21.28c-1.59,0-3.57.07-5.95.21-2.38.14-4.67.54-6.86,1.19-2.19.65-4.06,1.63-5.6,2.94-1.54,1.31-2.31,3.13-2.31,5.46,0,2.52,1.07,4.39,3.22,5.6,2.15,1.21,4.39,1.82,6.72,1.82,2.05,0,4.04-.28,5.95-.84,1.91-.56,3.62-1.35,5.11-2.38,1.49-1.03,2.68-2.33,3.57-3.92.89-1.59,1.33-3.45,1.33-5.6v-4.48h-5.18Z"/><path class="cls-1" d="m453.69,435.84h-20.16v-9.24h-.28c-.75,1.31-1.7,2.61-2.87,3.92-1.17,1.31-2.59,2.47-4.27,3.5-1.68,1.03-3.59,1.87-5.74,2.52-2.15.65-4.48.98-7,.98-5.32,0-9.64-.82-12.95-2.45-3.31-1.63-5.88-3.9-7.7-6.79-1.82-2.89-3.03-6.3-3.64-10.22-.61-3.92-.91-8.17-.91-12.74v-37.52h21v33.32c0,1.96.07,3.99.21,6.09.14,2.1.56,4.04,1.26,5.81.7,1.77,1.77,3.22,3.22,4.34,1.45,1.12,3.52,1.68,6.23,1.68s4.9-.49,6.58-1.47c1.68-.98,2.96-2.29,3.85-3.92.89-1.63,1.47-3.48,1.75-5.53.28-2.05.42-4.2.42-6.44v-33.88h21v68.04Z"/><path class="cls-1" d="m468.53,367.8h21v10.92h.28c2.24-4.2,4.9-7.35,7.98-9.45,3.08-2.1,6.95-3.15,11.62-3.15,1.21,0,2.43.05,3.64.14,1.21.09,2.33.28,3.36.56v19.18c-1.49-.47-2.96-.82-4.41-1.05-1.45-.23-2.96-.35-4.55-.35-4.01,0-7.19.56-9.52,1.68-2.33,1.12-4.13,2.68-5.39,4.69-1.26,2.01-2.08,4.41-2.45,7.21-.37,2.8-.56,5.88-.56,9.24v28.42h-21v-68.04Z"/><path class="cls-1" d="m587.39,424.08c-3.36,4.29-7.61,7.61-12.74,9.94-5.13,2.33-10.45,3.5-15.96,3.5s-10.15-.84-14.77-2.52c-4.62-1.68-8.63-4.08-12.04-7.21-3.41-3.12-6.09-6.88-8.05-11.27-1.96-4.39-2.94-9.29-2.94-14.7s.98-10.31,2.94-14.7c1.96-4.39,4.64-8.14,8.05-11.27,3.41-3.13,7.42-5.53,12.04-7.21,4.62-1.68,9.54-2.52,14.77-2.52,4.85,0,9.26.84,13.23,2.52,3.97,1.68,7.33,4.08,10.08,7.21,2.75,3.13,4.88,6.88,6.37,11.27,1.49,4.39,2.24,9.29,2.24,14.7v6.58h-48.72c.84,4.01,2.66,7.21,5.46,9.59s6.25,3.57,10.36,3.57c3.45,0,6.37-.77,8.75-2.31,2.38-1.54,4.46-3.52,6.23-5.95l14.7,10.78Zm-17.78-29.96c.09-3.55-1.07-6.58-3.5-9.1-2.43-2.52-5.55-3.78-9.38-3.78-2.33,0-4.39.37-6.16,1.12-1.77.75-3.29,1.7-4.55,2.87-1.26,1.17-2.24,2.52-2.94,4.06-.7,1.54-1.1,3.15-1.19,4.83h27.72Z"/><path class="cls-1" d="m646.05,427.3h-.28c-2.33,3.64-5.44,6.25-9.31,7.84-3.87,1.59-7.96,2.38-12.25,2.38-3.17,0-6.23-.44-9.17-1.33-2.94-.89-5.53-2.22-7.77-3.99-2.24-1.77-4.01-3.97-5.32-6.58-1.31-2.61-1.96-5.65-1.96-9.1,0-3.92.72-7.23,2.17-9.94,1.45-2.71,3.41-4.95,5.88-6.72,2.47-1.77,5.3-3.15,8.47-4.13,3.17-.98,6.46-1.7,9.87-2.17,3.41-.47,6.81-.75,10.22-.84,3.41-.09,6.56-.14,9.45-.14,0-3.73-1.33-6.7-3.99-8.89-2.66-2.19-5.81-3.29-9.45-3.29s-6.6.72-9.45,2.17c-2.85,1.45-5.39,3.43-7.63,5.95l-11.2-11.48c3.92-3.64,8.49-6.37,13.72-8.19,5.23-1.82,10.64-2.73,16.24-2.73,6.16,0,11.22.77,15.19,2.31,3.97,1.54,7.14,3.8,9.52,6.79,2.38,2.99,4.04,6.65,4.97,10.99.93,4.34,1.4,9.36,1.4,15.05v34.58h-19.32v-8.54Zm-5.18-21.28c-1.59,0-3.57.07-5.95.21s-4.67.54-6.86,1.19c-2.19.65-4.06,1.63-5.6,2.94-1.54,1.31-2.31,3.13-2.31,5.46,0,2.52,1.07,4.39,3.22,5.6,2.15,1.21,4.39,1.82,6.72,1.82,2.05,0,4.04-.28,5.95-.84,1.91-.56,3.62-1.35,5.11-2.38,1.49-1.03,2.68-2.33,3.57-3.92.89-1.59,1.33-3.45,1.33-5.6v-4.48h-5.18Z"/><path class="cls-1" d="m744.05,435.84h-20.16v-9.24h-.28c-.75,1.31-1.7,2.61-2.87,3.92-1.17,1.31-2.59,2.47-4.27,3.5-1.68,1.03-3.59,1.87-5.74,2.52-2.15.65-4.48.98-7,.98-5.32,0-9.64-.82-12.95-2.45-3.31-1.63-5.88-3.9-7.7-6.79-1.82-2.89-3.03-6.3-3.64-10.22-.61-3.92-.91-8.17-.91-12.74v-37.52h21v33.32c0,1.96.07,3.99.21,6.09.14,2.1.56,4.04,1.26,5.81.7,1.77,1.77,3.22,3.22,4.34,1.45,1.12,3.52,1.68,6.23,1.68s4.9-.49,6.58-1.47,2.96-2.29,3.85-3.92c.89-1.63,1.47-3.48,1.75-5.53.28-2.05.42-4.2.42-6.44v-33.88h21v68.04Z"/></g><text class="cls-2" transform="translate(192.67 505.75)"><tspan x="0" y="0">2021 - A</tspan><tspan class="cls-3" x="152" y="0">f</tspan><tspan x="164.6" y="0">fiche théât</tspan><tspan class="cls-3" x="357.24" y="0">r</tspan><tspan x="371.32" y="0">e</tspan></text></svg>