<?xml version="1.0" encoding="UTF-8"?><svg id="Calque_1" xmlns="http://www.w3.org/2000/svg" viewBox="0 0 800 800"><defs><style>.cls-1,.cls-2{fill:#ffe64b;}.cls-3{letter-spacing:-.02em;}.cls-2{font-family:Avenir-Medium, Avenir;font-size:40px;font-weight:500;}</style></defs><g><path class="cls-1" d="m271.13,299.77l-18.81,18.43h-6.65l-19.76-19.57v-92.91c0-2.66.09-5.06.28-7.22.19-2.15.67-3.92,1.43-5.32.76-1.39,2-2.47,3.71-3.23s4.08-1.14,7.12-1.14h29.83v27.17h-12.73v-14.25h-15.58v91.96l9.12,9.88,12.92-12.92,9.12,9.12Z"/><path class="cls-1" d="m292.03,160.5l10.83,10.64-10.83,10.64-10.64-10.64,10.64-10.64Zm6.46,28.31v129.39h-13.49v-129.39h13.49Z"/><path class="cls-1" d="m334.21,229.85v88.35h-13.3v-129.39h13.3v22.23l19.19-22.23h13.3v129.39h-13.3v-111.15l-19.19,22.8Z"/><path class="cls-1" d="m422.74,201.73h-28.31v74.67l13.11-12.92,9.12,9.31-22.23,22.04v10.45h28.31v12.92h-41.42v-129.39h41.42v12.92Zm-24.13-16.72l-7.22-7.98,15.96-16.53,10.07,10.83-18.81,13.68Z"/><path class="cls-1" d="m435.28,318.2v-110.2l22.61-23.18,16.15,16.34,15.58-16.34,22.42,22.42v110.96h-13.3v-106.78l-8.93-8.74-9.69,9.69v105.83h-13.3v-106.78l-8.74-8.74-9.5,9.69v105.83h-13.3Z"/><path class="cls-1" d="m574.36,188.81v129.39h-13.3v-22.23l-19.19,22.23h-12.92v-110.2c0-2.66.06-5.16.19-7.5.12-2.34.63-4.37,1.52-6.08.88-1.71,2.28-3.07,4.18-4.09,1.9-1.01,4.62-1.52,8.17-1.52h31.35Zm-13.3,12.92h-19.19v98.23l19.19-22.8v-75.43Z"/><path class="cls-1" d="m142.5,341.73h-28.31v74.67l13.11-12.92,9.12,9.31-22.23,22.04v10.45h28.31v12.92h-41.42v-129.2h41.42v12.73Z"/><path class="cls-1" d="m168.15,369.85v88.35h-13.3v-129.39h13.3v22.23l19.19-22.23h13.3v129.39h-13.3v-111.15l-19.19,22.8Z"/><path class="cls-1" d="m270.56,410.89l.38,47.31h-13.3v-129.58h21.66c3.04,0,5.98.32,8.83.95,2.85.64,5.35,1.8,7.5,3.52,2.15,1.71,3.9,4.05,5.23,7.03,1.33,2.98,2,6.81,2,11.5v27.55l-32.3,31.73Zm.38-18.24l18.24-18.24v-20.9c0-2.66-.26-4.78-.76-6.37-.51-1.58-1.21-2.75-2.09-3.51-.89-.76-1.93-1.26-3.13-1.52-1.21-.25-2.44-.38-3.71-.38h-8.55v50.92Z"/><path class="cls-1" d="m328.89,328.81v116.47h25.08v12.92h-38.38v-129.39h13.3Z"/><path class="cls-1" d="m404.32,341.73h-28.31v74.67l13.11-12.92,9.12,9.31-22.23,22.04v10.45h28.31v12.92h-41.42v-129.2h41.42v12.73Z"/><path class="cls-1" d="m426.36,300.5l10.83,10.64-10.83,10.64-10.64-10.64,10.64-10.64Zm6.46,28.31v129.39h-13.49v-129.39h13.49Z"/><path class="cls-1" d="m468.54,369.85v88.35h-13.3v-129.39h13.3v22.23l19.19-22.23h13.3v129.39h-13.3v-111.15l-19.19,22.8Z"/><path class="cls-1" d="m589.18,431.6l-10.64,10.64-10.83-10.64-3.23,26.6h-13.11l14.25-116.47h-9.69v-12.92h45.03v12.92h-9.69l14.82,116.47h-13.68l-3.23-26.6Zm-19.38-15.39l8.74,8.55,8.74-8.55-8.74-71.25-8.74,71.25Z"/><path class="cls-1" d="m628.13,300.5l10.83,10.64-10.83,10.64-10.64-10.64,10.64-10.64Zm6.46,28.31v129.39h-13.49v-129.39h13.49Z"/><path class="cls-1" d="m687.98,436.16l-9.5-9.69-8.17,7.98v23.75h-13.3v-129.39h22.23c3.04,0,5.92.32,8.64.95,2.72.64,5.1,1.81,7.12,3.51,2.02,1.71,3.64,4.02,4.84,6.94,1.2,2.92,1.81,6.71,1.81,11.4v51.68l-13.68,13.87,13.68,13.87v27.17h-13.68v-22.04Zm-17.67-19.57l17.67-17.48v-45.03c0-5.32-.83-8.71-2.47-10.16-1.65-1.46-3.74-2.19-6.27-2.19h-8.93v74.86Z"/></g><text class="cls-2" transform="translate(126.38 531.12)"><tspan x="0" y="0">2021 - Identité visuelle pour le </tspan><tspan x="-19.24" y="48">Cinéma en plein air de La </tspan><tspan class="cls-3" x="450.52" y="48">V</tspan><tspan x="475" y="48">ilette </tspan></text></svg>