<?xml version="1.0" encoding="UTF-8"?><svg id="Calque_1" xmlns="http://www.w3.org/2000/svg" viewBox="0 0 6290.2 970.5"><defs><style>.cls-1,.cls-2{fill:#666;}.cls-2{stroke:#666;stroke-miterlimit:10;stroke-width:20px;}.cls-3{isolation:isolate;}</style></defs><circle class="cls-1" cx="547.4" cy="527.3" r="300"/><circle class="cls-1" cx="538.72" cy="542.49" r="300"/><g class="cls-3"><g class="cls-3"><path class="cls-2" d="m1164.38,768.52l-14.74-8.04,54.27-106.53-8.71-2.68-42.21,4.69-31.49,20.1-23.45,30.82-4.69,28.81,6.7,28.14-16.75,4.02-7.37-32.16,6.7-37.52,27.47-34.84,36.85-23.45,50.25-6.03,14.74,4.69,207.7-407.36,14.74,6.7-206.36,405.35,20.77,6.03,42.21,34.84,22.78,47.57,40.2,22.78,56.95,7.37,50.25-13.4,34.84-22.11,24.79-43.55,15.41,8.71-25.46,45.56-42.88,28.14-56.28,14.74-62.31-8.04-48.91-27.47-22.11-47.57-34.84-30.82-23.45-7.37-55.61,109.88Z"/><path class="cls-2" d="m1603.89,685.44l-16.08-56.95-.67-2.68v-58.96l.67-2.68,18.76-60.3,1.34-3.35,32.83-44.89,2.01-2.01,34.17-24.79,6.03-2.01h71.02l6.03,2.01,36.85,24.79,2.01,2.01,32.16,44.89,1.34,2.68,4.02,12.06v-88.44h16.75v340.36h-16.75v-86.43l-4.02,12.73-1.34,3.35-32.16,41.54-2.68,2.01-36.85,24.79-5.36,2.01h-71.02l-6.03-2.01-34.17-24.79-2.01-2.01-28.14-35.51-8.71-17.42Zm18.76,3.35l30.15,38.86,32.16,23.45h67.67l34.17-23.45,30.82-40.2,18.76-61.64v-58.29l-19.43-58.29-31.49-42.88-33.5-24.12h-67l-31.49,23.45-32.16,44.22-17.42,56.95v58.96l12.06,43.55,6.7,19.43Z"/></g><g class="cls-3"><path class="cls-2" d="m2172.04,441.56h-115.91v325.62h-16.75v-325.62h-64.99v-16.08h64.99v-80.4l-38.86,38.19-10.72-10.05,49.58-49.58v-50.92h16.08v34.84l32.16-32.16,4.69-2.68h56.28l6.03,1.34,25.46,19.43,2.01,2.68,15.41,28.81v28.14h-15.41v-27.47l-12.73-20.77-22.11-16.08h-50.25l-41.54,40.87v95.81h116.58v16.08Z"/></g><g class="cls-3"><path class="cls-2" d="m2502.35,684.77l20.1-63.65v-194.3h16.75v340.36h-16.75v-91.12l-5.36,14.74-32.16,46.9-2.68,2.68-36.85,24.79-5.36,2.01h-59.63l-6.03-2.01-33.5-24.79-2.01-2.01-32.83-46.9-1.34-3.35-12.73-44.89-63.65,125.96-14.07-6.7,71.69-143.38v-192.29h16.75v194.97l17.42,61.64,30.82,44.22,32.16,23.45h54.27l36.18-24.12,28.81-42.21Z"/><path class="cls-2" d="m2831.98,718.27l-2.01,3.35-29.48,29.48-26.8,14.74-6.03,1.34h-57.62l-4.69-1.34-29.48-14.74-2.68-2.01-26.13-27.47-2.68-3.35-14.74-36.18,16.75-5.36,12.73,34.17,27.47,28.14,24.12,12.73h55.61l24.79-13.4,13.4-14.74,12.06-13.4,14.07-31.49v-34.84l-14.74-31.49-23.45-24.79h-.67l-28.81-9.38h-65.66l-6.03-2.01-21.44-9.38-4.02-2.68-16.75-26.13-2.01-3.35v-29.48l.67-4.02,10.72-32.16,2.01-2.68,23.45-22.78,3.35-2.01,26.13-13.4,4.69-1.34h50.25l6.03,1.34,24.12,13.4,3.35,2.01,23.45,22.78,2.01,3.35,16.08,37.52-16.08,6.7-17.42-38.86-22.11-20.77-21.44-12.06h-45.56l-24.79,11.39-21.44,21.44-10.05,31.49v23.45l12.73,22.11,25.46,10.72h62.31l6.03,1.34,29.48,10.05,2.01,2.01,27.47,26.13,2.01,3.35,14.74,34.84v41.54l-14.74,36.18Z"/><path class="cls-2" d="m3125.44,452.95l32.16,44.89,2.01,4.02,14.74,56.95v16.75h-243.88v47.57l17.42,60.3v.67l31.49,45.56,32.16,23.45h67.67l34.17-23.45,30.82-44.89,8.04,5.36-2.68-2.01,8.71,5.36-31.49,47.57-3.35,3.35-37.52,23.45-5.36,1.34h-71.02l-6.03-2.01-34.17-24.79-2.01-2.01-32.83-46.23-1.34-3.35-18.76-64.99-.67-2.68v-58.96l.67-2.68,18.76-60.3,1.34-3.35,32.83-44.89,2.01-2.01,34.17-25.46,6.03-2.01h71.02l6.03,2.01,36.85,25.46,2.01,2.01Zm-146.06,10.72l-31.49,43.55-16.08,51.59h223.78l-12.73-52.93-31.49-43.55-32.83-22.78h-67l-32.16,24.12Zm51.59-87.77l-16.08-8.71,62.31-136.68,16.75,8.71-62.98,136.68Z"/><path class="cls-2" d="m3461.77,682.76l14.07,8.71-31.49,47.57-3.35,3.35-37.52,23.45-5.36,1.34h-71.02l-6.03-2.01-36.18-26.8-32.83-46.23-1.34-3.35-19.43-65.66v-55.61l.67-2.68,20.1-63.65,34.84-46.9,34.17-25.46,6.03-2.01h71.02l6.03,2.01,38.86,27.47,32.16,44.89,2.01,4.02,14.74,56.95v16.08h-243.88v44.89l17.42,58.96,31.49,45.56,32.16,23.45h67.67l34.17-23.45,30.82-44.89Zm-164.82-215.74l-31.49,43.55-16.08,51.59h223.78l-12.73-52.93-31.49-43.55-32.83-22.78h-67l-32.16,24.12Z"/></g><g class="cls-3"><path class="cls-2" d="m3747.18,375.9h52.93l44.89,17.42,19.43,16.08,144.05-178.22h12.73v319.59l9.38-8.71,12.73-18.76h.67l17.42-31.49v-43.55h16.08v43.55l-1.34,4.69-23.45,44.22-18.09,18.76-13.4,12.73v194.97h-16.08l1.34-180.9-62.31,26.8-4.02.67h-54.94l-4.02-.67-54.94-25.46-3.35-2.01-44.22-41.54-1.34-2.01-182.24,225.79-12.06-10.05,186.26-231.15-4.69-9.38-10.72-24.12v-45.56h16.08v44.22l11.39,20.77,73.03-90.45-18.76-15.41-40.87-14.07h-40.87l-38.19,17.42-30.82,30.15-11.39,36.18v34.17h-16.75v-41.54l14.07-36.18,34.17-34.17,42.21-22.78Zm259.29,188.27l2.01-312.89-2.68,6.7-4.02,6.03-125.96,155.44,12.73,10.72,20.77,37.52,1.34,5.36v37.52h-16.75v-37.52l-18.09-32.83-10.05-8.04-76.38,94.47,3.35,6.03,40.87,40.87h.67l54.27,23.45h48.91l58.29-23.45h.67l10.05-9.38Z"/><path class="cls-2" d="m4131.08,588.96l-12.06-10.05,51.59-73.03v-79.06h16.75v54.94l17.42-24.79,2.01-2.68,14.74-10.72,3.35-2.01,26.13-13.4,4.69-1.34h50.25l6.03,1.34,24.12,13.4,3.35,2.01,23.45,22.78,2.01,3.35,13.4,32.83-16.08,6.7-14.74-34.17-22.11-20.77-21.44-12.06h-45.56l-24.79,11.39-12.73,9.38-33.5,46.9v257.28h-16.75v-233.83l-39.53,55.61Z"/><path class="cls-2" d="m4494.89,426.82v340.36h-16.08v-322.94h-64.99v-17.42h81.07Zm0-62.98h-16.75v-64.32h16.75v64.32Z"/><path class="cls-2" d="m4629.55,685.44l-16.08-56.95-.67-2.68v-58.96l.67-2.68,18.76-60.3,1.34-3.35,32.83-44.89,2.01-2.01,34.17-24.79,6.03-2.01h71.02l6.03,2.01,36.85,24.79,2.01,2.01,32.16,44.89,1.34,2.68,4.02,12.06v-88.44h16.75v340.36h-16.75v-86.43l-4.02,12.73-1.34,3.35-32.16,41.54-2.68,2.01-36.85,24.79-5.36,2.01h-71.02l-6.03-2.01-34.17-24.79-2.01-2.01-28.14-35.51-8.71-17.42Zm18.76,3.35l30.15,38.86,32.16,23.45h67.67l34.17-23.45,30.82-40.2,18.76-61.64v-58.29l-19.43-58.29-31.49-42.88-33.5-24.12h-67l-31.49,23.45-32.16,44.22-17.42,56.95v58.96l12.06,43.55,6.7,19.43Z"/><path class="cls-2" d="m5240.59,481.76l2.01,2.68,15.41,36.85.67,4.02v241.87h-16.75v-241.2l-15.41-35.51-26.13-29.48-32.83-18.09h-52.93l-35.51,18.09-28.14,32.16-12.73,18.09v255.94h-16.75v-231.82l-42.21,60.97-15.41-8.71,57.62-83.08v-77.72h16.75v53.6l28.81-30.82,2.68-2.01,38.86-19.43,4.69-1.34h55.61l4.69,1.34,36.18,19.43,2.68,2.01,28.14,32.16Z"/><path class="cls-2" d="m5559.5,682.76l14.07,8.71-31.49,47.57-3.35,3.35-37.52,23.45-5.36,1.34h-71.02l-6.03-2.01-36.18-26.8-32.83-46.23-1.34-3.35-19.43-65.66v-55.61l.67-2.68,20.1-63.65,34.84-46.9,34.17-25.46,6.03-2.01h71.02l6.03,2.01,38.86,27.47,32.16,44.89,2.01,4.02,14.74,56.95v16.08h-243.88v44.89l17.42,58.96,31.49,45.56,32.16,23.45h67.67l34.17-23.45,30.82-44.89Zm-164.82-215.74l-31.49,43.55-16.08,51.59h223.78l-12.73-52.93-31.49-43.55-32.83-22.78h-67l-32.16,24.12Z"/></g><g class="cls-3"><path class="cls-2" d="m5846.93,572.88h17.42v61.64l20.1,49.58,29.48,42.88,34.17,23.45h66.33l32.16-23.45,31.49-45.56v-.67l17.42-59.63v-58.96l-16.75-55.61-32.16-43.55-31.49-24.12h-99.16v-207.7h198.99v16.75h-182.24v174.87h87.77l38.86,29.48,32.16,44.22,1.34,3.35,19.43,62.98v58.29l-.67,2.68-20.1,66.33-34.17,49.58-34.17,24.79-6.03,2.01h-70.35l-5.36-2.01-36.85-24.79-2.68-2.68-33.5-48.91-21.44-52.26v-62.98Z"/></g></g></svg>