<?xml version="1.0" encoding="UTF-8"?><svg id="Calque_1" xmlns="http://www.w3.org/2000/svg" viewBox="0 0 6290.2 970.5"><defs><style>.cls-1{fill:#666;}</style></defs><circle class="cls-1" cx="547.4" cy="527.3" r="300"/><path class="cls-1" d="m2018.17,92.15l-135.03,1.28h-39.11v.05h-164.16l.05-.05c-5.06,0-8.84,1.28-13.91,1.28-50.51,6.29-104.76,47.96-104.76,154v121.17l-2.81,247.86L1341.7,45.47h-2.6v-1.28h-117.39v1.28h-3.74l3.68,9.78-3.72,683.15c8.84,109.82-35.33,141.37-71.94,186.82l155.27,1.28v-.05c44.17-66.88,37.84-135.08,37.84-176.7v-382.05l209.57,557.52h6.29s126.19,0,126.19,0l7.57-559.13v-30.27c0-138.86,15.13-109.82,155.23-114.88h20.2v-.05h29.13l124.96-1.28h-.05v-127.46Z"/><polygon class="cls-1" points="2310.94 307.87 2243.82 467.85 2175.86 306.64 2050.9 306.64 2181.18 617.17 2050.95 927.59 2175.91 927.59 2243.82 766.49 2310.89 926.36 2437.12 926.36 2306.77 617.17 2437.17 307.87 2310.94 307.87"/><polygon class="cls-1" points="1811.16 306.73 1746.79 306.73 1746.79 926.45 1835.14 926.45 1835.14 926.4 2015.62 926.4 2015.62 812.8 1879.6 812.8 1879.6 607.11 2015.62 607.11 2015.62 493.5 1879.6 493.5 1879.6 420.29 2015.62 420.29 2015.62 306.68 1811.16 306.68 1811.16 306.73"/><path class="cls-1" d="m3108.61,554.07l.02-.02-275.28-240.99.11-.13c-88.35-79.5,0-150.21,130.02-143.87h165.35V41.59h-275.17c-146.43,0-314.28,177.98-103.48,371.08v-.05l.32-.39,53.42,48.75-3.28,207.94c-1.24,84.29-51.9,127.47-102.8,128.69h-2.01v.05c-51.32.11-102.21-42.48-102.21-128.74,0-287.8,5.06-118.67,5.06-362.24h-122.4l-3.78,362.24c0,146.42,53.01,259.97,227.19,259.99,17.77,0,34.19-1.34,49.47-3.78h250.88c157.77,0,315.55-179.19,108.57-371.06Zm-178,243.55h-27.72c13.3-37.81,18.92-81.64,18.92-128.69l1.04-99.42,92.34,84.26c97.16,106.02,31.52,143.85-84.58,143.85Z"/><path class="cls-1" d="m2699.71,928.91s-.02,0-.02,0-.02,0-.02,0h.05Z"/></svg>