<?xml version="1.0" encoding="UTF-8"?><svg id="Calque_1" xmlns="http://www.w3.org/2000/svg" viewBox="0 0 6303 970.5"><defs><style>.cls-1{fill:#666;}</style></defs><g><g><path class="cls-1" d="m1219.35,682.3v-396.08h27.83v396.08h-27.83Zm28.47-396.73v-27.83h236.22v27.83h-236.22Zm0,425.21v-27.83h236.22v27.83h-236.22Zm13.59-203.22v-27.83h178.63v27.83h-178.63Z"/><path class="cls-1" d="m1558.48,710.78v-230.4h27.83v230.4h-27.83Zm29.12-231.05v-27.83h169.57v27.83h-169.57Zm170.21,231.05v-230.4h27.83v230.4h-27.83Z"/><path class="cls-1" d="m1837.41,670l101.61-220.69,25.24,11.65-101.61,220.69-25.24-11.65Zm25.24,40.77v-27.83h269.23v27.83h-269.23Zm102.9-249.82l18.77-20.06,115.85,110.67-19.41,20.06-115.2-110.67Z"/><path class="cls-1" d="m2154.54,710.78v-27.83h135.91v27.83h-135.91Zm48.54-34.3l19.41-194.16,27.83,2.59-19.42,194.16-27.83-2.59Zm41.42-220.04l137.21-35.6,7.12,27.18-137.2,34.95-7.12-26.53Z"/><path class="cls-1" d="m2417.95,563.86l111.32-116.5,20.06,18.77-111.32,116.49-20.06-18.77Zm6.47,118.43v-99.02h27.18v99.02h-27.18Zm27.83,28.48v-27.83h223.28v27.83h-223.28Zm9.71-124.26v-27.83h286.06v27.83h-286.06Zm88.02-120.38l11.65-25.24,203.22,93.84-11.65,25.24-203.22-93.84Z"/><path class="cls-1" d="m2803.67,710.78v-27.83h248.52v27.83h-248.52Zm20.71-231.05v-27.83h248.52v27.83h-248.52Zm7.77,25.24l18.12-20.71,192.86,172.15-18.77,20.71-192.21-172.15Z"/></g><g><path class="cls-1" d="m3346.61,710.78v-258.88h27.83v258.88h-27.83Zm29.13-174.74l243.35-89.31,9.71,26.54-243.34,89.31-9.71-26.53Zm209.05,174.74v-220.69h27.83v220.69h-27.83Z"/><path class="cls-1" d="m3683.8,676.48l30.42-130.09,27.18,5.83-30.42,130.08-27.18-5.82Zm27.83,34.3v-27.83h199.33v27.83h-199.33Zm30.42-158.56l11.65-24.59,163.74,78.96-12.29,24.59-163.09-78.96Zm26.53-72.49v-27.83h194.8v27.83h-194.8Zm150.15,231.05v-223.93h27.83v223.93h-27.83Z"/><path class="cls-1" d="m3995.74,431.84l12.29-24.59,183.8,90.61-12.29,24.59-183.8-90.61Zm65.36.65v-174.74h27.83v174.74h-27.83Zm0,249.82v-203.86h27.83v203.86h-27.83Zm28.47,28.48v-27.83h101.61v27.83h-101.61Z"/><path class="cls-1" d="m4233.91,682.3v-230.4h27.83v230.4h-27.83Zm28.47,28.48v-27.83h177.33v27.83h-177.33Zm177.98-28.48v-230.4h27.83v230.4h-27.83Z"/><path class="cls-1" d="m4545.85,710.78v-258.88h27.83v258.88h-27.83Zm36.89-231.05v-27.83h95.14v27.83h-95.14Zm95.78,0l16.18-22.65,53.72,38.83-16.18,22-53.72-38.18Z"/><path class="cls-1" d="m4784.01,563.86l111.32-116.5,20.06,18.77-111.32,116.49-20.06-18.77Zm6.47,118.43v-99.02h27.18v99.02h-27.18Zm27.83,28.48v-27.83h223.28v27.83h-223.28Zm9.71-124.26v-27.83h286.06v27.83h-286.06Zm88.02-120.38l11.65-25.24,203.22,93.84-11.65,25.24-203.22-93.84Z"/><path class="cls-1" d="m5195.62,682.3v-424.56h27.83v424.56h-27.83Zm28.47,28.48v-27.83h76.37v27.83h-76.37Z"/><path class="cls-1" d="m5349,682.3v-424.56h27.83v424.56h-27.83Zm28.48,28.48v-27.83h76.37v27.83h-76.37Z"/><path class="cls-1" d="m5482.97,563.86l111.32-116.5,20.06,18.77-111.32,116.49-20.07-18.77Zm6.47,118.43v-99.02h27.18v99.02h-27.18Zm27.83,28.48v-27.83h223.28v27.83h-223.28Zm9.71-124.26v-27.83h286.06v27.83h-286.06Zm88.02-120.38l11.65-25.24,203.22,93.84-11.65,25.24-203.22-93.84Z"/><path class="cls-1" d="m5868.69,710.78v-27.83h248.52v27.83h-248.52Zm20.71-231.05v-27.83h248.52v27.83h-248.52Zm7.77,25.24l18.12-20.71,192.86,172.15-18.77,20.71-192.21-172.16Z"/></g></g><circle class="cls-1" cx="534.98" cy="484.26" r="300"/></svg>