<?xml version="1.0" encoding="UTF-8"?><svg id="Calque_1" xmlns="http://www.w3.org/2000/svg" viewBox="0 0 6284.33 970.5"><defs><style>.cls-1{fill:#666;}</style></defs><g><path class="cls-1" d="m1264.02,362.83c-10.03-5.72-17.91-13.59-23.63-23.62-5.74-10.02-8.59-20.76-8.59-32.22s2.86-22.19,8.59-32.22c5.72-10.02,13.59-17.89,23.63-23.62,10.02-5.72,20.76-8.59,32.22-8.59s22.18,2.87,32.22,8.59c10.02,5.73,17.89,13.61,23.63,23.62,5.72,10.03,8.59,20.78,8.59,32.22s-2.87,22.2-8.59,32.22c-5.74,10.03-13.61,17.9-23.63,23.62-10.03,5.75-20.77,8.59-32.22,8.59s-22.2-2.85-32.22-8.59Zm0,107.4c-10.03-5.72-17.91-13.59-23.63-23.62-5.74-10.02-8.59-20.76-8.59-32.22s2.86-22.19,8.59-32.22c5.72-10.02,13.59-17.89,23.63-23.62,10.02-5.72,20.76-8.59,32.22-8.59s22.18,2.87,32.22,8.59c10.02,5.73,17.89,13.61,23.63,23.62,5.72,10.03,8.59,20.78,8.59,32.22s-2.87,22.2-8.59,32.22c-5.74,10.03-13.61,17.9-23.63,23.62-10.03,5.75-20.77,8.59-32.22,8.59s-22.2-2.85-32.22-8.59Zm0,107.4c-10.03-5.72-17.91-13.59-23.63-23.62-5.74-10.02-8.59-20.76-8.59-32.22s2.86-22.19,8.59-32.22c5.72-10.02,13.59-17.89,23.63-23.62,10.02-5.72,20.76-8.59,32.22-8.59s22.18,2.87,32.22,8.59c10.02,5.73,17.89,13.61,23.63,23.62,5.72,10.03,8.59,20.78,8.59,32.22s-2.87,22.2-8.59,32.22c-5.74,10.03-13.61,17.9-23.63,23.62-10.03,5.75-20.77,8.59-32.22,8.59s-22.2-2.85-32.22-8.59Zm0,107.4c-10.03-5.72-17.91-13.59-23.63-23.62-5.74-10.02-8.59-20.76-8.59-32.22s2.86-22.19,8.59-32.22c5.72-10.02,13.59-17.89,23.63-23.62,10.02-5.72,20.76-8.59,32.22-8.59s22.18,2.87,32.22,8.59c10.02,5.73,17.89,13.61,23.63,23.62,5.72,10.03,8.59,20.78,8.59,32.22s-2.87,22.2-8.59,32.22c-5.74,10.03-13.61,17.9-23.63,23.62-10.03,5.75-20.77,8.59-32.22,8.59s-22.2-2.85-32.22-8.59Zm0,107.4c-10.03-5.72-17.91-13.59-23.63-23.62-5.74-10.02-8.59-20.76-8.59-32.22s2.86-22.19,8.59-32.22c5.72-10.02,13.59-17.89,23.63-23.62,10.02-5.72,20.76-8.59,32.22-8.59s22.18,2.87,32.22,8.59c10.02,5.73,17.89,13.61,23.63,23.62,5.72,10.03,8.59,20.78,8.59,32.22s-2.87,22.2-8.59,32.22c-5.74,10.03-13.61,17.9-23.63,23.62-10.03,5.72-20.77,8.59-32.22,8.59s-22.2-2.87-32.22-8.59Zm107.4-214.8c-10.03-5.72-17.91-13.59-23.63-23.62-5.74-10.02-8.59-20.76-8.59-32.22s2.86-22.19,8.59-32.22c5.72-10.02,13.59-17.89,23.63-23.62,10.02-5.72,20.76-8.59,32.22-8.59s22.18,2.87,32.22,8.59c10.02,5.73,17.89,13.61,23.63,23.62,5.72,10.03,8.59,20.78,8.59,32.22s-2.87,22.2-8.59,32.22c-5.74,10.03-13.61,17.9-23.63,23.62-10.03,5.75-20.77,8.59-32.22,8.59s-22.2-2.85-32.22-8.59Zm107.4-214.8c-10.03-5.72-17.91-13.59-23.63-23.62-5.74-10.02-8.59-20.76-8.59-32.22s2.86-22.19,8.59-32.22c5.72-10.02,13.59-17.89,23.63-23.62,10.02-5.72,20.76-8.59,32.22-8.59s22.18,2.87,32.22,8.59c10.02,5.73,17.89,13.61,23.63,23.62,5.72,10.03,8.59,20.78,8.59,32.22s-2.87,22.2-8.59,32.22c-5.74,10.03-13.61,17.9-23.63,23.62-10.03,5.75-20.77,8.59-32.22,8.59s-22.2-2.85-32.22-8.59Zm0,107.4c-10.03-5.72-17.91-13.59-23.63-23.62-5.74-10.02-8.59-20.76-8.59-32.22s2.86-22.19,8.59-32.22c5.72-10.02,13.59-17.89,23.63-23.62,10.02-5.72,20.76-8.59,32.22-8.59s22.18,2.87,32.22,8.59c10.02,5.73,17.89,13.61,23.63,23.62,5.72,10.03,8.59,20.78,8.59,32.22s-2.87,22.2-8.59,32.22c-5.74,10.03-13.61,17.9-23.63,23.62-10.03,5.75-20.77,8.59-32.22,8.59s-22.2-2.85-32.22-8.59Zm0,107.4c-10.03-5.72-17.91-13.59-23.63-23.62-5.74-10.02-8.59-20.76-8.59-32.22s2.86-22.19,8.59-32.22c5.72-10.02,13.59-17.89,23.63-23.62,10.02-5.72,20.76-8.59,32.22-8.59s22.18,2.87,32.22,8.59c10.02,5.73,17.89,13.61,23.63,23.62,5.72,10.03,8.59,20.78,8.59,32.22s-2.87,22.2-8.59,32.22c-5.74,10.03-13.61,17.9-23.63,23.62-10.03,5.75-20.77,8.59-32.22,8.59s-22.2-2.85-32.22-8.59Zm0,107.4c-10.03-5.72-17.91-13.59-23.63-23.62-5.74-10.02-8.59-20.76-8.59-32.22s2.86-22.19,8.59-32.22c5.72-10.02,13.59-17.89,23.63-23.62,10.02-5.72,20.76-8.59,32.22-8.59s22.18,2.87,32.22,8.59c10.02,5.73,17.89,13.61,23.63,23.62,5.72,10.03,8.59,20.78,8.59,32.22s-2.87,22.2-8.59,32.22c-5.74,10.03-13.61,17.9-23.63,23.62-10.03,5.75-20.77,8.59-32.22,8.59s-22.2-2.85-32.22-8.59Zm0,107.4c-10.03-5.72-17.91-13.59-23.63-23.62-5.74-10.02-8.59-20.76-8.59-32.22s2.86-22.19,8.59-32.22c5.72-10.02,13.59-17.89,23.63-23.62,10.02-5.72,20.76-8.59,32.22-8.59s22.18,2.87,32.22,8.59c10.02,5.73,17.89,13.61,23.63,23.62,5.72,10.03,8.59,20.78,8.59,32.22s-2.87,22.2-8.59,32.22c-5.74,10.03-13.61,17.9-23.63,23.62-10.03,5.72-20.77,8.59-32.22,8.59s-22.2-2.87-32.22-8.59Z"/><path class="cls-1" d="m1693.61,470.23c-10.04-5.72-17.91-13.59-23.63-23.62-5.74-10.02-8.59-20.76-8.59-32.22s2.85-22.19,8.59-32.22c5.72-10.02,13.59-17.89,23.63-23.62,10.02-5.72,20.76-8.59,32.22-8.59s22.19,2.87,32.22,8.59c10.02,5.73,17.89,13.61,23.63,23.62,5.72,10.03,8.59,20.78,8.59,32.22s-2.87,22.2-8.59,32.22c-5.74,10.03-13.61,17.9-23.63,23.62-10.03,5.75-20.78,8.59-32.22,8.59s-22.2-2.85-32.22-8.59Zm0,107.4c-10.04-5.72-17.91-13.59-23.63-23.62-5.74-10.02-8.59-20.76-8.59-32.22s2.85-22.19,8.59-32.22c5.72-10.02,13.59-17.89,23.63-23.62,10.02-5.72,20.76-8.59,32.22-8.59s22.19,2.87,32.22,8.59c10.02,5.73,17.89,13.61,23.63,23.62,5.72,10.03,8.59,20.78,8.59,32.22s-2.87,22.2-8.59,32.22c-5.74,10.03-13.61,17.9-23.63,23.62-10.03,5.75-20.78,8.59-32.22,8.59s-22.2-2.85-32.22-8.59Zm0,107.4c-10.04-5.72-17.91-13.59-23.63-23.62-5.74-10.02-8.59-20.76-8.59-32.22s2.85-22.19,8.59-32.22c5.72-10.02,13.59-17.89,23.63-23.62,10.02-5.72,20.76-8.59,32.22-8.59s22.19,2.87,32.22,8.59c10.02,5.73,17.89,13.61,23.63,23.62,5.72,10.03,8.59,20.78,8.59,32.22s-2.87,22.2-8.59,32.22c-5.74,10.03-13.61,17.9-23.63,23.62-10.03,5.75-20.78,8.59-32.22,8.59s-22.2-2.85-32.22-8.59Zm107.4-322.2c-10.04-5.72-17.91-13.59-23.63-23.62-5.74-10.02-8.59-20.76-8.59-32.22s2.85-22.19,8.59-32.22c5.72-10.02,13.59-17.89,23.63-23.62,10.02-5.72,20.76-8.59,32.22-8.59s22.19,2.87,32.22,8.59c10.02,5.73,17.89,13.61,23.63,23.62,5.72,10.03,8.59,20.78,8.59,32.22s-2.87,22.2-8.59,32.22c-5.74,10.03-13.61,17.9-23.63,23.62-10.03,5.75-20.78,8.59-32.22,8.59s-22.2-2.85-32.22-8.59Zm0,429.6c-10.04-5.72-17.91-13.59-23.63-23.62-5.74-10.02-8.59-20.76-8.59-32.22s2.85-22.19,8.59-32.22c5.72-10.02,13.59-17.89,23.63-23.62,10.02-5.72,20.76-8.59,32.22-8.59s22.19,2.87,32.22,8.59c10.02,5.73,17.89,13.61,23.63,23.62,5.72,10.03,8.59,20.78,8.59,32.22s-2.87,22.2-8.59,32.22c-5.74,10.03-13.61,17.9-23.63,23.62-10.03,5.72-20.78,8.59-32.22,8.59s-22.2-2.87-32.22-8.59Zm107.4-322.2c-10.04-5.72-17.91-13.59-23.63-23.62-5.74-10.02-8.59-20.76-8.59-32.22s2.85-22.19,8.59-32.22c5.72-10.02,13.59-17.89,23.63-23.62,10.02-5.72,20.76-8.59,32.22-8.59s22.19,2.87,32.22,8.59c10.02,5.73,17.89,13.61,23.63,23.62,5.72,10.03,8.59,20.78,8.59,32.22s-2.87,22.2-8.59,32.22c-5.74,10.03-13.61,17.9-23.63,23.62-10.03,5.75-20.78,8.59-32.22,8.59s-22.2-2.85-32.22-8.59Zm0,107.4c-10.04-5.72-17.91-13.59-23.63-23.62-5.74-10.02-8.59-20.76-8.59-32.22s2.85-22.19,8.59-32.22c5.72-10.02,13.59-17.89,23.63-23.62,10.02-5.72,20.76-8.59,32.22-8.59s22.19,2.87,32.22,8.59c10.02,5.73,17.89,13.61,23.63,23.62,5.72,10.03,8.59,20.78,8.59,32.22s-2.87,22.2-8.59,32.22c-5.74,10.03-13.61,17.9-23.63,23.62-10.03,5.75-20.78,8.59-32.22,8.59s-22.2-2.85-32.22-8.59Zm0,107.4c-10.04-5.72-17.91-13.59-23.63-23.62-5.74-10.02-8.59-20.76-8.59-32.22s2.85-22.19,8.59-32.22c5.72-10.02,13.59-17.89,23.63-23.62,10.02-5.72,20.76-8.59,32.22-8.59s22.19,2.87,32.22,8.59c10.02,5.73,17.89,13.61,23.63,23.62,5.72,10.03,8.59,20.78,8.59,32.22s-2.87,22.2-8.59,32.22c-5.74,10.03-13.61,17.9-23.63,23.62-10.03,5.75-20.78,8.59-32.22,8.59s-22.2-2.85-32.22-8.59Z"/><path class="cls-1" d="m2123.21,362.83c-10.03-5.72-17.91-13.59-23.63-23.62-5.74-10.02-8.59-20.76-8.59-32.22s2.86-22.19,8.59-32.22c5.72-10.02,13.59-17.89,23.63-23.62,10.02-5.72,20.76-8.59,32.22-8.59s22.18,2.87,32.22,8.59c10.02,5.73,17.89,13.61,23.63,23.62,5.72,10.03,8.59,20.78,8.59,32.22s-2.87,22.2-8.59,32.22c-5.74,10.03-13.61,17.9-23.63,23.62-10.03,5.75-20.77,8.59-32.22,8.59s-22.2-2.85-32.22-8.59Zm0,107.4c-10.03-5.72-17.91-13.59-23.63-23.62-5.74-10.02-8.59-20.76-8.59-32.22s2.86-22.19,8.59-32.22c5.72-10.02,13.59-17.89,23.63-23.62,10.02-5.72,20.76-8.59,32.22-8.59s22.18,2.87,32.22,8.59c10.02,5.73,17.89,13.61,23.63,23.62,5.72,10.03,8.59,20.78,8.59,32.22s-2.87,22.2-8.59,32.22c-5.74,10.03-13.61,17.9-23.63,23.62-10.03,5.75-20.77,8.59-32.22,8.59s-22.2-2.85-32.22-8.59Zm0,107.4c-10.03-5.72-17.91-13.59-23.63-23.62-5.74-10.02-8.59-20.76-8.59-32.22s2.86-22.19,8.59-32.22c5.72-10.02,13.59-17.89,23.63-23.62,10.02-5.72,20.76-8.59,32.22-8.59s22.18,2.87,32.22,8.59c10.02,5.73,17.89,13.61,23.63,23.62,5.72,10.03,8.59,20.78,8.59,32.22s-2.87,22.2-8.59,32.22c-5.74,10.03-13.61,17.9-23.63,23.62-10.03,5.75-20.77,8.59-32.22,8.59s-22.2-2.85-32.22-8.59Zm0,107.4c-10.03-5.72-17.91-13.59-23.63-23.62-5.74-10.02-8.59-20.76-8.59-32.22s2.86-22.19,8.59-32.22c5.72-10.02,13.59-17.89,23.63-23.62,10.02-5.72,20.76-8.59,32.22-8.59s22.18,2.87,32.22,8.59c10.02,5.73,17.89,13.61,23.63,23.62,5.72,10.03,8.59,20.78,8.59,32.22s-2.87,22.2-8.59,32.22c-5.74,10.03-13.61,17.9-23.63,23.62-10.03,5.75-20.77,8.59-32.22,8.59s-22.2-2.85-32.22-8.59Zm0,107.4c-10.03-5.72-17.91-13.59-23.63-23.62-5.74-10.02-8.59-20.76-8.59-32.22s2.86-22.19,8.59-32.22c5.72-10.02,13.59-17.89,23.63-23.62,10.02-5.72,20.76-8.59,32.22-8.59s22.18,2.87,32.22,8.59c10.02,5.73,17.89,13.61,23.63,23.62,5.72,10.03,8.59,20.78,8.59,32.22s-2.87,22.2-8.59,32.22c-5.74,10.03-13.61,17.9-23.63,23.62-10.03,5.72-20.77,8.59-32.22,8.59s-22.2-2.87-32.22-8.59Zm107.4-429.6c-10.03-5.72-17.91-13.59-23.63-23.62-5.74-10.02-8.59-20.76-8.59-32.22s2.86-22.19,8.59-32.22c5.72-10.02,13.59-17.89,23.63-23.62,10.02-5.72,20.76-8.59,32.22-8.59s22.18,2.87,32.22,8.59c10.02,5.73,17.89,13.61,23.63,23.62,5.72,10.03,8.59,20.78,8.59,32.22s-2.87,22.2-8.59,32.22c-5.74,10.03-13.61,17.9-23.63,23.62-10.03,5.75-20.77,8.59-32.22,8.59s-22.2-2.85-32.22-8.59Zm0,214.8c-10.03-5.72-17.91-13.59-23.63-23.62-5.74-10.02-8.59-20.76-8.59-32.22s2.86-22.19,8.59-32.22c5.72-10.02,13.59-17.89,23.63-23.62,10.02-5.72,20.76-8.59,32.22-8.59s22.18,2.87,32.22,8.59c10.02,5.73,17.89,13.61,23.63,23.62,5.72,10.03,8.59,20.78,8.59,32.22s-2.87,22.2-8.59,32.22c-5.74,10.03-13.61,17.9-23.63,23.62-10.03,5.75-20.77,8.59-32.22,8.59s-22.2-2.85-32.22-8.59Zm107.4-107.4c-10.03-5.72-17.91-13.59-23.63-23.62-5.74-10.02-8.59-20.76-8.59-32.22s2.86-22.19,8.59-32.22c5.72-10.02,13.59-17.89,23.63-23.62,10.02-5.72,20.76-8.59,32.22-8.59s22.18,2.87,32.22,8.59c10.02,5.73,17.89,13.61,23.63,23.62,5.72,10.03,8.59,20.78,8.59,32.22s-2.87,22.2-8.59,32.22c-5.74,10.03-13.61,17.9-23.63,23.62-10.03,5.75-20.77,8.59-32.22,8.59s-22.2-2.85-32.22-8.59Z"/><path class="cls-1" d="m2660.21,362.83c-10.03-5.72-17.91-13.59-23.63-23.62-5.74-10.02-8.59-20.76-8.59-32.22s2.86-22.19,8.59-32.22c5.72-10.02,13.59-17.89,23.63-23.62,10.02-5.72,20.76-8.59,32.22-8.59s22.18,2.87,32.22,8.59c10.02,5.73,17.89,13.61,23.63,23.62,5.72,10.03,8.59,20.78,8.59,32.22s-2.87,22.2-8.59,32.22c-5.74,10.03-13.61,17.9-23.63,23.62-10.03,5.75-20.77,8.59-32.22,8.59s-22.2-2.85-32.22-8.59Zm0,107.4c-10.03-5.72-17.91-13.59-23.63-23.62-5.74-10.02-8.59-20.76-8.59-32.22s2.86-22.19,8.59-32.22c5.72-10.02,13.59-17.89,23.63-23.62,10.02-5.72,20.76-8.59,32.22-8.59s22.18,2.87,32.22,8.59c10.02,5.73,17.89,13.61,23.63,23.62,5.72,10.03,8.59,20.78,8.59,32.22s-2.87,22.2-8.59,32.22c-5.74,10.03-13.61,17.9-23.63,23.62-10.03,5.75-20.77,8.59-32.22,8.59s-22.2-2.85-32.22-8.59Zm0,107.4c-10.03-5.72-17.91-13.59-23.63-23.62-5.74-10.02-8.59-20.76-8.59-32.22s2.86-22.19,8.59-32.22c5.72-10.02,13.59-17.89,23.63-23.62,10.02-5.72,20.76-8.59,32.22-8.59s22.18,2.87,32.22,8.59c10.02,5.73,17.89,13.61,23.63,23.62,5.72,10.03,8.59,20.78,8.59,32.22s-2.87,22.2-8.59,32.22c-5.74,10.03-13.61,17.9-23.63,23.62-10.03,5.75-20.77,8.59-32.22,8.59s-22.2-2.85-32.22-8.59Zm0,107.4c-10.03-5.72-17.91-13.59-23.63-23.62-5.74-10.02-8.59-20.76-8.59-32.22s2.86-22.19,8.59-32.22c5.72-10.02,13.59-17.89,23.63-23.62,10.02-5.72,20.76-8.59,32.22-8.59s22.18,2.87,32.22,8.59c10.02,5.73,17.89,13.61,23.63,23.62,5.72,10.03,8.59,20.78,8.59,32.22s-2.87,22.2-8.59,32.22c-5.74,10.03-13.61,17.9-23.63,23.62-10.03,5.75-20.77,8.59-32.22,8.59s-22.2-2.85-32.22-8.59Zm0,107.4c-10.03-5.72-17.91-13.59-23.63-23.62-5.74-10.02-8.59-20.76-8.59-32.22s2.86-22.19,8.59-32.22c5.72-10.02,13.59-17.89,23.63-23.62,10.02-5.72,20.76-8.59,32.22-8.59s22.18,2.87,32.22,8.59c10.02,5.73,17.89,13.61,23.63,23.62,5.72,10.03,8.59,20.78,8.59,32.22s-2.87,22.2-8.59,32.22c-5.74,10.03-13.61,17.9-23.63,23.62-10.03,5.72-20.77,8.59-32.22,8.59s-22.2-2.87-32.22-8.59Zm107.4-214.8c-10.03-5.72-17.91-13.59-23.63-23.62-5.74-10.02-8.59-20.76-8.59-32.22s2.86-22.19,8.59-32.22c5.72-10.02,13.59-17.89,23.63-23.62,10.02-5.72,20.76-8.59,32.22-8.59s22.18,2.87,32.22,8.59c10.02,5.73,17.89,13.61,23.63,23.62,5.72,10.03,8.59,20.78,8.59,32.22s-2.87,22.2-8.59,32.22c-5.74,10.03-13.61,17.9-23.63,23.62-10.03,5.75-20.77,8.59-32.22,8.59s-22.2-2.85-32.22-8.59Zm107.4-214.8c-10.03-5.72-17.91-13.59-23.63-23.62-5.74-10.02-8.59-20.76-8.59-32.22s2.86-22.19,8.59-32.22c5.72-10.02,13.59-17.89,23.63-23.62,10.02-5.72,20.76-8.59,32.22-8.59s22.18,2.87,32.22,8.59c10.02,5.73,17.89,13.61,23.63,23.62,5.72,10.03,8.59,20.78,8.59,32.22s-2.87,22.2-8.59,32.22c-5.74,10.03-13.61,17.9-23.63,23.62-10.03,5.75-20.77,8.59-32.22,8.59s-22.2-2.85-32.22-8.59Zm0,107.4c-10.03-5.72-17.91-13.59-23.63-23.62-5.74-10.02-8.59-20.76-8.59-32.22s2.86-22.19,8.59-32.22c5.72-10.02,13.59-17.89,23.63-23.62,10.02-5.72,20.76-8.59,32.22-8.59s22.18,2.87,32.22,8.59c10.02,5.73,17.89,13.61,23.63,23.62,5.72,10.03,8.59,20.78,8.59,32.22s-2.87,22.2-8.59,32.22c-5.74,10.03-13.61,17.9-23.63,23.62-10.03,5.75-20.77,8.59-32.22,8.59s-22.2-2.85-32.22-8.59Zm0,107.4c-10.03-5.72-17.91-13.59-23.63-23.62-5.74-10.02-8.59-20.76-8.59-32.22s2.86-22.19,8.59-32.22c5.72-10.02,13.59-17.89,23.63-23.62,10.02-5.72,20.76-8.59,32.22-8.59s22.18,2.87,32.22,8.59c10.02,5.73,17.89,13.61,23.63,23.62,5.72,10.03,8.59,20.78,8.59,32.22s-2.87,22.2-8.59,32.22c-5.74,10.03-13.61,17.9-23.63,23.62-10.03,5.75-20.77,8.59-32.22,8.59s-22.2-2.85-32.22-8.59Zm0,107.4c-10.03-5.72-17.91-13.59-23.63-23.62-5.74-10.02-8.59-20.76-8.59-32.22s2.86-22.19,8.59-32.22c5.72-10.02,13.59-17.89,23.63-23.62,10.02-5.72,20.76-8.59,32.22-8.59s22.18,2.87,32.22,8.59c10.02,5.73,17.89,13.61,23.63,23.62,5.72,10.03,8.59,20.78,8.59,32.22s-2.87,22.2-8.59,32.22c-5.74,10.03-13.61,17.9-23.63,23.62-10.03,5.75-20.77,8.59-32.22,8.59s-22.2-2.85-32.22-8.59Zm0,107.4c-10.03-5.72-17.91-13.59-23.63-23.62-5.74-10.02-8.59-20.76-8.59-32.22s2.86-22.19,8.59-32.22c5.72-10.02,13.59-17.89,23.63-23.62,10.02-5.72,20.76-8.59,32.22-8.59s22.18,2.87,32.22,8.59c10.02,5.73,17.89,13.61,23.63,23.62,5.72,10.03,8.59,20.78,8.59,32.22s-2.87,22.2-8.59,32.22c-5.74,10.03-13.61,17.9-23.63,23.62-10.03,5.72-20.77,8.59-32.22,8.59s-22.2-2.87-32.22-8.59Z"/><path class="cls-1" d="m3089.81,470.23c-10.04-5.72-17.91-13.59-23.63-23.62-5.74-10.02-8.59-20.76-8.59-32.22s2.85-22.19,8.59-32.22c5.72-10.02,13.59-17.89,23.63-23.62,10.02-5.72,20.76-8.59,32.22-8.59s22.19,2.87,32.22,8.59c10.02,5.73,17.89,13.61,23.63,23.62,5.72,10.03,8.59,20.78,8.59,32.22s-2.87,22.2-8.59,32.22c-5.74,10.03-13.61,17.9-23.63,23.62-10.03,5.75-20.78,8.59-32.22,8.59s-22.2-2.85-32.22-8.59Zm0,107.4c-10.04-5.72-17.91-13.59-23.63-23.62-5.74-10.02-8.59-20.76-8.59-32.22s2.85-22.19,8.59-32.22c5.72-10.02,13.59-17.89,23.63-23.62,10.02-5.72,20.76-8.59,32.22-8.59s22.19,2.87,32.22,8.59c10.02,5.73,17.89,13.61,23.63,23.62,5.72,10.03,8.59,20.78,8.59,32.22s-2.87,22.2-8.59,32.22c-5.74,10.03-13.61,17.9-23.63,23.62-10.03,5.75-20.78,8.59-32.22,8.59s-22.2-2.85-32.22-8.59Zm0,107.4c-10.04-5.72-17.91-13.59-23.63-23.62-5.74-10.02-8.59-20.76-8.59-32.22s2.85-22.19,8.59-32.22c5.72-10.02,13.59-17.89,23.63-23.62,10.02-5.72,20.76-8.59,32.22-8.59s22.19,2.87,32.22,8.59c10.02,5.73,17.89,13.61,23.63,23.62,5.72,10.03,8.59,20.78,8.59,32.22s-2.87,22.2-8.59,32.22c-5.74,10.03-13.61,17.9-23.63,23.62-10.03,5.75-20.78,8.59-32.22,8.59s-22.2-2.85-32.22-8.59Zm107.4-322.2c-10.04-5.72-17.91-13.59-23.63-23.62-5.74-10.02-8.59-20.76-8.59-32.22s2.85-22.19,8.59-32.22c5.72-10.02,13.59-17.89,23.63-23.62,10.02-5.72,20.76-8.59,32.22-8.59s22.19,2.87,32.22,8.59c10.02,5.73,17.89,13.61,23.63,23.62,5.72,10.03,8.59,20.78,8.59,32.22s-2.87,22.2-8.59,32.22c-5.74,10.03-13.61,17.9-23.63,23.62-10.03,5.75-20.78,8.59-32.22,8.59s-22.2-2.85-32.22-8.59Zm0,429.6c-10.04-5.72-17.91-13.59-23.63-23.62-5.74-10.02-8.59-20.76-8.59-32.22s2.85-22.19,8.59-32.22c5.72-10.02,13.59-17.89,23.63-23.62,10.02-5.72,20.76-8.59,32.22-8.59s22.19,2.87,32.22,8.59c10.02,5.73,17.89,13.61,23.63,23.62,5.72,10.03,8.59,20.78,8.59,32.22s-2.87,22.2-8.59,32.22c-5.74,10.03-13.61,17.9-23.63,23.62-10.03,5.72-20.78,8.59-32.22,8.59s-22.2-2.87-32.22-8.59Zm107.4-322.2c-10.04-5.72-17.91-13.59-23.63-23.62-5.74-10.02-8.59-20.76-8.59-32.22s2.85-22.19,8.59-32.22c5.72-10.02,13.59-17.89,23.63-23.62,10.02-5.72,20.76-8.59,32.22-8.59s22.19,2.87,32.22,8.59c10.02,5.73,17.89,13.61,23.63,23.62,5.72,10.03,8.59,20.78,8.59,32.22s-2.87,22.2-8.59,32.22c-5.74,10.03-13.61,17.9-23.63,23.62-10.03,5.75-20.78,8.59-32.22,8.59s-22.2-2.85-32.22-8.59Zm0,107.4c-10.04-5.72-17.91-13.59-23.63-23.62-5.74-10.02-8.59-20.76-8.59-32.22s2.85-22.19,8.59-32.22c5.72-10.02,13.59-17.89,23.63-23.62,10.02-5.72,20.76-8.59,32.22-8.59s22.19,2.87,32.22,8.59c10.02,5.73,17.89,13.61,23.63,23.62,5.72,10.03,8.59,20.78,8.59,32.22s-2.87,22.2-8.59,32.22c-5.74,10.03-13.61,17.9-23.63,23.62-10.03,5.75-20.78,8.59-32.22,8.59s-22.2-2.85-32.22-8.59Zm0,107.4c-10.04-5.72-17.91-13.59-23.63-23.62-5.74-10.02-8.59-20.76-8.59-32.22s2.85-22.19,8.59-32.22c5.72-10.02,13.59-17.89,23.63-23.62,10.02-5.72,20.76-8.59,32.22-8.59s22.19,2.87,32.22,8.59c10.02,5.73,17.89,13.61,23.63,23.62,5.72,10.03,8.59,20.78,8.59,32.22s-2.87,22.2-8.59,32.22c-5.74,10.03-13.61,17.9-23.63,23.62-10.03,5.75-20.78,8.59-32.22,8.59s-22.2-2.85-32.22-8.59Z"/><path class="cls-1" d="m3519.4,362.83c-10.03-5.72-17.91-13.59-23.63-23.62-5.74-10.02-8.59-20.76-8.59-32.22s2.86-22.19,8.59-32.22c5.72-10.02,13.59-17.89,23.63-23.62,10.02-5.72,20.76-8.59,32.22-8.59s22.18,2.87,32.22,8.59c10.02,5.73,17.89,13.61,23.63,23.62,5.72,10.03,8.59,20.78,8.59,32.22s-2.87,22.2-8.59,32.22c-5.74,10.03-13.61,17.9-23.63,23.62-10.03,5.75-20.77,8.59-32.22,8.59s-22.2-2.85-32.22-8.59Zm0,107.4c-10.03-5.72-17.91-13.59-23.63-23.62-5.74-10.02-8.59-20.76-8.59-32.22s2.86-22.19,8.59-32.22c5.72-10.02,13.59-17.89,23.63-23.62,10.02-5.72,20.76-8.59,32.22-8.59s22.18,2.87,32.22,8.59c10.02,5.73,17.89,13.61,23.63,23.62,5.72,10.03,8.59,20.78,8.59,32.22s-2.87,22.2-8.59,32.22c-5.74,10.03-13.61,17.9-23.63,23.62-10.03,5.75-20.77,8.59-32.22,8.59s-22.2-2.85-32.22-8.59Zm0,107.4c-10.03-5.72-17.91-13.59-23.63-23.62-5.74-10.02-8.59-20.76-8.59-32.22s2.86-22.19,8.59-32.22c5.72-10.02,13.59-17.89,23.63-23.62,10.02-5.72,20.76-8.59,32.22-8.59s22.18,2.87,32.22,8.59c10.02,5.73,17.89,13.61,23.63,23.62,5.72,10.03,8.59,20.78,8.59,32.22s-2.87,22.2-8.59,32.22c-5.74,10.03-13.61,17.9-23.63,23.62-10.03,5.75-20.77,8.59-32.22,8.59s-22.2-2.85-32.22-8.59Zm0,107.4c-10.03-5.72-17.91-13.59-23.63-23.62-5.74-10.02-8.59-20.76-8.59-32.22s2.86-22.19,8.59-32.22c5.72-10.02,13.59-17.89,23.63-23.62,10.02-5.72,20.76-8.59,32.22-8.59s22.18,2.87,32.22,8.59c10.02,5.73,17.89,13.61,23.63,23.62,5.72,10.03,8.59,20.78,8.59,32.22s-2.87,22.2-8.59,32.22c-5.74,10.03-13.61,17.9-23.63,23.62-10.03,5.75-20.77,8.59-32.22,8.59s-22.2-2.85-32.22-8.59Zm0,107.4c-10.03-5.72-17.91-13.59-23.63-23.62-5.74-10.02-8.59-20.76-8.59-32.22s2.86-22.19,8.59-32.22c5.72-10.02,13.59-17.89,23.63-23.62,10.02-5.72,20.76-8.59,32.22-8.59s22.18,2.87,32.22,8.59c10.02,5.73,17.89,13.61,23.63,23.62,5.72,10.03,8.59,20.78,8.59,32.22s-2.87,22.2-8.59,32.22c-5.74,10.03-13.61,17.9-23.63,23.62-10.03,5.72-20.77,8.59-32.22,8.59s-22.2-2.87-32.22-8.59Zm107.4-429.6c-10.03-5.72-17.91-13.59-23.63-23.62-5.74-10.02-8.59-20.76-8.59-32.22s2.86-22.19,8.59-32.22c5.72-10.02,13.59-17.89,23.63-23.62,10.02-5.72,20.76-8.59,32.22-8.59s22.18,2.87,32.22,8.59c10.02,5.73,17.89,13.61,23.63,23.62,5.72,10.03,8.59,20.78,8.59,32.22s-2.87,22.2-8.59,32.22c-5.74,10.03-13.61,17.9-23.63,23.62-10.03,5.75-20.77,8.59-32.22,8.59s-22.2-2.85-32.22-8.59Zm0,214.8c-10.03-5.72-17.91-13.59-23.63-23.62-5.74-10.02-8.59-20.76-8.59-32.22s2.86-22.19,8.59-32.22c5.72-10.02,13.59-17.89,23.63-23.62,10.02-5.72,20.76-8.59,32.22-8.59s22.18,2.87,32.22,8.59c10.02,5.73,17.89,13.61,23.63,23.62,5.72,10.03,8.59,20.78,8.59,32.22s-2.87,22.2-8.59,32.22c-5.74,10.03-13.61,17.9-23.63,23.62-10.03,5.75-20.77,8.59-32.22,8.59s-22.2-2.85-32.22-8.59Zm107.4-107.4c-10.03-5.72-17.91-13.59-23.63-23.62-5.74-10.02-8.59-20.76-8.59-32.22s2.86-22.19,8.59-32.22c5.72-10.02,13.59-17.89,23.63-23.62,10.02-5.72,20.76-8.59,32.22-8.59s22.18,2.87,32.22,8.59c10.02,5.73,17.89,13.61,23.63,23.62,5.72,10.03,8.59,20.78,8.59,32.22s-2.87,22.2-8.59,32.22c-5.74,10.03-13.61,17.9-23.63,23.62-10.03,5.75-20.77,8.59-32.22,8.59s-22.2-2.85-32.22-8.59Z"/><path class="cls-1" d="m4056.41,362.83c-10.03-5.72-17.91-13.59-23.63-23.62-5.74-10.02-8.59-20.76-8.59-32.22s2.86-22.19,8.59-32.22c5.72-10.02,13.59-17.89,23.63-23.62,10.02-5.72,20.76-8.59,32.22-8.59s22.18,2.87,32.22,8.59c10.02,5.73,17.89,13.61,23.63,23.62,5.72,10.03,8.59,20.78,8.59,32.22s-2.87,22.2-8.59,32.22c-5.74,10.03-13.61,17.9-23.63,23.62-10.03,5.75-20.77,8.59-32.22,8.59s-22.2-2.85-32.22-8.59Zm0,107.4c-10.03-5.72-17.91-13.59-23.63-23.62-5.74-10.02-8.59-20.76-8.59-32.22s2.86-22.19,8.59-32.22c5.72-10.02,13.59-17.89,23.63-23.62,10.02-5.72,20.76-8.59,32.22-8.59s22.18,2.87,32.22,8.59c10.02,5.73,17.89,13.61,23.63,23.62,5.72,10.03,8.59,20.78,8.59,32.22s-2.87,22.2-8.59,32.22c-5.74,10.03-13.61,17.9-23.63,23.62-10.03,5.75-20.77,8.59-32.22,8.59s-22.2-2.85-32.22-8.59Zm0,107.4c-10.03-5.72-17.91-13.59-23.63-23.62-5.74-10.02-8.59-20.76-8.59-32.22s2.86-22.19,8.59-32.22c5.72-10.02,13.59-17.89,23.63-23.62,10.02-5.72,20.76-8.59,32.22-8.59s22.18,2.87,32.22,8.59c10.02,5.73,17.89,13.61,23.63,23.62,5.72,10.03,8.59,20.78,8.59,32.22s-2.87,22.2-8.59,32.22c-5.74,10.03-13.61,17.9-23.63,23.62-10.03,5.75-20.77,8.59-32.22,8.59s-22.2-2.85-32.22-8.59Zm0,107.4c-10.03-5.72-17.91-13.59-23.63-23.62-5.74-10.02-8.59-20.76-8.59-32.22s2.86-22.19,8.59-32.22c5.72-10.02,13.59-17.89,23.63-23.62,10.02-5.72,20.76-8.59,32.22-8.59s22.18,2.87,32.22,8.59c10.02,5.73,17.89,13.61,23.63,23.62,5.72,10.03,8.59,20.78,8.59,32.22s-2.87,22.2-8.59,32.22c-5.74,10.03-13.61,17.9-23.63,23.62-10.03,5.75-20.77,8.59-32.22,8.59s-22.2-2.85-32.22-8.59Zm0,107.4c-10.03-5.72-17.91-13.59-23.63-23.62-5.74-10.02-8.59-20.76-8.59-32.22s2.86-22.19,8.59-32.22c5.72-10.02,13.59-17.89,23.63-23.62,10.02-5.72,20.76-8.59,32.22-8.59s22.18,2.87,32.22,8.59c10.02,5.73,17.89,13.61,23.63,23.62,5.72,10.03,8.59,20.78,8.59,32.22s-2.87,22.2-8.59,32.22c-5.74,10.03-13.61,17.9-23.63,23.62-10.03,5.72-20.77,8.59-32.22,8.59s-22.2-2.87-32.22-8.59Zm107.4-214.8c-10.03-5.72-17.91-13.59-23.63-23.62-5.74-10.02-8.59-20.76-8.59-32.22s2.86-22.19,8.59-32.22c5.72-10.02,13.59-17.89,23.63-23.62,10.02-5.72,20.76-8.59,32.22-8.59s22.18,2.87,32.22,8.59c10.01,5.73,17.89,13.61,23.62,23.62,5.72,10.03,8.59,20.78,8.59,32.22s-2.87,22.2-8.59,32.22c-5.73,10.03-13.61,17.9-23.62,23.62-10.05,5.75-20.78,8.59-32.22,8.59s-22.2-2.85-32.22-8.59Zm107.4-214.8c-10.03-5.72-17.91-13.59-23.63-23.62-5.73-10.02-8.59-20.76-8.59-32.22s2.86-22.19,8.59-32.22c5.72-10.02,13.6-17.89,23.63-23.62,10.02-5.72,20.76-8.59,32.22-8.59s22.18,2.87,32.22,8.59c10.01,5.73,17.89,13.61,23.62,23.62,5.72,10.03,8.59,20.78,8.59,32.22s-2.87,22.2-8.59,32.22c-5.73,10.03-13.61,17.9-23.62,23.62-10.05,5.75-20.78,8.59-32.22,8.59s-22.2-2.85-32.22-8.59Zm0,107.4c-10.03-5.72-17.91-13.59-23.63-23.62-5.73-10.02-8.59-20.76-8.59-32.22s2.86-22.19,8.59-32.22c5.72-10.02,13.6-17.89,23.63-23.62,10.02-5.72,20.76-8.59,32.22-8.59s22.18,2.87,32.22,8.59c10.01,5.73,17.89,13.61,23.62,23.62,5.72,10.03,8.59,20.78,8.59,32.22s-2.87,22.2-8.59,32.22c-5.73,10.03-13.61,17.9-23.62,23.62-10.05,5.75-20.78,8.59-32.22,8.59s-22.2-2.85-32.22-8.59Zm0,107.4c-10.03-5.72-17.91-13.59-23.63-23.62-5.73-10.02-8.59-20.76-8.59-32.22s2.86-22.19,8.59-32.22c5.72-10.02,13.6-17.89,23.63-23.62,10.02-5.72,20.76-8.59,32.22-8.59s22.18,2.87,32.22,8.59c10.01,5.73,17.89,13.61,23.62,23.62,5.72,10.03,8.59,20.78,8.59,32.22s-2.87,22.2-8.59,32.22c-5.73,10.03-13.61,17.9-23.62,23.62-10.05,5.75-20.78,8.59-32.22,8.59s-22.2-2.85-32.22-8.59Zm0,107.4c-10.03-5.72-17.91-13.59-23.63-23.62-5.73-10.02-8.59-20.76-8.59-32.22s2.86-22.19,8.59-32.22c5.72-10.02,13.6-17.89,23.63-23.62,10.02-5.72,20.76-8.59,32.22-8.59s22.18,2.87,32.22,8.59c10.01,5.73,17.89,13.61,23.62,23.62,5.72,10.03,8.59,20.78,8.59,32.22s-2.87,22.2-8.59,32.22c-5.73,10.03-13.61,17.9-23.62,23.62-10.05,5.75-20.78,8.59-32.22,8.59s-22.2-2.85-32.22-8.59Zm0,107.4c-10.03-5.72-17.91-13.59-23.63-23.62-5.73-10.02-8.59-20.76-8.59-32.22s2.86-22.19,8.59-32.22c5.72-10.02,13.6-17.89,23.63-23.62,10.02-5.72,20.76-8.59,32.22-8.59s22.18,2.87,32.22,8.59c10.01,5.73,17.89,13.61,23.62,23.62,5.72,10.03,8.59,20.78,8.59,32.22s-2.87,22.2-8.59,32.22c-5.73,10.03-13.61,17.9-23.62,23.62-10.05,5.72-20.78,8.59-32.22,8.59s-22.2-2.87-32.22-8.59Z"/><path class="cls-1" d="m4486,470.23c-10.03-5.72-17.91-13.59-23.63-23.62-5.74-10.02-8.59-20.76-8.59-32.22s2.85-22.19,8.59-32.22c5.72-10.02,13.59-17.89,23.63-23.62,10.02-5.72,20.76-8.59,32.22-8.59s22.18,2.87,32.22,8.59c10.02,5.73,17.89,13.61,23.63,23.62,5.72,10.03,8.59,20.78,8.59,32.22s-2.87,22.2-8.59,32.22c-5.74,10.03-13.61,17.9-23.63,23.62-10.04,5.75-20.78,8.59-32.22,8.59s-22.2-2.85-32.22-8.59Zm0,107.4c-10.03-5.72-17.91-13.59-23.63-23.62-5.74-10.02-8.59-20.76-8.59-32.22s2.85-22.19,8.59-32.22c5.72-10.02,13.59-17.89,23.63-23.62,10.02-5.72,20.76-8.59,32.22-8.59s22.18,2.87,32.22,8.59c10.02,5.73,17.89,13.61,23.63,23.62,5.72,10.03,8.59,20.78,8.59,32.22s-2.87,22.2-8.59,32.22c-5.74,10.03-13.61,17.9-23.63,23.62-10.04,5.75-20.78,8.59-32.22,8.59s-22.2-2.85-32.22-8.59Zm0,107.4c-10.03-5.72-17.91-13.59-23.63-23.62-5.74-10.02-8.59-20.76-8.59-32.22s2.85-22.19,8.59-32.22c5.72-10.02,13.59-17.89,23.63-23.62,10.02-5.72,20.76-8.59,32.22-8.59s22.18,2.87,32.22,8.59c10.02,5.73,17.89,13.61,23.63,23.62,5.72,10.03,8.59,20.78,8.59,32.22s-2.87,22.2-8.59,32.22c-5.74,10.03-13.61,17.9-23.63,23.62-10.04,5.75-20.78,8.59-32.22,8.59s-22.2-2.85-32.22-8.59Zm107.4-322.2c-10.03-5.72-17.91-13.59-23.63-23.62-5.74-10.02-8.59-20.76-8.59-32.22s2.85-22.19,8.59-32.22c5.72-10.02,13.59-17.89,23.63-23.62,10.02-5.72,20.76-8.59,32.22-8.59s22.18,2.87,32.22,8.59c10.02,5.73,17.89,13.61,23.63,23.62,5.72,10.03,8.59,20.78,8.59,32.22s-2.87,22.2-8.59,32.22c-5.74,10.03-13.61,17.9-23.63,23.62-10.04,5.75-20.78,8.59-32.22,8.59s-22.2-2.85-32.22-8.59Zm0,429.6c-10.03-5.72-17.91-13.59-23.63-23.62-5.74-10.02-8.59-20.76-8.59-32.22s2.85-22.19,8.59-32.22c5.72-10.02,13.59-17.89,23.63-23.62,10.02-5.72,20.76-8.59,32.22-8.59s22.18,2.87,32.22,8.59c10.02,5.73,17.89,13.61,23.63,23.62,5.72,10.03,8.59,20.78,8.59,32.22s-2.87,22.2-8.59,32.22c-5.74,10.03-13.61,17.9-23.63,23.62-10.04,5.72-20.78,8.59-32.22,8.59s-22.2-2.87-32.22-8.59Zm107.4-322.2c-10.03-5.72-17.91-13.59-23.63-23.62-5.74-10.02-8.59-20.76-8.59-32.22s2.85-22.19,8.59-32.22c5.72-10.02,13.59-17.89,23.63-23.62,10.02-5.72,20.76-8.59,32.22-8.59s22.18,2.87,32.22,8.59c10.02,5.73,17.89,13.61,23.63,23.62,5.72,10.03,8.59,20.78,8.59,32.22s-2.87,22.2-8.59,32.22c-5.74,10.03-13.61,17.9-23.63,23.62-10.04,5.75-20.78,8.59-32.22,8.59s-22.2-2.85-32.22-8.59Zm0,107.4c-10.03-5.72-17.91-13.59-23.63-23.62-5.74-10.02-8.59-20.76-8.59-32.22s2.85-22.19,8.59-32.22c5.72-10.02,13.59-17.89,23.63-23.62,10.02-5.72,20.76-8.59,32.22-8.59s22.18,2.87,32.22,8.59c10.02,5.73,17.89,13.61,23.63,23.62,5.72,10.03,8.59,20.78,8.59,32.22s-2.87,22.2-8.59,32.22c-5.74,10.03-13.61,17.9-23.63,23.62-10.04,5.75-20.78,8.59-32.22,8.59s-22.2-2.85-32.22-8.59Zm0,107.4c-10.03-5.72-17.91-13.59-23.63-23.62-5.74-10.02-8.59-20.76-8.59-32.22s2.85-22.19,8.59-32.22c5.72-10.02,13.59-17.89,23.63-23.62,10.02-5.72,20.76-8.59,32.22-8.59s22.18,2.87,32.22,8.59c10.02,5.73,17.89,13.61,23.63,23.62,5.72,10.03,8.59,20.78,8.59,32.22s-2.87,22.2-8.59,32.22c-5.74,10.03-13.61,17.9-23.63,23.62-10.04,5.75-20.78,8.59-32.22,8.59s-22.2-2.85-32.22-8.59Z"/><path class="cls-1" d="m4915.59,362.83c-10.03-5.72-17.91-13.59-23.63-23.62-5.74-10.02-8.59-20.76-8.59-32.22s2.85-22.19,8.59-32.22c5.72-10.02,13.59-17.89,23.63-23.62,10.02-5.72,20.76-8.59,32.22-8.59s22.18,2.87,32.22,8.59c10.02,5.73,17.89,13.61,23.63,23.62,5.72,10.03,8.59,20.78,8.59,32.22s-2.87,22.2-8.59,32.22c-5.74,10.03-13.61,17.9-23.63,23.62-10.04,5.75-20.78,8.59-32.22,8.59s-22.2-2.85-32.22-8.59Zm0,107.4c-10.03-5.72-17.91-13.59-23.63-23.62-5.74-10.02-8.59-20.76-8.59-32.22s2.85-22.19,8.59-32.22c5.72-10.02,13.59-17.89,23.63-23.62,10.02-5.72,20.76-8.59,32.22-8.59s22.18,2.87,32.22,8.59c10.02,5.73,17.89,13.61,23.63,23.62,5.72,10.03,8.59,20.78,8.59,32.22s-2.87,22.2-8.59,32.22c-5.74,10.03-13.61,17.9-23.63,23.62-10.04,5.75-20.78,8.59-32.22,8.59s-22.2-2.85-32.22-8.59Zm0,107.4c-10.03-5.72-17.91-13.59-23.63-23.62-5.74-10.02-8.59-20.76-8.59-32.22s2.85-22.19,8.59-32.22c5.72-10.02,13.59-17.89,23.63-23.62,10.02-5.72,20.76-8.59,32.22-8.59s22.18,2.87,32.22,8.59c10.02,5.73,17.89,13.61,23.63,23.62,5.72,10.03,8.59,20.78,8.59,32.22s-2.87,22.2-8.59,32.22c-5.74,10.03-13.61,17.9-23.63,23.62-10.04,5.75-20.78,8.59-32.22,8.59s-22.2-2.85-32.22-8.59Zm0,107.4c-10.03-5.72-17.91-13.59-23.63-23.62-5.74-10.02-8.59-20.76-8.59-32.22s2.85-22.19,8.59-32.22c5.72-10.02,13.59-17.89,23.63-23.62,10.02-5.72,20.76-8.59,32.22-8.59s22.18,2.87,32.22,8.59c10.02,5.73,17.89,13.61,23.63,23.62,5.72,10.03,8.59,20.78,8.59,32.22s-2.87,22.2-8.59,32.22c-5.74,10.03-13.61,17.9-23.63,23.62-10.04,5.75-20.78,8.59-32.22,8.59s-22.2-2.85-32.22-8.59Zm0,107.4c-10.03-5.72-17.91-13.59-23.63-23.62-5.74-10.02-8.59-20.76-8.59-32.22s2.85-22.19,8.59-32.22c5.72-10.02,13.59-17.89,23.63-23.62,10.02-5.72,20.76-8.59,32.22-8.59s22.18,2.87,32.22,8.59c10.02,5.73,17.89,13.61,23.63,23.62,5.72,10.03,8.59,20.78,8.59,32.22s-2.87,22.2-8.59,32.22c-5.74,10.03-13.61,17.9-23.63,23.62-10.04,5.72-20.78,8.59-32.22,8.59s-22.2-2.87-32.22-8.59Zm107.4-429.6c-10.03-5.72-17.91-13.59-23.63-23.62-5.74-10.02-8.59-20.76-8.59-32.22s2.85-22.19,8.59-32.22c5.72-10.02,13.59-17.89,23.63-23.62,10.02-5.72,20.76-8.59,32.22-8.59s22.18,2.87,32.22,8.59c10.02,5.73,17.89,13.61,23.63,23.62,5.72,10.03,8.59,20.78,8.59,32.22s-2.87,22.2-8.59,32.22c-5.74,10.03-13.61,17.9-23.63,23.62-10.04,5.75-20.78,8.59-32.22,8.59s-22.2-2.85-32.22-8.59Zm0,214.8c-10.03-5.72-17.91-13.59-23.63-23.62-5.74-10.02-8.59-20.76-8.59-32.22s2.85-22.19,8.59-32.22c5.72-10.02,13.59-17.89,23.63-23.62,10.02-5.72,20.76-8.59,32.22-8.59s22.18,2.87,32.22,8.59c10.02,5.73,17.89,13.61,23.63,23.62,5.72,10.03,8.59,20.78,8.59,32.22s-2.87,22.2-8.59,32.22c-5.74,10.03-13.61,17.9-23.63,23.62-10.04,5.75-20.78,8.59-32.22,8.59s-22.2-2.85-32.22-8.59Zm107.4-107.4c-10.03-5.72-17.91-13.59-23.63-23.62-5.74-10.02-8.59-20.76-8.59-32.22s2.85-22.19,8.59-32.22c5.72-10.02,13.59-17.89,23.63-23.62,10.02-5.72,20.76-8.59,32.22-8.59s22.18,2.87,32.22,8.59c10.02,5.73,17.89,13.61,23.63,23.62,5.72,10.03,8.59,20.78,8.59,32.22s-2.87,22.2-8.59,32.22c-5.74,10.03-13.61,17.9-23.63,23.62-10.04,5.75-20.78,8.59-32.22,8.59s-22.2-2.85-32.22-8.59Z"/><path class="cls-1" d="m5345.19,362.83c-10.03-5.72-17.91-13.59-23.63-23.62-5.74-10.02-8.59-20.76-8.59-32.22s2.85-22.19,8.59-32.22c5.72-10.02,13.59-17.89,23.63-23.62,10.02-5.72,20.76-8.59,32.22-8.59s22.18,2.87,32.22,8.59c10.02,5.73,17.89,13.61,23.63,23.62,5.72,10.03,8.59,20.78,8.59,32.22s-2.87,22.2-8.59,32.22c-5.74,10.03-13.61,17.9-23.63,23.62-10.04,5.75-20.78,8.59-32.22,8.59s-22.2-2.85-32.22-8.59Zm0,107.4c-10.03-5.72-17.91-13.59-23.63-23.62-5.74-10.02-8.59-20.76-8.59-32.22s2.85-22.19,8.59-32.22c5.72-10.02,13.59-17.89,23.63-23.62,10.02-5.72,20.76-8.59,32.22-8.59s22.18,2.87,32.22,8.59c10.02,5.73,17.89,13.61,23.63,23.62,5.72,10.03,8.59,20.78,8.59,32.22s-2.87,22.2-8.59,32.22c-5.74,10.03-13.61,17.9-23.63,23.62-10.04,5.75-20.78,8.59-32.22,8.59s-22.2-2.85-32.22-8.59Zm0,107.4c-10.03-5.72-17.91-13.59-23.63-23.62-5.74-10.02-8.59-20.76-8.59-32.22s2.85-22.19,8.59-32.22c5.72-10.02,13.59-17.89,23.63-23.62,10.02-5.72,20.76-8.59,32.22-8.59s22.18,2.87,32.22,8.59c10.02,5.73,17.89,13.61,23.63,23.62,5.72,10.03,8.59,20.78,8.59,32.22s-2.87,22.2-8.59,32.22c-5.74,10.03-13.61,17.9-23.63,23.62-10.04,5.75-20.78,8.59-32.22,8.59s-22.2-2.85-32.22-8.59Zm0,107.4c-10.03-5.72-17.91-13.59-23.63-23.62-5.74-10.02-8.59-20.76-8.59-32.22s2.85-22.19,8.59-32.22c5.72-10.02,13.59-17.89,23.63-23.62,10.02-5.72,20.76-8.59,32.22-8.59s22.18,2.87,32.22,8.59c10.02,5.73,17.89,13.61,23.63,23.62,5.72,10.03,8.59,20.78,8.59,32.22s-2.87,22.2-8.59,32.22c-5.74,10.03-13.61,17.9-23.63,23.62-10.04,5.75-20.78,8.59-32.22,8.59s-22.2-2.85-32.22-8.59Zm0,107.4c-10.03-5.72-17.91-13.59-23.63-23.62-5.74-10.02-8.59-20.76-8.59-32.22s2.85-22.19,8.59-32.22c5.72-10.02,13.59-17.89,23.63-23.62,10.02-5.72,20.76-8.59,32.22-8.59s22.18,2.87,32.22,8.59c10.02,5.73,17.89,13.61,23.63,23.62,5.72,10.03,8.59,20.78,8.59,32.22s-2.87,22.2-8.59,32.22c-5.74,10.03-13.61,17.9-23.63,23.62-10.04,5.72-20.78,8.59-32.22,8.59s-22.2-2.87-32.22-8.59Zm107.4-429.6c-10.03-5.72-17.91-13.59-23.63-23.62-5.74-10.02-8.59-20.76-8.59-32.22s2.85-22.19,8.59-32.22c5.72-10.02,13.59-17.89,23.63-23.62,10.02-5.72,20.76-8.59,32.22-8.59s22.18,2.87,32.22,8.59c10.02,5.73,17.89,13.61,23.63,23.62,5.72,10.03,8.59,20.78,8.59,32.22s-2.87,22.2-8.59,32.22c-5.74,10.03-13.61,17.9-23.63,23.62-10.04,5.75-20.78,8.59-32.22,8.59s-22.2-2.85-32.22-8.59Zm0,214.8c-10.03-5.72-17.91-13.59-23.63-23.62-5.74-10.02-8.59-20.76-8.59-32.22s2.85-22.19,8.59-32.22c5.72-10.02,13.59-17.89,23.63-23.62,10.02-5.72,20.76-8.59,32.22-8.59s22.18,2.87,32.22,8.59c10.02,5.73,17.89,13.61,23.63,23.62,5.72,10.03,8.59,20.78,8.59,32.22s-2.87,22.2-8.59,32.22c-5.74,10.03-13.61,17.9-23.63,23.62-10.04,5.75-20.78,8.59-32.22,8.59s-22.2-2.85-32.22-8.59Zm0,214.8c-10.03-5.72-17.91-13.59-23.63-23.62-5.74-10.02-8.59-20.76-8.59-32.22s2.85-22.19,8.59-32.22c5.72-10.02,13.59-17.89,23.63-23.62,10.02-5.72,20.76-8.59,32.22-8.59s22.18,2.87,32.22,8.59c10.02,5.73,17.89,13.61,23.63,23.62,5.72,10.03,8.59,20.78,8.59,32.22s-2.87,22.2-8.59,32.22c-5.74,10.03-13.61,17.9-23.63,23.62-10.04,5.72-20.78,8.59-32.22,8.59s-22.2-2.87-32.22-8.59Z"/></g><circle class="cls-1" cx="547.42" cy="521.78" r="300"/></svg>