<?xml version="1.0" encoding="UTF-8"?><svg id="Calque_1" xmlns="http://www.w3.org/2000/svg" viewBox="0 0 6290.22 970.5"><defs><style>.cls-1{fill:#666;}</style></defs><g><path class="cls-1" d="m1610.12,727.97c10.02-1.05,16.23-2.77,18.6-5.15,2.37-2.37,3.56-5.4,3.56-9.1v-291.26l-1.58-1.58-140.89,307.09-139.29-310.26h-1.58v296.01c0,3.7,1.19,6.73,3.56,9.1,2.38,2.38,8.57,4.1,18.6,5.15v9.5h-139.29v-9.5c10.02-1.05,16.22-2.77,18.6-5.15s3.56-5.4,3.56-9.1v-368.83c0-3.68-1.19-6.73-3.56-9.1-2.38-2.37-8.59-4.08-18.6-5.15v-9.5h206.58v9.5c-12.66.53-19,5.28-19,14.25,0,.53,1.58,4.75,4.75,12.66,3.16,7.92,7.24,17.68,12.26,29.29,5.01,11.61,10.55,24.14,16.62,37.59,6.07,13.46,11.88,26.4,17.42,38.79,5.54,12.41,10.41,23.34,14.65,32.84,4.21,9.5,7.12,15.83,8.7,18.99,8.97-20.04,18.21-39.57,27.7-58.57,9.49-18.99,18.07-36.41,25.73-52.24,7.64-15.83,13.85-29.02,18.6-39.57,4.75-10.54,7.12-17.14,7.12-19.79,0-8.97-6.33-13.71-18.99-14.25v-9.5h214.49v9.5c-10.02,1.06-16.22,2.78-18.6,5.15-2.37,2.37-3.56,5.42-3.56,9.1v368.83c0,3.7,1.19,6.73,3.56,9.1,2.38,2.38,8.58,4.1,18.6,5.15v9.5h-158.29v-9.5Z"/><path class="cls-1" d="m2115.87,316.41c33.76,0,65.56,4.62,95.37,13.85,29.81,9.24,55.93,22.83,78.36,40.76,22.42,17.94,40.23,40.1,53.42,66.48,13.18,26.4,19.79,56.99,19.79,91.81s-6.6,65.43-19.79,91.81c-13.19,26.4-31,48.55-53.42,66.48-22.43,17.94-48.55,31.14-78.36,39.57-29.81,8.45-61.6,12.66-95.37,12.66s-65.57-4.21-95.38-12.66c-29.81-8.44-55.93-21.63-78.35-39.57-22.44-17.93-40.24-40.09-53.43-66.48-13.2-26.38-19.79-56.98-19.79-91.81s6.59-65.42,19.79-91.81c13.18-26.38,30.99-48.54,53.43-66.48,22.41-17.93,48.54-31.52,78.35-40.76,29.81-9.22,61.6-13.85,95.38-13.85Zm0,96.55c-17.42,0-33.91,2.65-49.47,7.92-15.57,5.28-29.29,12.79-41.16,22.56-11.88,9.76-21.37,21.9-28.5,36.4-7.12,14.52-10.68,31.01-10.68,49.47s3.56,34.96,10.68,49.47c7.12,14.52,16.62,26.65,28.5,36.4,11.87,9.78,25.58,17.29,41.16,22.56,15.56,5.28,32.05,7.92,49.47,7.92s33.89-2.64,49.47-7.92c15.56-5.27,29.28-12.78,41.16-22.56,11.86-9.75,21.36-21.89,28.49-36.4,7.12-14.51,10.69-30.99,10.69-49.47s-3.56-34.95-10.69-49.47c-7.12-14.51-16.62-26.64-28.49-36.4-11.88-9.76-25.6-17.27-41.16-22.56-15.57-5.27-32.06-7.92-49.47-7.92Z"/><path class="cls-1" d="m2878.83,640.9c4.22,0,7.38-1.44,9.49-4.35,2.11-2.89,3.69-8.82,4.75-17.8h9.49v136.92h-9.49c-1.06-8.45-2.65-13.59-4.75-15.43-2.11-1.86-5.28-2.77-9.49-2.77h-413.15v-9.5c10.02-1.05,16.22-2.77,18.6-5.15,2.38-2.37,3.57-5.4,3.57-9.1v-368.83c0-3.68-1.19-6.73-3.57-9.1-2.37-2.37-8.58-4.08-18.6-5.15v-9.5h163.04v9.5c-10.03,1.06-16.22,2.78-18.6,5.15-2.37,2.37-3.56,5.42-3.56,9.1v296.01h272.26Z"/><path class="cls-1" d="m3305.43,585.5c-1.07-5.27-3.3-9.62-6.73-13.06-3.43-3.43-9.1-5.15-17.02-5.15h-147.21v73.61h254.06c4.21,0,7.38-1.44,9.49-4.35,2.11-2.89,3.68-9.36,4.75-19.39h9.49v135.34h-9.49c-1.07-6.87-2.65-11.08-4.75-12.66-2.11-1.58-5.28-2.37-9.49-2.37h-394.94v-9.5c10.02-1.05,16.22-2.77,18.6-5.15,2.38-2.37,3.57-5.4,3.57-9.1v-368.83c0-3.68-1.19-6.73-3.57-9.1-2.37-2.37-8.58-4.08-18.6-5.15v-9.5h394.94c4.21,0,7.38-1.44,9.49-4.35,2.11-2.89,3.68-8.83,4.75-17.81h9.49v137.72h-9.49c-1.07-8.97-2.65-14.9-4.75-17.81-2.11-2.89-5.28-4.35-9.49-4.35h-254.06v65.7h147.21c7.92,0,13.58-1.71,17.02-5.15,3.43-3.43,5.66-7.78,6.73-13.06h9.49v123.46h-9.49Z"/><path class="cls-1" d="m3556.32,576.8c-1.07,3.16-1.58,8.7-1.58,16.62,0,5.28,4.87,11.21,14.64,17.8,9.76,6.61,22.42,12.8,38,18.6,15.55,5.81,33.36,10.68,53.42,14.64,20.04,3.96,40.36,5.93,60.94,5.93,39.57,0,68.58-4.61,87.06-13.85,18.47-9.22,27.7-22.56,27.7-39.97,0-9.5-8.05-16.22-24.14-20.18-16.1-3.96-36.28-7.12-60.55-9.5-24.28-2.38-50.39-5-78.36-7.92-27.98-2.89-54.09-8.17-78.36-15.83-24.27-7.64-44.46-18.72-60.55-33.24-16.1-14.51-24.14-34.43-24.14-59.76,0-20.04,4.61-38.25,13.85-54.61,9.22-16.35,22.16-30.34,38.78-41.96,16.62-11.59,36.8-20.7,60.55-27.3,23.74-6.6,50.12-9.89,79.15-9.89,26.91,0,51.97,1.71,75.19,5.14,23.21,3.44,43.79,7.26,61.73,11.48,17.93,4.23,32.98,8.05,45.11,11.48,12.13,3.44,20.84,5.14,26.12,5.14s9.49-1.19,12.66-3.56c3.17-2.38,6.05-5.15,8.71-8.32l8.7,3.16-54.61,110.02-9.49-4.75v-8.71c0-4.75-5.15-9.62-15.43-14.65-10.29-5-23.35-9.49-39.18-13.45-15.83-3.95-33.51-7.25-53.03-9.89-19.53-2.63-38.52-3.95-56.98-3.95-34.3,0-58.31,3.95-72.02,11.86-13.73,7.92-20.58,16.36-20.58,25.33s4.75,15.71,14.25,20.19c9.49,4.49,21.89,7.79,37.2,9.89,15.3,2.11,32.71,3.84,52.24,5.15,19.52,1.32,39.57,3.3,60.15,5.93,20.58,2.65,40.63,6.34,60.15,11.09,19.51,4.75,36.93,11.75,52.24,20.97,15.3,9.24,27.7,21.37,37.2,36.41,9.5,15.03,14.25,33.91,14.25,56.59,0,17.41-3.56,34.56-10.68,51.44-7.12,16.9-19.27,32.06-36.41,45.51-17.15,13.46-40.11,24.14-68.86,32.06-28.77,7.92-64.5,11.87-107.24,11.87-33.24,0-61.87-1.58-85.87-4.75-24.02-3.16-44.46-6.99-61.34-11.48-16.89-4.48-30.21-8.57-39.97-12.27-9.77-3.68-17.02-5.54-21.76-5.54-3.17,0-5.94,1.07-8.31,3.17-2.38,2.11-4.89,4.49-7.52,7.12l-9.49-2.38,58.56-140.88,7.92,3.96Z"/><path class="cls-1" d="m4362.03,727.97c4.75,0,8.44-.39,11.08-1.19,2.64-.79,3.96-3.81,3.96-9.09,0-1.58-2.38-6.34-7.12-14.25-4.75-7.92-10.82-17.67-18.2-29.29-7.39-11.6-15.57-24.01-24.53-37.2-8.98-13.18-17.42-25.85-25.33-37.99-7.92-12.13-15.04-22.69-21.37-31.66-6.34-8.97-10.56-15.03-12.66-18.2l-77.56,69.65v94.97c0,3.7,1.19,6.73,3.56,9.1,2.38,2.38,8.57,4.1,18.6,5.15v9.5h-163.04v-9.5c10.02-1.05,16.22-2.77,18.6-5.15,2.38-2.37,3.57-5.4,3.57-9.1v-368.83c0-3.68-1.19-6.73-3.57-9.1-2.37-2.37-8.58-4.08-18.6-5.15v-9.5h163.04v9.5c-10.03,1.06-16.22,2.78-18.6,5.15-2.37,2.37-3.56,5.42-3.56,9.1v142.47h5.54c15.83-15.3,32.84-31.13,51.05-47.5,18.2-16.35,34.95-31.52,50.25-45.51,15.3-13.97,28.1-25.85,38.39-35.61s15.43-15.7,15.43-17.82c0-4.74-1.33-7.51-3.95-8.31-2.65-.79-6.07-1.44-10.29-1.98v-9.5h201.04v9.5c-5.28.53-9.64,1.32-13.06,2.38-3.44,1.06-6.61,2.64-9.49,4.75-2.91,2.12-6.08,4.62-9.49,7.52-3.44,2.91-7.52,6.47-12.28,10.69l-136.92,117.92,161.46,241.4c4.21,6.33,8.17,10.03,11.86,11.08,3.7,1.06,8.18,1.58,13.46,1.58v9.5h-181.25v-9.5Z"/><path class="cls-1" d="m4629.54,727.97c10.02-1.05,16.22-2.77,18.6-5.15s3.56-5.4,3.56-9.1v-368.83c0-3.68-1.19-6.73-3.56-9.1-2.38-2.37-8.59-4.08-18.6-5.15v-9.5h163.04v9.5c-10.03,1.06-16.22,2.78-18.6,5.15-2.38,2.37-3.56,5.42-3.56,9.1v368.83c0,3.7,1.19,6.73,3.56,9.1,2.37,2.38,8.57,4.1,18.6,5.15v9.5h-163.04v-9.5Z"/><path class="cls-1" d="m4950.87,344.89c0-3.68-1.19-6.73-3.56-9.1-2.38-2.37-8.59-4.08-18.6-5.15v-9.5h190.74v9.5c-8.98.53-14.91,1.72-17.8,3.56-2.91,1.86-4.35,4.1-4.35,6.72,0,1.07,3.43,5.82,10.29,14.25,6.85,8.45,15.83,19,26.91,31.66,11.08,12.66,23.61,26.78,37.6,42.34,13.97,15.57,28.1,31.14,42.34,46.7,14.25,15.57,27.96,30.35,41.16,44.32,13.18,13.98,24.53,26,34.03,36.01v-211.32c0-8.97-5.55-13.71-16.62-14.25v-9.5h144.84v9.5c-10.03,1.06-16.22,2.78-18.6,5.15-2.37,2.37-3.56,5.42-3.56,9.1v368.83c0,3.7,1.19,6.73,3.56,9.1s8.57,4.1,18.6,5.15v9.5h-150.38v-9.5c7.38,0,12.27-.79,14.64-2.38,2.38-1.58,3.56-3.68,3.56-6.33,0-1.58-.79-3.57-2.37-5.94-1.58-2.38-5.02-6.45-10.29-12.27-5.28-5.8-13.06-14.11-23.35-24.93-10.29-10.81-23.88-25.33-40.76-43.53-16.89-18.2-37.73-40.89-62.53-68.07-24.8-27.17-54.61-60.28-89.43-99.33v248.52c0,3.7,1.19,6.73,3.56,9.1,2.37,2.38,8.57,4.1,18.6,5.15v9.5h-150.38v-9.5c10.02-1.05,16.22-2.77,18.6-5.15,2.38-2.37,3.56-5.4,3.56-9.1v-368.83Z"/><path class="cls-1" d="m5856.32,585.5c-1.06-5.27-3.3-9.62-6.72-13.06-3.44-3.43-9.11-5.15-17.02-5.15h-147.22v73.61h254.06c4.22,0,7.39-1.44,9.5-4.35,2.1-2.89,3.68-9.36,4.75-19.39h9.5v135.34h-9.5c-1.06-6.87-2.65-11.08-4.75-12.66-2.11-1.58-5.28-2.37-9.5-2.37h-394.94v-9.5c10.02-1.05,16.22-2.77,18.6-5.15,2.38-2.37,3.56-5.4,3.56-9.1v-368.83c0-3.68-1.19-6.73-3.56-9.1s-8.59-4.08-18.6-5.15v-9.5h394.94c4.22,0,7.39-1.44,9.5-4.35,2.1-2.89,3.68-8.83,4.75-17.81h9.5v137.72h-9.5c-1.06-8.97-2.65-14.9-4.75-17.81-2.11-2.89-5.28-4.35-9.5-4.35h-254.06v65.7h147.22c7.91,0,13.58-1.71,17.02-5.15,3.42-3.43,5.66-7.78,6.72-13.06h9.5v123.46h-9.5Z"/></g><circle class="cls-1" cx="547.42" cy="527.33" r="300"/></svg>