<?xml version="1.0" encoding="UTF-8"?><svg id="Calque_1" xmlns="http://www.w3.org/2000/svg" viewBox="0 0 6170.75 970.5"><defs><style>.cls-1{fill:#666;}</style></defs><g><path class="cls-1" d="m1559.29,287.14c139.5,0,201.29,68.79,201.29,198.1,0,95.55-40.13,167.53-136.32,167.53-54.77,0-92.36-22.3-135.04-78.35l-73.25-96.18c-15.92-20.39-45.86-21.66-65.61,0-17.2,19.1-14.01,47.13,2.55,65.61l78.34,87.9c26.11,29.94,36.95,54.14,36.95,85.36,0,44.58-27.39,63.7-76.44,63.7-43.95,0-84.08-14.65-84.08-94.91v-274.54c0-71.34,38.86-124.21,121.66-124.21h129.95Zm-135.68,160.52l221.04,112.12c64.34,32.48,100.01-8.28,66.88-55.42l-96.82-138.86c-22.93-32.49-34.4-35.67-68.79-21.66l-117.84,48.41c-16.56,7.01-26.75,13.37-26.75,26.75,0,10.82,6.37,20.38,22.29,28.66Z"/><path class="cls-1" d="m1858.04,378.23c9.55-68.15,35.03-100.64,78.34-100.64,36.3,0,77.08,24.2,77.08,72.61,0,16.56-5.1,36.31-17.2,59.24l-134.4,249.7c-10.83,19.75-18.47,36.94-18.47,49.68,0,16.56,14.01,27.39,24.85,27.39,13.37,0,31.85-14.02,64.33-38.86l58.6-45.23c24.21-18.47,46.5-26.11,65.61-26.11,42.04,0,70.07,36.3,70.07,72.62s-27.39,72.62-94.27,72.62h-126.76c-69.43,0-87.91-23.57-87.91-89.18,0-10.19.64-21.66,2.55-34.39l37.58-269.45Z"/><path class="cls-1" d="m2440.87,622.83c36.31-.63,60.52-7.64,64.34-40.13l27.39-225.49c4.46-35.04-12.74-57.33-39.49-52.24-26.75,5.1-49.68,53.51-59.24,73.25l-77.08,157.98c-20.38,42.04-56.05,50.32-79.62,50.32-37.58,0-68.15-31.21-68.15-70.7,0-27.39,19.1-52.24,48.41-75.8l128.03-101.92c55.41-43.95,78.35-60.51,119.75-60.51,38.22,0,64.34,27.39,72.62,70.7l57.96,306.39c13.38,71.34-8.28,126.12-73.89,126.12-52.23,0-77.08-33.13-77.08-71.98v-33.12c0-35.04-18.47-39.49-40.76-20.38l-62.43,53.5c-29.3,24.84-76.44,71.98-128.67,71.98-36.95,0-78.36-21.03-78.36-80.9,0-50.96,45.87-71.98,101.92-73.25l164.34-3.82Z"/><path class="cls-1" d="m2703.29,624.74v-171.98c0-143.32,29.94-175.17,98.1-175.17,50.32,0,78.35,39.49,116.57,99.37l150.97,236.32c15.29,24.21,24.2,33.12,35.67,33.12,15.92,0,23.57-7,23.57-21.01,0-11.47-5.1-26.12-13.38-47.14l-58.6-150.97c-15.92-40.77-14.66-61.15-14.66-76.44,0-32.49,16.57-73.89,70.07-73.89,63.06,0,82.17,61.15,75.81,119.76l-32.49,294.92c-7,61.15-28.03,89.18-69.43,89.18-38.86,0-58.6-27.39-103.83-89.81l-105.74-146.51c-25.48-35.04-52.23-91.72-43.95-144.6l5.73-36.3c5.09-32.48-14.65-49.05-37.58-49.05-35.67,0-56.69,26.76-56.69,63.06,0,17.84,5.73,46.5,11.46,60.51l86.63,212.11c28.66,70.71,15.92,130.58-52.87,130.58-83.44,0-85.36-63.7-85.36-156.07Z"/><path class="cls-1" d="m3374.66,354.66c-36.95-3.18-53.51,14.01-53.51,31.85s14.65,31.21,53.51,36.31l228.04,28.03c48.41,5.73,64.97,35.03,64.97,65.61,0,23.57-8.91,53.51-64.97,71.34l-248.42,78.98c-29.94,9.55-35.03,22.3-35.03,38.22,0,14.01,17.2,40.13,48.41,29.3l260.52-91.09c54.79-19.11,83.44-3.82,85.36,34.4,1.91,36.3-15.92,56.69-49.68,72.62-36.94,17.2-132.49,31.85-217.84,31.21-84.72,0-161.16-19.11-161.16-82.81,0-23.56,15.92-46.5,44.58-66.88l189.82-131.86c25.48-17.84,12.74-41.4-16.56-29.3l-127.4,52.23c-62.42,25.48-116.57-5.1-116.57-63.06,0-115.93,138.86-181.54,301.93-181.54,114.03,0,152.88,26.11,152.88,66.25,0,20.39-10.82,39.49-58.6,35.03l-280.27-24.84Zm74.52-117.84c-36.3-7-45.22-31.21-37.58-56.05,8.92-29.94,47.13-39.49,72.62-18.47l93,76.43c8.28,7.01,1.91,22.94-11.47,20.39l-116.57-22.3Z"/><path class="cls-1" d="m4093.79,662.32c26.12,69.43,12.11,118.48-56.05,118.48-61.15,0-73.89-35.04-75.17-102.56l-7-311.48c-.64-40.13-7.65-56.69-24.85-56.69-21.65,0-28.03,21.03-28.03,49.05v28.03c0,87.9-18.47,129.94-76.43,128.03-40.77-1.27-71.34-36.3-71.34-75.8,0-88.54,70.07-152.24,185.36-152.24h217.85c66.24,0,87.26,38.22,87.26,70.7,0,73.25-94.27,110.2-152.87,45.23l-71.34-79.62c-6.37-7.01-13.38-10.19-19.11-10.19-17.2,0-23.56,14.65-10.82,50.95l102.55,298.11Z"/><path class="cls-1" d="m4383.62,354.66c-36.95-3.18-53.51,14.01-53.51,31.85s14.65,31.21,53.51,36.31l228.03,28.03c48.42,5.73,64.98,35.03,64.98,65.61,0,23.57-8.91,53.51-64.98,71.34l-248.41,78.98c-29.94,9.55-35.04,22.3-35.04,38.22,0,14.01,17.2,40.13,48.41,29.3l260.52-91.09c54.79-19.11,83.44-3.82,85.36,34.4,1.91,36.3-15.92,56.69-49.68,72.62-36.94,17.2-132.48,31.85-217.84,31.21-84.72,0-161.16-19.11-161.16-82.81,0-23.56,15.92-46.5,44.58-66.88l189.83-131.86c25.47-17.84,12.74-41.4-16.57-29.3l-127.4,52.23c-62.42,25.48-116.57-5.1-116.57-63.06,0-115.93,138.86-181.54,301.93-181.54,114.03,0,152.88,26.11,152.88,66.25,0,20.39-10.82,39.49-58.6,35.03l-280.27-24.84Z"/><path class="cls-1" d="m5262,433.01c0,35.03-14.01,75.8-52.23,75.8-30.57,0-49.68-26.11-49.68-52.87v-108.29c0-30.58-19.1-46.5-57.33-28.03l-222.94,107.65c-26.75,12.74-49.68,22.93-43.32,46.5,6.38,23.56,26.13,26.75,47.77,16.56l135.04-62.43c60.52-28.03,101.93,12.75,103.19,58.61l.64,24.2c.63,23.57,10.82,26.75,36.3,32.48l40.13,9.56c26.11,6.37,43.32,31.85,43.32,57.96,0,110.84-113.38,171.35-225.5,171.35s-219.12-47.13-219.12-161.79c0-45.23,17.2-76.43,54.79-76.43,24.84,0,62.42,24.2,28.03,75.8l-28.03,42.04c-7.65,11.47-5.73,22.93.63,27.39,10.19,7,23.57,6.37,44.6,1.91l274.54-59.24c27.38-5.73,33.76-17.84,31.85-31.22-1.91-14.01-10.2-19.75-30.58-23.57l-324.22-58.6c-36.3-6.37-54.14-31.85-54.14-62.43,0-88.54,115.29-177.72,261.16-177.72s205.11,80.9,205.11,154.79Z"/></g><circle class="cls-1" cx="534.98" cy="493.93" r="300"/></svg>