<?xml version="1.0" encoding="UTF-8"?><svg id="Calque_1" xmlns="http://www.w3.org/2000/svg" viewBox="0 0 6254 970.5"><defs><style>.cls-1{fill:#666;}</style></defs><g><path class="cls-1" d="m1398.49,277.26c21.34-.82,24.62,9.85,47.6,9.02,27.9-.82,38.57-36.11,69.76-36.11,29.54,0,44.32,20.52,73.04,20.52,30.36,0,45.14-34.47,71.4-40.21,22.15-5.75,41.86,12.31,36.11,40.21-4.93,27.08-21.34,43.49-22.98,63.19-1.64,18.87,8.2,32.83,4.1,55.8-9.02,52.53-72.22,55.81-82.07,5.75-5.75-27.08,13.13-41.86,2.46-62.37-12.31-26.26-94.38-6.57-101.76,35.29-4.93,27.08,8.2,41.04,6.56,60.73-1.64,19.7-22.16,30.36-26.26,49.25-4.1,18.87,9.03,37.75,4.1,59.91-4.93,21.34-27.9,24.62-32.01,45.96-4.1,21.33,4.1,45.13,2.46,64.83-3.28,22.15-26.26,45.13-16.41,68.12,9.85,24.62,50.06-2.46,77.14,2.46,44.32,9.85,36.93,73.86-7.38,79.6-28.73,4.1-47.6-14.77-71.4-10.67-27.09,4.93-29.55,22.97-54.99,22.97-22.15,0-29.54-18.87-50.88-20.51-18.05-1.64-36.93,11.49-64.84,4.1-41.85-10.67-36.11-78.79,15.6-78.79,32.01,0,66.47,24.62,85.35,1.64,14.77-18.88-8.2-48.42-4.1-79.61,4.93-32.83,36.11-59.08,40.21-86.16,4.1-27.91-15.59-47.6-11.49-79.61,2.46-29.54,36.93-49.25,36.93-89.45,0-43.49-60.73-45.96-88.64-17.23-24.62,23.8-28.72,54.16-53.34,74.68-33.65,27.08-78.79,9.02-58.27-41.04,9.02-22.97,26.26-30.36,35.29-51.7,8.2-22.98-1.64-53.34,21.34-64.02,27.9-13.12,42.67,17.24,65.65,17.24,21.33,0,28.72-22.98,51.7-23.8Z"/><path class="cls-1" d="m1767.79,403.64c61.55-8.21,41.04,40.21,68.12,54.98,23.8,12.31,64.84-9.02,87.82,13.96,20.51,21.33,12.31,47.6,21.33,62.37,11.49,18.88,17.23,40.21,12.31,70.58-6.57,34.47-29.55,56.63-58.27,69.76-35.29,16.42-31.19,37.75-52.52,61.55-25.44,25.44-71.4,42.67-99.3,37.75-32.83-5.74-26.26-33.65-50.07-46.77-22.15-13.14-42.67-4.93-53.34-25.45-12.31-22.97-6.57-43.49-6.57-66.47,0-24.62-10.67-68.12,0-90.27,12.31-27.9,37.75-35.29,59.91-59.09,19.7-20.52,14.78-76.32,70.58-82.89Zm-20.51,114.89c-52.53,2.46-75.5,139.52-23.8,156.75,50.88,16.42,72.22-15.59,105.87-22.97,72.21-18.88,76.32-98.48,36.11-117.36-26.26-13.13-39.39,9.03-64.02,2.46-21.33-4.93-33.65-18.88-54.16-18.88Z"/><path class="cls-1" d="m2160.07,360.96c41.86,20.52-10.67,84.53,14.77,106.69,25.44,22.16,64.83-38.57,96.02-38.57s28.73,36.11,63.2,38.57c32.83,2.46,50.05-55.8,90.27-55.8s34.47,40.21,53.34,57.44c18.88,17.23,50.06,12.31,56.63,55.81,6.57,43.49-16.41,72.21-12.31,93.56,4.1,22.15,22.17,14.76,50.89,18.87,34.47,4.93,41.04,63.2-3.28,68.12-34.47,4.1-32.01-14.76-75.5-22.15-18.88-3.28-38.57,9.03-56.62,9.03-33.65,0-41.86-42.68-6.57-54.99,27.9-9.85,35.29-23.8,36.11-56.62.82-44.32-32.01-80.43-67.29-80.43-29.55,0-55.81,20.52-55.81,56.63,0,32.83,15.59,35.29,18.88,61.55,3.28,26.26-22.16,38.57-15.6,69.76,5.75,27.9,33.65,21.33,59.09,24.62,17.23,2.46,26.26,12.31,25.44,26.26-.82,13.14-12.31,20.52-25.44,21.35-14.77.82-34.47-2.46-50.88,0-18.88,2.46-47.6,16.41-66.47,19.69-18.05,2.46-31.18-1.64-32.01-14.77-1.64-24.62,42.68-28.72,39.39-64.83-2.46-28.73-29.55-31.19-32.83-58.27-3.28-28.72,17.23-37.75,17.23-70.58,0-35.29-20.51-61.55-55.8-53.34-40.21,9.02-49.25,73.86-45.96,103.41,3.28,33.65,20.52,42.67,22.98,71.39,2.46,28.73-9.85,43.5-.82,74.68,6.56,22.98,27.09,36.93,52.52,39.39,51.7,4.93,49.24,65.66-6.57,65.66-27.08,0-54.16-10.67-77.15-10.67s-53.34,7.38-77.14,7.38c-45.13,0-50.88-51.7,0-51.7,22.16,0,46.78-5.75,50.88-30.36,7.39-44.32-36.93-77.97-40.21-130.48-2.46-43.5,54.99-114.9,16.42-138.7-23.8-14.77-43.5,30.37-75.5,40.21-42.68,13.95-66.47-31.19-32.83-64.84,15.59-15.59,41.04-22.15,64.01-48.41,24.62-28.73,49.25-101.77,84.53-84.53Z"/><path class="cls-1" d="m2785.41,403.64c61.55-8.21,41.04,40.21,68.12,54.98,23.8,12.31,64.83-9.02,87.81,13.96,20.52,21.33,12.31,47.6,21.34,62.37,11.49,18.88,17.23,40.21,12.31,70.58-6.56,34.47-29.55,56.63-58.27,69.76-35.29,16.42-31.18,37.75-52.52,61.55-25.44,25.44-71.4,42.67-99.31,37.75-32.83-5.74-26.26-33.65-50.06-46.77-22.16-13.14-42.68-4.93-53.34-25.45-12.31-22.97-6.56-43.49-6.56-66.47,0-24.62-10.67-68.12,0-90.27,12.3-27.9,37.75-35.29,59.91-59.09,19.7-20.52,14.77-76.32,70.58-82.89Zm-20.52,114.89c-52.52,2.46-75.5,139.52-23.8,156.75,50.89,16.42,72.22-15.59,105.87-22.97,72.22-18.88,76.32-98.48,36.11-117.36-26.26-13.13-39.39,9.03-64.01,2.46-21.34-4.93-33.65-18.88-54.16-18.88Z"/><path class="cls-1" d="m3042.29,832.03c-20.52,3.28-33.65,23.8-56.63,22.97-32.01-.82-33.65-68.94,9.85-85.35,23.8-9.85,68.12,2.46,83.71-31.19,14.77-30.36-2.46-64.83-.82-100.12.82-33.65,38.57-64.01,26.26-96.02-9.02-22.16-41.04-3.28-67.29-8.21-42.68-8.2-31.18-63.19,4.1-72.22,34.47-9.02,63.19,7.39,77.97-8.2,18.87-18.88-7.39-52.52,1.64-83.71,6.56-22.98,27.9-25.44,35.29-47.6,9.02-28.72-7.39-74.68,28.72-100.94,24.62-18.05,42.68-7.39,62.37-9.85,19.7-4.1,36.93-22.16,61.55-10.67,24.63,13.12,18.06,38.57,24.63,67.29,6.56,27.08,30.36,22.15,35.29,54.16,5.74,45.14-49.25,83.71-77.15,47.6-22.16-28.72,1.64-122.29-44.32-113.26-33.65,6.57-13.95,59.91-21.33,90.27-9.03,35.29-44.32,38.57-32.83,75.5,8.2,34.47,48.41-3.28,75.5,0,50.06,7.39,40.21,88.64-17.23,88.64-32.83,0-67.29-19.7-83.71-3.28-15.59,15.59,7.38,39.39,4.1,59.91-3.28,22.98-22.15,27.09-22.15,50.07s6.57,28.72,5.75,47.6c-.82,22.98-19.7,36.92-7.39,54.99,11.49,18.05,46.78-10.67,77.15-13.14,53.34-4.1,47.6,55.81,14.76,68.94-19.69,7.39-47.59,4.93-69.76,15.6-22.97,11.49-28.72,26.26-59.08,39.39-27.9,11.48-37.75-4.1-68.94.82Z"/><path class="cls-1" d="m3527.29,246.89c13.14,3.28,27.91-5.75,39.39-3.28,14.78,3.28,21.34,22.98,40.21,22.98s32.83-35.29,65.65-35.29c24.62,0,38.57,18.87,40.21,41.04.82,26.26-21.34,43.49-39.39,46.77-20.51,3.28-47.6-11.48-60.73,7.39-13.14,18.88-.82,38.57-9.85,57.45-10.67,22.16-46.78,26.26-36.93,54.99,9.03,27.08,45.14,9.03,70.58,14.77,23.8,3.28,39.39,18.05,59.91,18.05,35.29,0,59.09-45.14,41.03-75.5-13.12-21.33-44.31-16.41-37.75-45.96,5.75-26.26,29.55-17.23,49.25-25.44,24.62-9.85,18.05-32.83,42.68-42.68,13.94-5.74,33.65-.81,39.39,9.85,4.93,9.85,3.28,25.44,9.85,32.01,7.39,7.39,22.17,3.28,30.37,11.49,12.31,12.31,3.28,38.57-20.52,45.13-19.7,4.93-39.39-.82-48.42,15.59-14.77,26.26,9.85,87.81-4.1,145.26-12.31,50.88-73.03,108.33-52.52,140.34,15.59,23.8,46.78-1.64,66.47,17.23,24.62,22.98,5.75,66.47-22.97,70.58-20.52,3.28-45.96-3.28-58.27-.82-13.13,3.28-31.19,18.05-49.24,17.23-18.05-1.64-25.44-19.7-37.75-22.97-9.85-3.28-24.62,11.48-41.86,3.28-27.08-11.49-27.9-68.94,8.21-74.68,25.44-4.1,59.91,12.3,70.58-1.64,10.67-15.6-1.64-32.83,2.46-71.4,2.46-20.52,36.11-41.86,42.67-58.27,5.75-18.05-7.38-45.96-22.98-41.04-21.33,5.75-42.67,34.47-80.42,29.55-28.72-4.1-41.85-45.14-67.29-45.14-22.16,0-47.6,42.68-51.7,65.65-4.1,22.16,3.28,53.35,0,83.71-3.28,33.65-42.68,77.14-26.26,100.12,10.67,15.59,29.54-.82,48.41,7.39,28.73,10.67,26.26,51.7-4.1,62.37-35.29,12.31-77.14-.82-102.58,0-25.44.82-44.31,22.97-77.97,16.41-40.21-7.38-41.03-64.02-4.1-82.07,25.44-12.31,59.08-5.75,73.86-24.62,14.77-19.7-4.92-70.58,4.1-108.33,8.2-38.57,26.26-52.52,44.31-88.63,14.78-32.83,10.67-77.15,30.36-112.43,17.24-31.18,48.42-48.41,46.78-79.6-1.64-30.36-49.24-19.7-73.86-36.1-27.08-18.06-26.26-73.04,17.24-80.43,25.44-4.1,33.65,16.41,47.59,19.7Z"/><path class="cls-1" d="m4006.55,403.64c61.55-8.21,41.03,40.21,68.12,54.98,23.8,12.31,64.84-9.02,87.81,13.96,20.52,21.33,12.31,47.6,21.33,62.37,11.49,18.88,17.24,40.21,12.31,70.58-6.57,34.47-29.54,56.63-58.26,69.76-35.29,16.42-31.19,37.75-52.53,61.55-25.44,25.44-71.4,42.67-99.3,37.75-32.83-5.74-26.26-33.65-50.06-46.77-22.16-13.14-42.67-4.93-53.34-25.45-12.31-22.97-6.57-43.49-6.57-66.47,0-24.62-10.67-68.12,0-90.27,12.31-27.9,37.75-35.29,59.91-59.09,19.7-20.52,14.77-76.32,70.58-82.89Zm-20.52,114.89c-52.52,2.46-75.5,139.52-23.8,156.75,50.87,16.42,72.22-15.59,105.87-22.97,72.21-18.88,76.32-98.48,36.11-117.36-26.26-13.13-39.39,9.03-64.02,2.46-21.34-4.93-33.65-18.88-54.16-18.88Z"/><path class="cls-1" d="m4398.01,173.85c36.11,5.74,20.52,45.13,22.98,82.89,3.28,40.21,15.59,59.91,10.67,113.26-4.92,54.16-39.39,96.84-46.78,136.23-5.75,32.01,6.57,58.26,4.93,91.91-1.64,29.55-21.35,65.66-8.21,94.39,18.05,39.39,100.94,43.49,120.64-4.93,11.49-27.91-3.28-59.91,1.64-85.36,4.93-24.62,22.16-37.75,26.26-69.76,4.93-37.75-21.33-77.14-11.49-127.2,9.03-47.6,60.73-83.71,54.99-106.69-6.57-25.44-58.27-6.57-62.37-36.11-3.28-23.8,41.04-32.83,62.37-50.88,21.34-18.05,22.98-47.6,45.13-46.78,17.23.82,28.73,30.36,24.62,79.6-4.93,68.94-39.39,126.38-44.32,173.16-4.92,45.96,2.46,77.14-2.46,117.35-4.93,35.29-40.21,119-15.6,153.47,22.98,32.01,42.68-9.85,72.22-9.85,41.04,0,59.91,84.53-29.54,104.23-60.73,13.14-119.82-22.15-183.83-10.67-55.8,9.85-75.5,44.31-110.79,49.24-25.44,3.28-39.39-9.03-58.27-7.39-16.41,1.64-22.97,16.42-44.31,16.42-47.6,0-54.16-68.94,0-82.07,26.26-6.57,65.65,6.57,80.42-20.51,23.8-43.5-9.85-114.9-5.75-168.24,4.1-57.45,38.57-80.42,44.32-116.53,4.1-25.44-5.75-44.32-4.93-64.84.82-25.44,32.01-59.09,17.23-72.21-12.31-11.49-31.18,18.87-56.63,22.15-28.72,4.1-41.03-28.72-21.33-52.52,16.41-20.52,49.24-18.88,66.47-45.96,14.77-22.98,22.15-60.73,51.7-55.81Z"/><path class="cls-1" d="m4928.98,411.85c22.98-22.99,4.93-71.4,44.32-79.61,31.18-6.57,30.36,19.7,55.81,26.26,21.33,5.75,41.85-21.33,70.58-9.02,20.51,9.02,22.97,36.93,13.95,52.52-10.67,18.05-29.55,36.11-32.01,60.73-2.46,22.98,11.49,36.93,4.1,60.73-10.67,33.65-58.26,46.78-63.19,75.5-5.75,32.83,17.23,66.48,45.96,68.94,32.83,2.46,43.5-27.08,72.22-43.49,24.62-13.95,57.45,7.39,42.68,42.68-14.77,36.1-47.6,34.47-71.4,60.73-26.26,28.72-41.04,86.98-86.99,77.96-34.47-6.57-36.93-55.81-22.16-96.02,13.95-37.75-36.11-49.24-52.52-13.95-14.77,32.01-21.34,82.07-61.55,84.53-29.55,1.64-44.32-28.72-61.55-32.83-16.41-4.1-54.16,2.46-73.04-4.93-59.91-23.8-38.57-118.18,11.49-127.2,26.26-4.93,39.39,8.2,60.73-3.28,19.7-10.67,12.31-51.7,44.32-59.91,31.18-8.21,49.24,9.85,82.07,8.2,77.15-4.1,96.84-156.75,68.94-164.96-27.08-8.21-60.73,106.69-123.1,117.36-57.45,9.85-90.27-43.5-45.96-73.04,21.33-13.14,55.8-7.39,76.32-27.9Zm-135.41,265.89c-.82,8.21,4.1,18.05,26.26,20.52,49.24,5.74,91.91-19.7,98.48-44.31,5.75-22.16-3.28-32.83-18.05-34.47-18.05-1.64-27.09,28.72-58.27,40.21-22.15,8.2-46.78,1.64-48.42,18.05Z"/><path class="cls-1" d="m5279.39,513.61c-12.31,6.56-21.34,18.87-36.93,18.87-31.18,0-43.49-36.11-22.16-54.98,13.14-11.49,36.93-14.78,54.99-30.36,18.05-15.6,14.77-41.86,33.65-60.73,23.8-23.8,54.16-13.95,56.63,8.2,2.46,23.8-20.52,41.04-4.93,50.07,19.7,11.49,44.32-66.48,86.99-66.48,27.91,0,32.01,25.44,51.7,40.21,16.42,12.31,38.57,2.46,54.16,18.88,36.11,37.75-48.42,100.12-48.42,135.41,0,22.16,8.21,34.47,9.03,53.34.82,18.88-7.39,33.65-.82,45.96,7.38,13.96,41.03,5.75,42.67,39.39,1.64,40.21-54.16,35.29-80.42,43.5-32.83,9.85-41.04,32.01-72.22,32.01-28.72,0-35.29-37.75-9.85-63.19,31.19-31.18,50.07-22.98,55.81-55.81,5.75-32.83-10.67-61.55-9.02-91.09,1.64-29.54,32.01-59.08,23.8-91.1-8.2-32.01-50.88-32.01-80.42,10.67-20.52,29.55-13.95,54.17-26.26,82.89-18.05,41.04-37.75,62.37-35.29,91.91,2.46,27.91,20.51,32.83,32.01,45.96,13.95,15.59,12.31,36.93-3.28,47.6-18.05,12.31-38.57,9.02-59.09,19.7-21.33,10.67-37.75,34.47-64.01,34.47-41.04,0-27.9-49.24,0-67.29,18.88-12.31,36.11-27.9,37.75-50.06,1.64-21.34-10.67-49.24,0-82.07,5.74-17.24,31.18-54.99,39.39-81.25,8.2-27.08-7.39-34.47-25.44-24.62Z"/><path class="cls-1" d="m5971.21,204.22c14.78-26.26,53.34-24.62,64.02,0,9.02,20.52.82,47.6,12.31,71.4,10.67,22.98,47.6,45.13,51.7,73.04,4.1,35.29-34.47,54.16-58.26,36.93-22.16-16.41-20.52-71.4-39.39-64.84-23.8,7.39,4.1,54.99,2.46,87-1.64,31.18-25.44,35.29-36.11,67.29-8.21,25.44,5.74,76.32-4.93,105.87-9.85,26.26-56.63,65.65-36.11,89.45,17.23,20.52,49.24-12.3,77.15-18.87,36.93-8.21,52.52,25.44,31.18,50.06-12.31,14.77-41.86,16.41-65.65,31.18-40.21,25.44-68.94,82.07-95.2,68.12-32.01-17.23,12.31-70.58-22.16-89.45-37.75-20.51-46.78,58.27-91.91,58.27-30.37,0-45.96-32.01-64.84-50.88-17.23-17.23-32.83-15.6-54.99-33.65-36.11-29.54-41.85-137.87,42.68-178.91,22.98-11.49,36.11-8.21,58.27-18.88,26.26-13.13,50.88-55.81,91.09-34.47,53.34,27.91,2.46,126.38,47.6,126.38,38.57,0,7.38-116.54,13.13-157.57,5.75-40.21,34.47-66.48,49.24-100.95,13.95-32.01,10.67-87.81,28.72-116.53Zm-183.83,364.38c-14.77-14.77-18.05-41.85-44.31-41.04-29.55.82-41.86,41.04-41.86,63.2,0,23.8,9.02,32.01,13.13,45.96,4.93,18.06,0,45.96,22.98,55.81,50.06,20.51,109.15-45.96,95.19-78.79-9.85-22.98-31.18-31.18-45.13-45.14Z"/></g><circle class="cls-1" cx="534.98" cy="518.94" r="300"/></svg>