<?xml version="1.0" encoding="UTF-8"?><svg id="Calque_1" xmlns="http://www.w3.org/2000/svg" viewBox="0 0 2807.53 1357.5"><defs><style>.cls-1{fill:#99f;}</style></defs><path class="cls-1" d="m302.24,582.84l-15.16-8.27,55.82-109.56-8.96-2.76-43.41,4.83-32.39,20.67-24.12,31.7-4.82,29.63,6.89,28.94-17.23,4.13-7.58-33.08,6.89-38.59,28.25-35.83,37.9-24.12,51.68-6.2,15.16,4.83L564.78,30.21l15.16,6.89-212.23,416.89,21.36,6.2,43.41,35.83,23.43,48.92,41.34,23.43,58.57,7.58,51.68-13.78,35.83-22.74,25.49-44.79,15.85,8.96-26.18,46.86-44.1,28.94-57.88,15.16-64.08-8.27-50.3-28.26-22.74-48.92-35.83-31.7-24.12-7.58-57.19,113h-.01Z"/><path class="cls-1" d="m754.26,497.4l-16.54-58.58-.69-2.75v-60.64l.69-2.76,19.3-62.02,1.38-3.44,33.76-46.17,2.07-2.06,35.14-25.5,6.2-2.06h73.04l6.2,2.06,37.9,25.5,2.07,2.06,33.08,46.17,1.38,2.75,4.13,12.4v-90.95h17.23v350.05h-17.23v-88.89l-4.13,13.09-1.38,3.44-33.08,42.72-2.76,2.07-37.9,25.49-5.51,2.07h-73.04l-6.2-2.07-35.14-25.49-2.07-2.07-28.94-36.52-8.96-17.91h0Zm19.3,3.44l31.01,39.97,33.08,24.12h69.6l35.14-24.12,31.7-41.35,19.29-63.39v-59.95l-19.98-59.95-32.39-44.1-34.45-24.81h-68.91l-32.39,24.12-33.07,45.48-17.92,58.57v60.64l12.4,44.79,6.89,19.99h0Z"/><path class="cls-1" d="m1338.59,246.58h-119.21v334.89h-17.23V246.58h-66.84v-16.54h66.84v-82.69l-39.97,39.28-11.03-10.33,50.99-50.99v-52.37h16.54v35.83l33.08-33.08,4.82-2.76h57.88l6.2,1.38,26.18,19.98,2.07,2.76,15.85,29.63v28.94h-15.85v-28.25l-13.09-21.36-22.74-16.54h-51.68l-42.72,42.03v98.54h119.9v16.54h.01Z"/><path class="cls-1" d="m1678.29,496.71l20.67-65.46v-199.83h17.23v350.05h-17.23v-93.72l-5.51,15.16-33.08,48.24-2.76,2.76-37.9,25.49-5.51,2.07h-61.33l-6.2-2.07-34.45-25.49-2.07-2.07-33.76-48.23-1.38-3.45-13.1-46.17-65.46,129.55-14.47-6.89,73.73-147.46v-197.76h17.23v200.52l17.92,63.4,31.7,45.48,33.08,24.12h55.81l37.21-24.81,29.63-43.42h0Z"/><path class="cls-1" d="m2017.31,531.17l-2.07,3.44-30.31,30.32-27.56,15.16-6.2,1.38h-59.26l-4.82-1.38-30.32-15.16-2.76-2.07-26.88-28.25-2.76-3.44-15.16-37.21,17.23-5.51,13.09,35.14,28.25,28.94,24.81,13.09h57.19l25.49-13.78,13.78-15.16,12.4-13.78,14.47-32.39v-35.83l-15.16-32.39-24.12-25.49h-.69l-29.63-9.65h-67.53l-6.2-2.07-22.05-9.65-4.14-2.76-17.22-26.88-2.07-3.44v-30.32l.69-4.13,11.03-33.08,2.07-2.76,24.11-23.43,3.45-2.06,26.87-13.78,4.83-1.38h51.68l6.2,1.38,24.81,13.78,3.44,2.06,24.12,23.43,2.07,3.44,16.54,38.59-16.54,6.89-17.92-39.97-22.74-21.36-22.05-12.4h-46.86l-25.49,11.72-22.05,22.05-10.33,32.39v24.11l13.09,22.74,26.19,11.02h64.08l6.2,1.38,30.32,10.33,2.06,2.07,28.25,26.88,2.07,3.44,15.16,35.83v42.72l-15.16,37.21v.03Z"/><path class="cls-1" d="m2319.12,258.29l33.07,46.17,2.07,4.13,15.16,58.57v17.23h-250.82v48.92l17.92,62.02v.69l32.39,46.86,33.07,24.12h69.6l35.14-24.12,31.7-46.17,8.27,5.51-2.76-2.07,8.96,5.51-32.39,48.92-3.44,3.44-38.59,24.12-5.51,1.38h-73.04l-6.2-2.07-35.15-25.49-2.07-2.07-33.76-47.55-1.38-3.44-19.29-66.84-.69-2.76v-60.64l.69-2.76,19.29-62.02,1.38-3.44,33.76-46.17,2.07-2.07,35.15-26.19,6.2-2.06h73.04l6.21,2.06,37.9,26.19,2.07,2.07-.02.02Zm-150.22,11.02l-32.39,44.79-16.54,53.06h230.15l-13.1-54.44-32.38-44.79-33.76-23.43h-68.91l-33.07,24.81Zm53.06-90.27l-16.54-8.96,64.08-140.57,17.23,8.96-64.77,140.57Z"/><path class="cls-1" d="m2665.03,494.65l14.47,8.96-32.38,48.92-3.44,3.44-38.59,24.12-5.51,1.38h-73.04l-6.2-2.07-37.21-27.56-33.76-47.54-1.38-3.44-19.99-67.53v-57.19l.69-2.76,20.67-65.46,35.83-48.24,35.14-26.19,6.2-2.06h73.04l6.2,2.06,39.97,28.26,33.08,46.17,2.07,4.13,15.16,58.57v16.54h-250.82v46.17l17.92,60.63,32.38,46.86,33.08,24.12h69.6l35.14-24.12,31.7-46.17h-.02Zm-169.52-221.88l-32.38,44.79-16.54,53.06h230.15l-13.09-54.44-32.38-44.79-33.76-23.43h-68.91l-33.08,24.81h-.01Z"/><path class="cls-1" d="m252.68,841.26h54.44l46.17,17.92,19.98,16.54,148.15-183.29h13.09v328.69l9.65-8.96,13.09-19.29h.69l17.91-32.38v-44.79h16.54v44.79l-1.38,4.82-24.12,45.48-18.61,19.29-13.78,13.1v200.52h-16.54l1.38-186.05-64.08,27.56-4.14.69h-56.5l-4.13-.69-56.5-26.18-3.45-2.07-45.48-42.72-1.38-2.07-187.43,232.22-12.4-10.33,191.56-237.73-4.82-9.65-11.02-24.81v-46.86h16.54v45.48l11.72,21.36,75.11-93.03-19.3-15.85-42.03-14.47h-42.03l-39.28,17.92-31.7,31.01-11.72,37.21v35.15h-17.23v-42.72l14.47-37.21,35.14-35.15,43.41-23.43v-.02Zm266.67,193.63l2.07-321.8-2.76,6.89-4.14,6.2-129.54,159.86,13.09,11.03,21.36,38.59,1.38,5.51v38.59h-17.23v-38.59l-18.6-33.76-10.34-8.27-78.55,97.16,3.44,6.2,42.03,42.03h.69l55.81,24.12h50.3l59.95-24.12h.69l10.34-9.65h.01Z"/><path class="cls-1" d="m647.51,1060.39l-12.4-10.33,53.06-75.11v-81.31h17.23v56.5l17.91-25.49,2.07-2.76,15.16-11.03,3.44-2.06,26.87-13.78,4.83-1.38h51.68l6.2,1.38,24.81,13.78,3.44,2.06,24.12,23.43,2.07,3.44,13.78,33.76-16.54,6.89-15.16-35.14-22.74-21.36-22.05-12.4h-46.86l-25.49,11.72-13.09,9.65-34.45,48.24v264.6h-17.23v-240.48l-40.66,57.19h0Z"/><path class="cls-1" d="m1021.67,893.63v350.05h-16.54v-332.13h-66.84v-17.92h83.38,0Zm0-64.77h-17.23v-66.15h17.23v66.15Z"/><path class="cls-1" d="m1160.16,1159.62l-16.54-58.58-.69-2.75v-60.64l.69-2.76,19.3-62.02,1.38-3.44,33.76-46.17,2.07-2.06,35.14-25.5,6.2-2.06h73.04l6.2,2.06,37.9,25.5,2.07,2.06,33.08,46.17,1.38,2.75,4.13,12.4v-90.95h17.23v350.05h-17.23v-88.89l-4.13,13.09-1.38,3.44-33.08,42.72-2.76,2.07-37.9,25.49-5.51,2.07h-73.04l-6.2-2.07-35.14-25.49-2.07-2.07-28.94-36.52-8.96-17.91h0Zm19.3,3.44l31.01,39.97,33.08,24.12h69.6l35.14-24.12,31.7-41.35,19.29-63.39v-59.95l-19.98-59.95-32.39-44.1-34.45-24.81h-68.91l-32.39,24.12-33.07,45.48-17.92,58.57v60.64l12.4,44.79,6.89,19.99h0Z"/><path class="cls-1" d="m1788.59,950.13l2.07,2.76,15.85,37.9.69,4.14v248.75h-17.23v-248.07l-15.85-36.52-26.88-30.32-33.76-18.6h-54.44l-36.52,18.6-28.94,33.08-13.09,18.6v263.23h-17.23v-238.42l-43.41,62.71-15.85-8.96,59.26-85.45v-79.93h17.23v55.13l29.63-31.7,2.76-2.06,39.97-19.99,4.83-1.38h57.19l4.82,1.38,37.21,19.99,2.75,2.06,28.94,33.08h0Z"/><path class="cls-1" d="m2116.59,1156.86l14.47,8.96-32.38,48.92-3.44,3.44-38.59,24.12-5.51,1.38h-73.04l-6.2-2.07-37.21-27.56-33.76-47.54-1.38-3.44-19.99-67.53v-57.19l.69-2.76,20.67-65.46,35.83-48.24,35.14-26.19,6.2-2.06h73.04l6.2,2.06,39.97,28.26,33.08,46.17,2.07,4.13,15.16,58.57v16.54h-250.82v46.17l17.92,60.63,32.38,46.86,33.08,24.12h69.6l35.14-24.12,31.7-46.17h-.02Zm-169.52-221.88l-32.38,44.79-16.54,53.06h230.15l-13.09-54.44-32.38-44.79-33.76-23.43h-68.91l-33.08,24.81h-.01Z"/><path class="cls-1" d="m2318.14,1116.76h21.66v76.64l24.99,61.65,36.65,53.31,42.49,29.15h82.46l39.99-29.15,39.15-56.64v-.84l21.66-74.14v-73.3l-20.82-69.14-39.99-54.15-39.15-29.99h-123.29v-258.23h247.4v20.82h-226.58v217.42h109.12l48.31,36.65,39.99,54.98,1.66,4.17,24.16,78.3v72.47l-.84,3.33-24.99,82.47-42.49,61.64-42.48,30.82-7.5,2.5h-87.47l-6.66-2.5-45.81-30.82-3.33-3.33-41.65-60.81-26.65-64.97v-78.3h.01Z"/></svg>