<?xml version="1.0" encoding="UTF-8"?><svg id="Calque_1" xmlns="http://www.w3.org/2000/svg" viewBox="0 0 4866.79 797"><defs><style>.cls-1{fill:#ffe64b;}</style></defs><path class="cls-1" d="m247.43,707.04l-91.51,89.66h-32.35l-96.13-95.21V249.49c0-12.94.46-24.64,1.39-35.13.92-10.47,3.23-19.09,6.93-25.88,3.7-6.77,9.71-12.01,18.02-15.71,8.32-3.7,19.87-5.55,34.66-5.55h145.12v132.18h-61.93v-69.32h-75.8v447.38l44.36,48.06,62.85-62.85,44.37,44.37Z"/><path class="cls-1" d="m349.1,29.5l52.69,51.77-52.69,51.77-51.77-51.77,51.77-51.77Zm31.43,137.73v629.47h-65.62V167.23h65.62Z"/><path class="cls-1" d="m554.29,366.88v429.82h-64.7V167.23h64.7v108.15l93.36-108.15h64.7v629.47h-64.7V255.96l-93.36,110.92Z"/><path class="cls-1" d="m985.01,230.08h-137.72v363.26l63.78-62.85,44.37,45.29-108.14,107.22v50.84h137.72v62.85h-201.5V167.23h201.5v62.85Zm-117.38-81.34l-35.13-38.82,77.65-80.42,48.99,52.69-91.51,66.55Z"/><path class="cls-1" d="m1046.01,796.7V260.58l109.99-112.77,78.57,79.49,75.8-79.49,109.07,109.07v539.81h-64.71V277.22l-43.44-42.52-47.14,47.14v514.85h-64.71V277.22l-42.52-42.52-46.22,47.14v514.85h-64.7Z"/><path class="cls-1" d="m1722.61,167.23v629.47h-64.7v-108.15l-93.36,108.15h-62.85V260.58c0-12.94.3-25.1.93-36.51.61-11.4,3.07-21.26,7.39-29.58,4.3-8.32,11.09-14.94,20.33-19.88,9.25-4.92,22.49-7.39,39.75-7.39h152.51Zm-64.7,62.85h-93.36v477.88l93.36-110.92V230.08Z"/><path class="cls-1" d="m2131.96,230.08h-137.72v363.26l63.78-62.85,44.36,45.29-108.14,107.22v50.84h137.72v62.85h-201.5V168.15h201.5v61.93Z"/><path class="cls-1" d="m2256.74,366.88v429.82h-64.71V167.23h64.71v108.15l93.35-108.15h64.71v629.47h-64.71V255.96l-93.35,110.92Z"/><path class="cls-1" d="m2754.94,566.54l1.85,230.16h-64.71V166.31h105.37c14.79,0,29.12,1.54,42.99,4.62,13.86,3.09,26.03,8.78,36.51,17.1,10.47,8.32,18.95,19.73,25.42,34.2,6.47,14.49,9.71,33.13,9.71,55.93v134.02l-157.14,154.37Zm1.85-88.74l88.74-88.74v-101.67c0-12.94-1.24-23.26-3.7-30.97-2.47-7.7-5.86-13.4-10.17-17.1-4.32-3.7-9.4-6.15-15.25-7.39-5.87-1.23-11.87-1.85-18.02-1.85h-41.59v247.72Z"/><path class="cls-1" d="m3038.7,167.23v566.62h122.01v62.85h-186.71V167.23h64.7Z"/><path class="cls-1" d="m3405.66,230.08h-137.73v363.26l63.78-62.85,44.37,45.29-108.15,107.22v50.84h137.73v62.85h-201.51V168.15h201.51v61.93Z"/><path class="cls-1" d="m3512.88,29.5l52.69,51.77-52.69,51.77-51.77-51.77,51.77-51.77Zm31.43,137.73v629.47h-65.62V167.23h65.62Z"/><path class="cls-1" d="m3718.07,366.88v429.82h-64.7V167.23h64.7v108.15l93.36-108.15h64.7v629.47h-64.7V255.96l-93.36,110.92Z"/><path class="cls-1" d="m4305,667.29l-51.77,51.76-52.68-51.76-15.72,129.41h-63.79l69.32-566.62h-47.14v-62.85h219.07v62.85h-47.15l72.1,566.62h-66.55l-15.72-129.41Zm-94.28-74.87l42.51,41.59,42.52-41.59-42.52-346.62-42.51,346.62Z"/><path class="cls-1" d="m4494.49,29.5l52.69,51.77-52.69,51.77-51.77-51.77,51.77-51.77Zm31.43,137.73v629.47h-65.63V167.23h65.63Z"/><path class="cls-1" d="m4785.64,689.47l-46.22-47.14-39.75,38.82v115.54h-64.71V167.23h108.15c14.78,0,28.8,1.55,42.05,4.62,13.25,3.09,24.8,8.78,34.66,17.1,9.85,8.32,17.71,19.57,23.57,33.74,5.84,14.18,8.78,32.67,8.78,55.46v251.42l-66.55,67.47,66.55,67.48v132.18h-66.55v-107.23Zm-85.96-95.2l85.96-85.04v-219.07c0-25.88-4.02-42.36-12.02-49.45-8.01-7.08-18.18-10.63-30.5-10.63h-43.44v364.19Z"/></svg>