<?xml version="1.0" encoding="UTF-8"?><svg id="Calque_1" xmlns="http://www.w3.org/2000/svg" viewBox="0 0 3177.29 1357.5"><defs><style>.cls-1{fill:#fff;}</style></defs><path class="cls-1" d="m1357.7,77.35l-206.58,1.95h-59.84l-251.15.07h.07c-7.74-.07-13.53,1.88-21.27,1.88-77.28,9.62-160.27,73.37-160.27,235.6v185.38l-4.27,379.23L322.77,5.93h-3.98v-1.95h-179.59v1.95h-5.72l5.64,14.98-5.72,1045.13c13.53,168.01-54.05,216.28-110.06,285.81l237.55,1.95h0c67.58-102.39,57.89-206.73,57.89-270.4V498.91l320.62,852.95h202.67l11.58-855.41v-46.31c0-212.44,23.15-168.01,237.48-175.76h30.9l44.57-.07,191.17-1.95h-.07V77.35Z"/><polygon class="cls-1" points="1805.59 407.37 1702.92 652.09 1598.94 405.49 1407.77 405.49 1607.04 880.59 1407.84 1355.47 1599.01 1355.47 1702.92 1109.02 1805.52 1353.59 1998.64 1353.59 1799.23 880.59 1998.72 407.37 1805.59 407.37"/><polygon class="cls-1" points="1040.99 405.64 942.51 405.64 942.51 1353.74 1077.68 1353.74 1077.68 1353.66 1353.79 1353.66 1353.79 1179.86 1145.69 1179.86 1145.69 865.18 1353.79 865.18 1353.79 691.38 1145.69 691.38 1145.69 579.37 1353.79 579.37 1353.79 405.56 1040.99 405.56 1040.99 405.64"/><path class="cls-1" d="m3025.9,784.07h0l-421.12-368.73.14-.22c-135.16-121.63,0-229.81,198.91-220.11h252.96V0h-420.98c-224.02,0-480.82,272.28-158.32,567.72h0l.51-.65,81.76,74.6-4.99,318.08c-1.88,128.94-79.38,195-157.23,196.88h-3.11c-78.51.22-156.36-64.9-156.36-196.88,0-440.3,7.74-181.55,7.74-554.19h-187.26l-5.79,554.19c0,224.02,81.11,397.75,347.53,397.75,27.21,0,52.31-2.03,75.69-5.79h383.78c241.38,0,482.77-274.16,166.13-567.64h0Zm-272.35,372.57h-42.4c20.33-57.81,28.94-124.89,28.94-196.88l1.59-152.1,141.24,128.94c148.62,162.23,48.19,220.11-129.38,220.11v-.07Z"/></svg>