<?xml version="1.0" encoding="UTF-8"?><svg id="Calque_1" xmlns="http://www.w3.org/2000/svg" viewBox="0 0 4958.35 1357.5"><defs><style>.cls-1{fill:#1370da;}</style></defs><g><path class="cls-1" d="m338.08,745.27c172.71,0,249.2,85.17,249.2,245.25,0,118.29-49.68,207.4-168.76,207.4-67.81,0-114.34-27.6-167.18-97l-90.68-119.07c-19.71-25.24-56.78-26.81-81.22,0-21.29,23.65-17.35,58.35,3.16,81.22l96.99,108.82c32.33,37.06,45.74,67.03,45.74,105.67,0,55.2-33.91,78.86-94.64,78.86-54.41,0-104.09-18.14-104.09-117.5v-339.88c0-88.32,48.1-153.77,150.62-153.77h160.87Zm-167.97,198.72l273.64,138.8c79.65,40.21,123.81-10.26,82.8-68.61l-119.86-171.91c-28.39-40.22-42.59-44.16-85.17-26.81l-145.89,59.93c-20.51,8.67-33.12,16.56-33.12,33.12,0,13.4,7.88,25.23,27.6,35.48Z"/><path class="cls-1" d="m707.93,858.03c11.82-84.37,43.36-124.59,96.99-124.59,44.95,0,95.42,29.96,95.42,89.89,0,20.51-6.31,44.95-21.3,73.34l-166.39,309.12c-13.41,24.45-22.87,45.74-22.87,61.51,0,20.51,17.35,33.91,30.76,33.91,16.56,0,39.43-17.36,79.64-48.1l72.55-55.99c29.97-22.86,57.57-32.33,81.22-32.33,52.05,0,86.75,44.95,86.75,89.9s-33.91,89.9-116.71,89.9h-156.93c-85.96,0-108.83-29.18-108.83-110.4,0-12.62.79-26.81,3.16-42.58l46.53-333.58Z"/><path class="cls-1" d="m1429.47,1160.85c44.95-.78,74.92-9.46,79.65-49.68l33.91-279.15c5.52-43.38-15.77-70.98-48.89-64.67-33.12,6.31-61.51,66.24-73.33,90.68l-95.42,195.58c-25.23,52.04-69.39,62.29-98.57,62.29-46.53,0-84.37-38.64-84.37-87.53,0-33.91,23.65-64.67,59.93-93.84l158.51-126.18c68.6-54.41,97-74.91,148.25-74.91,47.32,0,79.65,33.91,89.9,87.53l71.76,379.32c16.56,88.32-10.25,156.14-91.47,156.14-64.66,0-95.42-41.01-95.42-89.11v-41c0-43.38-22.86-48.89-50.46-25.23l-77.28,66.24c-36.27,30.75-94.63,89.11-159.29,89.11-45.74,0-97-26.03-97-100.15,0-63.09,56.78-89.11,126.18-90.69l203.45-4.73Z"/><path class="cls-1" d="m1754.35,1163.21v-212.91c0-177.43,37.06-216.86,121.44-216.86,62.3,0,97,48.89,144.31,123.02l186.9,292.56c18.93,29.97,29.96,41,44.16,41,19.71,0,29.18-8.67,29.18-26.02,0-14.2-6.31-32.34-16.56-58.36l-72.54-186.9c-19.71-50.47-18.15-75.71-18.15-94.63,0-40.22,20.51-91.47,86.75-91.47,78.07,0,101.73,75.7,93.85,148.26l-40.23,365.11c-8.67,75.71-34.7,110.4-85.95,110.4-48.1,0-72.55-33.91-128.54-111.19l-130.9-181.38c-31.55-43.38-64.66-113.55-54.41-179.01l7.1-44.95c6.3-40.21-18.14-60.73-46.53-60.73-44.16,0-70.18,33.13-70.18,78.07,0,22.08,7.09,57.57,14.19,74.92l107.25,262.6c35.48,87.54,19.71,161.66-65.46,161.66-103.31,0-105.67-78.86-105.67-193.21Z"/><path class="cls-1" d="m2585.51,828.86c-45.74-3.94-66.24,17.35-66.24,39.43s18.13,38.64,66.24,44.95l282.31,34.7c59.93,7.1,80.43,43.37,80.43,81.22,0,29.18-11.03,66.24-80.43,88.32l-307.55,97.78c-37.06,11.82-43.37,27.6-43.37,47.32,0,17.35,21.29,49.68,59.93,36.27l322.53-112.77c67.82-23.66,103.31-4.73,105.67,42.59,2.37,44.95-19.71,70.18-61.51,89.9-45.73,21.29-164.02,39.43-269.69,38.64-104.89,0-199.51-23.66-199.51-102.51,0-29.17,19.71-57.57,55.2-82.8l235-163.24c31.54-22.08,15.77-51.25-20.51-36.27l-157.72,64.66c-77.28,31.55-144.31-6.31-144.31-78.07,0-143.52,171.91-224.74,373.79-224.74,141.17,0,189.26,32.33,189.26,82.02,0,25.24-13.4,48.89-72.54,43.37l-346.98-30.75Zm92.26-145.89c-44.95-8.67-55.99-38.64-46.52-69.39,11.04-37.06,58.35-48.89,89.9-22.86l115.14,94.62c10.25,8.68,2.37,28.4-14.2,25.24l-144.32-27.6Z"/><path class="cls-1" d="m3475.8,1209.74c32.34,85.96,14.99,146.68-69.39,146.68-75.7,0-91.47-43.38-93.06-126.97l-8.67-385.62c-.79-49.68-9.47-70.18-30.76-70.18-26.81,0-34.7,26.03-34.7,60.73v34.7c0,108.82-22.86,160.87-94.62,158.5-50.48-1.58-88.32-44.95-88.32-93.84,0-109.61,86.74-188.47,229.48-188.47h269.7c82.01,0,108.03,47.32,108.03,87.53,0,90.69-116.71,136.43-189.26,55.99l-88.32-98.57c-7.88-8.68-16.56-12.62-23.66-12.62-21.29,0-29.17,18.13-13.4,63.08l126.95,369.06Z"/><path class="cls-1" d="m3834.61,828.86c-45.74-3.94-66.24,17.35-66.24,39.43s18.13,38.64,66.24,44.95l282.3,34.7c59.94,7.1,80.44,43.37,80.44,81.22,0,29.18-11.03,66.24-80.44,88.32l-307.54,97.78c-37.07,11.82-43.38,27.6-43.38,47.32,0,17.35,21.3,49.68,59.93,36.27l322.53-112.77c67.82-23.66,103.31-4.73,105.67,42.59,2.37,44.95-19.71,70.18-61.51,89.9-45.73,21.29-164.02,39.43-269.69,38.64-104.89,0-199.51-23.66-199.51-102.51,0-29.17,19.71-57.57,55.2-82.8l235.01-163.24c31.53-22.08,15.77-51.25-20.51-36.27l-157.72,64.66c-77.28,31.55-144.31-6.31-144.31-78.07,0-143.52,171.91-224.74,373.79-224.74,141.17,0,189.26,32.33,189.26,82.02,0,25.24-13.4,48.89-72.54,43.37l-346.98-30.75Z"/><path class="cls-1" d="m4922.05,925.86c0,43.37-17.35,93.84-64.66,93.84-37.85,0-61.51-32.33-61.51-65.45v-134.06c0-37.85-23.65-57.57-70.98-34.7l-276,133.27c-33.11,15.77-61.51,28.39-53.63,57.57,7.9,29.17,32.34,33.12,59.14,20.51l167.18-77.29c74.92-34.7,126.18,15.78,127.75,72.56l.8,29.96c.78,29.18,13.4,33.12,44.95,40.21l49.68,11.83c32.33,7.88,53.63,39.43,53.63,71.76,0,137.22-140.37,212.13-279.17,212.13s-271.27-58.35-271.27-200.3c0-55.99,21.3-94.62,67.82-94.62,30.75,0,77.28,29.96,34.7,93.84l-34.7,52.04c-9.47,14.2-7.1,28.39.78,33.91,12.62,8.67,29.18,7.88,55.21,2.37l339.88-73.34c33.9-7.1,41.8-22.08,39.43-38.64-2.37-17.35-12.63-24.45-37.86-29.18l-401.39-72.54c-44.95-7.88-67.03-39.43-67.03-77.28,0-109.61,142.73-220.02,323.32-220.02s253.92,100.15,253.92,191.63Z"/></g><g><path class="cls-1" d="m323.96,370.98c38.94-.68,64.9-8.2,69-43.04l29.38-241.85c4.78-37.58-13.66-61.49-42.36-56.02-28.69,5.47-53.29,57.39-63.54,78.57l-82.67,169.43c-21.86,45.09-60.12,53.97-85.4,53.97-40.31,0-73.1-33.48-73.1-75.84,0-29.38,20.5-56.02,51.92-81.3l137.32-109.31C323.96,18.45,348.55.68,392.96.68c40.99,0,69,29.38,77.88,75.84l62.17,328.62c14.35,76.52-8.88,135.27-79.25,135.27-56.02,0-82.67-35.53-82.67-77.2v-35.53c0-37.58-19.81-42.36-43.72-21.86l-66.95,57.39c-31.43,26.64-81.98,77.2-138.01,77.2-39.63,0-84.03-22.55-84.03-86.77,0-54.66,49.19-77.2,109.31-78.57l176.27-4.1Z"/><path class="cls-1" d="m648.48,108.63C658.72,35.53,686.05.68,732.51.68c38.94,0,82.67,25.96,82.67,77.88,0,17.76-5.47,38.94-18.45,63.54l-144.16,267.81c-11.61,21.18-19.81,39.63-19.81,53.29,0,17.76,15.03,29.38,26.64,29.38,14.35,0,34.16-15.03,69-41.68l62.85-48.51c25.96-19.81,49.87-28.01,70.37-28.01,45.09,0,75.15,38.94,75.15,77.88s-29.38,77.88-101.11,77.88h-135.96c-74.47,0-94.28-25.28-94.28-95.65,0-10.93.68-23.23,2.73-36.89l40.31-288.99Z"/><path class="cls-1" d="m1006.47,113.41l77.2-88.82c14.35-16.4,34.16-23.91,53.97-23.91,34.84,0,68.32,23.91,68.32,64.9,0,38.26-23.23,56.02-56.02,67.64l-75.15,25.96c-8.88,2.73-12.98,8.88-12.98,15.71,0,11.61,11.61,11.61,17.76,10.93l46.46-5.47c69-8.2,92.23,49.87,47.14,101.8l-130.49,148.94c-10.93,12.3-14.35,17.76-14.35,24.6,0,13.66,11.61,25.28,24.6,19.81l81.98-35.53c28.69-12.3,62.17-8.2,66.27,31.43,4.78,45.77-49.87,69-102.48,69-77.88,0-114.09-51.92-95.65-120.24l55.34-202.23c1.37-4.78,2.05-8.88,2.05-12.3,0-15.71-12.3-21.18-34.16-21.18h-29.38c-17.08,0-22.55-9.56-22.55-21.86,0-10.93,15.03-29.38,32.11-49.19Z"/><path class="cls-1" d="m1479.24,166.7c25.96,32.79,23.23,69-18.45,97.01l-109.99,75.15c-51.24,34.84-6.15,118.19,46.46,86.77l288.99-172.17c65.59-38.94,114.78-15.71,117.51,40.31l6.83,143.47c3.42,73.79-30.06,103.16-80.62,103.16s-90.87-52.61-45.77-121.61l73.1-112.73c14.35-21.86-2.73-37.58-17.76-37.58-12.98,0-23.23,1.37-47.82,34.16l-112.04,146.2c-52.61,69-81.3,91.55-142.79,91.55-80.62,0-155.77-87.45-155.77-260.3S1388.37.68,1543.46.68c129.81,0,215.89,42.36,237.07,114.78,19.13,64.22-74.47,104.53-117.51,47.82l-75.84-99.75c-22.55-29.38-66.95-43.72-107.95-25.96-47.82,20.5-45.09,72.42-19.81,103.85l19.81,25.28Z"/><path class="cls-1" d="m1892.57,373.03v-184.46c0-153.72,32.11-187.88,105.21-187.88,53.97,0,84.03,42.36,125.03,106.58l161.92,253.47c16.4,25.96,25.96,35.53,38.26,35.53,17.08,0,25.28-7.52,25.28-22.55,0-12.3-5.47-28.01-14.35-50.56l-62.85-161.92c-17.08-43.72-15.71-65.59-15.71-81.98,0-34.84,17.76-79.25,75.15-79.25,67.64,0,88.13,65.59,81.3,128.44l-34.84,316.32c-7.52,65.59-30.06,95.65-74.47,95.65-41.67,0-62.85-29.38-111.36-96.33l-113.41-157.14c-27.33-37.58-56.02-98.38-47.14-155.09l6.15-38.94c5.47-34.84-15.71-52.61-40.31-52.61-38.26,0-60.8,28.69-60.8,67.64,0,19.13,6.15,49.87,12.3,64.9l92.91,227.5c30.74,75.84,17.08,140.06-56.71,140.06-89.5,0-91.55-68.32-91.55-167.38Z"/><path class="cls-1" d="m2612.66,83.35c-39.63-3.42-57.39,15.03-57.39,34.16s15.71,33.48,57.39,38.94l244.59,30.06c51.92,6.15,69.69,37.58,69.69,70.37,0,25.28-9.56,57.39-69.69,76.52l-266.45,84.72c-32.11,10.25-37.58,23.91-37.58,40.99,0,15.03,18.45,43.04,51.92,31.43l279.43-97.7c58.75-20.5,89.5-4.1,91.55,36.89,2.05,38.94-17.08,60.8-53.29,77.88-39.63,18.45-142.11,34.16-233.65,33.48-90.87,0-172.85-20.5-172.85-88.82,0-25.28,17.08-49.87,47.82-71.74l203.59-141.42c27.33-19.13,13.66-44.41-17.76-31.43l-136.64,56.02c-66.95,27.33-125.03-5.47-125.03-67.64,0-124.34,148.94-194.71,323.84-194.71,122.29,0,163.97,28.01,163.97,71.05,0,21.86-11.61,42.36-62.85,37.58l-300.61-26.65Z"/><path class="cls-1" d="m3549.32,93.6c13.66-38.94,6.83-54.66-11.61-54.66-6.15,0-13.66,3.42-20.5,10.93l-76.52,85.4c-62.85,69.69-163.97,30.06-163.97-48.51,0-34.84,22.55-75.83,93.6-75.83h233.65c123.66,0,198.81,68.32,198.81,163.28,0,42.36-32.79,79.93-76.52,81.3-62.17,2.05-81.98-43.04-81.98-137.32v-30.06c0-30.06-6.83-52.61-30.06-52.61-18.45,0-25.96,17.76-26.65,60.8l-7.52,334.08c-1.37,72.42-15.03,109.99-80.62,109.99-73.1,0-88.13-52.61-60.12-127.07l109.99-319.74Z"/><path class="cls-1" d="m3968.12,83.35c-39.63-3.42-57.39,15.03-57.39,34.16s15.71,33.48,57.39,38.94l244.59,30.06c51.92,6.15,69.69,37.58,69.69,70.37,0,25.28-9.56,57.39-69.69,76.52l-266.45,84.72c-32.11,10.25-37.58,23.91-37.58,40.99,0,15.03,18.45,43.04,51.92,31.43l279.43-97.7c58.75-20.5,89.5-4.1,91.55,36.89,2.05,38.94-17.08,60.8-53.29,77.88-39.63,18.45-142.11,34.16-233.65,33.48-90.87,0-172.85-20.5-172.85-88.82,0-25.28,17.08-49.87,47.82-71.74l203.59-141.42c27.33-19.13,13.66-44.41-17.76-31.43l-136.64,56.02c-66.95,27.33-125.03-5.47-125.03-67.64,0-124.34,148.94-194.71,323.84-194.71,122.29,0,163.97,28.01,163.97,71.05,0,21.86-11.61,42.36-62.85,37.58l-300.61-26.65Z"/><path class="cls-1" d="m4910.25,167.38c0,37.58-15.03,81.3-56.02,81.3-32.79,0-53.29-28.01-53.29-56.71v-116.14c0-32.79-20.5-49.87-61.49-30.06l-239.12,115.46c-28.69,13.66-53.29,24.6-46.46,49.87,6.83,25.28,28.01,28.69,51.24,17.76l144.84-66.95c64.9-30.06,109.31,13.66,110.68,62.85l.68,25.96c.68,25.28,11.61,28.69,38.94,34.84l43.04,10.25c28.01,6.83,46.46,34.16,46.46,62.17,0,118.88-121.61,183.78-241.85,183.78s-235.02-50.56-235.02-173.53c0-48.51,18.45-81.98,58.75-81.98,26.64,0,66.95,25.96,30.06,81.3l-30.06,45.09c-8.2,12.3-6.15,24.59.68,29.38,10.93,7.52,25.28,6.83,47.82,2.05l294.46-63.54c29.38-6.15,36.21-19.13,34.16-33.48-2.05-15.03-10.93-21.18-32.79-25.28l-347.75-62.85c-38.94-6.83-58.07-34.16-58.07-66.95,0-94.96,123.66-190.61,280.11-190.61s219.99,86.77,219.99,166.02Z"/></g></svg>